M48
;Layer_Color=9474304
;FILE_FORMAT=2:5
INCH,LZ
;TYPE=PLATED
T1F00S00C0.00787
T2F00S00C0.01181
T3F00S00C0.01575
T4F00S00C0.01811
T5F00S00C0.02559
T6F00S00C0.03937
T7F00S00C0.04173
T8F00S00C0.04331
T9F00S00C0.05118
T10F00S00C0.05906
T11F00S00C0.06299
T12F00S00C0.15748
%
T01
X0319216Y0134216
X03215Y01365
X0323783Y0134216
Y0138784
X0319216
T02
X0347957Y0137531
X03515
X0355043
Y0141469
X03515
X0347957
T03
X0080512Y0043012
X0100223Y0055265
X01525Y0056
X0161
X0329Y0039
X02845Y0069
X03065Y0099
X0296Y01235
X0310892Y0137236
X0315748Y0144441
X0338Y01475
X0343867Y0147867
X0337Y0139657
X03675Y01405
Y01455
X0374Y0112
X0378Y01055
X0349Y0169
X0339Y0172559
X03345Y01755
X0313Y02115
X0284626Y0208805
X02725Y01545
Y0149
Y0143
X0240471Y015053
X0246Y0162
X02455Y010785
X0250738Y0104233
X02645Y0104
X0243Y00965
X02385
X02285Y00975
X02215Y0096
X0219Y0102
Y01095
X0228Y012
X0238Y0111
X0218Y0091
Y0082
X01995Y01005
X0198313Y0116814
X0189931Y0116569
X0181227Y0116273
X0181Y0134
X01895Y0133
X01984Y01334
X0177Y01395
X01735Y01575
X0174653Y0169
X0171Y0189
X0178Y0197
X01785Y0209
X0164236Y0213
X01545Y0215
X01585Y01965
X0163Y01995
X0155Y01925
X01545Y01845
X01395Y01915
Y01965
X0133905Y0197232
X01345Y0190441
X0126Y01985
X01225Y0202
X0121813Y0207
X0123444Y0211118
X0127676Y0212038
X0132981Y0212441
X0124Y0168
X0126Y0162298
X0115177Y0140823
X01155Y01325
Y01235
X0115163Y0118059
X01375Y01215
X01455Y01255
X01635Y01275
X02645Y0068
X0114Y0077
Y0081441
X011Y0085
X0104Y00745
X009
X0085
X0075Y0074
X00695
X00625
X00635Y00685
X0056
X0052Y00745
X00455Y00765
X00585
X0069338Y0086512
X0078Y0086
X00825
X00735Y00955
X0076Y01005
X0088Y01025
X00885Y0107
X0097559Y0109
Y0104
X01105
X011437Y0111319
X007874Y0115354
X00505Y0112
X00495Y0101
X0047Y0096762
X0041Y0091441
X0038Y0087
X0028Y0103
X00315Y0108
X0064653Y00915
X0088Y0179441
X0092441Y01945
X0099Y01935
X0102Y02015
X01035Y0208
X0107Y02125
X0087Y0198
X0079Y01945
X01105Y01675
X0114Y02175
X0096358Y0223228
X01205Y02465
X01335Y02445
X01385Y02415
X0148213Y023563
X01585Y0244
X01615Y02275
X0191929Y0239567
X01905Y02575
X0179Y0258
X01815Y0253
X0173524Y0270079
X01895Y028
X0197973Y0280027
X0198651Y0285711
X02085Y0288
X0215837Y0281663
X0212696Y0276159
X02135Y03105
X0208Y0314
X0206Y03065
X02285Y03045
X0229441Y0298
X0239207Y0290062
X0243069Y0292455
X0245799Y0296087
Y030063
Y0305173
Y0309717
Y031426
Y0318803
Y0323346
Y032789
X0254201Y0328812
Y0324269
Y0319725
Y0315182
Y0310639
Y0306095
Y0301552
Y0297009
X0254215Y0292465
X0252921Y028811
X0249487Y0285136
X0245519Y0282922
X0244488Y0267717
X02645Y02625
X0215059Y0242421
X01455Y0264
X0165Y02975
X01835Y03315
X0243668Y0340989
X0242839Y0345456
X0250365Y0351739
X0257027Y0346243
X0256666Y0341715
X02715Y0259
X0315198Y0230269
T04
X0099625Y0228583
X0103375Y0226417
T05
X01865Y019
X01915
X01965
X02015
X02065
Y0195
X02015
X01965
X01915
X01865
T06
X0243579Y0046567
X0253421
X0274658Y00465
X02845
X030161Y0069
Y0081205
X03835
Y0069
X03985Y011
X0393579Y0118524
X03825Y0139
X0377579Y0147524
X0329671Y0229705
X0324749Y0238229
T07
X0141472Y00425
X0151315
X0161158
X0171
X0192972
X0202815
X0212657
X02225
X0043657Y0118452
X0048579Y0126976
X00535Y01355
X0058421Y0144024
X007Y0164
X0074921Y0172524
X0079843Y0181048
X0084764Y0189572
X0312842Y0259952
X0307921Y0268476
X0303Y0277
X0298079Y0285524
T08
X0092Y0038
Y0048
X01035
Y0038
X01155Y00385
X01255
Y00485
X01155
X0293Y00935
Y01035
X02915Y0115
X03015
X0341Y020517
X0336Y021383
X0351Y021067
X03565Y020083
X03615Y019217
X01045Y0145
X00945
X0122Y026034
X0127Y0269
X0132Y027766
X01625Y0263071
Y0253071
X01975Y0227
Y0217
X0209
Y0227
X02205
Y0217
X027Y032633
X0275Y031767
X02855Y032417
X02805Y033283
X02915Y031433
X02965Y030567
X0346Y021933
T09
X0150315Y0288905
X0160158Y0305952
X017Y0323
X0179842Y0340048
T10
X025Y03445
T11
X024Y03345
Y03545
X026
Y03345
T12
X00705Y0031
X03705
X0221Y0343
M30
