G04*
G04 #@! TF.GenerationSoftware,Altium Limited,Altium Designer,22.1.2 (22)*
G04*
G04 Layer_Physical_Order=2*
G04 Layer_Color=36540*
%FSLAX25Y25*%
%MOIN*%
G70*
G04*
G04 #@! TF.SameCoordinates,8C121C91-0C0E-4A63-ABDB-05F36A63E408*
G04*
G04*
G04 #@! TF.FilePolarity,Positive*
G04*
G01*
G75*
%ADD14C,0.01968*%
%ADD79P,0.08630X4X345.0*%
%ADD86C,0.01000*%
%ADD90C,0.04134*%
%ADD91R,0.06299X0.06299*%
%ADD92C,0.06299*%
%ADD93R,0.06299X0.06299*%
%ADD94R,0.06260X0.06260*%
%ADD95C,0.06260*%
%ADD96P,0.08853X4X285.0*%
%ADD102P,0.08908X4X165.0*%
%ADD108R,0.06496X0.06496*%
%ADD109C,0.06496*%
%ADD111C,0.03543*%
%ADD112C,0.01181*%
G36*
X189500Y379326D02*
Y377642D01*
X189548Y376662D01*
X189931Y374739D01*
X190681Y372928D01*
X191770Y371298D01*
X192429Y370571D01*
X205071Y357929D01*
X205798Y357270D01*
X207428Y356181D01*
X209239Y355431D01*
X211162Y355048D01*
X212142Y355000D01*
X219128D01*
X219178Y354507D01*
X217400Y354080D01*
X215711Y353380D01*
X214152Y352425D01*
X212762Y351238D01*
X211575Y349848D01*
X210620Y348289D01*
X209920Y346600D01*
X209493Y344823D01*
X209350Y343000D01*
X209493Y341178D01*
X209920Y339400D01*
X210620Y337711D01*
X211575Y336152D01*
X212762Y334762D01*
X214152Y333575D01*
X215711Y332620D01*
X217400Y331920D01*
X219178Y331493D01*
X221000Y331350D01*
X222822Y331493D01*
X224600Y331920D01*
X226289Y332620D01*
X227848Y333575D01*
X229238Y334762D01*
X230425Y336152D01*
X231380Y337711D01*
X232080Y339400D01*
X232507Y341178D01*
X232650Y343000D01*
X232507Y344823D01*
X232080Y346600D01*
X231380Y348289D01*
X230425Y349848D01*
X229238Y351238D01*
X227848Y352425D01*
X226289Y353380D01*
X224600Y354080D01*
X222822Y354507D01*
X222872Y355000D01*
X230500D01*
X231447Y355047D01*
X233303Y355416D01*
X234100Y355746D01*
X234558Y355395D01*
X234441Y354500D01*
X234630Y353061D01*
X235185Y351720D01*
X236069Y350569D01*
X237220Y349685D01*
X238561Y349130D01*
X240000Y348941D01*
X241439Y349130D01*
X242780Y349685D01*
X243931Y350569D01*
X244815Y351720D01*
X245370Y353061D01*
X245559Y354500D01*
X245370Y355939D01*
X244815Y357280D01*
X243931Y358431D01*
X242780Y359315D01*
X241439Y359870D01*
X240235Y360028D01*
X240051Y360551D01*
X250071Y370571D01*
X250730Y371298D01*
X251819Y372928D01*
X252569Y374739D01*
X252952Y376662D01*
X253000Y377642D01*
Y378500D01*
X260000D01*
X293159Y320123D01*
X292941Y319708D01*
X292850Y319655D01*
X286122Y315771D01*
X290059Y308952D01*
X296739Y312809D01*
X297350Y312745D01*
X299499Y308961D01*
X299114Y308626D01*
X298485Y309109D01*
X297528Y309506D01*
X296500Y309641D01*
X295472Y309506D01*
X294514Y309109D01*
X293692Y308478D01*
X293061Y307655D01*
X292664Y306698D01*
X292529Y305670D01*
X292664Y304642D01*
X293061Y303684D01*
X293692Y302862D01*
X294514Y302231D01*
X295472Y301834D01*
X296500Y301699D01*
X297528Y301834D01*
X298485Y302231D01*
X299308Y302862D01*
X299939Y303684D01*
X300336Y304642D01*
X300471Y305670D01*
X300374Y306409D01*
X300857Y306571D01*
X347377Y224671D01*
X340622Y220771D01*
X341568Y219132D01*
X340689Y218625D01*
X340684Y218620D01*
X340678Y218618D01*
X340492Y218452D01*
X340304Y218287D01*
X340301Y218281D01*
X340296Y218277D01*
X340079Y217988D01*
X340008Y217840D01*
X339916Y217702D01*
X339898Y217611D01*
X339857Y217527D01*
X339848Y217362D01*
X339816Y217200D01*
Y216371D01*
X339829Y216307D01*
X339822Y216242D01*
X339878Y216058D01*
X339916Y215869D01*
X339952Y215815D01*
X339971Y215752D01*
X343781Y208629D01*
X343391Y208298D01*
X342986Y208609D01*
X342028Y209005D01*
X341000Y209141D01*
X339972Y209005D01*
X339015Y208609D01*
X338192Y207978D01*
X337561Y207155D01*
X337164Y206198D01*
X337029Y205170D01*
X337164Y204142D01*
X337561Y203184D01*
X338192Y202362D01*
X339015Y201731D01*
X339972Y201334D01*
X341000Y201199D01*
X342028Y201334D01*
X342986Y201731D01*
X343808Y202362D01*
X344439Y203184D01*
X344836Y204142D01*
X344971Y205170D01*
X344941Y205400D01*
X345425Y205556D01*
X354258Y189039D01*
X354371Y188901D01*
X354466Y188751D01*
X354984Y188209D01*
X355067Y188151D01*
X355134Y188075D01*
X355275Y188005D01*
X355403Y187915D01*
X355502Y187893D01*
X355593Y187848D01*
X355750Y187838D01*
X355903Y187804D01*
X356003Y187821D01*
X356104Y187815D01*
X356253Y187865D01*
X356407Y187892D01*
X356493Y187947D01*
X356589Y187979D01*
X358677Y189185D01*
X360059Y186792D01*
X366404Y190455D01*
X366887Y190324D01*
X414500Y106500D01*
Y96142D01*
Y95157D01*
X414116Y93225D01*
X413362Y91405D01*
X412267Y89767D01*
X411571Y89071D01*
X411571D01*
X411571Y89071D01*
X390929Y68429D01*
X390270Y67702D01*
X389181Y66072D01*
X388431Y64261D01*
X388048Y62338D01*
X388000Y61358D01*
Y26500D01*
X378929Y17429D01*
X378233Y16733D01*
X376595Y15638D01*
X374775Y14884D01*
X372843Y14500D01*
X366157D01*
X364225Y14884D01*
X362405Y15638D01*
X360768Y16733D01*
X360071Y17429D01*
X356500Y21000D01*
X355906Y21594D01*
X354971Y22992D01*
X354328Y24546D01*
X354000Y26195D01*
Y31000D01*
X351500Y33500D01*
X192762D01*
X192555Y34000D01*
X194250Y35695D01*
X194641Y36281D01*
X194779Y36972D01*
Y37859D01*
X194793Y38021D01*
X194831Y38247D01*
X194876Y38416D01*
X194921Y38526D01*
X194952Y38576D01*
X195016Y38583D01*
X196890D01*
Y46417D01*
X194950D01*
X194922Y46463D01*
X194877Y46575D01*
X194831Y46746D01*
X194793Y46974D01*
X194779Y47138D01*
Y48362D01*
X194806Y48500D01*
Y54000D01*
X194669Y54691D01*
X194277Y55277D01*
X187806Y61748D01*
Y92752D01*
X194235Y99181D01*
X194697Y98989D01*
Y97500D01*
X194697Y97500D01*
X194758Y97193D01*
X194932Y96932D01*
X194932Y96932D01*
X196932Y94932D01*
X197193Y94758D01*
X197500Y94697D01*
X214500D01*
X214500Y94697D01*
X214807Y94758D01*
X215068Y94932D01*
X219638Y99503D01*
X219668Y99507D01*
X220112Y99691D01*
X220524Y99405D01*
X220555Y99357D01*
X220547Y99317D01*
Y98992D01*
X220538Y98871D01*
X220515Y98694D01*
X220486Y98550D01*
X220454Y98442D01*
X220424Y98369D01*
X220403Y98332D01*
X220400Y98329D01*
X220360Y98305D01*
X220344Y98291D01*
X220209Y98235D01*
X219675Y97825D01*
X219265Y97291D01*
X219007Y96668D01*
X218919Y96000D01*
X219007Y95332D01*
X219265Y94709D01*
X219675Y94175D01*
X220209Y93765D01*
X220832Y93507D01*
X221500Y93419D01*
X222168Y93507D01*
X222791Y93765D01*
X223325Y94175D01*
X223735Y94709D01*
X223993Y95332D01*
X224081Y96000D01*
X223993Y96668D01*
X223735Y97291D01*
X223637Y97418D01*
X223629Y97443D01*
X223620Y97453D01*
X223616Y97465D01*
X223566Y97544D01*
X223536Y97608D01*
X223500Y97706D01*
X223464Y97836D01*
X223431Y97995D01*
X223404Y98169D01*
X223362Y98740D01*
X223915Y99292D01*
X225588D01*
X226125Y99399D01*
X226581Y99704D01*
X228973Y102095D01*
X234500D01*
X235038Y102202D01*
X235493Y102506D01*
X238993Y106007D01*
X239298Y106462D01*
X239405Y107000D01*
Y107902D01*
X239416Y108061D01*
X239443Y108278D01*
X239479Y108472D01*
X239523Y108642D01*
X239573Y108788D01*
X239627Y108911D01*
X239684Y109012D01*
X239743Y109094D01*
X239796Y109152D01*
X239825Y109175D01*
X239847Y109204D01*
X239906Y109257D01*
X239988Y109316D01*
X240090Y109373D01*
X240212Y109427D01*
X240358Y109477D01*
X240528Y109521D01*
X240711Y109555D01*
X241128Y109595D01*
X243048D01*
X243113Y109462D01*
X243246Y109095D01*
X243007Y108518D01*
X242919Y107850D01*
X243007Y107182D01*
X243265Y106560D01*
X243675Y106025D01*
X244209Y105615D01*
X244832Y105357D01*
X245500Y105269D01*
X246168Y105357D01*
X246791Y105615D01*
X247325Y106025D01*
X247735Y106560D01*
X247993Y107182D01*
X248081Y107850D01*
X247993Y108518D01*
X247754Y109095D01*
X247887Y109462D01*
X247952Y109595D01*
X261418D01*
X263095Y107918D01*
Y107098D01*
X263084Y106939D01*
X263057Y106722D01*
X263021Y106528D01*
X262977Y106359D01*
X262927Y106212D01*
X262873Y106089D01*
X262816Y105988D01*
X262757Y105906D01*
X262704Y105848D01*
X262675Y105825D01*
X262265Y105291D01*
X262007Y104668D01*
X261919Y104000D01*
X262007Y103332D01*
X262265Y102709D01*
X262675Y102175D01*
X263209Y101765D01*
X263832Y101507D01*
X264500Y101419D01*
X265168Y101507D01*
X265791Y101765D01*
X266325Y102175D01*
X266735Y102709D01*
X266993Y103332D01*
X267081Y104000D01*
X266993Y104668D01*
X266735Y105291D01*
X266325Y105825D01*
X266296Y105848D01*
X266243Y105906D01*
X266184Y105988D01*
X266127Y106089D01*
X266073Y106212D01*
X266023Y106359D01*
X265979Y106528D01*
X265945Y106711D01*
X265905Y107128D01*
Y108500D01*
X265798Y109038D01*
X265493Y109494D01*
X262993Y111994D01*
X262538Y112298D01*
X262000Y112405D01*
X241098D01*
X240939Y112416D01*
X240722Y112443D01*
X240528Y112479D01*
X240358Y112523D01*
X240268Y112554D01*
X240194Y112697D01*
X240498Y113197D01*
X268167D01*
X284432Y96932D01*
X284693Y96758D01*
X285000Y96697D01*
X289943D01*
X290107Y96197D01*
X289561Y95486D01*
X289164Y94528D01*
X289029Y93500D01*
X289164Y92472D01*
X289561Y91514D01*
X290192Y90692D01*
X291015Y90061D01*
X291972Y89664D01*
X293000Y89529D01*
X294028Y89664D01*
X294986Y90061D01*
X295808Y90692D01*
X296439Y91514D01*
X296836Y92472D01*
X296971Y93500D01*
X296836Y94528D01*
X296439Y95486D01*
X295893Y96197D01*
X296058Y96697D01*
X297500D01*
X297807Y96758D01*
X298068Y96932D01*
X301068Y99932D01*
X301242Y100193D01*
X301303Y100500D01*
Y106000D01*
X301303Y106000D01*
X301242Y106307D01*
X301068Y106568D01*
X301068Y106568D01*
X299068Y108568D01*
X298807Y108742D01*
X298500Y108803D01*
X286701D01*
X286568Y109002D01*
X273002Y122568D01*
X272742Y122742D01*
X272434Y122803D01*
X232000D01*
X231693Y122742D01*
X231432Y122568D01*
X230469Y121604D01*
X229970Y121637D01*
X229825Y121825D01*
X229291Y122235D01*
X228668Y122493D01*
X228000Y122581D01*
X227332Y122493D01*
X226709Y122235D01*
X226175Y121825D01*
X225765Y121291D01*
X225507Y120668D01*
X225419Y120000D01*
X225507Y119332D01*
X225765Y118709D01*
X226175Y118175D01*
X226363Y118030D01*
X226396Y117531D01*
X223668Y114803D01*
X210511D01*
X210319Y115265D01*
X217277Y122223D01*
X217669Y122809D01*
X217806Y123500D01*
Y154252D01*
X223748Y160194D01*
X243540D01*
X243609Y160191D01*
X244017Y160154D01*
X244151Y160134D01*
X244247Y160113D01*
X244261Y160109D01*
X244709Y159765D01*
X245332Y159507D01*
X246000Y159419D01*
X246668Y159507D01*
X247291Y159765D01*
X247825Y160175D01*
X248235Y160709D01*
X248493Y161332D01*
X248581Y162000D01*
X248493Y162668D01*
X248235Y163291D01*
X247825Y163825D01*
X247291Y164235D01*
X246668Y164493D01*
X246000Y164581D01*
X245332Y164493D01*
X244709Y164235D01*
X244261Y163891D01*
X244247Y163887D01*
X244182Y163873D01*
X243283Y163806D01*
X223000D01*
X222309Y163669D01*
X221723Y163277D01*
X214723Y156277D01*
X214331Y155691D01*
X214194Y155000D01*
Y124248D01*
X184723Y94777D01*
X184331Y94191D01*
X184194Y93500D01*
Y61000D01*
X184331Y60309D01*
X184723Y59723D01*
X191194Y53252D01*
Y48611D01*
X191166Y48472D01*
Y47138D01*
X191152Y46974D01*
X191114Y46746D01*
X191068Y46575D01*
X191023Y46463D01*
X190995Y46417D01*
X189055D01*
Y38583D01*
X190929D01*
X190993Y38576D01*
X191024Y38526D01*
X191069Y38416D01*
X191114Y38247D01*
X191152Y38021D01*
X191166Y37859D01*
Y37721D01*
X190252Y36806D01*
X143901D01*
X143279Y37429D01*
Y37859D01*
X143293Y38021D01*
X143331Y38247D01*
X143376Y38416D01*
X143421Y38526D01*
X143452Y38576D01*
X143516Y38583D01*
X145390D01*
Y46417D01*
X137555D01*
Y38583D01*
X139429D01*
X139493Y38576D01*
X139523Y38526D01*
X139569Y38416D01*
X139614Y38247D01*
X139652Y38021D01*
X139666Y37859D01*
Y36681D01*
X139804Y35989D01*
X140195Y35403D01*
X141599Y34000D01*
X141391Y33500D01*
X120789D01*
X120597Y33962D01*
X121068Y34432D01*
X121242Y34693D01*
X121303Y35000D01*
Y36781D01*
X121803Y36881D01*
X121975Y36465D01*
X122622Y35622D01*
X123465Y34975D01*
X124446Y34568D01*
X125500Y34430D01*
X126553Y34568D01*
X127535Y34975D01*
X128378Y35622D01*
X129025Y36465D01*
X129432Y37446D01*
X129570Y38500D01*
X129432Y39553D01*
X129025Y40535D01*
X128378Y41378D01*
X127535Y42025D01*
X126553Y42432D01*
X125500Y42570D01*
X124446Y42432D01*
X123465Y42025D01*
X122622Y41378D01*
X121975Y40535D01*
X121803Y40119D01*
X121303Y40219D01*
Y43668D01*
X122973Y45337D01*
X122989Y45340D01*
X123465Y44975D01*
X124446Y44568D01*
X125500Y44430D01*
X126553Y44568D01*
X127535Y44975D01*
X128378Y45622D01*
X129025Y46465D01*
X129432Y47447D01*
X129570Y48500D01*
X129528Y48821D01*
X129858Y49197D01*
X165500D01*
X165807Y49258D01*
X166068Y49432D01*
X167568Y50932D01*
X167742Y51193D01*
X167803Y51500D01*
Y58500D01*
X167803Y58500D01*
X167742Y58807D01*
X167568Y59068D01*
X167568Y59068D01*
X165568Y61068D01*
X165307Y61242D01*
X165000Y61303D01*
X126332D01*
X121303Y66333D01*
Y83500D01*
X121242Y83807D01*
X121068Y84068D01*
X112303Y92833D01*
Y95667D01*
X121068Y104432D01*
X121242Y104693D01*
X121303Y105000D01*
Y144000D01*
X121303Y144000D01*
X121242Y144307D01*
X121068Y144568D01*
X113068Y152568D01*
X112807Y152742D01*
X112500Y152803D01*
X102000D01*
X101693Y152742D01*
X101432Y152568D01*
X101432Y152568D01*
X98932Y150068D01*
X98758Y149807D01*
X98697Y149500D01*
Y146462D01*
X98197Y146362D01*
X97939Y146985D01*
X97308Y147808D01*
X96486Y148439D01*
X95528Y148836D01*
X94500Y148971D01*
X93472Y148836D01*
X92514Y148439D01*
X91692Y147808D01*
X91061Y146985D01*
X90664Y146028D01*
X90529Y145000D01*
X90664Y143972D01*
X91061Y143015D01*
X91692Y142192D01*
X92514Y141561D01*
X93472Y141164D01*
X94500Y141029D01*
X95528Y141164D01*
X96486Y141561D01*
X97308Y142192D01*
X97939Y143015D01*
X98197Y143638D01*
X98697Y143538D01*
Y113832D01*
X97411Y112546D01*
X97338Y112437D01*
X97258Y112333D01*
X97251Y112308D01*
X97237Y112285D01*
X97211Y112157D01*
X97177Y112031D01*
X97176Y111982D01*
X97175Y111978D01*
X96891Y111493D01*
X96268Y111235D01*
X95734Y110825D01*
X95324Y110291D01*
X95066Y109668D01*
X94581Y109384D01*
X94577Y109383D01*
X94528Y109382D01*
X94402Y109348D01*
X94274Y109323D01*
X94251Y109308D01*
X94226Y109301D01*
X94122Y109221D01*
X94013Y109149D01*
X93167Y108303D01*
X91395D01*
X91368Y108298D01*
X91342Y108301D01*
X91215Y108267D01*
X91087Y108242D01*
X90735Y108291D01*
X90325Y108825D01*
X89791Y109235D01*
X89168Y109493D01*
X88500Y109581D01*
X87832Y109493D01*
X87209Y109235D01*
X86675Y108825D01*
X86405Y108474D01*
X86026Y108257D01*
X85913Y108242D01*
X85785Y108267D01*
X85658Y108301D01*
X85632Y108298D01*
X85606Y108303D01*
X75000D01*
X74693Y108242D01*
X74432Y108068D01*
X72932Y106568D01*
X72758Y106307D01*
X72697Y106000D01*
Y98081D01*
X72718Y97978D01*
X72720Y97947D01*
X72209Y97735D01*
X71675Y97325D01*
X71265Y96791D01*
X71007Y96168D01*
X70919Y95500D01*
X71007Y94832D01*
X71265Y94209D01*
X71675Y93675D01*
X72209Y93265D01*
X72720Y93053D01*
X72718Y93022D01*
X72697Y92919D01*
Y85000D01*
X72758Y84693D01*
X72932Y84432D01*
X72932Y84432D01*
X75058Y82306D01*
X74851Y81806D01*
X65748D01*
X56806Y90748D01*
Y117752D01*
X60777Y121723D01*
X61169Y122309D01*
X61306Y123000D01*
Y129500D01*
X61169Y130191D01*
X60777Y130777D01*
X58674Y132880D01*
X58450Y133140D01*
X58196Y133471D01*
X57981Y133791D01*
X57803Y134099D01*
X57663Y134396D01*
X57558Y134679D01*
X57486Y134950D01*
X57446Y135210D01*
X57437Y135393D01*
X57451Y135500D01*
X57316Y136523D01*
X56922Y137476D01*
X56294Y138294D01*
X55476Y138922D01*
X54523Y139316D01*
X53500Y139451D01*
X52477Y139316D01*
X51524Y138922D01*
X50706Y138294D01*
X50078Y137476D01*
X49683Y136523D01*
X49549Y135500D01*
X49683Y134477D01*
X50078Y133524D01*
X50706Y132706D01*
X51524Y132078D01*
X52477Y131684D01*
X53500Y131549D01*
X53607Y131563D01*
X53790Y131554D01*
X54050Y131514D01*
X54321Y131442D01*
X54604Y131337D01*
X54900Y131197D01*
X55209Y131019D01*
X55520Y130810D01*
X56146Y130299D01*
X57694Y128752D01*
Y123748D01*
X53723Y119777D01*
X53331Y119191D01*
X53194Y118500D01*
Y113486D01*
X52881Y113352D01*
X52694Y113345D01*
X52325Y113825D01*
X51791Y114235D01*
X51168Y114493D01*
X50500Y114581D01*
X49832Y114493D01*
X49209Y114235D01*
X48675Y113825D01*
X48265Y113291D01*
X48009Y112673D01*
X48004Y112663D01*
X47500Y112303D01*
X30000D01*
X29693Y112242D01*
X29344Y112610D01*
X29298Y112753D01*
X75960Y194151D01*
X76478Y194049D01*
X76507Y193832D01*
X76765Y193209D01*
X77175Y192675D01*
X77709Y192265D01*
X78332Y192007D01*
X79000Y191919D01*
X79668Y192007D01*
X80291Y192265D01*
X80825Y192675D01*
X81235Y193209D01*
X81493Y193832D01*
X81581Y194500D01*
X81493Y195168D01*
X81235Y195791D01*
X80825Y196325D01*
X80291Y196735D01*
X79668Y196993D01*
X79000Y197081D01*
X78332Y196993D01*
X78114Y196903D01*
X77765Y197300D01*
X139519Y305024D01*
X181302Y377395D01*
X181560Y377794D01*
X181560Y377794D01*
X181770Y378300D01*
X182551Y379319D01*
X183439Y380000D01*
X188622D01*
X189500Y379326D01*
D02*
G37*
G36*
X343427Y217535D02*
X343371Y217613D01*
X343302Y217671D01*
X343221Y217711D01*
X343127Y217731D01*
X343021Y217734D01*
X342902Y217717D01*
X342770Y217681D01*
X342626Y217627D01*
X342470Y217554D01*
X342301Y217462D01*
X341801Y218328D01*
X341965Y218429D01*
X342106Y218528D01*
X342225Y218625D01*
X342322Y218721D01*
X342395Y218816D01*
X342447Y218909D01*
X342476Y219001D01*
X342482Y219091D01*
X342466Y219180D01*
X342427Y219267D01*
X343427Y217535D01*
D02*
G37*
G36*
X351441Y217516D02*
X353095Y214605D01*
X352745Y214208D01*
X352028Y214506D01*
X351000Y214641D01*
X349972Y214506D01*
X349014Y214109D01*
X348192Y213478D01*
X347561Y212655D01*
X347164Y211698D01*
X347029Y210670D01*
X347164Y209642D01*
X347561Y208684D01*
X348192Y207862D01*
X349014Y207231D01*
X349972Y206834D01*
X351000Y206699D01*
X352028Y206834D01*
X352986Y207231D01*
X353808Y207862D01*
X354439Y208684D01*
X354836Y209642D01*
X354930Y210361D01*
X355448Y210462D01*
X358732Y204681D01*
X358708Y204641D01*
X358362Y204320D01*
X357528Y204666D01*
X356500Y204801D01*
X355472Y204666D01*
X354515Y204269D01*
X353692Y203638D01*
X353061Y202816D01*
X352664Y201858D01*
X352529Y200830D01*
X352664Y199802D01*
X353061Y198845D01*
X353692Y198022D01*
X354515Y197391D01*
X355472Y196994D01*
X356500Y196859D01*
X357528Y196994D01*
X358486Y197391D01*
X359308Y198022D01*
X359939Y198845D01*
X360336Y199802D01*
X360447Y200649D01*
X360965Y200750D01*
X362822Y197479D01*
X356122Y193611D01*
X357365Y191458D01*
X356588Y191010D01*
X356107Y191147D01*
X343024Y215610D01*
X343461Y215853D01*
X344559Y213952D01*
X350959Y217647D01*
X351441Y217516D01*
D02*
G37*
G36*
X359224Y189861D02*
X359168Y189938D01*
X359099Y189997D01*
X359017Y190036D01*
X358924Y190057D01*
X358817Y190059D01*
X358698Y190043D01*
X358567Y190007D01*
X358423Y189953D01*
X358266Y189880D01*
X358097Y189788D01*
X357597Y190654D01*
X357761Y190755D01*
X357903Y190854D01*
X358022Y190951D01*
X358118Y191047D01*
X358192Y191142D01*
X358243Y191235D01*
X358272Y191327D01*
X358279Y191417D01*
X358262Y191506D01*
X358224Y191593D01*
X359224Y189861D01*
D02*
G37*
G36*
X244735Y160760D02*
X244670Y160809D01*
X244575Y160852D01*
X244451Y160890D01*
X244298Y160924D01*
X244114Y160952D01*
X243659Y160993D01*
X243086Y161013D01*
X242755Y161016D01*
Y162984D01*
X243086Y162987D01*
X244298Y163076D01*
X244451Y163110D01*
X244575Y163148D01*
X244670Y163191D01*
X244735Y163240D01*
Y160760D01*
D02*
G37*
G36*
X56646Y135129D02*
X56700Y134784D01*
X56792Y134436D01*
X56923Y134084D01*
X57091Y133727D01*
X57299Y133366D01*
X57544Y133001D01*
X57828Y132632D01*
X58150Y132259D01*
X58510Y131882D01*
X57118Y130490D01*
X56741Y130850D01*
X55998Y131456D01*
X55634Y131701D01*
X55273Y131909D01*
X54916Y132078D01*
X54564Y132208D01*
X54215Y132300D01*
X53871Y132354D01*
X53531Y132370D01*
X56630Y135469D01*
X56646Y135129D01*
D02*
G37*
G36*
X286000Y108434D02*
Y108000D01*
X298500D01*
X300500Y106000D01*
Y100500D01*
X297500Y97500D01*
X285000D01*
X268500Y114000D01*
X235500D01*
X226250Y104750D01*
X223750D01*
X214500Y95500D01*
X197500D01*
X195500Y97500D01*
Y100000D01*
X209500Y114000D01*
X224000D01*
X227486Y117487D01*
X228000Y117419D01*
X228668Y117507D01*
X229291Y117765D01*
X229825Y118175D01*
X230235Y118709D01*
X230493Y119332D01*
X230581Y120000D01*
X230514Y120513D01*
X232000Y122000D01*
X272434D01*
X286000Y108434D01*
D02*
G37*
G36*
X239402Y112117D02*
X239556Y112006D01*
X239729Y111909D01*
X239919Y111824D01*
X240128Y111753D01*
X240354Y111695D01*
X240599Y111649D01*
X240862Y111617D01*
X241143Y111597D01*
X241442Y111591D01*
Y110409D01*
X241143Y110403D01*
X240599Y110351D01*
X240354Y110306D01*
X240128Y110247D01*
X239919Y110176D01*
X239729Y110091D01*
X239556Y109994D01*
X239402Y109883D01*
X239265Y109760D01*
Y112240D01*
X239402Y112117D01*
D02*
G37*
G36*
X239117Y109598D02*
X239006Y109444D01*
X238909Y109271D01*
X238824Y109081D01*
X238753Y108872D01*
X238695Y108645D01*
X238649Y108401D01*
X238616Y108138D01*
X238597Y107857D01*
X238591Y107558D01*
X237409D01*
X237403Y107857D01*
X237351Y108401D01*
X237305Y108645D01*
X237247Y108872D01*
X237176Y109081D01*
X237091Y109271D01*
X236994Y109444D01*
X236883Y109598D01*
X236760Y109735D01*
X239240D01*
X239117Y109598D01*
D02*
G37*
G36*
X265097Y107143D02*
X265149Y106599D01*
X265195Y106354D01*
X265253Y106128D01*
X265324Y105919D01*
X265409Y105729D01*
X265506Y105556D01*
X265617Y105402D01*
X265740Y105265D01*
X263260D01*
X263383Y105402D01*
X263494Y105556D01*
X263591Y105729D01*
X263676Y105919D01*
X263747Y106128D01*
X263806Y106354D01*
X263851Y106599D01*
X263883Y106862D01*
X263903Y107143D01*
X263910Y107442D01*
X265090D01*
X265097Y107143D01*
D02*
G37*
G36*
X235555Y112838D02*
X235765Y112291D01*
X235760Y112280D01*
X235507Y111668D01*
X235419Y111000D01*
X235507Y110332D01*
X235765Y109709D01*
X236175Y109175D01*
X236204Y109152D01*
X236257Y109094D01*
X236316Y109012D01*
X236373Y108911D01*
X236427Y108788D01*
X236477Y108642D01*
X236521Y108472D01*
X236555Y108289D01*
X236595Y107872D01*
Y107582D01*
X233918Y104905D01*
X228391D01*
X228212Y104869D01*
X227966Y105330D01*
X235488Y112853D01*
X235555Y112838D01*
D02*
G37*
G36*
X120500Y144000D02*
Y105000D01*
X111500Y96000D01*
Y92500D01*
X120500Y83500D01*
Y66000D01*
X126000Y60500D01*
X165000D01*
X167000Y58500D01*
Y51500D01*
X165500Y50000D01*
X129247D01*
X129025Y50535D01*
X128378Y51378D01*
X127535Y52025D01*
X126553Y52432D01*
X125500Y52570D01*
X124446Y52432D01*
X123465Y52025D01*
X122622Y51378D01*
X121975Y50535D01*
X121568Y49553D01*
X121430Y48500D01*
X121568Y47447D01*
X121975Y46465D01*
X122405Y45905D01*
X120500Y44000D01*
Y35000D01*
X119000Y33500D01*
X112000D01*
X110500Y35000D01*
Y74500D01*
X102500Y82500D01*
X76000D01*
X73500Y85000D01*
Y92919D01*
X74168Y93007D01*
X74791Y93265D01*
X75325Y93675D01*
X75735Y94209D01*
X75993Y94832D01*
X76081Y95500D01*
X75993Y96168D01*
X75735Y96791D01*
X75325Y97325D01*
X74791Y97735D01*
X74168Y97993D01*
X73500Y98081D01*
Y106000D01*
X75000Y107500D01*
X85606D01*
X85935Y107124D01*
X85919Y107000D01*
X86007Y106332D01*
X86265Y105709D01*
X86624Y105241D01*
X86654Y105066D01*
X86568Y104627D01*
X86175Y104325D01*
X85765Y103791D01*
X85507Y103168D01*
X85419Y102500D01*
X85507Y101832D01*
X85765Y101209D01*
X86175Y100675D01*
X86709Y100265D01*
X87332Y100007D01*
X88000Y99919D01*
X88668Y100007D01*
X89291Y100265D01*
X89825Y100675D01*
X90235Y101209D01*
X90493Y101832D01*
X90581Y102500D01*
X90493Y103168D01*
X90235Y103791D01*
X89876Y104259D01*
X89846Y104434D01*
X89932Y104873D01*
X90325Y105175D01*
X90735Y105709D01*
X90993Y106332D01*
X91081Y107000D01*
X91065Y107124D01*
X91395Y107500D01*
X93500D01*
X94581Y108581D01*
X95054Y108420D01*
X95066Y108332D01*
X95324Y107709D01*
X95734Y107175D01*
X96268Y106765D01*
Y106235D01*
X95734Y105825D01*
X95324Y105291D01*
X95066Y104668D01*
X94978Y104000D01*
X95066Y103332D01*
X95324Y102709D01*
X95734Y102175D01*
X96268Y101765D01*
X96891Y101507D01*
X97559Y101419D01*
X98227Y101507D01*
X98850Y101765D01*
X99384Y102175D01*
X99794Y102709D01*
X100052Y103332D01*
X100140Y104000D01*
X100052Y104668D01*
X99794Y105291D01*
X99384Y105825D01*
X98850Y106235D01*
Y106765D01*
X99384Y107175D01*
X99794Y107709D01*
X100052Y108332D01*
X100140Y109000D01*
X100052Y109668D01*
X99794Y110291D01*
X99384Y110825D01*
X98850Y111235D01*
X98227Y111493D01*
X98139Y111505D01*
X97978Y111978D01*
X99500Y113500D01*
Y149500D01*
X102000Y152000D01*
X112500D01*
X120500Y144000D01*
D02*
G37*
G36*
X48246Y110754D02*
X48265Y110709D01*
X48675Y110175D01*
X49209Y109765D01*
X49254Y109746D01*
X50000Y109000D01*
Y97411D01*
X49500Y97379D01*
X49493Y97430D01*
X49235Y98053D01*
X48825Y98588D01*
X48291Y98998D01*
X47668Y99256D01*
X47000Y99344D01*
X46332Y99256D01*
X45709Y98998D01*
X45175Y98588D01*
X44765Y98053D01*
X44507Y97430D01*
X44419Y96762D01*
X44507Y96094D01*
X44765Y95472D01*
X45175Y94937D01*
X45709Y94527D01*
X46332Y94269D01*
X47000Y94181D01*
X47668Y94269D01*
X48291Y94527D01*
X48825Y94937D01*
X49235Y95472D01*
X49493Y96094D01*
X49500Y96146D01*
X50000Y96113D01*
Y92500D01*
X60250Y81500D01*
X60945D01*
X63723Y78723D01*
X64309Y78331D01*
X65000Y78194D01*
X84306D01*
X86500Y76000D01*
Y62000D01*
X80500Y56000D01*
Y53641D01*
X79234Y52376D01*
X78843Y51790D01*
X78705Y51098D01*
Y50995D01*
X78607Y50500D01*
Y45336D01*
X78607Y45321D01*
X78574Y44911D01*
X78555Y44771D01*
X78536Y44670D01*
X78523Y44624D01*
X78276Y44302D01*
X78019Y43680D01*
X77931Y43012D01*
X78019Y42344D01*
X78276Y41721D01*
X78687Y41187D01*
X79221Y40777D01*
X79825Y40526D01*
X80613Y39832D01*
X83723Y36723D01*
X84309Y36331D01*
X85000Y36194D01*
X87343D01*
X87506Y36179D01*
X87734Y36141D01*
X87905Y36096D01*
X88017Y36050D01*
X88063Y36022D01*
Y34063D01*
X95937D01*
Y38000D01*
X96000D01*
X97500Y39500D01*
Y43000D01*
X98500Y44000D01*
X107500D01*
X109500Y42000D01*
Y34500D01*
X108003Y33004D01*
X91350D01*
X91109Y33051D01*
X90725Y32975D01*
X90399Y32758D01*
X90227Y32500D01*
X90000D01*
X88000Y30500D01*
Y26000D01*
X76500Y14500D01*
X68000D01*
X65500Y17000D01*
X62000D01*
X56500Y22500D01*
Y28500D01*
X53000Y32000D01*
Y67000D01*
X42000Y78000D01*
X39000Y81000D01*
X25679Y94321D01*
X25500Y95376D01*
Y101233D01*
X26000Y101403D01*
X26175Y101175D01*
X26709Y100765D01*
X27332Y100507D01*
X28000Y100419D01*
X28668Y100507D01*
X29291Y100765D01*
X29825Y101175D01*
X30235Y101709D01*
X30493Y102332D01*
X30581Y103000D01*
X30493Y103668D01*
X30235Y104291D01*
X29825Y104825D01*
X29291Y105235D01*
X28668Y105493D01*
X28000Y105581D01*
X27332Y105493D01*
X26709Y105235D01*
X26175Y104825D01*
X26050Y104662D01*
X25577Y104868D01*
X25698Y105577D01*
X26354Y107854D01*
X30000Y111500D01*
X47500D01*
X48246Y110754D01*
D02*
G37*
G36*
X222543Y99204D02*
X222547Y98890D01*
X222605Y98079D01*
X222641Y97851D01*
X222684Y97646D01*
X222735Y97461D01*
X222794Y97299D01*
X222861Y97158D01*
X222935Y97039D01*
X220764Y97612D01*
X220878Y97678D01*
X220979Y97767D01*
X221069Y97880D01*
X221146Y98015D01*
X221212Y98174D01*
X221266Y98356D01*
X221308Y98562D01*
X221338Y98790D01*
X221356Y99042D01*
X221361Y99317D01*
X222543Y99204D01*
D02*
G37*
G36*
X52881Y110648D02*
X53194Y110514D01*
Y90933D01*
X52728Y90750D01*
X50803Y92816D01*
Y96113D01*
X50777Y96242D01*
X50760Y96371D01*
X50747Y96394D01*
X50742Y96421D01*
X50669Y96529D01*
X50604Y96643D01*
X50604Y96768D01*
X50742Y97104D01*
X50747Y97130D01*
X50760Y97153D01*
X50777Y97283D01*
X50803Y97411D01*
Y98774D01*
X51325Y99175D01*
X51735Y99709D01*
X51993Y100332D01*
X52081Y101000D01*
X51993Y101668D01*
X51735Y102291D01*
X51325Y102825D01*
X50803Y103226D01*
Y109000D01*
X51163Y109504D01*
X51173Y109509D01*
X51791Y109765D01*
X52325Y110175D01*
X52694Y110655D01*
X52881Y110648D01*
D02*
G37*
G36*
X94194Y76752D02*
Y67335D01*
X81765Y54906D01*
X81303Y55097D01*
Y55667D01*
X87068Y61432D01*
X87242Y61693D01*
X87303Y62000D01*
Y73018D01*
X87635Y73156D01*
X87803Y73160D01*
X88175Y72675D01*
X88709Y72265D01*
X89332Y72007D01*
X90000Y71919D01*
X90668Y72007D01*
X91291Y72265D01*
X91825Y72675D01*
X92235Y73209D01*
X92493Y73832D01*
X92581Y74500D01*
X92493Y75168D01*
X92235Y75791D01*
X91825Y76325D01*
X91291Y76735D01*
X90668Y76993D01*
X90000Y77081D01*
X89332Y76993D01*
X88709Y76735D01*
X88175Y76325D01*
X87803Y75840D01*
X87752Y75841D01*
X87303Y76000D01*
X87242Y76307D01*
X87068Y76568D01*
X87068Y76568D01*
X85904Y77732D01*
X86095Y78194D01*
X92752D01*
X94194Y76752D01*
D02*
G37*
G36*
X193966Y47210D02*
X193996Y46873D01*
X194045Y46576D01*
X194114Y46319D01*
X194203Y46101D01*
X194311Y45923D01*
X194439Y45784D01*
X194587Y45685D01*
X194754Y45626D01*
X194941Y45606D01*
X191004D01*
X191191Y45626D01*
X191358Y45685D01*
X191506Y45784D01*
X191634Y45923D01*
X191742Y46101D01*
X191831Y46319D01*
X191900Y46576D01*
X191949Y46873D01*
X191978Y47210D01*
X191988Y47586D01*
X193957D01*
X193966Y47210D01*
D02*
G37*
G36*
X81398Y46257D02*
X81496D01*
X81499Y45926D01*
X81588Y44714D01*
X81621Y44561D01*
X81660Y44436D01*
X81703Y44342D01*
X81752Y44277D01*
X80477D01*
X79203Y44206D01*
X79246Y44271D01*
X79285Y44365D01*
X79318Y44488D01*
X79348Y44642D01*
X79373Y44825D01*
X79409Y45280D01*
X79429Y46186D01*
X79527Y46192D01*
X79528Y46257D01*
X80485D01*
X81398Y46318D01*
X81398Y46257D01*
D02*
G37*
G36*
X109697Y74167D02*
Y43591D01*
X109235Y43400D01*
X108068Y44568D01*
X107807Y44742D01*
X107500Y44803D01*
X106558D01*
X106393Y45303D01*
X106939Y46014D01*
X107336Y46972D01*
X107471Y48000D01*
X107336Y49028D01*
X106939Y49986D01*
X106308Y50808D01*
X105485Y51439D01*
X104528Y51836D01*
X103500Y51971D01*
X102472Y51836D01*
X101514Y51439D01*
X100692Y50808D01*
X100061Y49986D01*
X99664Y49028D01*
X99529Y48000D01*
X99664Y46972D01*
X100061Y46014D01*
X100607Y45303D01*
X100442Y44803D01*
X98500D01*
X98193Y44742D01*
X97932Y44568D01*
X97932Y44568D01*
X96932Y43568D01*
X96758Y43307D01*
X96697Y43000D01*
Y39889D01*
X96409Y39657D01*
X95937Y39864D01*
Y41937D01*
X88063D01*
Y39977D01*
X88017Y39950D01*
X87906Y39904D01*
X87734Y39858D01*
X87506Y39821D01*
X87343Y39806D01*
X85748D01*
X83479Y42075D01*
X83234Y42362D01*
X83138Y42491D01*
X83069Y42596D01*
X83044Y42641D01*
X83093Y43012D01*
X83005Y43680D01*
X82747Y44302D01*
X82403Y44751D01*
X82399Y44765D01*
X82385Y44829D01*
X82318Y45729D01*
Y50350D01*
X97277Y65309D01*
X97669Y65895D01*
X97806Y66587D01*
Y77500D01*
X97669Y78191D01*
X97277Y78777D01*
X94858Y81197D01*
X94929Y81511D01*
X95049Y81697D01*
X102167D01*
X109697Y74167D01*
D02*
G37*
G36*
X82236Y42539D02*
X82258Y42436D01*
X82306Y42318D01*
X82380Y42182D01*
X82481Y42030D01*
X82607Y41861D01*
X82938Y41473D01*
X83374Y41018D01*
X81614Y39994D01*
X81377Y40229D01*
X80213Y41255D01*
X80159Y41276D01*
X82240Y42624D01*
X82236Y42539D01*
D02*
G37*
G36*
X194754Y39362D02*
X194587Y39303D01*
X194439Y39205D01*
X194311Y39067D01*
X194203Y38890D01*
X194114Y38673D01*
X194045Y38418D01*
X193996Y38122D01*
X193966Y37788D01*
X193957Y37414D01*
X191988D01*
X191978Y37788D01*
X191949Y38122D01*
X191900Y38418D01*
X191831Y38673D01*
X191742Y38890D01*
X191634Y39067D01*
X191506Y39205D01*
X191358Y39303D01*
X191191Y39362D01*
X191004Y39382D01*
X194941D01*
X194754Y39362D01*
D02*
G37*
G36*
X143254D02*
X143087Y39303D01*
X142939Y39205D01*
X142811Y39067D01*
X142703Y38890D01*
X142614Y38673D01*
X142545Y38418D01*
X142496Y38122D01*
X142466Y37788D01*
X142457Y37414D01*
X140488D01*
X140478Y37788D01*
X140449Y38122D01*
X140400Y38418D01*
X140331Y38673D01*
X140242Y38890D01*
X140134Y39067D01*
X140006Y39205D01*
X139858Y39303D01*
X139691Y39362D01*
X139504Y39382D01*
X143441D01*
X143254Y39362D01*
D02*
G37*
G36*
X88874Y36031D02*
X88855Y36219D01*
X88795Y36386D01*
X88696Y36533D01*
X88557Y36661D01*
X88379Y36770D01*
X88161Y36858D01*
X87904Y36927D01*
X87607Y36976D01*
X87270Y37006D01*
X86894Y37016D01*
Y38984D01*
X87270Y38994D01*
X87607Y39024D01*
X87904Y39073D01*
X88161Y39142D01*
X88379Y39230D01*
X88557Y39339D01*
X88696Y39467D01*
X88795Y39614D01*
X88855Y39781D01*
X88874Y39968D01*
Y36031D01*
D02*
G37*
%LPC*%
G36*
X260000Y360059D02*
X258561Y359870D01*
X257220Y359315D01*
X256069Y358431D01*
X255185Y357280D01*
X254630Y355939D01*
X254441Y354500D01*
X254630Y353061D01*
X255185Y351720D01*
X256069Y350569D01*
X257220Y349685D01*
X258561Y349130D01*
X260000Y348941D01*
X261439Y349130D01*
X262780Y349685D01*
X263931Y350569D01*
X264815Y351720D01*
X265370Y353061D01*
X265559Y354500D01*
X265370Y355939D01*
X264815Y357280D01*
X263931Y358431D01*
X262780Y359315D01*
X261439Y359870D01*
X260000Y360059D01*
D02*
G37*
G36*
X250365Y354320D02*
X249697Y354232D01*
X249074Y353974D01*
X248540Y353564D01*
X248130Y353030D01*
X247872Y352407D01*
X247784Y351739D01*
X247574Y351500D01*
X246500D01*
X243250Y348250D01*
X242985Y348018D01*
X242839Y348037D01*
X242171Y347949D01*
X241548Y347691D01*
X241014Y347281D01*
X240603Y346746D01*
X240346Y346124D01*
X240258Y345456D01*
X240346Y344788D01*
X240603Y344165D01*
X241014Y343631D01*
X241548Y343220D01*
X241592Y343202D01*
X241694Y342619D01*
X241433Y342279D01*
X241175Y341657D01*
X241087Y340989D01*
X241163Y340410D01*
X240858Y339946D01*
X240000Y340059D01*
X238561Y339870D01*
X237220Y339315D01*
X236069Y338431D01*
X235185Y337280D01*
X234630Y335939D01*
X234441Y334500D01*
X234630Y333061D01*
X235185Y331720D01*
X236069Y330569D01*
X237220Y329685D01*
X238561Y329130D01*
X240000Y328941D01*
X241439Y329130D01*
X242780Y329685D01*
X243931Y330569D01*
X244500Y331310D01*
X245000Y331141D01*
Y330329D01*
X244509Y330125D01*
X243974Y329715D01*
X243564Y329180D01*
X243306Y328558D01*
X243218Y327890D01*
X243306Y327222D01*
X243564Y326599D01*
X243974Y326065D01*
X244146Y325933D01*
Y325303D01*
X243974Y325172D01*
X243564Y324637D01*
X243306Y324015D01*
X243218Y323346D01*
X243306Y322678D01*
X243564Y322056D01*
X243974Y321521D01*
X244146Y321390D01*
Y320760D01*
X243974Y320628D01*
X243564Y320094D01*
X243306Y319471D01*
X243218Y318803D01*
X243306Y318135D01*
X243564Y317513D01*
X243974Y316978D01*
X244146Y316847D01*
Y316216D01*
X243974Y316085D01*
X243564Y315550D01*
X243306Y314928D01*
X243218Y314260D01*
X243306Y313592D01*
X243564Y312969D01*
X243974Y312435D01*
X244146Y312303D01*
Y311673D01*
X243974Y311542D01*
X243564Y311007D01*
X243306Y310385D01*
X243218Y309717D01*
X243306Y309049D01*
X243564Y308426D01*
X243974Y307892D01*
X244146Y307760D01*
Y307130D01*
X243974Y306998D01*
X243564Y306464D01*
X243306Y305841D01*
X243218Y305173D01*
X243306Y304505D01*
X243564Y303883D01*
X243974Y303348D01*
X244146Y303217D01*
Y302587D01*
X243974Y302455D01*
X243564Y301921D01*
X243306Y301298D01*
X243218Y300630D01*
X243306Y299962D01*
X243564Y299339D01*
X243974Y298805D01*
X244146Y298673D01*
Y298043D01*
X243974Y297912D01*
X243564Y297377D01*
X243306Y296755D01*
X243218Y296087D01*
X243294Y295511D01*
X243193Y295298D01*
X242931Y295018D01*
X242401Y294949D01*
X241778Y294691D01*
X241244Y294281D01*
X240834Y293746D01*
X240576Y293124D01*
X240536Y292823D01*
X239996Y292505D01*
X239875Y292555D01*
X239207Y292643D01*
X238539Y292555D01*
X237917Y292297D01*
X237382Y291887D01*
X236972Y291353D01*
X236714Y290730D01*
X236626Y290062D01*
X236714Y289394D01*
X236972Y288772D01*
X237382Y288237D01*
X237749Y287956D01*
X237863Y287363D01*
X237500Y287000D01*
Y271500D01*
X239000Y270000D01*
X242439Y270000D01*
X242596Y269679D01*
X242631Y269500D01*
X242253Y269007D01*
X241995Y268385D01*
X241907Y267717D01*
X241995Y267049D01*
X242253Y266426D01*
X242663Y265891D01*
X243198Y265481D01*
X243820Y265223D01*
X244488Y265135D01*
X245156Y265223D01*
X245779Y265481D01*
X246313Y265891D01*
X246724Y266426D01*
X246981Y267049D01*
X247069Y267717D01*
X246981Y268385D01*
X246724Y269007D01*
X246313Y269542D01*
X245779Y269952D01*
X245156Y270210D01*
X244503Y270296D01*
X244469Y270341D01*
X244274Y270774D01*
X245000Y271500D01*
X245000Y280030D01*
X245376Y280360D01*
X245519Y280341D01*
X246187Y280429D01*
X246810Y280686D01*
X247344Y281097D01*
X247755Y281631D01*
X248013Y282254D01*
X248035Y282426D01*
X248581Y282741D01*
X248819Y282642D01*
X249487Y282554D01*
X250155Y282642D01*
X250778Y282900D01*
X251312Y283310D01*
X251722Y283845D01*
X251980Y284468D01*
X252068Y285136D01*
X252060Y285195D01*
X252514Y285583D01*
X252921Y285529D01*
X253589Y285617D01*
X254211Y285875D01*
X254746Y286285D01*
X255156Y286820D01*
X255414Y287442D01*
X255502Y288110D01*
X255414Y288778D01*
X255156Y289401D01*
X255035Y289559D01*
X255236Y290118D01*
X255506Y290230D01*
X256041Y290640D01*
X256451Y291175D01*
X256709Y291797D01*
X256797Y292465D01*
X256709Y293133D01*
X256451Y293756D01*
X256041Y294290D01*
X255862Y294428D01*
Y295058D01*
X256026Y295183D01*
X256436Y295718D01*
X256694Y296341D01*
X256782Y297009D01*
X256694Y297677D01*
X256436Y298299D01*
X256026Y298834D01*
X255854Y298965D01*
Y299595D01*
X256026Y299727D01*
X256436Y300261D01*
X256694Y300884D01*
X256782Y301552D01*
X256694Y302220D01*
X256436Y302842D01*
X256026Y303377D01*
X255854Y303508D01*
Y304139D01*
X256026Y304270D01*
X256436Y304805D01*
X256694Y305427D01*
X256782Y306095D01*
X256694Y306763D01*
X256436Y307386D01*
X256026Y307920D01*
X255854Y308052D01*
Y308682D01*
X256026Y308814D01*
X256436Y309348D01*
X256694Y309971D01*
X256782Y310639D01*
X256694Y311307D01*
X256436Y311929D01*
X256026Y312464D01*
X255854Y312595D01*
Y313225D01*
X256026Y313357D01*
X256436Y313891D01*
X256694Y314514D01*
X256782Y315182D01*
X256694Y315850D01*
X256436Y316473D01*
X256026Y317007D01*
X255854Y317138D01*
Y317769D01*
X256026Y317900D01*
X256436Y318435D01*
X256694Y319057D01*
X256782Y319725D01*
X256694Y320393D01*
X256436Y321016D01*
X256026Y321550D01*
X255854Y321682D01*
Y322312D01*
X256026Y322443D01*
X256436Y322978D01*
X256694Y323601D01*
X256782Y324269D01*
X256694Y324937D01*
X256436Y325559D01*
X256026Y326094D01*
X255854Y326225D01*
Y326855D01*
X256026Y326987D01*
X256436Y327521D01*
X256694Y328144D01*
X256782Y328812D01*
X256697Y329457D01*
X256745Y329515D01*
X257117Y329765D01*
X257220Y329685D01*
X258561Y329130D01*
X260000Y328941D01*
X261439Y329130D01*
X262780Y329685D01*
X263931Y330569D01*
X264815Y331720D01*
X265370Y333061D01*
X265559Y334500D01*
X265370Y335939D01*
X264815Y337280D01*
X263931Y338431D01*
X262780Y339315D01*
X261439Y339870D01*
X260000Y340059D01*
X259168Y339950D01*
X258897Y340419D01*
X258902Y340424D01*
X259159Y341047D01*
X259247Y341715D01*
X259159Y342383D01*
X258902Y343005D01*
X258491Y343540D01*
X258456Y343567D01*
X258510Y344156D01*
X258852Y344418D01*
X259262Y344953D01*
X259520Y345575D01*
X259608Y346243D01*
X259520Y346912D01*
X259262Y347534D01*
X258852Y348069D01*
X258318Y348479D01*
X257695Y348737D01*
X257027Y348825D01*
X256743Y348787D01*
X256500Y349000D01*
X254000Y351500D01*
X253156D01*
X252946Y351739D01*
X252858Y352407D01*
X252600Y353030D01*
X252190Y353564D01*
X251656Y353974D01*
X251033Y354232D01*
X250365Y354320D01*
D02*
G37*
G36*
X179842Y344714D02*
X178635Y344555D01*
X177510Y344089D01*
X176543Y343347D01*
X175802Y342381D01*
X175336Y341255D01*
X175177Y340048D01*
X175336Y338840D01*
X175802Y337715D01*
X176543Y336749D01*
X177510Y336007D01*
X178635Y335541D01*
X179842Y335382D01*
X181050Y335541D01*
X182176Y336007D01*
X183142Y336749D01*
X183883Y337715D01*
X184349Y338840D01*
X184508Y340048D01*
X184349Y341255D01*
X183883Y342381D01*
X183142Y343347D01*
X182176Y344089D01*
X181050Y344555D01*
X179842Y344714D01*
D02*
G37*
G36*
X183500Y334081D02*
X182832Y333993D01*
X182209Y333735D01*
X181675Y333325D01*
X181265Y332791D01*
X181007Y332168D01*
X180919Y331500D01*
X181007Y330832D01*
X181265Y330209D01*
X181675Y329675D01*
X182209Y329265D01*
X182832Y329007D01*
X183500Y328919D01*
X184168Y329007D01*
X184791Y329265D01*
X185325Y329675D01*
X185735Y330209D01*
X185993Y330832D01*
X186081Y331500D01*
X185993Y332168D01*
X185735Y332791D01*
X185325Y333325D01*
X184791Y333735D01*
X184168Y333993D01*
X183500Y334081D01*
D02*
G37*
G36*
X270000Y330301D02*
X268972Y330166D01*
X268015Y329769D01*
X267192Y329138D01*
X266561Y328316D01*
X266164Y327358D01*
X266029Y326330D01*
X266164Y325302D01*
X266561Y324345D01*
X267192Y323522D01*
X268015Y322891D01*
X268972Y322495D01*
X270000Y322359D01*
X271028Y322495D01*
X271986Y322891D01*
X272808Y323522D01*
X273439Y324345D01*
X273836Y325302D01*
X273971Y326330D01*
X273836Y327358D01*
X273439Y328316D01*
X272808Y329138D01*
X271986Y329769D01*
X271028Y330166D01*
X270000Y330301D01*
D02*
G37*
G36*
X286941Y329548D02*
X280122Y325611D01*
X284059Y318792D01*
X290878Y322729D01*
X286941Y329548D01*
D02*
G37*
G36*
X170000Y327666D02*
X168792Y327507D01*
X167667Y327041D01*
X166701Y326299D01*
X165959Y325333D01*
X165493Y324208D01*
X165334Y323000D01*
X165493Y321792D01*
X165959Y320667D01*
X166701Y319701D01*
X167667Y318959D01*
X168792Y318493D01*
X170000Y318334D01*
X171208Y318493D01*
X172333Y318959D01*
X173299Y319701D01*
X174041Y320667D01*
X174507Y321792D01*
X174666Y323000D01*
X174507Y324208D01*
X174041Y325333D01*
X173299Y326299D01*
X172333Y327041D01*
X171208Y327507D01*
X170000Y327666D01*
D02*
G37*
G36*
X208000Y316581D02*
X207332Y316493D01*
X206709Y316235D01*
X206175Y315825D01*
X205905Y315474D01*
X205526Y315258D01*
X205413Y315242D01*
X205285Y315267D01*
X205158Y315301D01*
X205132Y315298D01*
X205105Y315303D01*
X203500D01*
X203193Y315242D01*
X202932Y315068D01*
X202932Y315068D01*
X198932Y311068D01*
X198758Y310807D01*
X198697Y310500D01*
Y307833D01*
X181932Y291068D01*
X181758Y290807D01*
X181697Y290500D01*
Y281833D01*
X171999Y272135D01*
X171698Y271904D01*
X171468Y271603D01*
X165717Y265852D01*
X165308Y265879D01*
X164486Y266510D01*
X163528Y266906D01*
X162500Y267042D01*
X161472Y266906D01*
X160514Y266510D01*
X159692Y265879D01*
X159061Y265056D01*
X158664Y264099D01*
X158529Y263071D01*
X158664Y262043D01*
X159061Y261085D01*
X159692Y260263D01*
X159719Y259854D01*
X154432Y254568D01*
X154258Y254307D01*
X154197Y254000D01*
Y246500D01*
X154258Y246193D01*
X154432Y245932D01*
X155316Y245048D01*
X155339Y245033D01*
X155355Y245012D01*
X155468Y244947D01*
X155577Y244874D01*
X155633Y244847D01*
X155940Y244461D01*
X155960Y244339D01*
X155961Y244319D01*
X155919Y244000D01*
X156007Y243332D01*
X156265Y242709D01*
X156675Y242175D01*
X157209Y241765D01*
X157832Y241507D01*
X158500Y241419D01*
X159168Y241507D01*
X159791Y241765D01*
X160228Y241470D01*
X160254Y241432D01*
X160276Y241418D01*
X160292Y241396D01*
X160405Y241331D01*
X160514Y241258D01*
X160540Y241253D01*
X160563Y241240D01*
X160693Y241223D01*
X160821Y241197D01*
X166000D01*
X166307Y241258D01*
X166568Y241432D01*
X166568Y241432D01*
X170568Y245432D01*
X170742Y245693D01*
X170803Y246000D01*
Y250668D01*
X176531Y256396D01*
X177030Y256363D01*
X177175Y256175D01*
X177709Y255765D01*
X178332Y255507D01*
X179000Y255419D01*
X179668Y255507D01*
X179829Y255573D01*
X180081Y255137D01*
X179675Y254825D01*
X179265Y254291D01*
X179007Y253668D01*
X178919Y253000D01*
X179007Y252332D01*
X179265Y251709D01*
X179675Y251175D01*
X180209Y250765D01*
X180832Y250507D01*
X181500Y250419D01*
X182168Y250507D01*
X182791Y250765D01*
X183325Y251175D01*
X183735Y251709D01*
X183993Y252332D01*
X184081Y253000D01*
X183993Y253668D01*
X183735Y254291D01*
X183325Y254825D01*
X182791Y255235D01*
X182168Y255493D01*
X181500Y255581D01*
X180832Y255493D01*
X180671Y255427D01*
X180419Y255863D01*
X180825Y256175D01*
X181235Y256709D01*
X181493Y257332D01*
X181581Y258000D01*
X181493Y258668D01*
X181235Y259291D01*
X180825Y259825D01*
X180637Y259970D01*
X180604Y260469D01*
X194568Y274432D01*
X194742Y274693D01*
X194803Y275000D01*
Y275187D01*
X195265Y275379D01*
X204072Y266572D01*
X204498Y266287D01*
X205000Y266187D01*
X212956D01*
X225113Y254031D01*
Y186469D01*
X201072Y162428D01*
X200787Y162002D01*
X200687Y161500D01*
Y149544D01*
X198456Y147313D01*
X193000D01*
X192498Y147213D01*
X192072Y146928D01*
X182325Y137181D01*
X182182Y137059D01*
X182014Y136934D01*
X181853Y136829D01*
X181699Y136745D01*
X181553Y136680D01*
X181413Y136632D01*
X181280Y136599D01*
X181152Y136581D01*
X181039Y136576D01*
X181000Y136581D01*
X180332Y136493D01*
X179709Y136235D01*
X179175Y135825D01*
X178765Y135291D01*
X178507Y134668D01*
X178419Y134000D01*
X178507Y133332D01*
X178765Y132709D01*
X179175Y132175D01*
X179709Y131765D01*
X180332Y131507D01*
X181000Y131419D01*
X181668Y131507D01*
X182291Y131765D01*
X182825Y132175D01*
X183235Y132709D01*
X183493Y133332D01*
X183581Y134000D01*
X183576Y134039D01*
X183581Y134152D01*
X183599Y134280D01*
X183632Y134413D01*
X183680Y134553D01*
X183745Y134699D01*
X183829Y134853D01*
X183934Y135014D01*
X184059Y135181D01*
X184181Y135325D01*
X193544Y144687D01*
X199000D01*
X199502Y144787D01*
X199928Y145072D01*
X202928Y148072D01*
X203213Y148498D01*
X203313Y149000D01*
Y160956D01*
X226438Y184082D01*
X226900Y183890D01*
Y181756D01*
X205072Y159928D01*
X204787Y159502D01*
X204687Y159000D01*
Y145544D01*
X201956Y142813D01*
X198000D01*
X197498Y142713D01*
X197072Y142428D01*
X190825Y136181D01*
X190682Y136059D01*
X190514Y135934D01*
X190353Y135829D01*
X190199Y135745D01*
X190053Y135680D01*
X189913Y135632D01*
X189780Y135599D01*
X189652Y135581D01*
X189539Y135576D01*
X189500Y135581D01*
X188832Y135493D01*
X188209Y135235D01*
X187675Y134825D01*
X187265Y134291D01*
X187007Y133668D01*
X186919Y133000D01*
X187007Y132332D01*
X187265Y131709D01*
X187675Y131175D01*
X188209Y130765D01*
X188832Y130507D01*
X189500Y130419D01*
X190168Y130507D01*
X190791Y130765D01*
X191325Y131175D01*
X191735Y131709D01*
X191993Y132332D01*
X192081Y133000D01*
X192076Y133039D01*
X192081Y133152D01*
X192099Y133280D01*
X192131Y133413D01*
X192180Y133553D01*
X192245Y133699D01*
X192330Y133853D01*
X192434Y134014D01*
X192559Y134181D01*
X192681Y134325D01*
X198544Y140187D01*
X202500D01*
X203002Y140287D01*
X203428Y140572D01*
X206928Y144072D01*
X207187Y144460D01*
X207224Y144464D01*
X207687Y144155D01*
Y143044D01*
X203456Y138813D01*
X202500D01*
X201998Y138713D01*
X201572Y138428D01*
X199725Y136581D01*
X199582Y136459D01*
X199414Y136334D01*
X199253Y136230D01*
X199100Y136145D01*
X198953Y136080D01*
X198813Y136032D01*
X198680Y135999D01*
X198552Y135981D01*
X198439Y135976D01*
X198400Y135981D01*
X197732Y135893D01*
X197109Y135635D01*
X196575Y135225D01*
X196165Y134691D01*
X195907Y134068D01*
X195819Y133400D01*
X195907Y132732D01*
X196165Y132109D01*
X196575Y131575D01*
X197109Y131165D01*
X197732Y130907D01*
X198400Y130819D01*
X199068Y130907D01*
X199691Y131165D01*
X200225Y131575D01*
X200635Y132109D01*
X200893Y132732D01*
X200981Y133400D01*
X200976Y133439D01*
X200981Y133552D01*
X200999Y133680D01*
X201032Y133814D01*
X201080Y133953D01*
X201145Y134099D01*
X201230Y134253D01*
X201334Y134414D01*
X201459Y134582D01*
X201581Y134725D01*
X203044Y136187D01*
X204000D01*
X204502Y136287D01*
X204928Y136572D01*
X209928Y141572D01*
X210213Y141998D01*
X210313Y142500D01*
Y157456D01*
X230928Y178072D01*
X231213Y178498D01*
X231313Y179000D01*
Y258855D01*
X231213Y259357D01*
X230928Y259783D01*
X216023Y274687D01*
X216229Y275184D01*
X216233Y275187D01*
X218000D01*
X218502Y275287D01*
X218928Y275572D01*
X236928Y293572D01*
X237213Y293998D01*
X237313Y294500D01*
Y308500D01*
X237213Y309002D01*
X236928Y309428D01*
X234928Y311428D01*
X234503Y311713D01*
X234000Y311813D01*
X216686D01*
X216499Y311828D01*
X216292Y311858D01*
X216104Y311897D01*
X215936Y311947D01*
X215786Y312004D01*
X215653Y312068D01*
X215536Y312140D01*
X215432Y312217D01*
X215349Y312294D01*
X215325Y312325D01*
X214791Y312735D01*
X214168Y312993D01*
X213500Y313081D01*
X212832Y312993D01*
X212209Y312735D01*
X211675Y312325D01*
X211265Y311791D01*
X211007Y311168D01*
X210919Y310500D01*
X211007Y309832D01*
X211265Y309209D01*
X211675Y308675D01*
X212209Y308265D01*
X212832Y308007D01*
X213500Y307919D01*
X214168Y308007D01*
X214791Y308265D01*
X215325Y308675D01*
X215349Y308706D01*
X215432Y308783D01*
X215536Y308860D01*
X215653Y308932D01*
X215786Y308996D01*
X215936Y309053D01*
X216104Y309103D01*
X216292Y309142D01*
X216499Y309172D01*
X216686Y309187D01*
X233456D01*
X234687Y307957D01*
Y295044D01*
X217456Y277813D01*
X215827D01*
X215543Y277825D01*
X215335Y277850D01*
X215130Y277886D01*
X214938Y277931D01*
X214759Y277985D01*
X214592Y278047D01*
X214435Y278117D01*
X214289Y278195D01*
X214128Y278298D01*
X214096Y278310D01*
X213986Y278394D01*
X213364Y278652D01*
X212696Y278740D01*
X212028Y278652D01*
X211405Y278394D01*
X210870Y277984D01*
X210460Y277450D01*
X210202Y276827D01*
X210114Y276159D01*
X210202Y275491D01*
X210460Y274868D01*
X210870Y274334D01*
X211405Y273924D01*
X212028Y273666D01*
X212696Y273578D01*
X212735Y273583D01*
X212847Y273578D01*
X212976Y273560D01*
X213109Y273528D01*
X213248Y273479D01*
X213395Y273414D01*
X213549Y273330D01*
X213710Y273225D01*
X213877Y273100D01*
X214020Y272978D01*
X215219Y271779D01*
X215023Y271361D01*
X214979Y271313D01*
X210544D01*
X204309Y277548D01*
X203883Y277832D01*
X203380Y277932D01*
X202014D01*
X201761Y278251D01*
X201965Y278714D01*
X205527D01*
X206029Y278814D01*
X206455Y279099D01*
X224044Y296687D01*
X226255D01*
X226442Y296672D01*
X226649Y296642D01*
X226837Y296603D01*
X227005Y296553D01*
X227155Y296496D01*
X227288Y296432D01*
X227405Y296360D01*
X227509Y296283D01*
X227592Y296206D01*
X227616Y296175D01*
X228150Y295765D01*
X228773Y295507D01*
X229441Y295419D01*
X230109Y295507D01*
X230732Y295765D01*
X231266Y296175D01*
X231676Y296709D01*
X231934Y297332D01*
X232022Y298000D01*
X231934Y298668D01*
X231676Y299291D01*
X231266Y299825D01*
X230732Y300235D01*
X230109Y300493D01*
X229441Y300581D01*
X228773Y300493D01*
X228150Y300235D01*
X227616Y299825D01*
X227592Y299794D01*
X227509Y299717D01*
X227405Y299640D01*
X227288Y299568D01*
X227155Y299504D01*
X227005Y299447D01*
X226837Y299397D01*
X226649Y299358D01*
X226442Y299328D01*
X226255Y299313D01*
X223500D01*
X222998Y299213D01*
X222572Y298928D01*
X211528Y287885D01*
X211064Y288128D01*
X210993Y288668D01*
X210735Y289291D01*
X210325Y289825D01*
X209791Y290235D01*
X209168Y290493D01*
X209070Y290506D01*
X208890Y291034D01*
X221044Y303187D01*
X225314D01*
X225501Y303172D01*
X225708Y303142D01*
X225896Y303103D01*
X226064Y303053D01*
X226214Y302996D01*
X226347Y302932D01*
X226464Y302860D01*
X226568Y302783D01*
X226651Y302706D01*
X226675Y302675D01*
X227209Y302265D01*
X227832Y302007D01*
X228500Y301919D01*
X229168Y302007D01*
X229791Y302265D01*
X230325Y302675D01*
X230735Y303209D01*
X230993Y303832D01*
X231081Y304500D01*
X230993Y305168D01*
X230735Y305791D01*
X230325Y306325D01*
X229791Y306735D01*
X229168Y306993D01*
X228500Y307081D01*
X227832Y306993D01*
X227209Y306735D01*
X226675Y306325D01*
X226651Y306294D01*
X226568Y306217D01*
X226464Y306140D01*
X226347Y306068D01*
X226214Y306004D01*
X226064Y305947D01*
X225896Y305897D01*
X225708Y305857D01*
X225501Y305828D01*
X225314Y305813D01*
X220500D01*
X219998Y305713D01*
X219572Y305428D01*
X201391Y287247D01*
X201215Y287265D01*
X201030Y287293D01*
X200874Y287328D01*
X200747Y287366D01*
X200649Y287404D01*
X200580Y287439D01*
X200539Y287468D01*
X200504Y287499D01*
X200476Y287536D01*
X199941Y287946D01*
X199319Y288204D01*
X198651Y288292D01*
X197983Y288204D01*
X197360Y287946D01*
X196826Y287536D01*
X196470Y287072D01*
X196397Y287058D01*
X195986Y287023D01*
X195711D01*
X195303Y286942D01*
X194803Y287208D01*
Y288667D01*
X209068Y302932D01*
X209242Y303193D01*
X209303Y303500D01*
Y307500D01*
X209242Y307807D01*
X209068Y308068D01*
X209068Y308068D01*
X208303Y308833D01*
Y311459D01*
X208668Y311507D01*
X209291Y311765D01*
X209825Y312175D01*
X210235Y312709D01*
X210493Y313332D01*
X210581Y314000D01*
X210493Y314668D01*
X210235Y315291D01*
X209825Y315825D01*
X209291Y316235D01*
X208668Y316493D01*
X208000Y316581D01*
D02*
G37*
G36*
X276441Y323048D02*
X269622Y319111D01*
X273559Y312292D01*
X280378Y316229D01*
X276441Y323048D01*
D02*
G37*
G36*
X160158Y310618D02*
X158950Y310459D01*
X157825Y309993D01*
X156858Y309251D01*
X156117Y308285D01*
X155651Y307160D01*
X155492Y305952D01*
X155651Y304745D01*
X156117Y303619D01*
X156858Y302653D01*
X157825Y301911D01*
X158950Y301445D01*
X160158Y301286D01*
X161365Y301445D01*
X162490Y301911D01*
X163457Y302653D01*
X164198Y303619D01*
X164664Y304745D01*
X164823Y305952D01*
X164664Y307160D01*
X164198Y308285D01*
X163457Y309251D01*
X162490Y309993D01*
X161365Y310459D01*
X160158Y310618D01*
D02*
G37*
G36*
X165000Y300081D02*
X164332Y299993D01*
X163709Y299735D01*
X163175Y299325D01*
X162765Y298791D01*
X162507Y298168D01*
X162419Y297500D01*
X162507Y296832D01*
X162765Y296209D01*
X163175Y295675D01*
X163709Y295265D01*
X164332Y295007D01*
X165000Y294919D01*
X165668Y295007D01*
X166291Y295265D01*
X166825Y295675D01*
X167235Y296209D01*
X167493Y296832D01*
X167581Y297500D01*
X167493Y298168D01*
X167235Y298791D01*
X166825Y299325D01*
X166291Y299735D01*
X165668Y299993D01*
X165000Y300081D01*
D02*
G37*
G36*
X148622Y295224D02*
X143996Y287211D01*
X152008Y282585D01*
X156634Y290598D01*
X148622Y295224D01*
D02*
G37*
G36*
X299513Y290875D02*
X292728Y286958D01*
X296645Y280173D01*
X303430Y284090D01*
X299513Y290875D01*
D02*
G37*
G36*
X303000Y280951D02*
X301977Y280817D01*
X301024Y280422D01*
X300206Y279794D01*
X299578Y278976D01*
X299184Y278023D01*
X299049Y277000D01*
X299184Y275977D01*
X299578Y275024D01*
X300206Y274206D01*
X301024Y273578D01*
X301977Y273183D01*
X303000Y273049D01*
X304023Y273183D01*
X304976Y273578D01*
X305794Y274206D01*
X306422Y275024D01*
X306817Y275977D01*
X306951Y277000D01*
X306817Y278023D01*
X306422Y278976D01*
X305794Y279794D01*
X304976Y280422D01*
X304023Y280817D01*
X303000Y280951D01*
D02*
G37*
G36*
X130559Y283038D02*
X126622Y276219D01*
X133441Y272282D01*
X137378Y279101D01*
X130559Y283038D01*
D02*
G37*
G36*
X127000Y272971D02*
X125972Y272836D01*
X125014Y272439D01*
X124192Y271808D01*
X123561Y270986D01*
X123164Y270028D01*
X123029Y269000D01*
X123164Y267972D01*
X123561Y267015D01*
X124192Y266192D01*
X125014Y265561D01*
X125972Y265164D01*
X127000Y265029D01*
X128028Y265164D01*
X128986Y265561D01*
X129808Y266192D01*
X130439Y267015D01*
X130836Y267972D01*
X130971Y269000D01*
X130836Y270028D01*
X130439Y270986D01*
X129808Y271808D01*
X128986Y272439D01*
X128028Y272836D01*
X127000Y272971D01*
D02*
G37*
G36*
X307921Y272427D02*
X306899Y272293D01*
X305946Y271898D01*
X305127Y271270D01*
X304500Y270452D01*
X304105Y269499D01*
X303970Y268476D01*
X304105Y267454D01*
X304500Y266501D01*
X305127Y265682D01*
X305946Y265054D01*
X306899Y264660D01*
X307921Y264525D01*
X308944Y264660D01*
X309897Y265054D01*
X310715Y265682D01*
X311343Y266501D01*
X311738Y267454D01*
X311872Y268476D01*
X311738Y269499D01*
X311343Y270452D01*
X310715Y271270D01*
X309897Y271898D01*
X308944Y272293D01*
X307921Y272427D01*
D02*
G37*
G36*
X264500Y265081D02*
X263832Y264993D01*
X263209Y264735D01*
X262675Y264325D01*
X262265Y263791D01*
X262007Y263168D01*
X261919Y262500D01*
X262007Y261832D01*
X262265Y261209D01*
X262675Y260675D01*
X263209Y260265D01*
X263832Y260007D01*
X264500Y259919D01*
X265168Y260007D01*
X265791Y260265D01*
X266325Y260675D01*
X266735Y261209D01*
X266993Y261832D01*
X267081Y262500D01*
X266993Y263168D01*
X266735Y263791D01*
X266325Y264325D01*
X265791Y264735D01*
X265168Y264993D01*
X264500Y265081D01*
D02*
G37*
G36*
X271500Y261581D02*
X270832Y261493D01*
X270209Y261235D01*
X269675Y260825D01*
X269265Y260291D01*
X269007Y259668D01*
X268919Y259000D01*
X269007Y258332D01*
X269265Y257709D01*
X269675Y257175D01*
X270209Y256765D01*
X270832Y256507D01*
X271500Y256419D01*
X272168Y256507D01*
X272791Y256765D01*
X273325Y257175D01*
X273735Y257709D01*
X273993Y258332D01*
X274081Y259000D01*
X273993Y259668D01*
X273735Y260291D01*
X273325Y260825D01*
X272791Y261235D01*
X272168Y261493D01*
X271500Y261581D01*
D02*
G37*
G36*
X122000Y264311D02*
X120972Y264175D01*
X120015Y263779D01*
X119192Y263148D01*
X118561Y262325D01*
X118164Y261368D01*
X118029Y260340D01*
X118164Y259312D01*
X118561Y258354D01*
X119192Y257532D01*
X120015Y256901D01*
X120972Y256504D01*
X122000Y256369D01*
X123028Y256504D01*
X123986Y256901D01*
X124808Y257532D01*
X125439Y258354D01*
X125836Y259312D01*
X125971Y260340D01*
X125836Y261368D01*
X125439Y262325D01*
X124808Y263148D01*
X123986Y263779D01*
X123028Y264175D01*
X122000Y264311D01*
D02*
G37*
G36*
X312842Y263903D02*
X311820Y263769D01*
X310867Y263374D01*
X310049Y262746D01*
X309421Y261928D01*
X309026Y260975D01*
X308891Y259952D01*
X309026Y258930D01*
X309421Y257977D01*
X310049Y257158D01*
X310867Y256530D01*
X311820Y256136D01*
X312842Y256001D01*
X313865Y256136D01*
X314818Y256530D01*
X315636Y257158D01*
X316264Y257977D01*
X316659Y258930D01*
X316794Y259952D01*
X316659Y260975D01*
X316264Y261928D01*
X315636Y262746D01*
X314818Y263374D01*
X313865Y263769D01*
X312842Y263903D01*
D02*
G37*
G36*
X120500Y249081D02*
X119832Y248993D01*
X119209Y248735D01*
X118675Y248325D01*
X118265Y247791D01*
X118007Y247168D01*
X117919Y246500D01*
X118007Y245832D01*
X118265Y245209D01*
X118675Y244675D01*
X119209Y244265D01*
X119832Y244007D01*
X120500Y243919D01*
X121168Y244007D01*
X121791Y244265D01*
X122325Y244675D01*
X122735Y245209D01*
X122993Y245832D01*
X123081Y246500D01*
X122993Y247168D01*
X122735Y247791D01*
X122325Y248325D01*
X121791Y248735D01*
X121168Y248993D01*
X120500Y249081D01*
D02*
G37*
G36*
X133500Y247081D02*
X132832Y246993D01*
X132209Y246735D01*
X131675Y246325D01*
X131265Y245791D01*
X131007Y245168D01*
X130919Y244500D01*
X131007Y243832D01*
X131265Y243209D01*
X131675Y242675D01*
X132209Y242265D01*
X132832Y242007D01*
X133500Y241919D01*
X134168Y242007D01*
X134791Y242265D01*
X135325Y242675D01*
X135735Y243209D01*
X135993Y243832D01*
X136081Y244500D01*
X135993Y245168D01*
X135735Y245791D01*
X135325Y246325D01*
X134791Y246735D01*
X134168Y246993D01*
X133500Y247081D01*
D02*
G37*
G36*
X138500Y244081D02*
X137832Y243993D01*
X137209Y243735D01*
X136675Y243325D01*
X136265Y242791D01*
X136007Y242168D01*
X135919Y241500D01*
X136007Y240832D01*
X136265Y240209D01*
X136675Y239675D01*
X137209Y239265D01*
X137832Y239007D01*
X138500Y238919D01*
X139168Y239007D01*
X139791Y239265D01*
X140325Y239675D01*
X140735Y240209D01*
X140993Y240832D01*
X141081Y241500D01*
X140993Y242168D01*
X140735Y242791D01*
X140325Y243325D01*
X139791Y243735D01*
X139168Y243993D01*
X138500Y244081D01*
D02*
G37*
G36*
X326154Y243472D02*
X319506Y239633D01*
X320113Y238581D01*
X320088Y238534D01*
X320014Y238439D01*
X319888Y238314D01*
X319709Y238167D01*
X319575Y238073D01*
X316516Y236306D01*
X311500D01*
X310809Y236169D01*
X310223Y235777D01*
X298723Y224277D01*
X298331Y223691D01*
X298194Y223000D01*
Y131000D01*
X298331Y130309D01*
X298723Y129723D01*
X314194Y114252D01*
Y109248D01*
X306962Y102017D01*
X306911Y101970D01*
X306597Y101707D01*
X306487Y101627D01*
X306405Y101574D01*
X306393Y101567D01*
X305832Y101493D01*
X305209Y101235D01*
X304675Y100825D01*
X304265Y100291D01*
X304007Y99668D01*
X303919Y99000D01*
X304007Y98332D01*
X304265Y97709D01*
X304675Y97175D01*
X305209Y96765D01*
X305832Y96507D01*
X306500Y96419D01*
X307168Y96507D01*
X307791Y96765D01*
X308325Y97175D01*
X308735Y97709D01*
X308993Y98332D01*
X309067Y98893D01*
X309074Y98905D01*
X309109Y98961D01*
X309699Y99644D01*
X317277Y107223D01*
X317669Y107809D01*
X317806Y108500D01*
Y115000D01*
X317669Y115691D01*
X317277Y116277D01*
X301806Y131748D01*
Y222252D01*
X312248Y232694D01*
X317000D01*
X317117Y232717D01*
X317236Y232709D01*
X317460Y232785D01*
X317691Y232831D01*
X317790Y232897D01*
X317903Y232936D01*
X321382Y234944D01*
X321530Y235013D01*
X321747Y235094D01*
X321918Y235140D01*
X322038Y235157D01*
X322091Y235156D01*
X323344Y232985D01*
X329993Y236824D01*
X326154Y243472D01*
D02*
G37*
G36*
X329671Y233576D02*
X328669Y233444D01*
X327735Y233058D01*
X326933Y232442D01*
X326318Y231640D01*
X325931Y230707D01*
X325799Y229705D01*
X325931Y228702D01*
X326318Y227769D01*
X326933Y226967D01*
X327735Y226352D01*
X328669Y225965D01*
X329671Y225833D01*
X330673Y225965D01*
X331607Y226352D01*
X332408Y226967D01*
X333024Y227769D01*
X333410Y228702D01*
X333542Y229705D01*
X333410Y230707D01*
X333024Y231640D01*
X332408Y232442D01*
X331607Y233058D01*
X330673Y233444D01*
X329671Y233576D01*
D02*
G37*
G36*
X161500Y230081D02*
X160832Y229993D01*
X160209Y229735D01*
X159675Y229325D01*
X159265Y228791D01*
X159007Y228168D01*
X158919Y227500D01*
X159007Y226832D01*
X159265Y226209D01*
X159675Y225675D01*
X160209Y225265D01*
X160832Y225007D01*
X161500Y224919D01*
X162168Y225007D01*
X162791Y225265D01*
X163325Y225675D01*
X163735Y226209D01*
X163993Y226832D01*
X164081Y227500D01*
X163993Y228168D01*
X163735Y228791D01*
X163325Y229325D01*
X162791Y229735D01*
X162168Y229993D01*
X161500Y230081D01*
D02*
G37*
G36*
X99955Y231090D02*
X98970Y231025D01*
X98085Y230589D01*
X97435Y229847D01*
X97118Y228913D01*
X97182Y227928D01*
X97618Y227043D01*
X98360Y226393D01*
X99295Y226075D01*
X100279Y226140D01*
X100485Y226241D01*
X100917Y225991D01*
X100933Y225763D01*
X101369Y224878D01*
X102111Y224227D01*
X103045Y223910D01*
X104030Y223975D01*
X104915Y224411D01*
X105565Y225153D01*
X105883Y226087D01*
X105818Y227072D01*
X105382Y227957D01*
X104640Y228607D01*
X103705Y228925D01*
X102721Y228860D01*
X102515Y228759D01*
X102083Y229009D01*
X102067Y229237D01*
X101631Y230122D01*
X100889Y230773D01*
X99955Y231090D01*
D02*
G37*
G36*
X224437Y230937D02*
X216563D01*
Y223063D01*
X224437D01*
Y230937D01*
D02*
G37*
G36*
X212937D02*
X205063D01*
Y223063D01*
X212937D01*
Y230937D01*
D02*
G37*
G36*
X201437D02*
X193563D01*
Y223063D01*
X201437D01*
Y230937D01*
D02*
G37*
G36*
X114000Y220081D02*
X113332Y219993D01*
X112709Y219735D01*
X112175Y219325D01*
X111765Y218791D01*
X111507Y218168D01*
X111419Y217500D01*
X111507Y216832D01*
X111765Y216209D01*
X112175Y215675D01*
X112709Y215265D01*
X113332Y215007D01*
X114000Y214919D01*
X114668Y215007D01*
X115291Y215265D01*
X115825Y215675D01*
X116235Y216209D01*
X116493Y216832D01*
X116581Y217500D01*
X116493Y218168D01*
X116235Y218791D01*
X115825Y219325D01*
X115291Y219735D01*
X114668Y219993D01*
X114000Y220081D01*
D02*
G37*
G36*
X132981Y215022D02*
X132313Y214934D01*
X131691Y214676D01*
X131156Y214266D01*
X130746Y213732D01*
X130516Y213176D01*
X130302Y213122D01*
X129988Y213143D01*
X129911Y213329D01*
X129501Y213863D01*
X128966Y214274D01*
X128344Y214531D01*
X127676Y214619D01*
X127008Y214531D01*
X126385Y214274D01*
X125851Y213863D01*
X125441Y213329D01*
X124867Y213251D01*
X124735Y213353D01*
X124112Y213611D01*
X123444Y213699D01*
X122776Y213611D01*
X122154Y213353D01*
X121619Y212943D01*
X121209Y212408D01*
X120951Y211786D01*
X120863Y211118D01*
X120951Y210450D01*
X121139Y209997D01*
X121140Y209910D01*
X121006Y209535D01*
X120910Y209396D01*
X120523Y209235D01*
X119988Y208825D01*
X119578Y208291D01*
X119320Y207668D01*
X119232Y207000D01*
X119320Y206332D01*
X119578Y205709D01*
X119988Y205175D01*
X120523Y204765D01*
X120883Y204615D01*
X120961Y204045D01*
X120675Y203825D01*
X120265Y203291D01*
X120007Y202668D01*
X119919Y202000D01*
X120007Y201332D01*
X120265Y200709D01*
X120675Y200175D01*
X121209Y199765D01*
X121832Y199507D01*
X122500Y199419D01*
X123102Y199498D01*
X123321Y199321D01*
X123498Y199102D01*
X123419Y198500D01*
X123507Y197832D01*
X123765Y197209D01*
X124175Y196675D01*
X124709Y196265D01*
X125332Y196007D01*
X126000Y195919D01*
X126668Y196007D01*
X127291Y196265D01*
X127825Y196675D01*
X128235Y197209D01*
X128493Y197832D01*
X128581Y198500D01*
X128493Y199168D01*
X128235Y199791D01*
X127825Y200325D01*
X127291Y200735D01*
X126668Y200993D01*
X126000Y201081D01*
X125398Y201002D01*
X125179Y201179D01*
X125002Y201398D01*
X125081Y202000D01*
X124993Y202668D01*
X124735Y203291D01*
X124325Y203825D01*
X123791Y204235D01*
X123430Y204385D01*
X123352Y204955D01*
X123638Y205175D01*
X124049Y205709D01*
X124307Y206332D01*
X124395Y207000D01*
X124307Y207668D01*
X124119Y208121D01*
X124115Y208387D01*
X124348Y208722D01*
X124735Y208883D01*
X125269Y209293D01*
X125625Y209756D01*
X125776Y209840D01*
X126253Y209905D01*
X126385Y209803D01*
X127008Y209545D01*
X127676Y209457D01*
X128344Y209545D01*
X128966Y209803D01*
X129501Y210213D01*
X129911Y210748D01*
X130141Y211303D01*
X130355Y211357D01*
X130669Y211336D01*
X130746Y211150D01*
X131156Y210616D01*
X131691Y210206D01*
X132313Y209948D01*
X132981Y209860D01*
X133649Y209948D01*
X134272Y210206D01*
X134806Y210616D01*
X135216Y211150D01*
X135474Y211773D01*
X135562Y212441D01*
X135474Y213109D01*
X135216Y213732D01*
X134806Y214266D01*
X134272Y214676D01*
X133649Y214934D01*
X132981Y215022D01*
D02*
G37*
G36*
X220500Y220971D02*
X219472Y220836D01*
X218514Y220439D01*
X217692Y219808D01*
X217061Y218986D01*
X216664Y218028D01*
X216529Y217000D01*
X216664Y215972D01*
X217061Y215015D01*
X217692Y214192D01*
X218514Y213561D01*
X219472Y213164D01*
X220500Y213029D01*
X221528Y213164D01*
X222485Y213561D01*
X223308Y214192D01*
X223939Y215015D01*
X224336Y215972D01*
X224471Y217000D01*
X224336Y218028D01*
X223939Y218986D01*
X223308Y219808D01*
X222485Y220439D01*
X221528Y220836D01*
X220500Y220971D01*
D02*
G37*
G36*
X209000D02*
X207972Y220836D01*
X207014Y220439D01*
X206192Y219808D01*
X205561Y218986D01*
X205164Y218028D01*
X205029Y217000D01*
X205164Y215972D01*
X205561Y215015D01*
X206192Y214192D01*
X207014Y213561D01*
X207972Y213164D01*
X209000Y213029D01*
X210028Y213164D01*
X210985Y213561D01*
X211808Y214192D01*
X212439Y215015D01*
X212836Y215972D01*
X212971Y217000D01*
X212836Y218028D01*
X212439Y218986D01*
X211808Y219808D01*
X210985Y220439D01*
X210028Y220836D01*
X209000Y220971D01*
D02*
G37*
G36*
X197500D02*
X196472Y220836D01*
X195515Y220439D01*
X194692Y219808D01*
X194061Y218986D01*
X193664Y218028D01*
X193529Y217000D01*
X193664Y215972D01*
X194061Y215015D01*
X194692Y214192D01*
X195515Y213561D01*
X196472Y213164D01*
X197500Y213029D01*
X198528Y213164D01*
X199486Y213561D01*
X200308Y214192D01*
X200939Y215015D01*
X201336Y215972D01*
X201471Y217000D01*
X201336Y218028D01*
X200939Y218986D01*
X200308Y219808D01*
X199486Y220439D01*
X198528Y220836D01*
X197500Y220971D01*
D02*
G37*
G36*
X164236Y215581D02*
X163568Y215493D01*
X162946Y215235D01*
X162411Y214825D01*
X162001Y214291D01*
X161743Y213668D01*
X161655Y213000D01*
X161743Y212332D01*
X162001Y211709D01*
X162411Y211175D01*
X162946Y210765D01*
X163568Y210507D01*
X164236Y210419D01*
X164904Y210507D01*
X165527Y210765D01*
X166061Y211175D01*
X166471Y211709D01*
X166729Y212332D01*
X166817Y213000D01*
X166729Y213668D01*
X166471Y214291D01*
X166061Y214825D01*
X165527Y215235D01*
X164904Y215493D01*
X164236Y215581D01*
D02*
G37*
G36*
X107000Y215081D02*
X106332Y214993D01*
X105709Y214735D01*
X105175Y214325D01*
X104765Y213791D01*
X104507Y213168D01*
X104419Y212500D01*
X104507Y211832D01*
X104765Y211209D01*
X105175Y210675D01*
X105709Y210265D01*
X106332Y210007D01*
X107000Y209919D01*
X107668Y210007D01*
X108291Y210265D01*
X108825Y210675D01*
X109235Y211209D01*
X109493Y211832D01*
X109581Y212500D01*
X109493Y213168D01*
X109235Y213791D01*
X108825Y214325D01*
X108291Y214735D01*
X107668Y214993D01*
X107000Y215081D01*
D02*
G37*
G36*
X178500Y211581D02*
X177832Y211493D01*
X177209Y211235D01*
X176675Y210825D01*
X176265Y210291D01*
X176007Y209668D01*
X175919Y209000D01*
X176007Y208332D01*
X176265Y207709D01*
X176675Y207175D01*
X177209Y206765D01*
X177832Y206507D01*
X178500Y206419D01*
X179168Y206507D01*
X179791Y206765D01*
X180325Y207175D01*
X180735Y207709D01*
X180993Y208332D01*
X181081Y209000D01*
X180993Y209668D01*
X180735Y210291D01*
X180325Y210825D01*
X179791Y211235D01*
X179168Y211493D01*
X178500Y211581D01*
D02*
G37*
G36*
X103500Y210581D02*
X102832Y210493D01*
X102209Y210235D01*
X101675Y209825D01*
X101265Y209291D01*
X101007Y208668D01*
X100919Y208000D01*
X101007Y207332D01*
X101265Y206709D01*
X101675Y206175D01*
X102209Y205765D01*
X102832Y205507D01*
X103500Y205419D01*
X104168Y205507D01*
X104791Y205765D01*
X105325Y206175D01*
X105735Y206709D01*
X105993Y207332D01*
X106081Y208000D01*
X105993Y208668D01*
X105735Y209291D01*
X105325Y209825D01*
X104791Y210235D01*
X104168Y210493D01*
X103500Y210581D01*
D02*
G37*
G36*
X102000Y204081D02*
X101332Y203993D01*
X100709Y203735D01*
X100175Y203325D01*
X99765Y202791D01*
X99507Y202168D01*
X99419Y201500D01*
X99507Y200832D01*
X99765Y200209D01*
X100175Y199675D01*
X100709Y199265D01*
X101332Y199007D01*
X102000Y198919D01*
X102668Y199007D01*
X103291Y199265D01*
X103825Y199675D01*
X104235Y200209D01*
X104493Y200832D01*
X104581Y201500D01*
X104493Y202168D01*
X104235Y202791D01*
X103825Y203325D01*
X103291Y203735D01*
X102668Y203993D01*
X102000Y204081D01*
D02*
G37*
G36*
X163000Y202081D02*
X162332Y201993D01*
X161709Y201735D01*
X161175Y201325D01*
X160765Y200791D01*
X160507Y200168D01*
X160419Y199500D01*
X160507Y198832D01*
X160517Y198809D01*
X160106Y198493D01*
X159791Y198735D01*
X159168Y198993D01*
X158500Y199081D01*
X157832Y198993D01*
X157209Y198735D01*
X156675Y198325D01*
X156265Y197791D01*
X156007Y197168D01*
X155919Y196500D01*
X156007Y195832D01*
X156226Y195303D01*
X156058Y195055D01*
X155866Y194911D01*
X155668Y194993D01*
X155000Y195081D01*
X154332Y194993D01*
X153709Y194735D01*
X153175Y194325D01*
X152765Y193791D01*
X152507Y193168D01*
X152419Y192500D01*
X152507Y191832D01*
X152765Y191209D01*
X153175Y190675D01*
X153709Y190265D01*
X154332Y190007D01*
X155000Y189919D01*
X155668Y190007D01*
X156291Y190265D01*
X156825Y190675D01*
X157235Y191209D01*
X157493Y191832D01*
X157581Y192500D01*
X157493Y193168D01*
X157274Y193697D01*
X157442Y193945D01*
X157634Y194089D01*
X157832Y194007D01*
X158500Y193919D01*
X159168Y194007D01*
X159791Y194265D01*
X160325Y194675D01*
X160735Y195209D01*
X160993Y195832D01*
X161081Y196500D01*
X160993Y197168D01*
X160984Y197192D01*
X161394Y197507D01*
X161709Y197265D01*
X162332Y197007D01*
X163000Y196919D01*
X163668Y197007D01*
X164291Y197265D01*
X164825Y197675D01*
X165235Y198209D01*
X165493Y198832D01*
X165581Y199500D01*
X165493Y200168D01*
X165235Y200791D01*
X164825Y201325D01*
X164291Y201735D01*
X163668Y201993D01*
X163000Y202081D01*
D02*
G37*
G36*
X206500Y197879D02*
X205755Y197781D01*
X205061Y197493D01*
X204464Y197036D01*
X204315Y196841D01*
X203685D01*
X203536Y197036D01*
X202940Y197493D01*
X202245Y197781D01*
X201500Y197879D01*
X200755Y197781D01*
X200061Y197493D01*
X199464Y197036D01*
X199315Y196841D01*
X198685D01*
X198536Y197036D01*
X197940Y197493D01*
X197245Y197781D01*
X196500Y197879D01*
X195755Y197781D01*
X195061Y197493D01*
X194464Y197036D01*
X194315Y196841D01*
X193685D01*
X193536Y197036D01*
X192939Y197493D01*
X192245Y197781D01*
X191500Y197879D01*
X190755Y197781D01*
X190060Y197493D01*
X189464Y197036D01*
X189315Y196841D01*
X188685D01*
X188536Y197036D01*
X187940Y197493D01*
X187245Y197781D01*
X186500Y197879D01*
X185755Y197781D01*
X185061Y197493D01*
X184464Y197036D01*
X184007Y196440D01*
X183719Y195745D01*
X183621Y195000D01*
X183719Y194255D01*
X184007Y193561D01*
X184464Y192964D01*
X184659Y192815D01*
Y192185D01*
X184464Y192036D01*
X184007Y191439D01*
X183719Y190745D01*
X183621Y190000D01*
X183719Y189255D01*
X184007Y188560D01*
X184464Y187964D01*
X185061Y187507D01*
X185755Y187219D01*
X186500Y187121D01*
X187245Y187219D01*
X187940Y187507D01*
X188536Y187964D01*
X188685Y188159D01*
X189315D01*
X189464Y187964D01*
X190060Y187507D01*
X190755Y187219D01*
X191500Y187121D01*
X192245Y187219D01*
X192939Y187507D01*
X193536Y187964D01*
X193685Y188159D01*
X194315D01*
X194464Y187964D01*
X195061Y187507D01*
X195755Y187219D01*
X196500Y187121D01*
X197245Y187219D01*
X197940Y187507D01*
X198536Y187964D01*
X198685Y188159D01*
X199315D01*
X199464Y187964D01*
X200061Y187507D01*
X200755Y187219D01*
X201500Y187121D01*
X202245Y187219D01*
X202940Y187507D01*
X203536Y187964D01*
X203993Y188560D01*
X204281Y189255D01*
X204379Y190000D01*
X204281Y190745D01*
X203993Y191439D01*
X203536Y192036D01*
X203341Y192185D01*
Y192801D01*
X203402Y192862D01*
X203536Y192964D01*
X203638Y193098D01*
X203699Y193159D01*
X204315D01*
X204464Y192964D01*
X205061Y192507D01*
X205755Y192219D01*
X206500Y192121D01*
X207245Y192219D01*
X207940Y192507D01*
X208536Y192964D01*
X208993Y193561D01*
X209281Y194255D01*
X209379Y195000D01*
X209281Y195745D01*
X208993Y196440D01*
X208536Y197036D01*
X207940Y197493D01*
X207245Y197781D01*
X206500Y197879D01*
D02*
G37*
G36*
X87000Y200581D02*
X86332Y200493D01*
X85709Y200235D01*
X85175Y199825D01*
X84765Y199291D01*
X84507Y198668D01*
X84419Y198000D01*
X84507Y197332D01*
X84765Y196709D01*
X85175Y196175D01*
X85709Y195765D01*
X86332Y195507D01*
X87000Y195419D01*
X87668Y195507D01*
X88291Y195765D01*
X88825Y196175D01*
X89235Y196709D01*
X89493Y197332D01*
X89581Y198000D01*
X89493Y198668D01*
X89235Y199291D01*
X88825Y199825D01*
X88291Y200235D01*
X87668Y200493D01*
X87000Y200581D01*
D02*
G37*
G36*
X178000Y199581D02*
X177332Y199493D01*
X176709Y199235D01*
X176175Y198825D01*
X175765Y198291D01*
X175507Y197668D01*
X175419Y197000D01*
X175507Y196332D01*
X175765Y195709D01*
X176175Y195175D01*
X176709Y194765D01*
X177332Y194507D01*
X178000Y194419D01*
X178668Y194507D01*
X179291Y194765D01*
X179825Y195175D01*
X180235Y195709D01*
X180493Y196332D01*
X180581Y197000D01*
X180493Y197668D01*
X180235Y198291D01*
X179825Y198825D01*
X179291Y199235D01*
X178668Y199493D01*
X178000Y199581D01*
D02*
G37*
G36*
X92441Y197081D02*
X91773Y196993D01*
X91150Y196735D01*
X90616Y196325D01*
X90206Y195791D01*
X89948Y195168D01*
X89860Y194500D01*
X89948Y193832D01*
X90206Y193209D01*
X90616Y192675D01*
X91150Y192265D01*
X91773Y192007D01*
X92441Y191919D01*
X93109Y192007D01*
X93731Y192265D01*
X94266Y192675D01*
X94676Y193209D01*
X94934Y193832D01*
X95022Y194500D01*
X94934Y195168D01*
X94676Y195791D01*
X94266Y196325D01*
X93731Y196735D01*
X93109Y196993D01*
X92441Y197081D01*
D02*
G37*
G36*
X99000Y196081D02*
X98332Y195993D01*
X97709Y195735D01*
X97175Y195325D01*
X96765Y194791D01*
X96507Y194168D01*
X96419Y193500D01*
X96507Y192832D01*
X96765Y192209D01*
X97175Y191675D01*
X97709Y191265D01*
X98332Y191007D01*
X99000Y190919D01*
X99668Y191007D01*
X100291Y191265D01*
X100825Y191675D01*
X101235Y192209D01*
X101493Y192832D01*
X101581Y193500D01*
X101493Y194168D01*
X101235Y194791D01*
X100825Y195325D01*
X100291Y195735D01*
X99668Y195993D01*
X99000Y196081D01*
D02*
G37*
G36*
X133905Y199813D02*
X133238Y199725D01*
X132615Y199467D01*
X132080Y199057D01*
X131670Y198522D01*
X131412Y197900D01*
X131324Y197232D01*
X131412Y196564D01*
X131670Y195941D01*
X132080Y195406D01*
X132203Y195313D01*
X132033Y194813D01*
X132000D01*
X131498Y194713D01*
X131072Y194428D01*
X123956Y187313D01*
X90233D01*
X89731Y187213D01*
X89305Y186928D01*
X84753Y182376D01*
X84603Y182389D01*
X84317Y182436D01*
X84066Y182497D01*
X83851Y182571D01*
X83671Y182656D01*
X83521Y182749D01*
X83399Y182849D01*
X83297Y182958D01*
X83283Y182978D01*
X83264Y183023D01*
X82636Y183842D01*
X81818Y184469D01*
X80865Y184864D01*
X79843Y184999D01*
X78820Y184864D01*
X77867Y184469D01*
X77049Y183842D01*
X76421Y183023D01*
X76026Y182070D01*
X75891Y181048D01*
X76026Y180025D01*
X76421Y179072D01*
X77049Y178254D01*
X77867Y177626D01*
X78820Y177231D01*
X79843Y177097D01*
X80865Y177231D01*
X81818Y177626D01*
X82636Y178254D01*
X83264Y179072D01*
X83283Y179117D01*
X83297Y179137D01*
X83398Y179246D01*
X83521Y179346D01*
X83671Y179439D01*
X83851Y179524D01*
X84066Y179598D01*
X84317Y179660D01*
X84603Y179706D01*
X84925Y179735D01*
X84938Y179735D01*
X84953D01*
X85370Y179472D01*
X85443Y179258D01*
X85507Y178773D01*
X85765Y178150D01*
X86175Y177616D01*
X86709Y177206D01*
X87332Y176948D01*
X88000Y176860D01*
X88668Y176948D01*
X89291Y177206D01*
X89825Y177616D01*
X90235Y178150D01*
X90493Y178773D01*
X90581Y179441D01*
X90493Y180109D01*
X90235Y180731D01*
X89825Y181266D01*
X89291Y181676D01*
X88712Y181916D01*
X88546Y182268D01*
X88498Y182409D01*
X90777Y184687D01*
X98178D01*
X98369Y184225D01*
X87980Y173837D01*
X80890D01*
X80742Y173842D01*
X80360Y173886D01*
X79992Y173958D01*
X79637Y174058D01*
X79295Y174186D01*
X78964Y174344D01*
X78643Y174530D01*
X78330Y174748D01*
X78026Y174996D01*
X77790Y175221D01*
X77715Y175318D01*
X76897Y175946D01*
X75944Y176340D01*
X74921Y176475D01*
X73899Y176340D01*
X72946Y175946D01*
X72127Y175318D01*
X71500Y174499D01*
X71105Y173547D01*
X70970Y172524D01*
X71105Y171501D01*
X71500Y170548D01*
X72127Y169730D01*
X72946Y169102D01*
X73899Y168707D01*
X74921Y168573D01*
X75944Y168707D01*
X76897Y169102D01*
X77715Y169730D01*
X77790Y169827D01*
X78026Y170052D01*
X78330Y170300D01*
X78643Y170518D01*
X78964Y170704D01*
X79295Y170861D01*
X79637Y170990D01*
X79992Y171090D01*
X80360Y171162D01*
X80743Y171206D01*
X80890Y171211D01*
X88524D01*
X89026Y171311D01*
X89452Y171596D01*
X100544Y182687D01*
X135500D01*
X136002Y182787D01*
X136428Y183072D01*
X140428Y187072D01*
X140713Y187498D01*
X140813Y188000D01*
Y188327D01*
X140827Y188515D01*
X140856Y188725D01*
X140894Y188914D01*
X140941Y189080D01*
X140995Y189224D01*
X141054Y189348D01*
X141118Y189453D01*
X141186Y189542D01*
X141280Y189640D01*
X141325Y189675D01*
X141735Y190209D01*
X141993Y190832D01*
X142081Y191500D01*
X141993Y192168D01*
X141735Y192791D01*
X141325Y193325D01*
X140791Y193735D01*
Y194265D01*
X141325Y194675D01*
X141735Y195209D01*
X141993Y195832D01*
X142081Y196500D01*
X141993Y197168D01*
X141735Y197791D01*
X141325Y198325D01*
X140791Y198735D01*
X140168Y198993D01*
X139500Y199081D01*
X138832Y198993D01*
X138209Y198735D01*
X137675Y198325D01*
X137265Y197791D01*
X137007Y197168D01*
X136919Y196500D01*
X136924Y196461D01*
X136919Y196348D01*
X136901Y196220D01*
X136869Y196087D01*
X136820Y195947D01*
X136755Y195801D01*
X136670Y195647D01*
X136566Y195486D01*
X136441Y195318D01*
X136319Y195175D01*
X136217Y195074D01*
X136118Y195097D01*
X135922Y195656D01*
X136141Y195941D01*
X136399Y196564D01*
X136487Y197232D01*
X136399Y197900D01*
X136141Y198522D01*
X135731Y199057D01*
X135196Y199467D01*
X134574Y199725D01*
X133905Y199813D01*
D02*
G37*
G36*
X154500Y187081D02*
X153832Y186993D01*
X153209Y186735D01*
X152675Y186325D01*
X152265Y185791D01*
X152007Y185168D01*
X151919Y184500D01*
X152007Y183832D01*
X152265Y183209D01*
X152675Y182675D01*
X153209Y182265D01*
X153832Y182007D01*
X154500Y181919D01*
X155168Y182007D01*
X155791Y182265D01*
X156325Y182675D01*
X156735Y183209D01*
X156993Y183832D01*
X157081Y184500D01*
X156993Y185168D01*
X156735Y185791D01*
X156325Y186325D01*
X155791Y186735D01*
X155168Y186993D01*
X154500Y187081D01*
D02*
G37*
G36*
X334500Y178081D02*
X333832Y177993D01*
X333209Y177735D01*
X332675Y177325D01*
X332265Y176791D01*
X332007Y176168D01*
X331919Y175500D01*
X332007Y174832D01*
X332265Y174209D01*
X332675Y173675D01*
X333209Y173265D01*
X333832Y173007D01*
X334500Y172919D01*
X335168Y173007D01*
X335791Y173265D01*
X336070Y173479D01*
X336396Y173291D01*
X336501Y173179D01*
X336419Y172559D01*
X336507Y171891D01*
X336765Y171268D01*
X337175Y170734D01*
X337709Y170324D01*
X338332Y170066D01*
X339000Y169978D01*
X339668Y170066D01*
X340291Y170324D01*
X340825Y170734D01*
X341235Y171268D01*
X341493Y171891D01*
X341581Y172559D01*
X341493Y173227D01*
X341235Y173850D01*
X340825Y174384D01*
X340291Y174794D01*
X339668Y175052D01*
X339000Y175140D01*
X338332Y175052D01*
X337709Y174794D01*
X337430Y174580D01*
X337104Y174768D01*
X337000Y174880D01*
X337081Y175500D01*
X336993Y176168D01*
X336735Y176791D01*
X336325Y177325D01*
X335791Y177735D01*
X335168Y177993D01*
X334500Y178081D01*
D02*
G37*
G36*
X349000Y171581D02*
X348332Y171493D01*
X347709Y171235D01*
X347175Y170825D01*
X346765Y170291D01*
X346507Y169668D01*
X346419Y169000D01*
X346507Y168332D01*
X346765Y167709D01*
X347175Y167175D01*
X347709Y166765D01*
X348332Y166507D01*
X349000Y166419D01*
X349668Y166507D01*
X350291Y166765D01*
X350825Y167175D01*
X351235Y167709D01*
X351493Y168332D01*
X351581Y169000D01*
X351493Y169668D01*
X351235Y170291D01*
X350825Y170825D01*
X350291Y171235D01*
X349668Y171493D01*
X349000Y171581D01*
D02*
G37*
G36*
X148213Y238211D02*
X147545Y238123D01*
X146923Y237865D01*
X146388Y237455D01*
X145978Y236920D01*
X145720Y236298D01*
X145632Y235630D01*
X145720Y234962D01*
X145978Y234339D01*
X146388Y233805D01*
X146420Y233781D01*
X146496Y233698D01*
X146574Y233594D01*
X146645Y233477D01*
X146709Y233344D01*
X146767Y233194D01*
X146816Y233026D01*
X146856Y232838D01*
X146885Y232631D01*
X146901Y232444D01*
Y180287D01*
X147001Y179785D01*
X147285Y179359D01*
X158572Y168072D01*
X158998Y167787D01*
X159500Y167687D01*
X171468D01*
X171655Y167672D01*
X171862Y167642D01*
X172049Y167603D01*
X172218Y167553D01*
X172368Y167496D01*
X172500Y167432D01*
X172618Y167360D01*
X172722Y167283D01*
X172804Y167206D01*
X172828Y167175D01*
X173363Y166765D01*
X173986Y166507D01*
X174653Y166419D01*
X175322Y166507D01*
X175944Y166765D01*
X176479Y167175D01*
X176889Y167709D01*
X177147Y168332D01*
X177235Y169000D01*
X177147Y169668D01*
X176889Y170291D01*
X176479Y170825D01*
X175944Y171235D01*
X175322Y171493D01*
X174653Y171581D01*
X173986Y171493D01*
X173363Y171235D01*
X172828Y170825D01*
X172804Y170794D01*
X172722Y170717D01*
X172618Y170640D01*
X172501Y170568D01*
X172368Y170504D01*
X172218Y170447D01*
X172049Y170397D01*
X171862Y170358D01*
X171655Y170328D01*
X171468Y170313D01*
X160044D01*
X149526Y180831D01*
Y232444D01*
X149541Y232631D01*
X149571Y232838D01*
X149611Y233026D01*
X149660Y233194D01*
X149717Y233344D01*
X149782Y233477D01*
X149853Y233594D01*
X149931Y233698D01*
X150007Y233781D01*
X150038Y233805D01*
X150449Y234339D01*
X150706Y234962D01*
X150794Y235630D01*
X150706Y236298D01*
X150449Y236920D01*
X150038Y237455D01*
X149504Y237865D01*
X148881Y238123D01*
X148213Y238211D01*
D02*
G37*
G36*
X124000Y170581D02*
X123332Y170493D01*
X122709Y170235D01*
X122175Y169825D01*
X121765Y169291D01*
X121507Y168668D01*
X121419Y168000D01*
X121507Y167332D01*
X121765Y166709D01*
X122175Y166175D01*
X122709Y165765D01*
X123332Y165507D01*
X124000Y165419D01*
X124668Y165507D01*
X125291Y165765D01*
X125825Y166175D01*
X126235Y166709D01*
X126493Y167332D01*
X126581Y168000D01*
X126493Y168668D01*
X126235Y169291D01*
X125825Y169825D01*
X125291Y170235D01*
X124668Y170493D01*
X124000Y170581D01*
D02*
G37*
G36*
X70000Y167951D02*
X68977Y167816D01*
X68024Y167422D01*
X67206Y166794D01*
X66578Y165976D01*
X66184Y165023D01*
X66049Y164000D01*
X66184Y162977D01*
X66578Y162024D01*
X67206Y161206D01*
X68024Y160578D01*
X68977Y160184D01*
X70000Y160049D01*
X71023Y160184D01*
X71976Y160578D01*
X72794Y161206D01*
X73422Y162024D01*
X73817Y162977D01*
X73951Y164000D01*
X73817Y165023D01*
X73422Y165976D01*
X72794Y166794D01*
X71976Y167422D01*
X71023Y167816D01*
X70000Y167951D01*
D02*
G37*
G36*
X126000Y164879D02*
X125332Y164791D01*
X124709Y164533D01*
X124175Y164123D01*
X123765Y163588D01*
X123507Y162966D01*
X123419Y162298D01*
X123507Y161630D01*
X123765Y161007D01*
X124175Y160473D01*
X124709Y160062D01*
X125332Y159804D01*
X126000Y159716D01*
X126668Y159804D01*
X127291Y160062D01*
X127825Y160473D01*
X128235Y161007D01*
X128493Y161630D01*
X128581Y162298D01*
X128493Y162966D01*
X128235Y163588D01*
X127825Y164123D01*
X127291Y164533D01*
X126668Y164791D01*
X126000Y164879D01*
D02*
G37*
G36*
X173500Y160081D02*
X172832Y159993D01*
X172209Y159735D01*
X171675Y159325D01*
X171265Y158791D01*
X171007Y158168D01*
X170919Y157500D01*
X171007Y156832D01*
X171265Y156209D01*
X171675Y155675D01*
X172209Y155265D01*
X172832Y155007D01*
X173500Y154919D01*
X174168Y155007D01*
X174791Y155265D01*
X175325Y155675D01*
X175735Y156209D01*
X175993Y156832D01*
X176081Y157500D01*
X175993Y158168D01*
X175735Y158791D01*
X175325Y159325D01*
X174791Y159735D01*
X174168Y159993D01*
X173500Y160081D01*
D02*
G37*
G36*
X343867Y150448D02*
X343199Y150360D01*
X342577Y150102D01*
X342042Y149692D01*
X341632Y149158D01*
X341374Y148535D01*
X341286Y147867D01*
X341374Y147199D01*
X341632Y146577D01*
X342042Y146042D01*
X342577Y145632D01*
X343199Y145374D01*
X343867Y145286D01*
X344535Y145374D01*
X345158Y145632D01*
X345692Y146042D01*
X346102Y146577D01*
X346360Y147199D01*
X346448Y147867D01*
X346360Y148535D01*
X346102Y149158D01*
X345692Y149692D01*
X345158Y150102D01*
X344535Y150360D01*
X343867Y150448D01*
D02*
G37*
G36*
X338000Y150081D02*
X337332Y149993D01*
X336709Y149735D01*
X336175Y149325D01*
X335765Y148791D01*
X335507Y148168D01*
X335419Y147500D01*
X335507Y146832D01*
X335765Y146209D01*
X336175Y145675D01*
X336709Y145265D01*
X337332Y145007D01*
X338000Y144919D01*
X338668Y145007D01*
X339291Y145265D01*
X339825Y145675D01*
X340235Y146209D01*
X340493Y146832D01*
X340581Y147500D01*
X340493Y148168D01*
X340235Y148791D01*
X339825Y149325D01*
X339291Y149735D01*
X338668Y149993D01*
X338000Y150081D01*
D02*
G37*
G36*
X355043Y143275D02*
X354352Y143137D01*
X353766Y142746D01*
X353572Y142456D01*
X352971D01*
X352777Y142746D01*
X352191Y143137D01*
X351500Y143275D01*
X350809Y143137D01*
X350223Y142746D01*
X350029Y142456D01*
X349428D01*
X349234Y142746D01*
X348648Y143137D01*
X347957Y143275D01*
X347265Y143137D01*
X346679Y142746D01*
X346288Y142160D01*
X346150Y141469D01*
X346288Y140777D01*
X346679Y140191D01*
X347265Y139800D01*
X347490Y139755D01*
Y139245D01*
X347265Y139200D01*
X346679Y138809D01*
X346288Y138223D01*
X346150Y137531D01*
X346288Y136840D01*
X346679Y136254D01*
X347265Y135863D01*
X347957Y135725D01*
X348648Y135863D01*
X349234Y136254D01*
X349428Y136544D01*
X350029D01*
X350223Y136254D01*
X350809Y135863D01*
X351500Y135725D01*
X352191Y135863D01*
X352777Y136254D01*
X352971Y136544D01*
X353572D01*
X353766Y136254D01*
X354352Y135863D01*
X355043Y135725D01*
X355735Y135863D01*
X356321Y136254D01*
X356712Y136840D01*
X356850Y137531D01*
X356712Y138223D01*
X356321Y138809D01*
X355735Y139200D01*
X355510Y139245D01*
Y139755D01*
X355735Y139800D01*
X356321Y140191D01*
X356712Y140777D01*
X356850Y141469D01*
X356712Y142160D01*
X356321Y142746D01*
X355735Y143137D01*
X355043Y143275D01*
D02*
G37*
G36*
X378984Y152768D02*
X372335Y148929D01*
X376174Y142280D01*
X382822Y146119D01*
X378984Y152768D01*
D02*
G37*
G36*
X315748Y147022D02*
X315080Y146934D01*
X314458Y146676D01*
X313923Y146266D01*
X313513Y145731D01*
X313255Y145109D01*
X313167Y144441D01*
X313255Y143773D01*
X313513Y143150D01*
X313923Y142616D01*
X314458Y142206D01*
X315080Y141948D01*
X315748Y141860D01*
X316416Y141948D01*
X317039Y142206D01*
X317573Y142616D01*
X317983Y143150D01*
X318241Y143773D01*
X318329Y144441D01*
X318241Y145109D01*
X317983Y145731D01*
X317573Y146266D01*
X317039Y146676D01*
X316416Y146934D01*
X315748Y147022D01*
D02*
G37*
G36*
X56987Y149375D02*
X53070Y142590D01*
X59855Y138673D01*
X63772Y145458D01*
X56987Y149375D01*
D02*
G37*
G36*
X323783Y140389D02*
X323169Y140267D01*
X322648Y139919D01*
X322300Y139398D01*
X322178Y138784D01*
X322244Y138453D01*
X321831Y138040D01*
X321500Y138106D01*
X321169Y138040D01*
X320756Y138453D01*
X320822Y138784D01*
X320700Y139398D01*
X320352Y139919D01*
X319831Y140267D01*
X319216Y140389D01*
X318602Y140267D01*
X318081Y139919D01*
X317733Y139398D01*
X317611Y138784D01*
X317733Y138169D01*
X318081Y137648D01*
X318602Y137300D01*
X319216Y137178D01*
X319547Y137244D01*
X319960Y136831D01*
X319894Y136500D01*
X319960Y136169D01*
X319547Y135756D01*
X319216Y135822D01*
X318602Y135700D01*
X318081Y135352D01*
X317733Y134831D01*
X317611Y134216D01*
X317733Y133602D01*
X318081Y133081D01*
X318602Y132733D01*
X319216Y132611D01*
X319831Y132733D01*
X320352Y133081D01*
X320700Y133602D01*
X320822Y134216D01*
X320756Y134547D01*
X321169Y134960D01*
X321500Y134894D01*
X321831Y134960D01*
X322244Y134547D01*
X322178Y134216D01*
X322300Y133602D01*
X322648Y133081D01*
X323169Y132733D01*
X323783Y132611D01*
X324398Y132733D01*
X324919Y133081D01*
X325267Y133602D01*
X325389Y134216D01*
X325267Y134831D01*
X324919Y135352D01*
X324398Y135700D01*
X323783Y135822D01*
X323453Y135756D01*
X323040Y136169D01*
X323106Y136500D01*
X323040Y136831D01*
X323453Y137244D01*
X323783Y137178D01*
X324398Y137300D01*
X324919Y137648D01*
X325267Y138169D01*
X325389Y138784D01*
X325267Y139398D01*
X324919Y139919D01*
X324398Y140267D01*
X323783Y140389D01*
D02*
G37*
G36*
X367500Y148081D02*
X366832Y147993D01*
X366209Y147735D01*
X365675Y147325D01*
X365265Y146791D01*
X365007Y146168D01*
X364919Y145500D01*
X365007Y144832D01*
X365265Y144209D01*
X365675Y143675D01*
X366209Y143265D01*
Y142735D01*
X365675Y142325D01*
X365265Y141791D01*
X365007Y141168D01*
X364919Y140500D01*
X365007Y139832D01*
X365265Y139209D01*
X365675Y138675D01*
X366209Y138265D01*
X366832Y138007D01*
X367500Y137919D01*
X368168Y138007D01*
X368791Y138265D01*
X369325Y138675D01*
X369735Y139209D01*
X369993Y139832D01*
X370081Y140500D01*
X369993Y141168D01*
X369735Y141791D01*
X369325Y142325D01*
X368791Y142735D01*
Y143265D01*
X369325Y143675D01*
X369735Y144209D01*
X369993Y144832D01*
X370081Y145500D01*
X369993Y146168D01*
X369735Y146791D01*
X369325Y147325D01*
X368791Y147735D01*
X368168Y147993D01*
X367500Y148081D01*
D02*
G37*
G36*
X337000Y142238D02*
X336332Y142150D01*
X335709Y141892D01*
X335175Y141482D01*
X334765Y140947D01*
X334507Y140325D01*
X334419Y139657D01*
X334507Y138989D01*
X334765Y138366D01*
X335175Y137832D01*
X335709Y137422D01*
X336332Y137164D01*
X337000Y137076D01*
X337668Y137164D01*
X338291Y137422D01*
X338825Y137832D01*
X339235Y138366D01*
X339493Y138989D01*
X339581Y139657D01*
X339493Y140325D01*
X339235Y140947D01*
X338825Y141482D01*
X338291Y141892D01*
X337668Y142150D01*
X337000Y142238D01*
D02*
G37*
G36*
X177000Y142081D02*
X176332Y141993D01*
X175709Y141735D01*
X175175Y141325D01*
X174765Y140791D01*
X174507Y140168D01*
X174419Y139500D01*
X174507Y138832D01*
X174765Y138209D01*
X175175Y137675D01*
X175709Y137265D01*
X176332Y137007D01*
X177000Y136919D01*
X177668Y137007D01*
X178291Y137265D01*
X178825Y137675D01*
X179235Y138209D01*
X179493Y138832D01*
X179581Y139500D01*
X179493Y140168D01*
X179235Y140791D01*
X178825Y141325D01*
X178291Y141735D01*
X177668Y141993D01*
X177000Y142081D01*
D02*
G37*
G36*
X382500Y142872D02*
X381498Y142740D01*
X380564Y142353D01*
X379762Y141738D01*
X379147Y140936D01*
X378760Y140002D01*
X378628Y139000D01*
X378760Y137998D01*
X379147Y137064D01*
X379762Y136262D01*
X380564Y135647D01*
X381498Y135260D01*
X382500Y135128D01*
X383502Y135260D01*
X384436Y135647D01*
X385238Y136262D01*
X385853Y137064D01*
X386240Y137998D01*
X386372Y139000D01*
X386240Y140002D01*
X385853Y140936D01*
X385238Y141738D01*
X384436Y142353D01*
X383502Y142740D01*
X382500Y142872D01*
D02*
G37*
G36*
X310892Y139817D02*
X310224Y139729D01*
X309601Y139471D01*
X309067Y139061D01*
X308657Y138527D01*
X308399Y137904D01*
X308311Y137236D01*
X308399Y136568D01*
X308657Y135946D01*
X309067Y135411D01*
X309601Y135001D01*
X310224Y134743D01*
X310892Y134655D01*
X311560Y134743D01*
X312183Y135001D01*
X312717Y135411D01*
X313127Y135946D01*
X313385Y136568D01*
X313473Y137236D01*
X313385Y137904D01*
X313127Y138527D01*
X312717Y139061D01*
X312183Y139471D01*
X311560Y139729D01*
X310892Y139817D01*
D02*
G37*
G36*
X163500Y130081D02*
X162832Y129993D01*
X162209Y129735D01*
X161675Y129325D01*
X161265Y128791D01*
X161007Y128168D01*
X160919Y127500D01*
X161007Y126832D01*
X161265Y126209D01*
X161675Y125675D01*
X162209Y125265D01*
X162832Y125007D01*
X163500Y124919D01*
X164168Y125007D01*
X164791Y125265D01*
X165325Y125675D01*
X165735Y126209D01*
X165993Y126832D01*
X166081Y127500D01*
X165993Y128168D01*
X165735Y128791D01*
X165325Y129325D01*
X164791Y129735D01*
X164168Y129993D01*
X163500Y130081D01*
D02*
G37*
G36*
X48579Y130927D02*
X47556Y130793D01*
X46603Y130398D01*
X45785Y129770D01*
X45157Y128952D01*
X44762Y127999D01*
X44628Y126976D01*
X44762Y125953D01*
X45157Y125001D01*
X45785Y124182D01*
X46603Y123554D01*
X47556Y123160D01*
X48579Y123025D01*
X49601Y123160D01*
X50554Y123554D01*
X51373Y124182D01*
X52000Y125001D01*
X52395Y125953D01*
X52530Y126976D01*
X52395Y127999D01*
X52000Y128952D01*
X51373Y129770D01*
X50554Y130398D01*
X49601Y130793D01*
X48579Y130927D01*
D02*
G37*
G36*
X145500Y128081D02*
X144832Y127993D01*
X144209Y127735D01*
X143675Y127325D01*
X143265Y126791D01*
X143007Y126168D01*
X142919Y125500D01*
X143007Y124832D01*
X143265Y124209D01*
X143675Y123675D01*
X144209Y123265D01*
X144832Y123007D01*
X145500Y122919D01*
X146168Y123007D01*
X146791Y123265D01*
X147325Y123675D01*
X147735Y124209D01*
X147993Y124832D01*
X148081Y125500D01*
X147993Y126168D01*
X147735Y126791D01*
X147325Y127325D01*
X146791Y127735D01*
X146168Y127993D01*
X145500Y128081D01*
D02*
G37*
G36*
X137500Y124081D02*
X136832Y123993D01*
X136209Y123735D01*
X135675Y123325D01*
X135265Y122791D01*
X135007Y122168D01*
X134919Y121500D01*
X135007Y120832D01*
X135265Y120209D01*
X135675Y119675D01*
X136209Y119265D01*
X136832Y119007D01*
X137500Y118919D01*
X138168Y119007D01*
X138791Y119265D01*
X139325Y119675D01*
X139735Y120209D01*
X139993Y120832D01*
X140081Y121500D01*
X139993Y122168D01*
X139735Y122791D01*
X139325Y123325D01*
X138791Y123735D01*
X138168Y123993D01*
X137500Y124081D01*
D02*
G37*
G36*
X43657Y122403D02*
X42635Y122269D01*
X41682Y121874D01*
X40864Y121246D01*
X40236Y120428D01*
X39841Y119475D01*
X39706Y118452D01*
X39841Y117430D01*
X40236Y116477D01*
X40864Y115658D01*
X41682Y115031D01*
X42635Y114636D01*
X43657Y114501D01*
X44680Y114636D01*
X45633Y115031D01*
X46451Y115658D01*
X47079Y116477D01*
X47474Y117430D01*
X47609Y118452D01*
X47474Y119475D01*
X47079Y120428D01*
X46451Y121246D01*
X45633Y121874D01*
X44680Y122269D01*
X43657Y122403D01*
D02*
G37*
G36*
X198313Y119395D02*
X197645Y119307D01*
X197023Y119049D01*
X196488Y118639D01*
X196078Y118104D01*
X195820Y117482D01*
X195732Y116814D01*
X195820Y116145D01*
X196078Y115523D01*
X196488Y114988D01*
X197023Y114578D01*
X197645Y114320D01*
X198313Y114232D01*
X198981Y114320D01*
X199604Y114578D01*
X200139Y114988D01*
X200549Y115523D01*
X200807Y116145D01*
X200895Y116814D01*
X200807Y117482D01*
X200549Y118104D01*
X200139Y118639D01*
X199604Y119049D01*
X198981Y119307D01*
X198313Y119395D01*
D02*
G37*
G36*
X189931Y119150D02*
X189263Y119062D01*
X188640Y118804D01*
X188106Y118394D01*
X187696Y117859D01*
X187438Y117237D01*
X187350Y116569D01*
X187438Y115901D01*
X187696Y115278D01*
X188106Y114744D01*
X188640Y114334D01*
X189263Y114076D01*
X189931Y113988D01*
X190599Y114076D01*
X191222Y114334D01*
X191756Y114744D01*
X192166Y115278D01*
X192424Y115901D01*
X192512Y116569D01*
X192424Y117237D01*
X192166Y117859D01*
X191756Y118394D01*
X191222Y118804D01*
X190599Y119062D01*
X189931Y119150D01*
D02*
G37*
G36*
X181227Y118854D02*
X180559Y118766D01*
X179936Y118508D01*
X179402Y118098D01*
X178992Y117564D01*
X178734Y116941D01*
X178646Y116273D01*
X178734Y115605D01*
X178992Y114983D01*
X179402Y114448D01*
X179936Y114038D01*
X180559Y113780D01*
X181227Y113692D01*
X181895Y113780D01*
X182517Y114038D01*
X183052Y114448D01*
X183462Y114983D01*
X183720Y115605D01*
X183808Y116273D01*
X183720Y116941D01*
X183462Y117564D01*
X183052Y118098D01*
X182517Y118508D01*
X181895Y118766D01*
X181227Y118854D01*
D02*
G37*
G36*
X394984Y123767D02*
X388335Y119929D01*
X392174Y113280D01*
X398822Y117119D01*
X394984Y123767D01*
D02*
G37*
G36*
X78740Y117936D02*
X78072Y117848D01*
X77450Y117590D01*
X76915Y117180D01*
X76505Y116645D01*
X76247Y116022D01*
X76159Y115354D01*
X76247Y114686D01*
X76505Y114064D01*
X76915Y113529D01*
X77450Y113119D01*
X78072Y112861D01*
X78740Y112773D01*
X79408Y112861D01*
X80031Y113119D01*
X80565Y113529D01*
X80976Y114064D01*
X81233Y114686D01*
X81321Y115354D01*
X81233Y116022D01*
X80976Y116645D01*
X80565Y117180D01*
X80031Y117590D01*
X79408Y117848D01*
X78740Y117936D01*
D02*
G37*
G36*
X295437Y118937D02*
X287563D01*
Y111063D01*
X295437D01*
Y118937D01*
D02*
G37*
G36*
X301500Y118971D02*
X300472Y118836D01*
X299515Y118439D01*
X298692Y117808D01*
X298061Y116985D01*
X297664Y116028D01*
X297529Y115000D01*
X297664Y113972D01*
X298061Y113014D01*
X298692Y112192D01*
X299515Y111561D01*
X300472Y111164D01*
X301500Y111029D01*
X302528Y111164D01*
X303485Y111561D01*
X304308Y112192D01*
X304939Y113014D01*
X305336Y113972D01*
X305471Y115000D01*
X305336Y116028D01*
X304939Y116985D01*
X304308Y117808D01*
X303485Y118439D01*
X302528Y118836D01*
X301500Y118971D01*
D02*
G37*
G36*
X374000Y114581D02*
X373332Y114493D01*
X372709Y114235D01*
X372175Y113825D01*
X371765Y113291D01*
X371507Y112668D01*
X371419Y112000D01*
X371507Y111332D01*
X371765Y110709D01*
X372175Y110175D01*
X372709Y109765D01*
X373332Y109507D01*
X374000Y109419D01*
X374668Y109507D01*
X375291Y109765D01*
X375825Y110175D01*
X376235Y110709D01*
X376493Y111332D01*
X376581Y112000D01*
X376493Y112668D01*
X376235Y113291D01*
X375825Y113825D01*
X375291Y114235D01*
X374668Y114493D01*
X374000Y114581D01*
D02*
G37*
G36*
X398500Y113872D02*
X397498Y113740D01*
X396564Y113353D01*
X395762Y112738D01*
X395147Y111936D01*
X394760Y111002D01*
X394628Y110000D01*
X394760Y108998D01*
X395147Y108064D01*
X395762Y107262D01*
X396564Y106647D01*
X397498Y106260D01*
X398500Y106128D01*
X399502Y106260D01*
X400436Y106647D01*
X401238Y107262D01*
X401853Y108064D01*
X402240Y108998D01*
X402372Y110000D01*
X402240Y111002D01*
X401853Y111936D01*
X401238Y112738D01*
X400436Y113353D01*
X399502Y113740D01*
X398500Y113872D01*
D02*
G37*
G36*
X378000Y108081D02*
X377332Y107993D01*
X376709Y107735D01*
X376175Y107325D01*
X375765Y106791D01*
X375507Y106168D01*
X375419Y105500D01*
X375507Y104832D01*
X375765Y104209D01*
X376175Y103675D01*
X376709Y103265D01*
X377332Y103007D01*
X378000Y102919D01*
X378668Y103007D01*
X379291Y103265D01*
X379825Y103675D01*
X380235Y104209D01*
X380493Y104832D01*
X380581Y105500D01*
X380493Y106168D01*
X380235Y106791D01*
X379825Y107325D01*
X379291Y107735D01*
X378668Y107993D01*
X378000Y108081D01*
D02*
G37*
G36*
X250738Y106814D02*
X250070Y106726D01*
X249448Y106468D01*
X248913Y106058D01*
X248503Y105523D01*
X248245Y104901D01*
X248157Y104233D01*
X248245Y103565D01*
X248503Y102942D01*
X248913Y102408D01*
X249448Y101997D01*
X250070Y101740D01*
X250738Y101652D01*
X251406Y101740D01*
X252029Y101997D01*
X252564Y102408D01*
X252974Y102942D01*
X253232Y103565D01*
X253320Y104233D01*
X253232Y104901D01*
X252974Y105523D01*
X252564Y106058D01*
X252029Y106468D01*
X251406Y106726D01*
X250738Y106814D01*
D02*
G37*
G36*
X243000Y99081D02*
X242332Y98993D01*
X241709Y98735D01*
X241175Y98325D01*
X241065Y98182D01*
X240435D01*
X240325Y98325D01*
X239791Y98735D01*
X239168Y98993D01*
X238500Y99081D01*
X237832Y98993D01*
X237209Y98735D01*
X236675Y98325D01*
X236265Y97791D01*
X236007Y97168D01*
X235919Y96500D01*
X236007Y95832D01*
X236265Y95209D01*
X236675Y94675D01*
X237209Y94265D01*
X237832Y94007D01*
X238500Y93919D01*
X239168Y94007D01*
X239791Y94265D01*
X240325Y94675D01*
X240435Y94818D01*
X241065D01*
X241175Y94675D01*
X241709Y94265D01*
X242332Y94007D01*
X243000Y93919D01*
X243668Y94007D01*
X244291Y94265D01*
X244825Y94675D01*
X245235Y95209D01*
X245493Y95832D01*
X245581Y96500D01*
X245493Y97168D01*
X245235Y97791D01*
X244825Y98325D01*
X244291Y98735D01*
X243668Y98993D01*
X243000Y99081D01*
D02*
G37*
G36*
X64653Y94081D02*
X63986Y93993D01*
X63363Y93735D01*
X62828Y93325D01*
X62418Y92791D01*
X62160Y92168D01*
X62072Y91500D01*
X62160Y90832D01*
X62418Y90209D01*
X62828Y89675D01*
X63363Y89265D01*
X63986Y89007D01*
X64653Y88919D01*
X65322Y89007D01*
X65944Y89265D01*
X66479Y89675D01*
X66889Y90209D01*
X67147Y90832D01*
X67235Y91500D01*
X67147Y92168D01*
X66889Y92791D01*
X66479Y93325D01*
X65944Y93735D01*
X65322Y93993D01*
X64653Y94081D01*
D02*
G37*
G36*
X218000Y93581D02*
X217332Y93493D01*
X216709Y93235D01*
X216175Y92825D01*
X215765Y92291D01*
X215507Y91668D01*
X215419Y91000D01*
X215507Y90332D01*
X215765Y89709D01*
X216175Y89175D01*
X216709Y88765D01*
X217332Y88507D01*
X218000Y88419D01*
X218668Y88507D01*
X219291Y88765D01*
X219825Y89175D01*
X220235Y89709D01*
X220493Y90332D01*
X220581Y91000D01*
X220493Y91668D01*
X220235Y92291D01*
X219825Y92825D01*
X219291Y93235D01*
X218668Y93493D01*
X218000Y93581D01*
D02*
G37*
G36*
Y84581D02*
X217332Y84493D01*
X216709Y84235D01*
X216175Y83825D01*
X215765Y83291D01*
X215507Y82668D01*
X215419Y82000D01*
X215507Y81332D01*
X215765Y80709D01*
X216175Y80175D01*
X216709Y79765D01*
X217332Y79507D01*
X218000Y79419D01*
X218668Y79507D01*
X219291Y79765D01*
X219825Y80175D01*
X220235Y80709D01*
X220493Y81332D01*
X220581Y82000D01*
X220493Y82668D01*
X220235Y83291D01*
X219825Y83825D01*
X219291Y84235D01*
X218668Y84493D01*
X218000Y84581D01*
D02*
G37*
G36*
X383500Y86566D02*
X382113Y86383D01*
X380820Y85847D01*
X379709Y84995D01*
X378857Y83885D01*
X378322Y82592D01*
X378139Y81205D01*
X378322Y79817D01*
X378857Y78524D01*
X379709Y77414D01*
X380820Y76562D01*
X382113Y76027D01*
X383500Y75844D01*
X384888Y76027D01*
X386180Y76562D01*
X387291Y77414D01*
X388143Y78524D01*
X388678Y79817D01*
X388861Y81205D01*
X388678Y82592D01*
X388143Y83885D01*
X387291Y84995D01*
X386180Y85847D01*
X384888Y86383D01*
X383500Y86566D01*
D02*
G37*
G36*
X301610D02*
X300223Y86383D01*
X298930Y85847D01*
X297820Y84995D01*
X296968Y83885D01*
X296432Y82592D01*
X296249Y81205D01*
X296432Y79817D01*
X296968Y78524D01*
X297820Y77414D01*
X298930Y76562D01*
X300223Y76027D01*
X301610Y75844D01*
X302998Y76027D01*
X304291Y76562D01*
X305401Y77414D01*
X306253Y78524D01*
X306788Y79817D01*
X306971Y81205D01*
X306788Y82592D01*
X306253Y83885D01*
X305401Y84995D01*
X304291Y85847D01*
X302998Y86383D01*
X301610Y86566D01*
D02*
G37*
G36*
X284500Y71581D02*
X283832Y71493D01*
X283209Y71235D01*
X282675Y70825D01*
X282265Y70291D01*
X282007Y69668D01*
X281919Y69000D01*
X282007Y68332D01*
X282265Y67709D01*
X282675Y67175D01*
X283209Y66765D01*
X283832Y66507D01*
X284500Y66419D01*
X285168Y66507D01*
X285791Y66765D01*
X286325Y67175D01*
X286735Y67709D01*
X286993Y68332D01*
X287081Y69000D01*
X286993Y69668D01*
X286735Y70291D01*
X286325Y70825D01*
X285791Y71235D01*
X285168Y71493D01*
X284500Y71581D01*
D02*
G37*
G36*
X264500Y70581D02*
X263832Y70493D01*
X263209Y70235D01*
X262675Y69825D01*
X262265Y69291D01*
X262007Y68668D01*
X261919Y68000D01*
X262007Y67332D01*
X262265Y66709D01*
X262675Y66175D01*
X263209Y65765D01*
X263832Y65507D01*
X264500Y65419D01*
X265168Y65507D01*
X265791Y65765D01*
X266325Y66175D01*
X266735Y66709D01*
X266993Y67332D01*
X267081Y68000D01*
X266993Y68668D01*
X266735Y69291D01*
X266325Y69825D01*
X265791Y70235D01*
X265168Y70493D01*
X264500Y70581D01*
D02*
G37*
G36*
X383500Y74361D02*
X382113Y74178D01*
X380820Y73643D01*
X379709Y72791D01*
X378857Y71680D01*
X378322Y70388D01*
X378139Y69000D01*
X378322Y67612D01*
X378857Y66320D01*
X379709Y65209D01*
X380820Y64357D01*
X382113Y63822D01*
X383500Y63639D01*
X384888Y63822D01*
X386180Y64357D01*
X387291Y65209D01*
X388143Y66320D01*
X388678Y67612D01*
X388861Y69000D01*
X388678Y70388D01*
X388143Y71680D01*
X387291Y72791D01*
X386180Y73643D01*
X384888Y74178D01*
X383500Y74361D01*
D02*
G37*
G36*
X301610D02*
X300223Y74178D01*
X298930Y73643D01*
X297820Y72791D01*
X296968Y71680D01*
X296432Y70388D01*
X296249Y69000D01*
X296432Y67612D01*
X296968Y66320D01*
X297820Y65209D01*
X298930Y64357D01*
X300223Y63822D01*
X301610Y63639D01*
X302998Y63822D01*
X304291Y64357D01*
X305401Y65209D01*
X306253Y66320D01*
X306788Y67612D01*
X306971Y69000D01*
X306788Y70388D01*
X306253Y71680D01*
X305401Y72791D01*
X304291Y73643D01*
X302998Y74178D01*
X301610Y74361D01*
D02*
G37*
G36*
X257260Y50406D02*
X249583D01*
Y42728D01*
X257260D01*
Y50406D01*
D02*
G37*
G36*
X243579Y50439D02*
X242577Y50307D01*
X241643Y49920D01*
X240841Y49305D01*
X240226Y48503D01*
X239839Y47569D01*
X239707Y46567D01*
X239839Y45565D01*
X240226Y44631D01*
X240841Y43829D01*
X241643Y43214D01*
X242577Y42827D01*
X243579Y42695D01*
X244581Y42827D01*
X245515Y43214D01*
X246316Y43829D01*
X246932Y44631D01*
X247319Y45565D01*
X247450Y46567D01*
X247319Y47569D01*
X246932Y48503D01*
X246316Y49305D01*
X245515Y49920D01*
X244581Y50307D01*
X243579Y50439D01*
D02*
G37*
G36*
X288339Y50339D02*
X280661D01*
Y42661D01*
X288339D01*
Y50339D01*
D02*
G37*
G36*
X274658Y50372D02*
X273655Y50240D01*
X272722Y49853D01*
X271920Y49238D01*
X271304Y48436D01*
X270918Y47502D01*
X270786Y46500D01*
X270918Y45498D01*
X271304Y44564D01*
X271920Y43762D01*
X272722Y43147D01*
X273655Y42760D01*
X274658Y42628D01*
X275659Y42760D01*
X276593Y43147D01*
X277395Y43762D01*
X278011Y44564D01*
X278397Y45498D01*
X278529Y46500D01*
X278397Y47502D01*
X278011Y48436D01*
X277395Y49238D01*
X276593Y49853D01*
X275659Y50240D01*
X274658Y50372D01*
D02*
G37*
G36*
X222500Y46451D02*
X221477Y46316D01*
X220524Y45922D01*
X219706Y45294D01*
X219078Y44476D01*
X218684Y43523D01*
X218549Y42500D01*
X218684Y41477D01*
X219078Y40524D01*
X219706Y39706D01*
X220524Y39078D01*
X221477Y38684D01*
X222500Y38549D01*
X223523Y38684D01*
X224476Y39078D01*
X225294Y39706D01*
X225922Y40524D01*
X226316Y41477D01*
X226451Y42500D01*
X226316Y43523D01*
X225922Y44476D01*
X225294Y45294D01*
X224476Y45922D01*
X223523Y46316D01*
X222500Y46451D01*
D02*
G37*
G36*
X212657D02*
X211635Y46316D01*
X210682Y45922D01*
X209864Y45294D01*
X209236Y44476D01*
X208841Y43523D01*
X208706Y42500D01*
X208841Y41477D01*
X209236Y40524D01*
X209864Y39706D01*
X210682Y39078D01*
X211635Y38684D01*
X212657Y38549D01*
X213680Y38684D01*
X214633Y39078D01*
X215451Y39706D01*
X216079Y40524D01*
X216474Y41477D01*
X216609Y42500D01*
X216474Y43523D01*
X216079Y44476D01*
X215451Y45294D01*
X214633Y45922D01*
X213680Y46316D01*
X212657Y46451D01*
D02*
G37*
G36*
X202815D02*
X201792Y46316D01*
X200839Y45922D01*
X200021Y45294D01*
X199393Y44476D01*
X198998Y43523D01*
X198864Y42500D01*
X198998Y41477D01*
X199393Y40524D01*
X200021Y39706D01*
X200839Y39078D01*
X201792Y38684D01*
X202815Y38549D01*
X203838Y38684D01*
X204790Y39078D01*
X205609Y39706D01*
X206237Y40524D01*
X206631Y41477D01*
X206766Y42500D01*
X206631Y43523D01*
X206237Y44476D01*
X205609Y45294D01*
X204790Y45922D01*
X203838Y46316D01*
X202815Y46451D01*
D02*
G37*
G36*
X171000D02*
X169977Y46316D01*
X169024Y45922D01*
X168206Y45294D01*
X167578Y44476D01*
X167183Y43523D01*
X167049Y42500D01*
X167183Y41477D01*
X167578Y40524D01*
X168206Y39706D01*
X169024Y39078D01*
X169977Y38684D01*
X171000Y38549D01*
X172023Y38684D01*
X172976Y39078D01*
X173794Y39706D01*
X174422Y40524D01*
X174817Y41477D01*
X174951Y42500D01*
X174817Y43523D01*
X174422Y44476D01*
X173794Y45294D01*
X172976Y45922D01*
X172023Y46316D01*
X171000Y46451D01*
D02*
G37*
G36*
X161158D02*
X160135Y46316D01*
X159182Y45922D01*
X158364Y45294D01*
X157736Y44476D01*
X157341Y43523D01*
X157206Y42500D01*
X157341Y41477D01*
X157736Y40524D01*
X158364Y39706D01*
X159182Y39078D01*
X160135Y38684D01*
X161158Y38549D01*
X162180Y38684D01*
X163133Y39078D01*
X163951Y39706D01*
X164579Y40524D01*
X164974Y41477D01*
X165109Y42500D01*
X164974Y43523D01*
X164579Y44476D01*
X163951Y45294D01*
X163133Y45922D01*
X162180Y46316D01*
X161158Y46451D01*
D02*
G37*
G36*
X151315D02*
X150292Y46316D01*
X149339Y45922D01*
X148521Y45294D01*
X147893Y44476D01*
X147499Y43523D01*
X147364Y42500D01*
X147499Y41477D01*
X147893Y40524D01*
X148521Y39706D01*
X149339Y39078D01*
X150292Y38684D01*
X151315Y38549D01*
X152338Y38684D01*
X153290Y39078D01*
X154109Y39706D01*
X154737Y40524D01*
X155131Y41477D01*
X155266Y42500D01*
X155131Y43523D01*
X154737Y44476D01*
X154109Y45294D01*
X153290Y45922D01*
X152338Y46316D01*
X151315Y46451D01*
D02*
G37*
G36*
X370500Y42650D02*
X368677Y42507D01*
X366900Y42080D01*
X365211Y41380D01*
X363652Y40425D01*
X362262Y39238D01*
X361075Y37848D01*
X360120Y36289D01*
X359420Y34600D01*
X358993Y32822D01*
X358850Y31000D01*
X358993Y29177D01*
X359420Y27400D01*
X360120Y25711D01*
X361075Y24152D01*
X362262Y22762D01*
X363652Y21575D01*
X365211Y20620D01*
X366900Y19920D01*
X368677Y19493D01*
X370500Y19350D01*
X372323Y19493D01*
X374100Y19920D01*
X375789Y20620D01*
X377348Y21575D01*
X378738Y22762D01*
X379925Y24152D01*
X380880Y25711D01*
X381580Y27400D01*
X382007Y29177D01*
X382150Y31000D01*
X382007Y32822D01*
X381580Y34600D01*
X380880Y36289D01*
X379925Y37848D01*
X378738Y39238D01*
X377348Y40425D01*
X375789Y41380D01*
X374100Y42080D01*
X372323Y42507D01*
X370500Y42650D01*
D02*
G37*
%LPD*%
G36*
X214918Y311599D02*
X215086Y311474D01*
X215268Y311363D01*
X215466Y311266D01*
X215680Y311185D01*
X215908Y311118D01*
X216151Y311067D01*
X216409Y311030D01*
X216683Y311007D01*
X216971Y311000D01*
Y310000D01*
X216683Y309993D01*
X216409Y309970D01*
X216151Y309933D01*
X215908Y309882D01*
X215680Y309815D01*
X215466Y309734D01*
X215268Y309637D01*
X215086Y309526D01*
X214918Y309401D01*
X214765Y309260D01*
Y311740D01*
X214918Y311599D01*
D02*
G37*
G36*
X227235Y303260D02*
X227082Y303400D01*
X226914Y303526D01*
X226731Y303637D01*
X226534Y303733D01*
X226321Y303815D01*
X226092Y303882D01*
X225849Y303933D01*
X225591Y303970D01*
X225317Y303993D01*
X225029Y304000D01*
Y305000D01*
X225317Y305007D01*
X225591Y305030D01*
X225849Y305067D01*
X226092Y305118D01*
X226321Y305185D01*
X226534Y305266D01*
X226731Y305363D01*
X226914Y305474D01*
X227082Y305599D01*
X227235Y305740D01*
Y303260D01*
D02*
G37*
G36*
X228176Y296760D02*
X228023Y296901D01*
X227855Y297026D01*
X227673Y297137D01*
X227474Y297234D01*
X227261Y297315D01*
X227033Y297382D01*
X226790Y297433D01*
X226532Y297470D01*
X226258Y297493D01*
X225970Y297500D01*
Y298500D01*
X226258Y298507D01*
X226532Y298530D01*
X226790Y298567D01*
X227033Y298618D01*
X227261Y298685D01*
X227474Y298766D01*
X227673Y298863D01*
X227855Y298974D01*
X228023Y299099D01*
X228176Y299240D01*
Y296760D01*
D02*
G37*
G36*
X197079Y284893D02*
X197036Y284953D01*
X196971Y285007D01*
X196887Y285055D01*
X196781Y285096D01*
X196654Y285131D01*
X196507Y285160D01*
X196339Y285182D01*
X195941Y285208D01*
X195711Y285211D01*
Y286211D01*
X195941Y286214D01*
X196507Y286262D01*
X196654Y286290D01*
X196781Y286325D01*
X196887Y286366D01*
X196971Y286414D01*
X197036Y286468D01*
X197079Y286528D01*
Y284893D01*
D02*
G37*
G36*
X200042Y286835D02*
X200169Y286748D01*
X200317Y286672D01*
X200485Y286606D01*
X200674Y286550D01*
X200883Y286504D01*
X201112Y286468D01*
X201362Y286443D01*
X201922Y286422D01*
Y285422D01*
X201654Y285416D01*
X201181Y285369D01*
X200975Y285327D01*
X200791Y285274D01*
X200628Y285209D01*
X200486Y285132D01*
X200366Y285043D01*
X200266Y284942D01*
X200187Y284829D01*
X199934Y286932D01*
X200042Y286835D01*
D02*
G37*
G36*
X205994Y287430D02*
X206007Y287332D01*
X206265Y286709D01*
X206675Y286175D01*
X207209Y285765D01*
X207832Y285507D01*
X208372Y285436D01*
X208615Y284971D01*
X204983Y281339D01*
X201159D01*
X200972Y281355D01*
X200765Y281384D01*
X200577Y281424D01*
X200409Y281473D01*
X200259Y281531D01*
X200127Y281595D01*
X200009Y281666D01*
X199905Y281744D01*
X199822Y281820D01*
X199798Y281852D01*
X199264Y282262D01*
X198641Y282520D01*
X197973Y282608D01*
X197305Y282520D01*
X196683Y282262D01*
X196148Y281852D01*
X195813Y281415D01*
X195404Y281497D01*
X195313Y281545D01*
Y283456D01*
X196037Y284180D01*
X196636Y284133D01*
X196826Y283886D01*
X197360Y283475D01*
X197983Y283218D01*
X198651Y283130D01*
X199319Y283218D01*
X199941Y283475D01*
X200476Y283886D01*
X200886Y284420D01*
X200891Y284432D01*
X200892Y284434D01*
X200918Y284453D01*
X200971Y284481D01*
X201053Y284514D01*
X201167Y284547D01*
X201300Y284574D01*
X201656Y284610D01*
X201922D01*
X202425Y284710D01*
X202851Y284994D01*
X205466Y287610D01*
X205994Y287430D01*
D02*
G37*
G36*
X199391Y281126D02*
X199559Y281000D01*
X199742Y280889D01*
X199940Y280793D01*
X200153Y280712D01*
X200381Y280645D01*
X200624Y280593D01*
X200883Y280556D01*
X201156Y280534D01*
X201445Y280527D01*
Y279527D01*
X201156Y279519D01*
X200883Y279497D01*
X200624Y279460D01*
X200381Y279408D01*
X200153Y279342D01*
X199940Y279260D01*
X199886Y279234D01*
X199906Y279178D01*
X199999Y278970D01*
X200113Y278762D01*
X200248Y278553D01*
X200405Y278344D01*
X200583Y278135D01*
X200781Y277926D01*
X200074Y277219D01*
X199865Y277417D01*
X199656Y277595D01*
X199447Y277752D01*
X199238Y277887D01*
X199030Y278001D01*
X198822Y278094D01*
X198614Y278166D01*
X198406Y278217D01*
X198198Y278247D01*
X197991Y278255D01*
X199239Y279503D01*
Y281267D01*
X199391Y281126D01*
D02*
G37*
G36*
X213884Y277502D02*
X214080Y277396D01*
X214287Y277304D01*
X214504Y277223D01*
X214732Y277155D01*
X214970Y277099D01*
X215218Y277056D01*
X215477Y277025D01*
X216026Y277000D01*
X216232Y276000D01*
X215937Y275992D01*
X215663Y275967D01*
X215408Y275927D01*
X215173Y275870D01*
X214958Y275796D01*
X214762Y275707D01*
X214586Y275601D01*
X214544Y275568D01*
X214556Y275518D01*
X214628Y275310D01*
X214721Y275102D01*
X214835Y274894D01*
X214971Y274685D01*
X215127Y274476D01*
X215305Y274267D01*
X215504Y274058D01*
X214797Y273351D01*
X214587Y273550D01*
X214378Y273727D01*
X214169Y273884D01*
X213961Y274019D01*
X213752Y274133D01*
X213544Y274227D01*
X213336Y274299D01*
X213128Y274349D01*
X212921Y274379D01*
X212713Y274387D01*
X214067Y275741D01*
X213698Y277620D01*
X213884Y277502D01*
D02*
G37*
G36*
X197973Y277446D02*
X198013Y277451D01*
X198125Y277446D01*
X198254Y277428D01*
X198387Y277395D01*
X198526Y277347D01*
X198673Y277282D01*
X198827Y277197D01*
X198987Y277093D01*
X199155Y276967D01*
X199298Y276846D01*
X200452Y275692D01*
X200878Y275407D01*
X201380Y275307D01*
X202837D01*
X208831Y269313D01*
X208624Y268813D01*
X205544D01*
X197330Y277026D01*
X197564Y277500D01*
X197973Y277446D01*
D02*
G37*
G36*
X205435Y314124D02*
X205419Y314000D01*
X205507Y313332D01*
X205765Y312709D01*
X206175Y312175D01*
X206709Y311765D01*
X207332Y311507D01*
X207500Y311485D01*
Y308500D01*
X208500Y307500D01*
Y303500D01*
X194000Y289000D01*
Y285856D01*
X193072Y284928D01*
X192787Y284502D01*
X192687Y284000D01*
Y278500D01*
X192787Y277998D01*
X193072Y277572D01*
X194000Y276644D01*
Y275000D01*
X179514Y260513D01*
X179000Y260581D01*
X178332Y260493D01*
X177709Y260235D01*
X177175Y259825D01*
X176765Y259291D01*
X176507Y258668D01*
X176419Y258000D01*
X176487Y257487D01*
X170000Y251000D01*
Y246000D01*
X166000Y242000D01*
X160821D01*
X160575Y242500D01*
X160735Y242709D01*
X160993Y243332D01*
X161081Y244000D01*
X160993Y244668D01*
X160735Y245291D01*
X160325Y245825D01*
X159791Y246235D01*
X159168Y246493D01*
X158500Y246581D01*
X157832Y246493D01*
X157209Y246235D01*
X156675Y245825D01*
X156548Y245659D01*
X155884Y245616D01*
X155000Y246500D01*
Y254000D01*
X160598Y259597D01*
X161472Y259235D01*
X162500Y259100D01*
X163528Y259235D01*
X164486Y259632D01*
X165308Y260263D01*
X165939Y261085D01*
X166336Y262043D01*
X166471Y263071D01*
X166336Y264099D01*
X165973Y264973D01*
X182500Y281500D01*
Y290500D01*
X199500Y307500D01*
Y310500D01*
X203500Y314500D01*
X205105D01*
X205435Y314124D01*
D02*
G37*
G36*
X183808Y136101D02*
X183609Y135892D01*
X183432Y135683D01*
X183275Y135474D01*
X183140Y135265D01*
X183026Y135057D01*
X182932Y134848D01*
X182861Y134641D01*
X182810Y134433D01*
X182780Y134225D01*
X182772Y134018D01*
X181018Y135772D01*
X181225Y135780D01*
X181433Y135810D01*
X181641Y135861D01*
X181849Y135932D01*
X182057Y136026D01*
X182265Y136140D01*
X182474Y136275D01*
X182683Y136432D01*
X182892Y136609D01*
X183101Y136808D01*
X183808Y136101D01*
D02*
G37*
G36*
X201208Y135501D02*
X201009Y135292D01*
X200832Y135083D01*
X200675Y134874D01*
X200540Y134665D01*
X200426Y134457D01*
X200332Y134249D01*
X200261Y134041D01*
X200210Y133833D01*
X200180Y133625D01*
X200172Y133418D01*
X198418Y135172D01*
X198625Y135180D01*
X198833Y135210D01*
X199041Y135261D01*
X199249Y135333D01*
X199457Y135426D01*
X199665Y135540D01*
X199874Y135675D01*
X200083Y135832D01*
X200292Y136009D01*
X200501Y136208D01*
X201208Y135501D01*
D02*
G37*
G36*
X192308Y135101D02*
X192109Y134892D01*
X191932Y134683D01*
X191775Y134474D01*
X191640Y134265D01*
X191525Y134057D01*
X191432Y133849D01*
X191360Y133641D01*
X191310Y133433D01*
X191280Y133225D01*
X191272Y133018D01*
X189518Y134772D01*
X189725Y134780D01*
X189933Y134810D01*
X190140Y134861D01*
X190348Y134932D01*
X190557Y135026D01*
X190765Y135140D01*
X190974Y135275D01*
X191183Y135432D01*
X191392Y135609D01*
X191601Y135808D01*
X192308Y135101D01*
D02*
G37*
G36*
X322789Y235569D02*
X322678Y235721D01*
X322543Y235837D01*
X322384Y235915D01*
X322200Y235956D01*
X321991Y235961D01*
X321758Y235929D01*
X321501Y235860D01*
X321219Y235754D01*
X320913Y235611D01*
X320582Y235432D01*
X319598Y237136D01*
X319919Y237333D01*
X320195Y237527D01*
X320428Y237718D01*
X320617Y237906D01*
X320761Y238092D01*
X320861Y238275D01*
X320917Y238455D01*
X320929Y238632D01*
X320897Y238807D01*
X320821Y238979D01*
X322789Y235569D01*
D02*
G37*
G36*
X309490Y100598D02*
X309258Y100363D01*
X308465Y99443D01*
X308380Y99310D01*
X308319Y99196D01*
X308283Y99098D01*
X308272Y99018D01*
X306518Y100772D01*
X306598Y100783D01*
X306696Y100819D01*
X306810Y100880D01*
X306943Y100965D01*
X307092Y101075D01*
X307443Y101367D01*
X307863Y101758D01*
X308098Y101990D01*
X309490Y100598D01*
D02*
G37*
G36*
X139482Y194728D02*
X139275Y194720D01*
X139067Y194690D01*
X138859Y194640D01*
X138652Y194568D01*
X138443Y194474D01*
X138235Y194360D01*
X138026Y194225D01*
X137817Y194068D01*
X137608Y193891D01*
X137399Y193692D01*
X136692Y194399D01*
X136891Y194608D01*
X137068Y194817D01*
X137225Y195026D01*
X137360Y195235D01*
X137475Y195443D01*
X137568Y195651D01*
X137639Y195860D01*
X137690Y196067D01*
X137720Y196275D01*
X137728Y196482D01*
X139482Y194728D01*
D02*
G37*
G36*
X140575Y190065D02*
X140454Y189906D01*
X140348Y189731D01*
X140255Y189539D01*
X140178Y189330D01*
X140114Y189103D01*
X140064Y188860D01*
X140028Y188600D01*
X140007Y188323D01*
X140000Y188029D01*
X139000D01*
X138993Y188323D01*
X138972Y188600D01*
X138936Y188860D01*
X138886Y189103D01*
X138822Y189330D01*
X138744Y189539D01*
X138652Y189731D01*
X138546Y189906D01*
X138425Y190065D01*
X138290Y190206D01*
X140710D01*
X140575Y190065D01*
D02*
G37*
G36*
X131982Y190918D02*
X131919Y190441D01*
X132007Y189773D01*
X132265Y189150D01*
X132675Y188616D01*
X133209Y188206D01*
X133832Y187948D01*
X134500Y187860D01*
X135168Y187948D01*
X135791Y188206D01*
X136325Y188616D01*
X136735Y189150D01*
X136985Y189753D01*
X137066Y189789D01*
X137513Y189886D01*
X137675Y189675D01*
X137720Y189640D01*
X137814Y189542D01*
X137882Y189453D01*
X137946Y189348D01*
X138005Y189224D01*
X138059Y189080D01*
X138106Y188914D01*
X138144Y188725D01*
X138171Y188528D01*
X134956Y185313D01*
X126322D01*
X126131Y185775D01*
X131508Y191152D01*
X131982Y190918D01*
D02*
G37*
G36*
X82672Y182451D02*
X82849Y182262D01*
X83054Y182095D01*
X83287Y181949D01*
X83549Y181827D01*
X83839Y181726D01*
X84157Y181648D01*
X84503Y181592D01*
X84878Y181559D01*
X85281Y181548D01*
Y180548D01*
X84878Y180537D01*
X84503Y180503D01*
X84157Y180447D01*
X83839Y180369D01*
X83549Y180269D01*
X83287Y180146D01*
X83054Y180001D01*
X82849Y179834D01*
X82672Y179644D01*
X82523Y179432D01*
Y182664D01*
X82672Y182451D01*
D02*
G37*
G36*
X77495Y174393D02*
X77846Y174106D01*
X78211Y173852D01*
X78590Y173633D01*
X78981Y173447D01*
X79387Y173294D01*
X79805Y173176D01*
X80237Y173091D01*
X80682Y173041D01*
X81141Y173024D01*
Y172024D01*
X80682Y172007D01*
X80237Y171956D01*
X79805Y171872D01*
X79387Y171753D01*
X78981Y171601D01*
X78590Y171415D01*
X78211Y171195D01*
X77846Y170942D01*
X77495Y170654D01*
X77157Y170333D01*
Y174715D01*
X77495Y174393D01*
D02*
G37*
G36*
X149313Y234212D02*
X149187Y234044D01*
X149076Y233861D01*
X148980Y233664D01*
X148898Y233450D01*
X148832Y233222D01*
X148780Y232979D01*
X148743Y232721D01*
X148721Y232447D01*
X148713Y232159D01*
X147713D01*
X147706Y232447D01*
X147684Y232721D01*
X147647Y232979D01*
X147595Y233222D01*
X147528Y233450D01*
X147447Y233664D01*
X147351Y233861D01*
X147239Y234044D01*
X147114Y234212D01*
X146973Y234365D01*
X149453D01*
X149313Y234212D01*
D02*
G37*
G36*
X173388Y167760D02*
X173236Y167901D01*
X173068Y168026D01*
X172885Y168137D01*
X172687Y168234D01*
X172474Y168315D01*
X172246Y168382D01*
X172003Y168433D01*
X171744Y168470D01*
X171471Y168493D01*
X171182Y168500D01*
Y169500D01*
X171471Y169507D01*
X171744Y169530D01*
X172003Y169567D01*
X172246Y169618D01*
X172474Y169685D01*
X172687Y169766D01*
X172885Y169863D01*
X173068Y169974D01*
X173236Y170099D01*
X173388Y170240D01*
Y167760D01*
D02*
G37*
%LPC*%
G36*
X115177Y143404D02*
X114509Y143316D01*
X113886Y143058D01*
X113352Y142648D01*
X112942Y142114D01*
X112684Y141491D01*
X112596Y140823D01*
X112684Y140155D01*
X112942Y139532D01*
X113352Y138998D01*
X113886Y138588D01*
X114509Y138330D01*
X115177Y138242D01*
X115845Y138330D01*
X116467Y138588D01*
X117002Y138998D01*
X117412Y139532D01*
X117670Y140155D01*
X117758Y140823D01*
X117670Y141491D01*
X117412Y142114D01*
X117002Y142648D01*
X116467Y143058D01*
X115845Y143316D01*
X115177Y143404D01*
D02*
G37*
G36*
X115500Y135081D02*
X114832Y134993D01*
X114209Y134735D01*
X113675Y134325D01*
X113265Y133791D01*
X113007Y133168D01*
X112919Y132500D01*
X113007Y131832D01*
X113265Y131209D01*
X113675Y130675D01*
X114209Y130265D01*
X114832Y130007D01*
X115500Y129919D01*
X116168Y130007D01*
X116791Y130265D01*
X117325Y130675D01*
X117735Y131209D01*
X117993Y131832D01*
X118081Y132500D01*
X117993Y133168D01*
X117735Y133791D01*
X117325Y134325D01*
X116791Y134735D01*
X116168Y134993D01*
X115500Y135081D01*
D02*
G37*
G36*
Y126081D02*
X114832Y125993D01*
X114209Y125735D01*
X113675Y125325D01*
X113265Y124791D01*
X113007Y124168D01*
X112919Y123500D01*
X113007Y122832D01*
X113265Y122209D01*
X113675Y121675D01*
X114209Y121265D01*
X114660Y121078D01*
X114592Y120565D01*
X114495Y120552D01*
X113873Y120294D01*
X113338Y119884D01*
X112928Y119350D01*
X112670Y118727D01*
X112582Y118059D01*
X112670Y117391D01*
X112928Y116769D01*
X113338Y116234D01*
X113873Y115824D01*
X114495Y115566D01*
X115163Y115478D01*
X115831Y115566D01*
X116454Y115824D01*
X116988Y116234D01*
X117398Y116769D01*
X117656Y117391D01*
X117744Y118059D01*
X117656Y118727D01*
X117398Y119350D01*
X116988Y119884D01*
X116454Y120294D01*
X116004Y120481D01*
X116071Y120994D01*
X116168Y121007D01*
X116791Y121265D01*
X117325Y121675D01*
X117735Y122209D01*
X117993Y122832D01*
X118081Y123500D01*
X117993Y124168D01*
X117735Y124791D01*
X117325Y125325D01*
X116791Y125735D01*
X116168Y125993D01*
X115500Y126081D01*
D02*
G37*
G36*
X110500Y106581D02*
X109832Y106493D01*
X109209Y106235D01*
X108675Y105825D01*
X108265Y105291D01*
X108007Y104668D01*
X107919Y104000D01*
X108007Y103332D01*
X108265Y102709D01*
X108675Y102175D01*
X109209Y101765D01*
X109832Y101507D01*
X110500Y101419D01*
X111168Y101507D01*
X111791Y101765D01*
X112325Y102175D01*
X112735Y102709D01*
X112993Y103332D01*
X113081Y104000D01*
X112993Y104668D01*
X112735Y105291D01*
X112325Y105825D01*
X111791Y106235D01*
X111168Y106493D01*
X110500Y106581D01*
D02*
G37*
G36*
X114000Y84022D02*
X113332Y83934D01*
X112709Y83676D01*
X112175Y83266D01*
X111765Y82731D01*
X111507Y82109D01*
X111419Y81441D01*
X111507Y80773D01*
X111765Y80150D01*
X112175Y79616D01*
X112364Y79470D01*
Y78970D01*
X112175Y78825D01*
X111765Y78291D01*
X111507Y77668D01*
X111419Y77000D01*
X111507Y76332D01*
X111765Y75709D01*
X112175Y75175D01*
X112709Y74765D01*
X113332Y74507D01*
X114000Y74419D01*
X114668Y74507D01*
X115291Y74765D01*
X115825Y75175D01*
X116235Y75709D01*
X116493Y76332D01*
X116581Y77000D01*
X116493Y77668D01*
X116235Y78291D01*
X115825Y78825D01*
X115636Y78970D01*
Y79470D01*
X115825Y79616D01*
X116235Y80150D01*
X116493Y80773D01*
X116581Y81441D01*
X116493Y82109D01*
X116235Y82731D01*
X115825Y83266D01*
X115291Y83676D01*
X114668Y83934D01*
X114000Y84022D01*
D02*
G37*
G36*
X31500Y110581D02*
X30832Y110493D01*
X30209Y110235D01*
X29675Y109825D01*
X29265Y109291D01*
X29007Y108668D01*
X28919Y108000D01*
X29007Y107332D01*
X29265Y106709D01*
X29675Y106175D01*
X30209Y105765D01*
X30832Y105507D01*
X31500Y105419D01*
X32168Y105507D01*
X32791Y105765D01*
X33325Y106175D01*
X33735Y106709D01*
X33993Y107332D01*
X34081Y108000D01*
X33993Y108668D01*
X33735Y109291D01*
X33325Y109825D01*
X32791Y110235D01*
X32168Y110493D01*
X31500Y110581D01*
D02*
G37*
G36*
X41000Y94022D02*
X40332Y93934D01*
X39709Y93676D01*
X39175Y93266D01*
X38765Y92731D01*
X38507Y92109D01*
X38419Y91441D01*
X38507Y90773D01*
X38765Y90150D01*
X38940Y89922D01*
X38715Y89568D01*
X38635Y89498D01*
X38000Y89581D01*
X37332Y89493D01*
X36709Y89235D01*
X36175Y88825D01*
X35765Y88291D01*
X35507Y87668D01*
X35419Y87000D01*
X35507Y86332D01*
X35765Y85709D01*
X36175Y85175D01*
X36709Y84765D01*
X37332Y84507D01*
X38000Y84419D01*
X38668Y84507D01*
X39291Y84765D01*
X39825Y85175D01*
X40235Y85709D01*
X40493Y86332D01*
X40581Y87000D01*
X40493Y87668D01*
X40235Y88291D01*
X40060Y88519D01*
X40285Y88873D01*
X40365Y88943D01*
X41000Y88860D01*
X41668Y88948D01*
X42291Y89206D01*
X42825Y89616D01*
X43235Y90150D01*
X43493Y90773D01*
X43581Y91441D01*
X43493Y92109D01*
X43235Y92731D01*
X42825Y93266D01*
X42291Y93676D01*
X41668Y93934D01*
X41000Y94022D01*
D02*
G37*
G36*
X75000Y76581D02*
X74332Y76493D01*
X73709Y76235D01*
X73175Y75825D01*
X72765Y75291D01*
X72507Y74668D01*
X72419Y74000D01*
X72507Y73332D01*
X72765Y72709D01*
X73175Y72175D01*
X73709Y71765D01*
X74332Y71507D01*
X75000Y71419D01*
X75668Y71507D01*
X76291Y71765D01*
X76825Y72175D01*
X77235Y72709D01*
X77493Y73332D01*
X77581Y74000D01*
X77493Y74668D01*
X77235Y75291D01*
X76825Y75825D01*
X76291Y76235D01*
X75668Y76493D01*
X75000Y76581D01*
D02*
G37*
G36*
X63500Y71081D02*
X62832Y70993D01*
X62209Y70735D01*
X61675Y70325D01*
X61265Y69791D01*
X61007Y69168D01*
X60919Y68500D01*
X61007Y67832D01*
X61265Y67209D01*
X61675Y66675D01*
X62209Y66265D01*
X62832Y66007D01*
X63500Y65919D01*
X64168Y66007D01*
X64791Y66265D01*
X65325Y66675D01*
X65735Y67209D01*
X65993Y67832D01*
X66081Y68500D01*
X65993Y69168D01*
X65735Y69791D01*
X65325Y70325D01*
X64791Y70735D01*
X64168Y70993D01*
X63500Y71081D01*
D02*
G37*
G36*
X56000D02*
X55332Y70993D01*
X54709Y70735D01*
X54175Y70325D01*
X53765Y69791D01*
X53507Y69168D01*
X53419Y68500D01*
X53507Y67832D01*
X53765Y67209D01*
X54175Y66675D01*
X54709Y66265D01*
X55332Y66007D01*
X56000Y65919D01*
X56668Y66007D01*
X57291Y66265D01*
X57825Y66675D01*
X58235Y67209D01*
X58493Y67832D01*
X58581Y68500D01*
X58493Y69168D01*
X58235Y69791D01*
X57825Y70325D01*
X57291Y70735D01*
X56668Y70993D01*
X56000Y71081D01*
D02*
G37*
G36*
X70500Y42650D02*
X68678Y42507D01*
X66900Y42080D01*
X65211Y41380D01*
X63652Y40425D01*
X62262Y39238D01*
X61075Y37848D01*
X60120Y36289D01*
X59420Y34600D01*
X58993Y32822D01*
X58850Y31000D01*
X58993Y29177D01*
X59420Y27400D01*
X60120Y25711D01*
X61075Y24152D01*
X62262Y22762D01*
X63652Y21575D01*
X65211Y20620D01*
X66900Y19920D01*
X68678Y19493D01*
X70500Y19350D01*
X72322Y19493D01*
X74100Y19920D01*
X75789Y20620D01*
X77348Y21575D01*
X78738Y22762D01*
X79925Y24152D01*
X80880Y25711D01*
X81580Y27400D01*
X82007Y29177D01*
X82150Y31000D01*
X82007Y32822D01*
X81580Y34600D01*
X80880Y36289D01*
X79925Y37848D01*
X78738Y39238D01*
X77348Y40425D01*
X75789Y41380D01*
X74100Y42080D01*
X72322Y42507D01*
X70500Y42650D01*
D02*
G37*
G36*
X104000Y77081D02*
X103332Y76993D01*
X102709Y76735D01*
X102175Y76325D01*
X101765Y75791D01*
X101507Y75168D01*
X101419Y74500D01*
X101507Y73832D01*
X101765Y73209D01*
X102175Y72675D01*
X102709Y72265D01*
X103332Y72007D01*
X104000Y71919D01*
X104668Y72007D01*
X105291Y72265D01*
X105825Y72675D01*
X106235Y73209D01*
X106493Y73832D01*
X106581Y74500D01*
X106493Y75168D01*
X106235Y75791D01*
X105825Y76325D01*
X105291Y76735D01*
X104668Y76993D01*
X104000Y77081D01*
D02*
G37*
G36*
X100223Y57846D02*
X99555Y57758D01*
X98932Y57500D01*
X98398Y57090D01*
X97988Y56556D01*
X97730Y55933D01*
X97642Y55265D01*
X97730Y54597D01*
X97988Y53975D01*
X98398Y53440D01*
X98932Y53030D01*
X99555Y52772D01*
X100223Y52684D01*
X100891Y52772D01*
X101514Y53030D01*
X102048Y53440D01*
X102458Y53975D01*
X102716Y54597D01*
X102804Y55265D01*
X102716Y55933D01*
X102458Y56556D01*
X102048Y57090D01*
X101514Y57500D01*
X100891Y57758D01*
X100223Y57846D01*
D02*
G37*
G36*
X92000Y51971D02*
X90972Y51836D01*
X90014Y51439D01*
X89192Y50808D01*
X88561Y49986D01*
X88164Y49028D01*
X88029Y48000D01*
X88164Y46972D01*
X88561Y46014D01*
X89192Y45192D01*
X90014Y44561D01*
X90972Y44164D01*
X92000Y44029D01*
X93028Y44164D01*
X93985Y44561D01*
X94808Y45192D01*
X95439Y46014D01*
X95836Y46972D01*
X95971Y48000D01*
X95836Y49028D01*
X95439Y49986D01*
X94808Y50808D01*
X93985Y51439D01*
X93028Y51836D01*
X92000Y51971D01*
D02*
G37*
%LPD*%
D14*
X80512Y43012D02*
Y51098D01*
X96000Y66587D01*
Y77500D01*
X80413Y42587D02*
Y50500D01*
Y42587D02*
X85000Y38000D01*
X55000Y90000D02*
Y118500D01*
Y90000D02*
X65000Y80000D01*
X55000Y118500D02*
X59500Y123000D01*
X306500Y99000D02*
X316000Y108500D01*
Y115000D01*
X311500Y234500D02*
X317000D01*
X300000Y223000D02*
X311500Y234500D01*
X317000D02*
X322637Y237754D01*
X324749Y238229D01*
X300000Y131000D02*
Y223000D01*
Y131000D02*
X316000Y115000D01*
X141472Y36681D02*
Y42500D01*
Y36681D02*
X143153Y35000D01*
X191000D01*
X192972Y36972D02*
Y42500D01*
X191000Y35000D02*
X192972Y36972D01*
X193000Y48500D02*
Y54000D01*
X192972Y48472D02*
X193000Y48500D01*
X192972Y42500D02*
Y48472D01*
X186000Y61000D02*
X193000Y54000D01*
X186000Y61000D02*
Y93500D01*
X216000Y123500D02*
Y155000D01*
X186000Y93500D02*
X216000Y123500D01*
X223000Y162000D02*
X246000D01*
X216000Y155000D02*
X223000Y162000D01*
X93500Y80000D02*
X96000Y77500D01*
X65000Y80000D02*
X93500D01*
X53500Y135500D02*
X59500Y129500D01*
Y123000D02*
Y129500D01*
X85000Y38000D02*
X92000D01*
D79*
X324749Y238229D02*
D03*
D86*
X148213Y180287D02*
X159500Y169000D01*
X148213Y180287D02*
Y235630D01*
X209000Y142500D02*
Y158000D01*
X204000Y137500D02*
X209000Y142500D01*
X198400Y133400D02*
X202500Y137500D01*
X204000D01*
X202500Y141500D02*
X206000Y145000D01*
Y159000D01*
X189500Y133000D02*
X198000Y141500D01*
X202500D01*
X202000Y149000D02*
Y161500D01*
X199000Y146000D02*
X202000Y149000D01*
X181000Y134000D02*
X193000Y146000D01*
X199000D01*
X181227Y116273D02*
X181273D01*
X236000Y294500D02*
Y308500D01*
X213500Y310500D02*
X234000D01*
X236000Y308500D01*
X218000Y276500D02*
X236000Y294500D01*
X230000Y179000D02*
Y258855D01*
X212696Y276159D02*
X230000Y258855D01*
X228213Y181213D02*
Y256787D01*
X215000Y270000D02*
X228213Y256787D01*
X206000Y159000D02*
X228213Y181213D01*
X209000Y158000D02*
X230000Y179000D01*
X202000Y161500D02*
X226425Y185925D01*
X213500Y267500D02*
X226425Y254575D01*
Y185925D02*
Y254575D01*
X205000Y267500D02*
X213500D01*
X194000Y278500D02*
X205000Y267500D01*
X197973Y280027D02*
X201380Y276620D01*
X203380D01*
X210000Y270000D01*
X215000D01*
X213000Y276500D02*
X218000D01*
X159500Y169000D02*
X174653D01*
X139500Y188000D02*
Y191500D01*
X223500Y298000D02*
X229441D01*
X205527Y280027D02*
X223500Y298000D01*
X197973Y280027D02*
X205527D01*
X201922Y285922D02*
X220500Y304500D01*
X198651Y285711D02*
X198862Y285922D01*
X201922D01*
X220500Y304500D02*
X228500D01*
X194000Y278500D02*
Y284000D01*
X195711Y285711D02*
X198651D01*
X194000Y284000D02*
X195711Y285711D01*
X355933Y189116D02*
X359136Y190965D01*
X361500Y192170D01*
X341129Y216371D02*
X355416Y189658D01*
X355933Y189116D01*
X341129Y217200D02*
X341345Y217488D01*
X343339Y218639D01*
X341129Y216371D02*
Y217200D01*
X343339Y218639D02*
X346000Y219330D01*
X100000Y184000D02*
X135500D01*
X139500Y188000D01*
X88524Y172524D02*
X100000Y184000D01*
X90233Y186000D02*
X124500D01*
X132000Y193500D02*
X136500D01*
X124500Y186000D02*
X132000Y193500D01*
X74921Y172524D02*
X88524D01*
X136500Y193500D02*
X139500Y196500D01*
X79843Y181048D02*
X85281D01*
X90233Y186000D01*
D90*
X206500Y190000D02*
D03*
D91*
X104500Y145000D02*
D03*
D92*
X280500Y332830D02*
D03*
D93*
X293000Y103500D02*
D03*
X103500Y38000D02*
D03*
X162500Y253071D02*
D03*
X92000Y38000D02*
D03*
D94*
X192972Y42500D02*
D03*
X141472D02*
D03*
D95*
X53500Y135500D02*
D03*
X79843Y181048D02*
D03*
X74921Y172524D02*
D03*
D96*
X84764Y189572D02*
D03*
D102*
X346000Y219330D02*
D03*
X336000Y213830D02*
D03*
X361500Y192170D02*
D03*
D108*
X115500Y38500D02*
D03*
D109*
Y48500D02*
D03*
D111*
X96358Y223228D02*
D03*
X114370Y111319D02*
D03*
X80512Y43012D02*
D03*
X148213Y235630D02*
D03*
X173524Y270079D02*
D03*
X191929Y239567D02*
D03*
X215059Y242421D02*
D03*
X198400Y133400D02*
D03*
X189500Y133000D02*
D03*
X181000Y134000D02*
D03*
X181227Y116273D02*
D03*
X228500Y97500D02*
D03*
X272500Y154500D02*
D03*
Y149000D02*
D03*
Y143000D02*
D03*
X212696Y276159D02*
D03*
X215837Y281663D02*
D03*
X174653Y169000D02*
D03*
X171000Y189000D02*
D03*
X154500Y215000D02*
D03*
X139500Y191500D02*
D03*
X85000Y74500D02*
D03*
X49500Y101000D02*
D03*
X69338Y86512D02*
D03*
X238000Y111000D02*
D03*
X221500Y96000D02*
D03*
X306500Y99000D02*
D03*
X315198Y230269D02*
D03*
X229441Y298000D02*
D03*
X199500Y100500D02*
D03*
X189500Y280000D02*
D03*
X197973Y280027D02*
D03*
X190500Y257500D02*
D03*
X313000Y211500D02*
D03*
X329000Y39000D02*
D03*
X219000Y102000D02*
D03*
Y109500D02*
D03*
X240471Y150530D02*
D03*
X246000Y162000D02*
D03*
X284626Y208805D02*
D03*
X145500Y264000D02*
D03*
X110500Y167500D02*
D03*
X76000Y100500D02*
D03*
X82500Y86000D02*
D03*
X78000D02*
D03*
X110000Y85000D02*
D03*
X152500Y56000D02*
D03*
X161000D02*
D03*
X52000Y74500D02*
D03*
X69500Y74000D02*
D03*
X62500D02*
D03*
X45500Y76500D02*
D03*
X58500D02*
D03*
X139500Y196500D02*
D03*
X228500Y304500D02*
D03*
X198651Y285711D02*
D03*
X213500Y310500D02*
D03*
X296000Y123500D02*
D03*
X264500Y104000D02*
D03*
X206000Y306500D02*
D03*
D112*
X262000Y111000D02*
X263418Y109581D01*
X264500Y108500D01*
Y104000D02*
Y108500D01*
X238000Y111000D02*
X262000D01*
X238000Y107000D02*
Y111000D01*
X234500Y103500D02*
X238000Y107000D01*
X228391Y103500D02*
X234500D01*
X221952Y96452D02*
Y99317D01*
X225588Y100697D02*
X228391Y103500D01*
X223333Y100697D02*
X225588D01*
X221952Y99317D02*
X223333Y100697D01*
X221500Y96000D02*
X221952Y96452D01*
M02*
