G04*
G04 #@! TF.GenerationSoftware,Altium Limited,Altium Designer,22.1.2 (22)*
G04*
G04 Layer_Color=39423*
%FSLAX25Y25*%
%MOIN*%
G70*
G04*
G04 #@! TF.SameCoordinates,8C121C91-0C0E-4A63-ABDB-05F36A63E408*
G04*
G04*
G04 #@! TF.FilePolarity,Positive*
G04*
G01*
G75*
%ADD10C,0.00394*%
%ADD11C,0.00600*%
%ADD12C,0.00984*%
%ADD13C,0.00500*%
%ADD15C,0.00787*%
%ADD16C,0.00669*%
%ADD152C,0.02362*%
%ADD153C,0.00945*%
%ADD154C,0.00300*%
%ADD155R,0.07087X0.01181*%
%ADD156R,0.06299X0.01181*%
D10*
X66597Y76661D02*
G03*
X65317Y76661I-640J0D01*
G01*
X221661Y105317D02*
G03*
X221661Y106597I0J640D01*
G01*
X77903Y84398D02*
G03*
X79183Y84398I640J0D01*
G01*
X232097Y144161D02*
G03*
X230817Y144161I-640J0D01*
G01*
X65317Y76661D02*
X66941D01*
X64973D02*
X66597D01*
X64973D02*
Y84339D01*
X66941D01*
Y76661D02*
Y84339D01*
X221661Y104972D02*
X229339D01*
Y106941D01*
X221661D02*
X229339D01*
X221661Y105317D02*
Y106941D01*
Y104972D02*
Y106597D01*
X77559Y84398D02*
X79183D01*
X77903D02*
X79527D01*
Y76720D02*
Y84398D01*
X77559Y76720D02*
X79527D01*
X77559D02*
Y84398D01*
X232441Y144161D02*
Y151839D01*
X230472D02*
X232441D01*
X230472Y144161D02*
Y151839D01*
Y144161D02*
X232097D01*
X230817D02*
X232441D01*
D11*
X43474Y104390D02*
X57676Y96190D01*
X33324Y86810D02*
X47526Y78610D01*
X282200Y77150D02*
Y93850D01*
X246800Y77150D02*
Y93850D01*
X84600Y91100D02*
X101400D01*
X84600Y111900D02*
X101400D01*
D12*
X266216Y46567D02*
G03*
X266216Y46567I-492J0D01*
G01*
X297295Y46500D02*
G03*
X297295Y46500I-492J0D01*
G01*
X243685Y86232D02*
G03*
X243685Y86232I-492J0D01*
G01*
X116512Y81437D02*
G03*
X116512Y81437I-492J0D01*
G01*
X180025Y240240D02*
G03*
X180025Y240240I-492J0D01*
G01*
X319090Y248883D02*
G03*
X319090Y248883I-492J0D01*
G01*
X305992Y208539D02*
G03*
X305992Y208539I-492J0D01*
G01*
X284992Y248406D02*
G03*
X284992Y248406I-492J0D01*
G01*
X310315Y142016D02*
G03*
X310315Y142016I-492J0D01*
G01*
X371919Y158179D02*
G03*
X371919Y158179I-492J0D01*
G01*
X387919Y129179D02*
G03*
X387919Y129179I-492J0D01*
G01*
D13*
X183327Y55886D02*
X232146D01*
Y33248D02*
Y55886D01*
X183327Y33248D02*
X232146D01*
X183327D02*
Y55886D01*
X131827D02*
X180646D01*
Y33248D02*
Y55886D01*
X131827Y33248D02*
X180646D01*
X131827D02*
Y55886D01*
X50427Y103406D02*
X74837Y145684D01*
X30822Y114725D02*
X50427Y103406D01*
X30822Y114725D02*
X55232Y157003D01*
X74837Y145684D01*
X76770Y148954D02*
X101179Y191232D01*
X57165Y160273D02*
X76770Y148954D01*
X57165Y160273D02*
X81574Y202551D01*
X101179Y191232D01*
X174693Y357113D02*
X200265Y342350D01*
X132961Y284831D02*
X158533Y270067D01*
X132961Y284831D02*
X174693Y357113D01*
X158533Y270067D02*
X200265Y342350D01*
X260827Y305130D02*
X261811D01*
X260827Y320878D02*
X261811D01*
Y305130D02*
Y320878D01*
X238189D02*
X239173D01*
X238189Y305130D02*
X239173D01*
X245079Y332098D02*
X254921D01*
X245079Y356902D02*
X254921D01*
X238189Y305130D02*
Y320878D01*
X239272Y300996D02*
Y328752D01*
X260728Y300996D02*
Y328752D01*
X239272Y300996D02*
X260728D01*
X285244Y289251D02*
X304848Y300570D01*
X285244Y289251D02*
X309653Y246973D01*
X329258Y258292D01*
X304848Y300570D02*
X329258Y258292D01*
X301020Y45378D02*
Y63213D01*
Y45378D02*
X318933D01*
X366177D02*
X384090D01*
Y63213D01*
X301020Y86992D02*
Y106402D01*
X320902D01*
X364209D02*
X384090D01*
Y86992D02*
Y106402D01*
X157047Y178256D02*
X162559D01*
X204000D02*
X211378D01*
X157047Y133965D02*
Y178256D01*
X211378Y133965D02*
Y178256D01*
X61444Y103377D02*
Y101082D01*
X60985Y100622D01*
X60066D01*
X59607Y101082D01*
Y103377D01*
X58689Y100622D02*
X57770D01*
X58230D01*
Y103377D01*
X58689Y102918D01*
X56393D02*
X55934Y103377D01*
X55015D01*
X54556Y102918D01*
Y102459D01*
X55015Y102000D01*
X55475D01*
X55015D01*
X54556Y101541D01*
Y101082D01*
X55015Y100622D01*
X55934D01*
X56393Y101082D01*
X242622Y80944D02*
X244918D01*
X245377Y80485D01*
Y79566D01*
X244918Y79107D01*
X242622D01*
X245377Y78189D02*
Y77270D01*
Y77730D01*
X242622D01*
X243082Y78189D01*
Y75893D02*
X242622Y75434D01*
Y74515D01*
X243082Y74056D01*
X244918D01*
X245377Y74515D01*
Y75434D01*
X244918Y75893D01*
X243082D01*
X245878Y100704D02*
X243582D01*
X243123Y101163D01*
Y102082D01*
X243582Y102541D01*
X245878D01*
X243582Y103459D02*
X243123Y103918D01*
Y104837D01*
X243582Y105296D01*
X245418D01*
X245878Y104837D01*
Y103918D01*
X245418Y103459D01*
X244959D01*
X244500Y103918D01*
Y105296D01*
X95796Y116377D02*
Y114082D01*
X95337Y113622D01*
X94418D01*
X93959Y114082D01*
Y116377D01*
X93041Y115918D02*
X92582Y116377D01*
X91663D01*
X91204Y115918D01*
Y115459D01*
X91663Y115000D01*
X91204Y114541D01*
Y114082D01*
X91663Y113622D01*
X92582D01*
X93041Y114082D01*
Y114541D01*
X92582Y115000D01*
X93041Y115459D01*
Y115918D01*
X92582Y115000D02*
X91663D01*
X148296Y219377D02*
Y217082D01*
X147837Y216622D01*
X146918D01*
X146459Y217082D01*
Y219377D01*
X143704D02*
X144623Y218918D01*
X145541Y218000D01*
Y217082D01*
X145082Y216622D01*
X144163D01*
X143704Y217082D01*
Y217541D01*
X144163Y218000D01*
X145541D01*
X267622Y169481D02*
X269918D01*
X270377Y169022D01*
Y168103D01*
X269918Y167644D01*
X267622D01*
Y164889D02*
Y166726D01*
X269000D01*
X268541Y165807D01*
Y165348D01*
X269000Y164889D01*
X269918D01*
X270377Y165348D01*
Y166267D01*
X269918Y166726D01*
X159296Y235877D02*
Y233582D01*
X158837Y233122D01*
X157918D01*
X157459Y233582D01*
Y235877D01*
X155163Y233122D02*
Y235877D01*
X156541Y234500D01*
X154704D01*
X235905Y273090D02*
X235445Y273549D01*
Y274468D01*
X235905Y274927D01*
X236364D01*
X236823Y274468D01*
Y273549D01*
X237282Y273090D01*
X237741D01*
X238200Y273549D01*
Y274468D01*
X237741Y274927D01*
X235445Y272172D02*
X238200D01*
X237282Y271253D01*
X238200Y270335D01*
X235445D01*
X238200Y269417D02*
Y268498D01*
Y268958D01*
X235445D01*
X235905Y269417D01*
X252755Y364418D02*
X253214Y364878D01*
X254133D01*
X254592Y364418D01*
Y363959D01*
X254133Y363500D01*
X253214D01*
X252755Y363041D01*
Y362582D01*
X253214Y362123D01*
X254133D01*
X254592Y362582D01*
X251837Y362123D02*
Y364878D01*
X250918Y363959D01*
X250000Y364878D01*
Y362123D01*
X249082D02*
Y363959D01*
X248163Y364878D01*
X247245Y363959D01*
Y362123D01*
Y363500D01*
X249082D01*
X246327Y362123D02*
X245408D01*
X245867D01*
Y364878D01*
X246327Y364418D01*
X346622Y166827D02*
X349377D01*
Y168204D01*
X348918Y168663D01*
X348000D01*
X347541Y168204D01*
Y166827D01*
Y167745D02*
X346622Y168663D01*
Y170959D02*
X349377D01*
X348000Y169582D01*
Y171418D01*
X348918Y172337D02*
X349377Y172796D01*
Y173714D01*
X348918Y174173D01*
X348459D01*
X348000Y173714D01*
X347541Y174173D01*
X347082D01*
X346622Y173714D01*
Y172796D01*
X347082Y172337D01*
X347541D01*
X348000Y172796D01*
X348459Y172337D01*
X348918D01*
X348000Y172796D02*
Y173714D01*
X85623Y73327D02*
X88377D01*
Y74704D01*
X87918Y75163D01*
X87000D01*
X86541Y74704D01*
Y73327D01*
Y74245D02*
X85623Y75163D01*
Y77459D02*
X88377D01*
X87000Y76082D01*
Y77918D01*
X88377Y80673D02*
X87918Y79755D01*
X87000Y78837D01*
X86082D01*
X85623Y79296D01*
Y80214D01*
X86082Y80673D01*
X86541D01*
X87000Y80214D01*
Y78837D01*
X217123Y76786D02*
X219878D01*
Y78163D01*
X219418Y78623D01*
X218500D01*
X218041Y78163D01*
Y76786D01*
Y77704D02*
X217123Y78623D01*
X219418Y79541D02*
X219878Y80000D01*
Y80918D01*
X219418Y81378D01*
X218959D01*
X218500Y80918D01*
Y80459D01*
Y80918D01*
X218041Y81378D01*
X217582D01*
X217123Y80918D01*
Y80000D01*
X217582Y79541D01*
X217123Y82296D02*
Y83214D01*
Y82755D01*
X219878D01*
X219418Y82296D01*
X275173Y66623D02*
Y69377D01*
X273796D01*
X273337Y68918D01*
Y68000D01*
X273796Y67541D01*
X275173D01*
X274255D02*
X273337Y66623D01*
X272418Y68918D02*
X271959Y69377D01*
X271041D01*
X270582Y68918D01*
Y68459D01*
X271041Y68000D01*
X271500D01*
X271041D01*
X270582Y67541D01*
Y67082D01*
X271041Y66623D01*
X271959D01*
X272418Y67082D01*
X269663Y68918D02*
X269204Y69377D01*
X268286D01*
X267827Y68918D01*
Y67082D01*
X268286Y66623D01*
X269204D01*
X269663Y67082D01*
Y68918D01*
X286173Y66623D02*
Y69377D01*
X284796D01*
X284337Y68918D01*
Y68000D01*
X284796Y67541D01*
X286173D01*
X285255D02*
X284337Y66623D01*
X281582D02*
X283418D01*
X281582Y68459D01*
Y68918D01*
X282041Y69377D01*
X282959D01*
X283418Y68918D01*
X280663Y67082D02*
X280204Y66623D01*
X279286D01*
X278827Y67082D01*
Y68918D01*
X279286Y69377D01*
X280204D01*
X280663Y68918D01*
Y68459D01*
X280204Y68000D01*
X278827D01*
X180622Y76327D02*
X183378D01*
Y77704D01*
X182918Y78163D01*
X182000D01*
X181541Y77704D01*
Y76327D01*
Y77245D02*
X180622Y78163D01*
Y80918D02*
Y79082D01*
X182459Y80918D01*
X182918D01*
X183378Y80459D01*
Y79541D01*
X182918Y79082D01*
Y81837D02*
X183378Y82296D01*
Y83214D01*
X182918Y83673D01*
X182459D01*
X182000Y83214D01*
X181541Y83673D01*
X181082D01*
X180622Y83214D01*
Y82296D01*
X181082Y81837D01*
X181541D01*
X182000Y82296D01*
X182459Y81837D01*
X182918D01*
X182000Y82296D02*
Y83214D01*
X245673Y66623D02*
Y69377D01*
X244296D01*
X243837Y68918D01*
Y68000D01*
X244296Y67541D01*
X245673D01*
X244755D02*
X243837Y66623D01*
X241082D02*
X242918D01*
X241082Y68459D01*
Y68918D01*
X241541Y69377D01*
X242459D01*
X242918Y68918D01*
X240163Y69377D02*
X238327D01*
Y68918D01*
X240163Y67082D01*
Y66623D01*
X259673D02*
Y69377D01*
X258296D01*
X257837Y68918D01*
Y68000D01*
X258296Y67541D01*
X259673D01*
X258755D02*
X257837Y66623D01*
X255082D02*
X256918D01*
X255082Y68459D01*
Y68918D01*
X255541Y69377D01*
X256459D01*
X256918Y68918D01*
X252327Y69377D02*
X253245Y68918D01*
X254163Y68000D01*
Y67082D01*
X253704Y66623D01*
X252786D01*
X252327Y67082D01*
Y67541D01*
X252786Y68000D01*
X254163D01*
X217622Y85827D02*
X220377D01*
Y87204D01*
X219918Y87663D01*
X219000D01*
X218541Y87204D01*
Y85827D01*
Y86745D02*
X217622Y87663D01*
Y90418D02*
Y88582D01*
X219459Y90418D01*
X219918D01*
X220377Y89959D01*
Y89041D01*
X219918Y88582D01*
X217622Y92714D02*
X220377D01*
X219000Y91337D01*
Y93173D01*
X101122Y115827D02*
X103877D01*
Y117204D01*
X103418Y117663D01*
X102500D01*
X102041Y117204D01*
Y115827D01*
Y116745D02*
X101122Y117663D01*
Y120418D02*
Y118582D01*
X102959Y120418D01*
X103418D01*
X103877Y119959D01*
Y119041D01*
X103418Y118582D01*
Y121337D02*
X103877Y121796D01*
Y122714D01*
X103418Y123173D01*
X102959D01*
X102500Y122714D01*
Y122255D01*
Y122714D01*
X102041Y123173D01*
X101582D01*
X101122Y122714D01*
Y121796D01*
X101582Y121337D01*
X131142Y98067D02*
Y100822D01*
X129764D01*
X129305Y100363D01*
Y99445D01*
X129764Y98986D01*
X131142D01*
X130224D02*
X129305Y98067D01*
X126550D02*
X128387D01*
X126550Y99904D01*
Y100363D01*
X127009Y100822D01*
X127928D01*
X128387Y100363D01*
X123795Y98067D02*
X125632D01*
X123795Y99904D01*
Y100363D01*
X124254Y100822D01*
X125173D01*
X125632Y100363D01*
X197254Y233658D02*
Y236413D01*
X195876D01*
X195417Y235954D01*
Y235035D01*
X195876Y234576D01*
X197254D01*
X196335D02*
X195417Y233658D01*
X192662D02*
X194499D01*
X192662Y235495D01*
Y235954D01*
X193121Y236413D01*
X194039D01*
X194499Y235954D01*
X191744Y233658D02*
X190825D01*
X191284D01*
Y236413D01*
X191744Y235954D01*
X207685Y275559D02*
X210440D01*
Y276936D01*
X209981Y277396D01*
X209063D01*
X208604Y276936D01*
Y275559D01*
Y276477D02*
X207685Y277396D01*
Y280151D02*
Y278314D01*
X209522Y280151D01*
X209981D01*
X210440Y279691D01*
Y278773D01*
X209981Y278314D01*
Y281069D02*
X210440Y281528D01*
Y282447D01*
X209981Y282906D01*
X208145D01*
X207685Y282447D01*
Y281528D01*
X208145Y281069D01*
X209981D01*
X207685Y236525D02*
X210440D01*
Y237902D01*
X209981Y238361D01*
X209063D01*
X208604Y237902D01*
Y236525D01*
Y237443D02*
X207685Y238361D01*
Y239280D02*
Y240198D01*
Y239739D01*
X210440D01*
X209981Y239280D01*
X208145Y241576D02*
X207685Y242035D01*
Y242953D01*
X208145Y243412D01*
X209981D01*
X210440Y242953D01*
Y242035D01*
X209981Y241576D01*
X209522D01*
X209063Y242035D01*
Y243412D01*
X188385Y252520D02*
Y255275D01*
X187007D01*
X186548Y254816D01*
Y253898D01*
X187007Y253438D01*
X188385D01*
X187466D02*
X186548Y252520D01*
X185630D02*
X184711D01*
X185170D01*
Y255275D01*
X185630Y254816D01*
X183334D02*
X182875Y255275D01*
X181956D01*
X181497Y254816D01*
Y254357D01*
X181956Y253898D01*
X181497Y253438D01*
Y252979D01*
X181956Y252520D01*
X182875D01*
X183334Y252979D01*
Y253438D01*
X182875Y253898D01*
X183334Y254357D01*
Y254816D01*
X182875Y253898D02*
X181956D01*
X265622Y126056D02*
X268377D01*
Y127434D01*
X267918Y127893D01*
X267000D01*
X266541Y127434D01*
Y126056D01*
Y126975D02*
X265622Y127893D01*
Y128811D02*
Y129730D01*
Y129270D01*
X268377D01*
X267918Y128811D01*
X268377Y131107D02*
Y132944D01*
X267918D01*
X266082Y131107D01*
X265622D01*
X164944Y196123D02*
Y198878D01*
X163566D01*
X163107Y198418D01*
Y197500D01*
X163566Y197041D01*
X164944D01*
X164025D02*
X163107Y196123D01*
X162189D02*
X161270D01*
X161730D01*
Y198878D01*
X162189Y198418D01*
X158056Y198878D02*
X159893D01*
Y197500D01*
X158975Y197959D01*
X158515D01*
X158056Y197500D01*
Y196582D01*
X158515Y196123D01*
X159434D01*
X159893Y196582D01*
X164444Y209623D02*
Y212378D01*
X163066D01*
X162607Y211918D01*
Y211000D01*
X163066Y210541D01*
X164444D01*
X163525D02*
X162607Y209623D01*
X161689D02*
X160770D01*
X161230D01*
Y212378D01*
X161689Y211918D01*
X158015Y209623D02*
Y212378D01*
X159393Y211000D01*
X157556D01*
X332444Y160123D02*
Y162878D01*
X331066D01*
X330607Y162418D01*
Y161500D01*
X331066Y161041D01*
X332444D01*
X331525D02*
X330607Y160123D01*
X329689D02*
X328770D01*
X329230D01*
Y162878D01*
X329689Y162418D01*
X327393D02*
X326934Y162878D01*
X326015D01*
X325556Y162418D01*
Y160582D01*
X326015Y160123D01*
X326934D01*
X327393Y160582D01*
Y162418D01*
X356623Y167204D02*
X359378D01*
Y168582D01*
X358918Y169041D01*
X358000D01*
X357541Y168582D01*
Y167204D01*
Y168122D02*
X356623Y169041D01*
X358918Y169959D02*
X359378Y170418D01*
Y171337D01*
X358918Y171796D01*
X358459D01*
X358000Y171337D01*
Y170878D01*
Y171337D01*
X357541Y171796D01*
X357082D01*
X356623Y171337D01*
Y170418D01*
X357082Y169959D01*
X124710Y247720D02*
X125629Y249311D01*
X126256Y249479D01*
X127051Y249020D01*
X127219Y248392D01*
X126301Y246802D01*
X125674Y246634D01*
X124878Y247093D01*
X125735Y247659D02*
X124481Y247322D01*
X124878Y247093D02*
X124710Y247720D01*
X125063Y250167D02*
X123472Y251086D01*
X124268Y250627D01*
X122890Y248241D01*
X120902Y249389D02*
X120107Y249848D01*
X119939Y250475D01*
X120398Y251270D01*
X121025Y251438D01*
X121820Y250979D01*
X121988Y250352D01*
X121529Y249557D01*
X120902Y249389D01*
X119832Y252127D02*
X119143Y250934D01*
X118516Y250766D01*
X117323Y251455D01*
X118241Y253046D01*
X115855Y254423D02*
X117048Y253734D01*
X117216Y253107D01*
X116757Y252312D01*
X116130Y252144D01*
X114937Y252833D01*
X115519Y255678D02*
X114142Y253292D01*
X114831Y254485D01*
X114662Y255112D01*
X113867Y255571D01*
X113240Y255403D01*
X112551Y254210D01*
X65715Y86680D02*
Y88517D01*
X66174Y88976D01*
X67093D01*
X67552Y88517D01*
Y86680D01*
X67093Y86221D01*
X66174D01*
X66633Y87139D02*
X65715Y86221D01*
X66174D02*
X65715Y86680D01*
X62960Y88976D02*
X63878Y88517D01*
X64797Y87598D01*
Y86680D01*
X64338Y86221D01*
X63419D01*
X62960Y86680D01*
Y87139D01*
X63419Y87598D01*
X64797D01*
X225959Y113082D02*
Y114918D01*
X226418Y115377D01*
X227337D01*
X227796Y114918D01*
Y113082D01*
X227337Y112622D01*
X226418D01*
X226877Y113541D02*
X225959Y112622D01*
X226418D02*
X225959Y113082D01*
X223663Y112622D02*
Y115377D01*
X225041Y114000D01*
X223204D01*
X74573Y86483D02*
Y88320D01*
X75033Y88779D01*
X75951D01*
X76410Y88320D01*
Y86483D01*
X75951Y86024D01*
X75033D01*
X75492Y86942D02*
X74573Y86024D01*
X75033D02*
X74573Y86483D01*
X73655Y88320D02*
X73196Y88779D01*
X72277D01*
X71818Y88320D01*
Y87861D01*
X72277Y87402D01*
X72737D01*
X72277D01*
X71818Y86942D01*
Y86483D01*
X72277Y86024D01*
X73196D01*
X73655Y86483D01*
X120459Y85582D02*
Y87418D01*
X120918Y87878D01*
X121837D01*
X122296Y87418D01*
Y85582D01*
X121837Y85123D01*
X120918D01*
X121378Y86041D02*
X120459Y85123D01*
X120918D02*
X120459Y85582D01*
X117704Y85123D02*
X119541D01*
X117704Y86959D01*
Y87418D01*
X118163Y87878D01*
X119082D01*
X119541Y87418D01*
X231500Y154582D02*
Y156418D01*
X231959Y156878D01*
X232877D01*
X233337Y156418D01*
Y154582D01*
X232877Y154122D01*
X231959D01*
X232418Y155041D02*
X231500Y154122D01*
X231959D02*
X231500Y154582D01*
X230582Y154122D02*
X229663D01*
X230122D01*
Y156878D01*
X230582Y156418D01*
X89074Y53938D02*
Y56692D01*
X87696D01*
X87237Y56233D01*
Y55315D01*
X87696Y54856D01*
X89074D01*
X86319Y53938D02*
X85400D01*
X85860D01*
Y56692D01*
X86319Y56233D01*
X82186Y53938D02*
X84023D01*
X82186Y55774D01*
Y56233D01*
X82645Y56692D01*
X83564D01*
X84023Y56233D01*
X77844Y42263D02*
X80599D01*
Y43640D01*
X80140Y44099D01*
X79221D01*
X78762Y43640D01*
Y42263D01*
X77844Y45017D02*
Y45936D01*
Y45477D01*
X80599D01*
X80140Y45017D01*
X77844Y47313D02*
Y48232D01*
Y47773D01*
X80599D01*
X80140Y47313D01*
X164622Y269627D02*
X167377D01*
Y271005D01*
X166918Y271464D01*
X166000D01*
X165541Y271005D01*
Y269627D01*
X164622Y272382D02*
Y273301D01*
Y272841D01*
X167377D01*
X166918Y272382D01*
Y274678D02*
X167377Y275137D01*
Y276056D01*
X166918Y276515D01*
X165082D01*
X164622Y276056D01*
Y275137D01*
X165082Y274678D01*
X166918D01*
X286296Y105122D02*
Y107878D01*
X284918D01*
X284459Y107418D01*
Y106500D01*
X284918Y106041D01*
X286296D01*
X283541Y105582D02*
X283082Y105122D01*
X282163D01*
X281704Y105582D01*
Y107418D01*
X282163Y107878D01*
X283082D01*
X283541Y107418D01*
Y106959D01*
X283082Y106500D01*
X281704D01*
X102296Y152622D02*
Y155377D01*
X100918D01*
X100459Y154918D01*
Y154000D01*
X100918Y153541D01*
X102296D01*
X99541Y154918D02*
X99082Y155377D01*
X98163D01*
X97704Y154918D01*
Y154459D01*
X98163Y154000D01*
X97704Y153541D01*
Y153082D01*
X98163Y152622D01*
X99082D01*
X99541Y153082D01*
Y153541D01*
X99082Y154000D01*
X99541Y154459D01*
Y154918D01*
X99082Y154000D02*
X98163D01*
X284296Y114122D02*
Y116877D01*
X282918D01*
X282459Y116418D01*
Y115500D01*
X282918Y115041D01*
X284296D01*
X281541Y116877D02*
X279704D01*
Y116418D01*
X281541Y114582D01*
Y114122D01*
X199796Y207122D02*
Y209877D01*
X198418D01*
X197959Y209418D01*
Y208500D01*
X198418Y208041D01*
X199796D01*
X195204Y209877D02*
X196123Y209418D01*
X197041Y208500D01*
Y207582D01*
X196582Y207122D01*
X195663D01*
X195204Y207582D01*
Y208041D01*
X195663Y208500D01*
X197041D01*
X212296Y207122D02*
Y209877D01*
X210918D01*
X210459Y209418D01*
Y208500D01*
X210918Y208041D01*
X212296D01*
X207704Y209877D02*
X209541D01*
Y208500D01*
X208623Y208959D01*
X208163D01*
X207704Y208500D01*
Y207582D01*
X208163Y207122D01*
X209082D01*
X209541Y207582D01*
X222796Y207122D02*
Y209877D01*
X221418D01*
X220959Y209418D01*
Y208500D01*
X221418Y208041D01*
X222796D01*
X218663Y207122D02*
Y209877D01*
X220041Y208500D01*
X218204D01*
X335796Y198623D02*
Y201378D01*
X334418D01*
X333959Y200918D01*
Y200000D01*
X334418Y199541D01*
X335796D01*
X333041Y200918D02*
X332582Y201378D01*
X331663D01*
X331204Y200918D01*
Y200459D01*
X331663Y200000D01*
X332122D01*
X331663D01*
X331204Y199541D01*
Y199082D01*
X331663Y198623D01*
X332582D01*
X333041Y199082D01*
X367296Y182123D02*
Y184878D01*
X365918D01*
X365459Y184418D01*
Y183500D01*
X365918Y183041D01*
X367296D01*
X362704Y182123D02*
X364541D01*
X362704Y183959D01*
Y184418D01*
X363163Y184878D01*
X364082D01*
X364541Y184418D01*
X349337Y197123D02*
Y199878D01*
X347959D01*
X347500Y199418D01*
Y198500D01*
X347959Y198041D01*
X349337D01*
X346582Y197123D02*
X345663D01*
X346123D01*
Y199878D01*
X346582Y199418D01*
X92378Y73301D02*
X89622D01*
Y75138D01*
X92378Y77893D02*
Y76056D01*
X89622D01*
Y77893D01*
X91000Y76056D02*
Y76975D01*
X92378Y78811D02*
X89622D01*
Y80189D01*
X90082Y80648D01*
X91918D01*
X92378Y80189D01*
Y78811D01*
X89622Y81566D02*
Y82485D01*
Y82025D01*
X92378D01*
X91918Y81566D01*
Y83862D02*
X92378Y84321D01*
Y85240D01*
X91918Y85699D01*
X90082D01*
X89622Y85240D01*
Y84321D01*
X90082Y83862D01*
X91918D01*
X110378Y72949D02*
X107623D01*
Y74786D01*
X110378Y77541D02*
Y75704D01*
X107623D01*
Y77541D01*
X109000Y75704D02*
Y76622D01*
X110378Y78459D02*
X107623D01*
Y79837D01*
X108082Y80296D01*
X109918D01*
X110378Y79837D01*
Y78459D01*
X108082Y81214D02*
X107623Y81673D01*
Y82592D01*
X108082Y83051D01*
X109918D01*
X110378Y82592D01*
Y81673D01*
X109918Y81214D01*
X109459D01*
X109000Y81673D01*
Y83051D01*
X173878Y265949D02*
X171123D01*
Y267786D01*
X173878Y270541D02*
Y268704D01*
X171123D01*
Y270541D01*
X172500Y268704D02*
Y269622D01*
X173878Y271459D02*
X171123D01*
Y272837D01*
X171582Y273296D01*
X173418D01*
X173878Y272837D01*
Y271459D01*
X173418Y274214D02*
X173878Y274673D01*
Y275592D01*
X173418Y276051D01*
X172959D01*
X172500Y275592D01*
X172041Y276051D01*
X171582D01*
X171123Y275592D01*
Y274673D01*
X171582Y274214D01*
X172041D01*
X172500Y274673D01*
X172959Y274214D01*
X173418D01*
X172500Y274673D02*
Y275592D01*
X286378Y73949D02*
X283623D01*
Y75786D01*
X286378Y78541D02*
Y76704D01*
X283623D01*
Y78541D01*
X285000Y76704D02*
Y77622D01*
X286378Y79459D02*
X283623D01*
Y80837D01*
X284082Y81296D01*
X285918D01*
X286378Y80837D01*
Y79459D01*
Y82214D02*
Y84051D01*
X285918D01*
X284082Y82214D01*
X283623D01*
X89377Y125949D02*
X86623D01*
Y127786D01*
X89377Y130541D02*
Y128704D01*
X86623D01*
Y130541D01*
X88000Y128704D02*
Y129622D01*
X89377Y131459D02*
X86623D01*
Y132837D01*
X87082Y133296D01*
X88918D01*
X89377Y132837D01*
Y131459D01*
Y136051D02*
X88918Y135133D01*
X88000Y134214D01*
X87082D01*
X86623Y134673D01*
Y135592D01*
X87082Y136051D01*
X87541D01*
X88000Y135592D01*
Y134214D01*
X290377Y125949D02*
X287622D01*
Y127786D01*
X290377Y130541D02*
Y128704D01*
X287622D01*
Y130541D01*
X289000Y128704D02*
Y129622D01*
X290377Y131459D02*
X287622D01*
Y132837D01*
X288082Y133296D01*
X289918D01*
X290377Y132837D01*
Y131459D01*
Y136051D02*
Y134214D01*
X289000D01*
X289459Y135133D01*
Y135592D01*
X289000Y136051D01*
X288082D01*
X287622Y135592D01*
Y134673D01*
X288082Y134214D01*
X326378Y182949D02*
X323622D01*
Y184786D01*
X326378Y187541D02*
Y185704D01*
X323622D01*
Y187541D01*
X325000Y185704D02*
Y186623D01*
X326378Y188459D02*
X323622D01*
Y189837D01*
X324082Y190296D01*
X325918D01*
X326378Y189837D01*
Y188459D01*
X325918Y191214D02*
X326378Y191673D01*
Y192592D01*
X325918Y193051D01*
X325459D01*
X325000Y192592D01*
Y192132D01*
Y192592D01*
X324541Y193051D01*
X324082D01*
X323622Y192592D01*
Y191673D01*
X324082Y191214D01*
X353877Y175949D02*
X351122D01*
Y177786D01*
X353877Y180541D02*
Y178704D01*
X351122D01*
Y180541D01*
X352500Y178704D02*
Y179622D01*
X353877Y181459D02*
X351122D01*
Y182837D01*
X351582Y183296D01*
X353418D01*
X353877Y182837D01*
Y181459D01*
X351122Y186051D02*
Y184214D01*
X352959Y186051D01*
X353418D01*
X353877Y185592D01*
Y184673D01*
X353418Y184214D01*
X340878Y166908D02*
X338123D01*
Y168745D01*
X340878Y171500D02*
Y169663D01*
X338123D01*
Y171500D01*
X339500Y169663D02*
Y170582D01*
X340878Y172418D02*
X338123D01*
Y173796D01*
X338582Y174255D01*
X340418D01*
X340878Y173796D01*
Y172418D01*
X338123Y175173D02*
Y176092D01*
Y175633D01*
X340878D01*
X340418Y175173D01*
X116796Y73878D02*
Y71122D01*
X114959D01*
X114041Y73418D02*
X113582Y73878D01*
X112663D01*
X112204Y73418D01*
Y72959D01*
X112663Y72500D01*
X113122D01*
X112663D01*
X112204Y72041D01*
Y71582D01*
X112663Y71122D01*
X113582D01*
X114041Y71582D01*
X131878Y57704D02*
X129122D01*
Y59541D01*
Y62296D02*
Y60459D01*
X130959Y62296D01*
X131418D01*
X131878Y61837D01*
Y60918D01*
X131418Y60459D01*
X145878Y263663D02*
X143122D01*
Y265500D01*
Y266418D02*
Y267337D01*
Y266878D01*
X145878D01*
X145418Y266418D01*
X98107Y174378D02*
X99025D01*
X98566D01*
Y172082D01*
X99025Y171623D01*
X99485D01*
X99944Y172082D01*
X97189Y171623D02*
X96270D01*
X96730D01*
Y174378D01*
X97189Y173918D01*
X94893Y172082D02*
X94434Y171623D01*
X93515D01*
X93056Y172082D01*
Y173918D01*
X93515Y174378D01*
X94434D01*
X94893Y173918D01*
Y173459D01*
X94434Y173000D01*
X93056D01*
X290107Y273878D02*
X291025D01*
X290566D01*
Y271582D01*
X291025Y271123D01*
X291485D01*
X291944Y271582D01*
X289189Y271123D02*
X288270D01*
X288730D01*
Y273878D01*
X289189Y273418D01*
X286893D02*
X286434Y273878D01*
X285515D01*
X285056Y273418D01*
Y272959D01*
X285515Y272500D01*
X285056Y272041D01*
Y271582D01*
X285515Y271123D01*
X286434D01*
X286893Y271582D01*
Y272041D01*
X286434Y272500D01*
X286893Y272959D01*
Y273418D01*
X286434Y272500D02*
X285515D01*
X270607Y308378D02*
X271525D01*
X271066D01*
Y306082D01*
X271525Y305623D01*
X271985D01*
X272444Y306082D01*
X269689Y305623D02*
X268770D01*
X269230D01*
Y308378D01*
X269689Y307918D01*
X267393Y308378D02*
X265556D01*
Y307918D01*
X267393Y306082D01*
Y305623D01*
X278607Y343377D02*
X279525D01*
X279066D01*
Y341082D01*
X279525Y340622D01*
X279985D01*
X280444Y341082D01*
X277689Y340622D02*
X276770D01*
X277230D01*
Y343377D01*
X277689Y342918D01*
X273556Y343377D02*
X274475Y342918D01*
X275393Y342000D01*
Y341082D01*
X274934Y340622D01*
X274015D01*
X273556Y341082D01*
Y341541D01*
X274015Y342000D01*
X275393D01*
X69607Y123378D02*
X70525D01*
X70066D01*
Y121082D01*
X70525Y120623D01*
X70985D01*
X71444Y121082D01*
X68689Y120623D02*
X67770D01*
X68230D01*
Y123378D01*
X68689Y122918D01*
X64556Y123378D02*
X66393D01*
Y122000D01*
X65475Y122459D01*
X65015D01*
X64556Y122000D01*
Y121082D01*
X65015Y120623D01*
X65934D01*
X66393Y121082D01*
X188107Y357378D02*
X189025D01*
X188566D01*
Y355082D01*
X189025Y354623D01*
X189485D01*
X189944Y355082D01*
X187189Y354623D02*
X186270D01*
X186730D01*
Y357378D01*
X187189Y356918D01*
X183515Y354623D02*
Y357378D01*
X184893Y356000D01*
X183056D01*
X175877Y63893D02*
Y62975D01*
Y63434D01*
X173582D01*
X173123Y62975D01*
Y62515D01*
X173582Y62056D01*
X173123Y64811D02*
Y65730D01*
Y65270D01*
X175877D01*
X175418Y64811D01*
Y67107D02*
X175877Y67566D01*
Y68485D01*
X175418Y68944D01*
X174959D01*
X174500Y68485D01*
Y68025D01*
Y68485D01*
X174041Y68944D01*
X173582D01*
X173123Y68485D01*
Y67566D01*
X173582Y67107D01*
X316607Y38377D02*
X317525D01*
X317066D01*
Y36082D01*
X317525Y35623D01*
X317985D01*
X318444Y36082D01*
X315689Y35623D02*
X314770D01*
X315230D01*
Y38377D01*
X315689Y37918D01*
X311556Y35623D02*
X313393D01*
X311556Y37459D01*
Y37918D01*
X312015Y38377D01*
X312934D01*
X313393Y37918D01*
X170378Y64352D02*
Y63434D01*
Y63893D01*
X168082D01*
X167622Y63434D01*
Y62975D01*
X168082Y62515D01*
X167622Y65270D02*
Y66189D01*
Y65730D01*
X170378D01*
X169918Y65270D01*
X167622Y67566D02*
Y68485D01*
Y68025D01*
X170378D01*
X169918Y67566D01*
X305107Y38377D02*
X306025D01*
X305566D01*
Y36082D01*
X306025Y35623D01*
X306485D01*
X306944Y36082D01*
X304189Y35623D02*
X303270D01*
X303730D01*
Y38377D01*
X304189Y37918D01*
X301893D02*
X301434Y38377D01*
X300515D01*
X300056Y37918D01*
Y36082D01*
X300515Y35623D01*
X301434D01*
X301893Y36082D01*
Y37918D01*
X86220Y43242D02*
Y42323D01*
Y42782D01*
X83924D01*
X83465Y42323D01*
Y41864D01*
X83924Y41405D01*
X85761Y44160D02*
X86220Y44619D01*
Y45537D01*
X85761Y45997D01*
X85302D01*
X84842Y45537D01*
X84383Y45997D01*
X83924D01*
X83465Y45537D01*
Y44619D01*
X83924Y44160D01*
X84383D01*
X84842Y44619D01*
X85302Y44160D01*
X85761D01*
X84842Y44619D02*
Y45537D01*
X366459Y141377D02*
X367377D01*
X366918D01*
Y139082D01*
X367377Y138622D01*
X367837D01*
X368296Y139082D01*
X365541Y141377D02*
X363704D01*
Y140918D01*
X365541Y139082D01*
Y138622D01*
X211063Y183955D02*
X211982D01*
X211523D01*
Y181659D01*
X211982Y181200D01*
X212441D01*
X212900Y181659D01*
X208308Y183955D02*
X209227Y183496D01*
X210145Y182578D01*
Y181659D01*
X209686Y181200D01*
X208768D01*
X208308Y181659D01*
Y182118D01*
X208768Y182578D01*
X210145D01*
X367459Y110878D02*
X368377D01*
X367918D01*
Y108582D01*
X368377Y108123D01*
X368837D01*
X369296Y108582D01*
X364704Y110878D02*
X366541D01*
Y109500D01*
X365622Y109959D01*
X365163D01*
X364704Y109500D01*
Y108582D01*
X365163Y108123D01*
X366082D01*
X366541Y108582D01*
X287459Y306378D02*
X288377D01*
X287918D01*
Y304082D01*
X288377Y303623D01*
X288837D01*
X289296Y304082D01*
X285163Y303623D02*
Y306378D01*
X286541Y305000D01*
X284704D01*
X321459Y219377D02*
X322377D01*
X321918D01*
Y217082D01*
X322377Y216622D01*
X322837D01*
X323296Y217082D01*
X320541Y218918D02*
X320082Y219377D01*
X319163D01*
X318704Y218918D01*
Y218459D01*
X319163Y218000D01*
X319622D01*
X319163D01*
X318704Y217541D01*
Y217082D01*
X319163Y216622D01*
X320082D01*
X320541Y217082D01*
X215459Y194878D02*
X216377D01*
X215918D01*
Y192582D01*
X216377Y192122D01*
X216837D01*
X217296Y192582D01*
X212704Y192122D02*
X214541D01*
X212704Y193959D01*
Y194418D01*
X213163Y194878D01*
X214082D01*
X214541Y194418D01*
X401000Y97378D02*
X401918D01*
X401459D01*
Y95082D01*
X401918Y94622D01*
X402378D01*
X402837Y95082D01*
X400082Y94622D02*
X399163D01*
X399623D01*
Y97378D01*
X400082Y96918D01*
X197837Y84878D02*
X199673D01*
Y83500D01*
X198755D01*
X199673D01*
Y82122D01*
X196918Y84878D02*
Y82122D01*
X195541D01*
X195082Y82582D01*
Y83041D01*
X195541Y83500D01*
X196918D01*
X195541D01*
X195082Y83959D01*
Y84418D01*
X195541Y84878D01*
X196918D01*
X192327Y82122D02*
X194163D01*
X192327Y83959D01*
Y84418D01*
X192786Y84878D01*
X193704D01*
X194163Y84418D01*
X197878Y101877D02*
X199714D01*
Y100500D01*
X198796D01*
X199714D01*
Y99123D01*
X196959Y101877D02*
Y99123D01*
X195582D01*
X195123Y99582D01*
Y100041D01*
X195582Y100500D01*
X196959D01*
X195582D01*
X195123Y100959D01*
Y101418D01*
X195582Y101877D01*
X196959D01*
X194204Y99123D02*
X193286D01*
X193745D01*
Y101877D01*
X194204Y101418D01*
X70964Y69338D02*
Y66583D01*
X69586D01*
X69127Y67042D01*
Y68879D01*
X69586Y69338D01*
X70964D01*
X68208Y66583D02*
X67290D01*
X67749D01*
Y69338D01*
X68208Y68879D01*
X65913D02*
X65453Y69338D01*
X64535D01*
X64076Y68879D01*
Y67042D01*
X64535Y66583D01*
X65453D01*
X65913Y67042D01*
Y68879D01*
X239296Y80878D02*
Y78123D01*
X237918D01*
X237459Y78582D01*
Y80418D01*
X237918Y80878D01*
X239296D01*
X236541Y78582D02*
X236082Y78123D01*
X235163D01*
X234704Y78582D01*
Y80418D01*
X235163Y80878D01*
X236082D01*
X236541Y80418D01*
Y79959D01*
X236082Y79500D01*
X234704D01*
X196796Y59878D02*
Y57122D01*
X195418D01*
X194959Y57582D01*
Y59418D01*
X195418Y59878D01*
X196796D01*
X194041Y59418D02*
X193582Y59878D01*
X192663D01*
X192204Y59418D01*
Y58959D01*
X192663Y58500D01*
X192204Y58041D01*
Y57582D01*
X192663Y57122D01*
X193582D01*
X194041Y57582D01*
Y58041D01*
X193582Y58500D01*
X194041Y58959D01*
Y59418D01*
X193582Y58500D02*
X192663D01*
X143400Y118255D02*
Y115500D01*
X142023D01*
X141563Y115959D01*
Y117796D01*
X142023Y118255D01*
X143400D01*
X140645D02*
X138808D01*
Y117796D01*
X140645Y115959D01*
Y115500D01*
X150796Y114377D02*
Y111623D01*
X149418D01*
X148959Y112082D01*
Y113918D01*
X149418Y114377D01*
X150796D01*
X146204D02*
X147123Y113918D01*
X148041Y113000D01*
Y112082D01*
X147582Y111623D01*
X146663D01*
X146204Y112082D01*
Y112541D01*
X146663Y113000D01*
X148041D01*
X136878Y58204D02*
X134123D01*
Y59582D01*
X134582Y60041D01*
X136418D01*
X136878Y59582D01*
Y58204D01*
Y62796D02*
Y60959D01*
X135500D01*
X135959Y61878D01*
Y62337D01*
X135500Y62796D01*
X134582D01*
X134123Y62337D01*
Y61418D01*
X134582Y60959D01*
X237296Y125378D02*
Y122623D01*
X235918D01*
X235459Y123082D01*
Y124918D01*
X235918Y125378D01*
X237296D01*
X233163Y122623D02*
Y125378D01*
X234541Y124000D01*
X232704D01*
X194181Y246409D02*
X191426D01*
Y247786D01*
X191885Y248246D01*
X193721D01*
X194181Y247786D01*
Y246409D01*
X193721Y249164D02*
X194181Y249623D01*
Y250541D01*
X193721Y251001D01*
X193262D01*
X192803Y250541D01*
Y250082D01*
Y250541D01*
X192344Y251001D01*
X191885D01*
X191426Y250541D01*
Y249623D01*
X191885Y249164D01*
X154552Y273712D02*
Y270957D01*
X153174D01*
X152715Y271416D01*
Y273253D01*
X153174Y273712D01*
X154552D01*
X149960Y270957D02*
X151797D01*
X149960Y272794D01*
Y273253D01*
X150419Y273712D01*
X151338D01*
X151797Y273253D01*
X316837Y224377D02*
Y221622D01*
X315459D01*
X315000Y222082D01*
Y223918D01*
X315459Y224377D01*
X316837D01*
X314082Y221622D02*
X313163D01*
X313622D01*
Y224377D01*
X314082Y223918D01*
X77001Y66569D02*
X77460Y66110D01*
Y65191D01*
X77001Y64732D01*
X75164D01*
X74705Y65191D01*
Y66110D01*
X75164Y66569D01*
X77460Y69324D02*
Y67487D01*
X76083D01*
X76542Y68405D01*
Y68865D01*
X76083Y69324D01*
X75164D01*
X74705Y68865D01*
Y67946D01*
X75164Y67487D01*
X77001Y70242D02*
X77460Y70701D01*
Y71620D01*
X77001Y72079D01*
X75164D01*
X74705Y71620D01*
Y70701D01*
X75164Y70242D01*
X77001D01*
X59875Y41970D02*
X60334Y41511D01*
Y40593D01*
X59875Y40134D01*
X58038D01*
X57579Y40593D01*
Y41511D01*
X58038Y41970D01*
X57579Y44266D02*
X60334D01*
X58957Y42889D01*
Y44725D01*
X58038Y45644D02*
X57579Y46103D01*
Y47021D01*
X58038Y47480D01*
X59875D01*
X60334Y47021D01*
Y46103D01*
X59875Y45644D01*
X59416D01*
X58957Y46103D01*
Y47480D01*
X220418Y320163D02*
X220878Y319704D01*
Y318786D01*
X220418Y318327D01*
X218582D01*
X218123Y318786D01*
Y319704D01*
X218582Y320163D01*
X218123Y322459D02*
X220878D01*
X219500Y321082D01*
Y322918D01*
X220418Y323837D02*
X220878Y324296D01*
Y325214D01*
X220418Y325673D01*
X219959D01*
X219500Y325214D01*
X219041Y325673D01*
X218582D01*
X218123Y325214D01*
Y324296D01*
X218582Y323837D01*
X219041D01*
X219500Y324296D01*
X219959Y323837D01*
X220418D01*
X219500Y324296D02*
Y325214D01*
X207918Y333163D02*
X208378Y332704D01*
Y331786D01*
X207918Y331327D01*
X206082D01*
X205623Y331786D01*
Y332704D01*
X206082Y333163D01*
X205623Y335459D02*
X208378D01*
X207000Y334082D01*
Y335918D01*
X208378Y336837D02*
Y338673D01*
X207918D01*
X206082Y336837D01*
X205623D01*
X193418Y316663D02*
X193877Y316204D01*
Y315286D01*
X193418Y314827D01*
X191582D01*
X191122Y315286D01*
Y316204D01*
X191582Y316663D01*
X191122Y318959D02*
X193877D01*
X192500Y317582D01*
Y319418D01*
X193877Y322173D02*
X193418Y321255D01*
X192500Y320337D01*
X191582D01*
X191122Y320796D01*
Y321714D01*
X191582Y322173D01*
X192041D01*
X192500Y321714D01*
Y320337D01*
X206918Y307163D02*
X207378Y306704D01*
Y305786D01*
X206918Y305327D01*
X205082D01*
X204623Y305786D01*
Y306704D01*
X205082Y307163D01*
X204623Y309459D02*
X207378D01*
X206000Y308082D01*
Y309918D01*
X207378Y312673D02*
Y310837D01*
X206000D01*
X206459Y311755D01*
Y312214D01*
X206000Y312673D01*
X205082D01*
X204623Y312214D01*
Y311296D01*
X205082Y310837D01*
X222918Y295163D02*
X223377Y294704D01*
Y293786D01*
X222918Y293327D01*
X221082D01*
X220622Y293786D01*
Y294704D01*
X221082Y295163D01*
X220622Y297459D02*
X223377D01*
X222000Y296082D01*
Y297918D01*
X220622Y300214D02*
X223377D01*
X222000Y298837D01*
Y300673D01*
X196918Y302663D02*
X197378Y302204D01*
Y301286D01*
X196918Y300827D01*
X195082D01*
X194623Y301286D01*
Y302204D01*
X195082Y302663D01*
X194623Y304959D02*
X197378D01*
X196000Y303582D01*
Y305418D01*
X196918Y306337D02*
X197378Y306796D01*
Y307714D01*
X196918Y308173D01*
X196459D01*
X196000Y307714D01*
Y307255D01*
Y307714D01*
X195541Y308173D01*
X195082D01*
X194623Y307714D01*
Y306796D01*
X195082Y306337D01*
X189418Y304163D02*
X189877Y303704D01*
Y302786D01*
X189418Y302327D01*
X187582D01*
X187122Y302786D01*
Y303704D01*
X187582Y304163D01*
X187122Y306459D02*
X189877D01*
X188500Y305082D01*
Y306918D01*
X187122Y309673D02*
Y307837D01*
X188959Y309673D01*
X189418D01*
X189877Y309214D01*
Y308296D01*
X189418Y307837D01*
X175418Y287622D02*
X175877Y287163D01*
Y286245D01*
X175418Y285786D01*
X173582D01*
X173123Y286245D01*
Y287163D01*
X173582Y287622D01*
X173123Y289918D02*
X175877D01*
X174500Y288541D01*
Y290377D01*
X173123Y291296D02*
Y292214D01*
Y291755D01*
X175877D01*
X175418Y291296D01*
X182837Y280918D02*
X183296Y281378D01*
X184214D01*
X184673Y280918D01*
Y279082D01*
X184214Y278623D01*
X183296D01*
X182837Y279082D01*
X180541Y278623D02*
Y281378D01*
X181918Y280000D01*
X180082D01*
X179163Y280918D02*
X178704Y281378D01*
X177786D01*
X177327Y280918D01*
Y279082D01*
X177786Y278623D01*
X178704D01*
X179163Y279082D01*
Y280918D01*
X192837D02*
X193296Y281378D01*
X194214D01*
X194673Y280918D01*
Y279082D01*
X194214Y278623D01*
X193296D01*
X192837Y279082D01*
X191918Y280918D02*
X191459Y281378D01*
X190541D01*
X190082Y280918D01*
Y280459D01*
X190541Y280000D01*
X191000D01*
X190541D01*
X190082Y279541D01*
Y279082D01*
X190541Y278623D01*
X191459D01*
X191918Y279082D01*
X189163D02*
X188704Y278623D01*
X187786D01*
X187327Y279082D01*
Y280918D01*
X187786Y281378D01*
X188704D01*
X189163Y280918D01*
Y280459D01*
X188704Y280000D01*
X187327D01*
X226337Y59918D02*
X226796Y60378D01*
X227714D01*
X228173Y59918D01*
Y58082D01*
X227714Y57622D01*
X226796D01*
X226337Y58082D01*
X225418Y59918D02*
X224959Y60378D01*
X224041D01*
X223582Y59918D01*
Y59459D01*
X224041Y59000D01*
X224500D01*
X224041D01*
X223582Y58541D01*
Y58082D01*
X224041Y57622D01*
X224959D01*
X225418Y58082D01*
X222663Y59918D02*
X222204Y60378D01*
X221286D01*
X220827Y59918D01*
Y59459D01*
X221286Y59000D01*
X220827Y58541D01*
Y58082D01*
X221286Y57622D01*
X222204D01*
X222663Y58082D01*
Y58541D01*
X222204Y59000D01*
X222663Y59459D01*
Y59918D01*
X222204Y59000D02*
X221286D01*
X195337Y78918D02*
X195796Y79378D01*
X196714D01*
X197173Y78918D01*
Y77082D01*
X196714Y76622D01*
X195796D01*
X195337Y77082D01*
X194418Y78918D02*
X193959Y79378D01*
X193041D01*
X192582Y78918D01*
Y78459D01*
X193041Y78000D01*
X193500D01*
X193041D01*
X192582Y77541D01*
Y77082D01*
X193041Y76622D01*
X193959D01*
X194418Y77082D01*
X191663Y79378D02*
X189827D01*
Y78918D01*
X191663Y77082D01*
Y76622D01*
X198337Y110418D02*
X198796Y110878D01*
X199714D01*
X200173Y110418D01*
Y108582D01*
X199714Y108123D01*
X198796D01*
X198337Y108582D01*
X197418Y110418D02*
X196959Y110878D01*
X196041D01*
X195582Y110418D01*
Y109959D01*
X196041Y109500D01*
X196500D01*
X196041D01*
X195582Y109041D01*
Y108582D01*
X196041Y108123D01*
X196959D01*
X197418Y108582D01*
X192827Y110878D02*
X193745Y110418D01*
X194663Y109500D01*
Y108582D01*
X194204Y108123D01*
X193286D01*
X192827Y108582D01*
Y109041D01*
X193286Y109500D01*
X194663D01*
X198337Y92918D02*
X198796Y93378D01*
X199714D01*
X200173Y92918D01*
Y91082D01*
X199714Y90623D01*
X198796D01*
X198337Y91082D01*
X197418Y92918D02*
X196959Y93378D01*
X196041D01*
X195582Y92918D01*
Y92459D01*
X196041Y92000D01*
X196500D01*
X196041D01*
X195582Y91541D01*
Y91082D01*
X196041Y90623D01*
X196959D01*
X197418Y91082D01*
X192827Y93378D02*
X194663D01*
Y92000D01*
X193745Y92459D01*
X193286D01*
X192827Y92000D01*
Y91082D01*
X193286Y90623D01*
X194204D01*
X194663Y91082D01*
X101837Y78418D02*
X102296Y78878D01*
X103214D01*
X103673Y78418D01*
Y76582D01*
X103214Y76122D01*
X102296D01*
X101837Y76582D01*
X100918Y78418D02*
X100459Y78878D01*
X99541D01*
X99082Y78418D01*
Y77959D01*
X99541Y77500D01*
X100000D01*
X99541D01*
X99082Y77041D01*
Y76582D01*
X99541Y76122D01*
X100459D01*
X100918Y76582D01*
X96786Y76122D02*
Y78878D01*
X98163Y77500D01*
X96327D01*
X161918Y75663D02*
X162378Y75204D01*
Y74286D01*
X161918Y73827D01*
X160082D01*
X159623Y74286D01*
Y75204D01*
X160082Y75663D01*
X161918Y76582D02*
X162378Y77041D01*
Y77959D01*
X161918Y78418D01*
X161459D01*
X161000Y77959D01*
Y77500D01*
Y77959D01*
X160541Y78418D01*
X160082D01*
X159623Y77959D01*
Y77041D01*
X160082Y76582D01*
X161918Y79337D02*
X162378Y79796D01*
Y80714D01*
X161918Y81173D01*
X161459D01*
X161000Y80714D01*
Y80255D01*
Y80714D01*
X160541Y81173D01*
X160082D01*
X159623Y80714D01*
Y79796D01*
X160082Y79337D01*
X153918Y75663D02*
X154377Y75204D01*
Y74286D01*
X153918Y73827D01*
X152082D01*
X151622Y74286D01*
Y75204D01*
X152082Y75663D01*
X153918Y76582D02*
X154377Y77041D01*
Y77959D01*
X153918Y78418D01*
X153459D01*
X153000Y77959D01*
Y77500D01*
Y77959D01*
X152541Y78418D01*
X152082D01*
X151622Y77959D01*
Y77041D01*
X152082Y76582D01*
X151622Y81173D02*
Y79337D01*
X153459Y81173D01*
X153918D01*
X154377Y80714D01*
Y79796D01*
X153918Y79337D01*
X126377Y149918D02*
X126837Y150378D01*
X127755D01*
X128214Y149918D01*
Y148082D01*
X127755Y147623D01*
X126837D01*
X126377Y148082D01*
X125459Y149918D02*
X125000Y150378D01*
X124082D01*
X123623Y149918D01*
Y149459D01*
X124082Y149000D01*
X124541D01*
X124082D01*
X123623Y148541D01*
Y148082D01*
X124082Y147623D01*
X125000D01*
X125459Y148082D01*
X122704Y147623D02*
X121786D01*
X122245D01*
Y150378D01*
X122704Y149918D01*
X115337Y133418D02*
X115796Y133878D01*
X116714D01*
X117173Y133418D01*
Y131582D01*
X116714Y131123D01*
X115796D01*
X115337Y131582D01*
X114418Y133418D02*
X113959Y133878D01*
X113041D01*
X112582Y133418D01*
Y132959D01*
X113041Y132500D01*
X113500D01*
X113041D01*
X112582Y132041D01*
Y131582D01*
X113041Y131123D01*
X113959D01*
X114418Y131582D01*
X111663Y133418D02*
X111204Y133878D01*
X110286D01*
X109827Y133418D01*
Y131582D01*
X110286Y131123D01*
X111204D01*
X111663Y131582D01*
Y133418D01*
X115337Y124418D02*
X115796Y124878D01*
X116714D01*
X117173Y124418D01*
Y122582D01*
X116714Y122123D01*
X115796D01*
X115337Y122582D01*
X112582Y122123D02*
X114418D01*
X112582Y123959D01*
Y124418D01*
X113041Y124878D01*
X113959D01*
X114418Y124418D01*
X111663Y122582D02*
X111204Y122123D01*
X110286D01*
X109827Y122582D01*
Y124418D01*
X110286Y124878D01*
X111204D01*
X111663Y124418D01*
Y123959D01*
X111204Y123500D01*
X109827D01*
X115337Y116418D02*
X115796Y116877D01*
X116714D01*
X117173Y116418D01*
Y114582D01*
X116714Y114122D01*
X115796D01*
X115337Y114582D01*
X112582Y114122D02*
X114418D01*
X112582Y115959D01*
Y116418D01*
X113041Y116877D01*
X113959D01*
X114418Y116418D01*
X111663D02*
X111204Y116877D01*
X110286D01*
X109827Y116418D01*
Y115959D01*
X110286Y115500D01*
X109827Y115041D01*
Y114582D01*
X110286Y114122D01*
X111204D01*
X111663Y114582D01*
Y115041D01*
X111204Y115500D01*
X111663Y115959D01*
Y116418D01*
X111204Y115500D02*
X110286D01*
X138418Y150163D02*
X138877Y149704D01*
Y148786D01*
X138418Y148327D01*
X136582D01*
X136123Y148786D01*
Y149704D01*
X136582Y150163D01*
X136123Y152918D02*
Y151082D01*
X137959Y152918D01*
X138418D01*
X138877Y152459D01*
Y151541D01*
X138418Y151082D01*
X138877Y153837D02*
Y155673D01*
X138418D01*
X136582Y153837D01*
X136123D01*
X115337Y107418D02*
X115796Y107878D01*
X116714D01*
X117173Y107418D01*
Y105582D01*
X116714Y105122D01*
X115796D01*
X115337Y105582D01*
X112582Y105122D02*
X114418D01*
X112582Y106959D01*
Y107418D01*
X113041Y107878D01*
X113959D01*
X114418Y107418D01*
X109827Y107878D02*
X110745Y107418D01*
X111663Y106500D01*
Y105582D01*
X111204Y105122D01*
X110286D01*
X109827Y105582D01*
Y106041D01*
X110286Y106500D01*
X111663D01*
X146918Y150163D02*
X147378Y149704D01*
Y148786D01*
X146918Y148327D01*
X145082D01*
X144623Y148786D01*
Y149704D01*
X145082Y150163D01*
X144623Y152918D02*
Y151082D01*
X146459Y152918D01*
X146918D01*
X147378Y152459D01*
Y151541D01*
X146918Y151082D01*
X144623Y155214D02*
X147378D01*
X146000Y153837D01*
Y155673D01*
X144418Y81163D02*
X144878Y80704D01*
Y79786D01*
X144418Y79327D01*
X142582D01*
X142122Y79786D01*
Y80704D01*
X142582Y81163D01*
X142122Y83918D02*
Y82082D01*
X143959Y83918D01*
X144418D01*
X144878Y83459D01*
Y82541D01*
X144418Y82082D01*
Y84837D02*
X144878Y85296D01*
Y86214D01*
X144418Y86673D01*
X143959D01*
X143500Y86214D01*
Y85755D01*
Y86214D01*
X143041Y86673D01*
X142582D01*
X142122Y86214D01*
Y85296D01*
X142582Y84837D01*
X243918Y132163D02*
X244377Y131704D01*
Y130786D01*
X243918Y130327D01*
X242082D01*
X241622Y130786D01*
Y131704D01*
X242082Y132163D01*
X241622Y134918D02*
Y133082D01*
X243459Y134918D01*
X243918D01*
X244377Y134459D01*
Y133541D01*
X243918Y133082D01*
X241622Y137673D02*
Y135837D01*
X243459Y137673D01*
X243918D01*
X244377Y137214D01*
Y136296D01*
X243918Y135837D01*
X106607Y206418D02*
X107066Y206877D01*
X107985D01*
X108444Y206418D01*
Y204582D01*
X107985Y204122D01*
X107066D01*
X106607Y204582D01*
X105689Y204122D02*
X104770D01*
X105230D01*
Y206877D01*
X105689Y206418D01*
X103393Y204582D02*
X102934Y204122D01*
X102015D01*
X101556Y204582D01*
Y206418D01*
X102015Y206877D01*
X102934D01*
X103393Y206418D01*
Y205959D01*
X102934Y205500D01*
X101556D01*
X99146Y224954D02*
X99606Y225413D01*
X100524D01*
X100983Y224954D01*
Y223117D01*
X100524Y222658D01*
X99606D01*
X99146Y223117D01*
X98228Y222658D02*
X97310D01*
X97769D01*
Y225413D01*
X98228Y224954D01*
X95932D02*
X95473Y225413D01*
X94555D01*
X94096Y224954D01*
Y224495D01*
X94555Y224035D01*
X94096Y223576D01*
Y223117D01*
X94555Y222658D01*
X95473D01*
X95932Y223117D01*
Y223576D01*
X95473Y224035D01*
X95932Y224495D01*
Y224954D01*
X95473Y224035D02*
X94555D01*
X125918Y166393D02*
X126377Y165934D01*
Y165015D01*
X125918Y164556D01*
X124082D01*
X123623Y165015D01*
Y165934D01*
X124082Y166393D01*
X123623Y167311D02*
Y168230D01*
Y167770D01*
X126377D01*
X125918Y167311D01*
X126377Y169607D02*
Y171444D01*
X125918D01*
X124082Y169607D01*
X123623D01*
X162607Y224918D02*
X163066Y225377D01*
X163985D01*
X164444Y224918D01*
Y223082D01*
X163985Y222622D01*
X163066D01*
X162607Y223082D01*
X161689Y222622D02*
X160770D01*
X161230D01*
Y225377D01*
X161689Y224918D01*
X157556Y225377D02*
X158475Y224918D01*
X159393Y224000D01*
Y223082D01*
X158934Y222622D01*
X158015D01*
X157556Y223082D01*
Y223541D01*
X158015Y224000D01*
X159393D01*
X137918Y265893D02*
X138377Y265434D01*
Y264515D01*
X137918Y264056D01*
X136082D01*
X135623Y264515D01*
Y265434D01*
X136082Y265893D01*
X135623Y266811D02*
Y267730D01*
Y267270D01*
X138377D01*
X137918Y266811D01*
X138377Y270944D02*
Y269107D01*
X137000D01*
X137459Y270025D01*
Y270485D01*
X137000Y270944D01*
X136082D01*
X135623Y270485D01*
Y269566D01*
X136082Y269107D01*
X138107Y242918D02*
X138566Y243377D01*
X139485D01*
X139944Y242918D01*
Y241082D01*
X139485Y240622D01*
X138566D01*
X138107Y241082D01*
X137189Y240622D02*
X136270D01*
X136730D01*
Y243377D01*
X137189Y242918D01*
X133515Y240622D02*
Y243377D01*
X134893Y242000D01*
X133056D01*
X312607Y207918D02*
X313066Y208378D01*
X313985D01*
X314444Y207918D01*
Y206082D01*
X313985Y205623D01*
X313066D01*
X312607Y206082D01*
X311689Y205623D02*
X310770D01*
X311230D01*
Y208378D01*
X311689Y207918D01*
X309393D02*
X308934Y208378D01*
X308015D01*
X307556Y207918D01*
Y207459D01*
X308015Y207000D01*
X308475D01*
X308015D01*
X307556Y206541D01*
Y206082D01*
X308015Y205623D01*
X308934D01*
X309393Y206082D01*
X273918Y143893D02*
X274377Y143434D01*
Y142515D01*
X273918Y142056D01*
X272082D01*
X271622Y142515D01*
Y143434D01*
X272082Y143893D01*
X271622Y144811D02*
Y145730D01*
Y145270D01*
X274377D01*
X273918Y144811D01*
X271622Y148944D02*
Y147107D01*
X273459Y148944D01*
X273918D01*
X274377Y148485D01*
Y147566D01*
X273918Y147107D01*
X200926Y277084D02*
X201385Y276625D01*
Y275707D01*
X200926Y275248D01*
X199090D01*
X198630Y275707D01*
Y276625D01*
X199090Y277084D01*
X198630Y278003D02*
Y278921D01*
Y278462D01*
X201385D01*
X200926Y278003D01*
X198630Y280298D02*
Y281217D01*
Y280758D01*
X201385D01*
X200926Y280298D01*
X126607Y241418D02*
X127066Y241878D01*
X127985D01*
X128444Y241418D01*
Y239582D01*
X127985Y239123D01*
X127066D01*
X126607Y239582D01*
X125689Y239123D02*
X124770D01*
X125230D01*
Y241878D01*
X125689Y241418D01*
X123393D02*
X122934Y241878D01*
X122015D01*
X121556Y241418D01*
Y239582D01*
X122015Y239123D01*
X122934D01*
X123393Y239582D01*
Y241418D01*
X125459Y232918D02*
X125918Y233378D01*
X126837D01*
X127296Y232918D01*
Y231082D01*
X126837Y230623D01*
X125918D01*
X125459Y231082D01*
X124541D02*
X124082Y230623D01*
X123163D01*
X122704Y231082D01*
Y232918D01*
X123163Y233378D01*
X124082D01*
X124541Y232918D01*
Y232459D01*
X124082Y232000D01*
X122704D01*
X293959Y247418D02*
X294418Y247878D01*
X295337D01*
X295796Y247418D01*
Y245582D01*
X295337Y245123D01*
X294418D01*
X293959Y245582D01*
X293041Y247418D02*
X292582Y247878D01*
X291663D01*
X291204Y247418D01*
Y246959D01*
X291663Y246500D01*
X291204Y246041D01*
Y245582D01*
X291663Y245123D01*
X292582D01*
X293041Y245582D01*
Y246041D01*
X292582Y246500D01*
X293041Y246959D01*
Y247418D01*
X292582Y246500D02*
X291663D01*
X334418Y130041D02*
X334877Y129582D01*
Y128663D01*
X334418Y128204D01*
X332582D01*
X332122Y128663D01*
Y129582D01*
X332582Y130041D01*
X334877Y130959D02*
Y132796D01*
X334418D01*
X332582Y130959D01*
X332122D01*
X314918Y130041D02*
X315377Y129582D01*
Y128663D01*
X314918Y128204D01*
X313082D01*
X312622Y128663D01*
Y129582D01*
X313082Y130041D01*
X315377Y132796D02*
X314918Y131878D01*
X314000Y130959D01*
X313082D01*
X312622Y131418D01*
Y132337D01*
X313082Y132796D01*
X313541D01*
X314000Y132337D01*
Y130959D01*
X323918Y129541D02*
X324377Y129082D01*
Y128163D01*
X323918Y127704D01*
X322082D01*
X321622Y128163D01*
Y129082D01*
X322082Y129541D01*
X323918Y130459D02*
X324377Y130918D01*
Y131837D01*
X323918Y132296D01*
X323459D01*
X323000Y131837D01*
Y131377D01*
Y131837D01*
X322541Y132296D01*
X322082D01*
X321622Y131837D01*
Y130918D01*
X322082Y130459D01*
X343918Y130041D02*
X344377Y129582D01*
Y128663D01*
X343918Y128204D01*
X342082D01*
X341622Y128663D01*
Y129582D01*
X342082Y130041D01*
X341622Y132796D02*
Y130959D01*
X343459Y132796D01*
X343918D01*
X344377Y132337D01*
Y131418D01*
X343918Y130959D01*
D15*
X181319Y42500D02*
G03*
X181319Y42500I-394J0D01*
G01*
X129819D02*
G03*
X129819Y42500I-394J0D01*
G01*
X64839Y154457D02*
G03*
X64839Y154457I-394J0D01*
G01*
X91181Y200005D02*
G03*
X91181Y200005I-394J0D01*
G01*
X143121Y272351D02*
G03*
X143121Y272351I-591J0D01*
G01*
X292449Y295957D02*
G03*
X292449Y295957I-394J0D01*
G01*
X210279Y187579D02*
Y200374D01*
X182720D02*
X210279D01*
X182720Y184626D02*
Y200374D01*
X207327Y184626D02*
X210279Y187579D01*
X182720Y184626D02*
X207327D01*
X233933Y55819D02*
X263067D01*
X233933Y33181D02*
Y55819D01*
Y33181D02*
X263067D01*
Y55819D01*
X294146Y33114D02*
Y55752D01*
X265012Y33114D02*
X294146D01*
X265012D02*
Y55752D01*
X294146D01*
X230398Y90957D02*
Y98043D01*
X242602Y90957D02*
Y98043D01*
X230398D02*
X242602D01*
X230398Y90957D02*
X242602D01*
X126650Y74941D02*
X129248D01*
Y78150D01*
X117752Y74941D02*
X120350D01*
X117752D02*
Y78150D01*
X116795Y213705D02*
X141205D01*
X116795Y189295D02*
X141205D01*
X116795D02*
Y213705D01*
X141205Y189295D02*
Y213705D01*
X162988Y229807D02*
X174012D01*
X162988Y243193D02*
X174012D01*
X311914Y241956D02*
X326481Y216725D01*
X346086Y228044D01*
X331519Y253275D02*
X346086Y228044D01*
X311914Y241956D02*
X331519Y253275D01*
X311248Y214445D02*
Y232555D01*
X299752D02*
X300677D01*
X310323D02*
X311248D01*
X299752Y214445D02*
Y232555D01*
Y214445D02*
X300677D01*
X310323D02*
X311248D01*
X289126Y243386D02*
X297886D01*
X271114D02*
X279874D01*
X271114Y220551D02*
Y243386D01*
Y220551D02*
X275051Y216614D01*
X297886Y220551D02*
Y243386D01*
X293949Y216614D02*
X297886Y220551D01*
X289224Y216614D02*
X293949D01*
X275051D02*
X279776D01*
X312185Y157173D02*
Y170559D01*
X272815Y157173D02*
X312185D01*
X272815D02*
Y170559D01*
X364743Y151251D02*
X379310Y126021D01*
X398915Y137339D01*
X384348Y162570D02*
X398915Y137339D01*
X364743Y151251D02*
X384348Y162570D01*
X380744Y122251D02*
X395310Y97021D01*
X414915Y108340D01*
X400348Y133570D02*
X414915Y108340D01*
X380744Y122251D02*
X400348Y133570D01*
D16*
X68076Y64041D02*
G03*
X68076Y64041I-557J0D01*
G01*
X233557Y78080D02*
G03*
X233557Y78080I-557J0D01*
G01*
X203057Y77580D02*
G03*
X203057Y77580I-557J0D01*
G01*
X140557Y112080D02*
G03*
X140557Y112080I-557J0D01*
G01*
X149057Y88920D02*
G03*
X149057Y88920I-557J0D01*
G01*
X135057Y85080D02*
G03*
X135057Y85080I-557J0D01*
G01*
X228057Y143080D02*
G03*
X228057Y143080I-557J0D01*
G01*
X200360Y238124D02*
G03*
X200360Y238124I-557J0D01*
G01*
X153313Y248754D02*
G03*
X153313Y248754I-557J0D01*
G01*
X94557Y54658D02*
G03*
X94557Y54658I-557J0D01*
G01*
X102557D02*
G03*
X102557Y54658I-557J0D01*
G01*
X172557Y246657D02*
G03*
X172557Y246657I-557J0D01*
G01*
X291557Y68657D02*
G03*
X291557Y68657I-557J0D01*
G01*
X95057Y121658D02*
G03*
X95057Y121658I-557J0D01*
G01*
X283057Y120158D02*
G03*
X283057Y120158I-557J0D01*
G01*
X332057Y177890D02*
G03*
X332057Y177890I-557J0D01*
G01*
X347057D02*
G03*
X347057Y177890I-557J0D01*
G01*
X339557D02*
G03*
X339557Y177890I-557J0D01*
G01*
X242423Y96658D02*
G03*
X242423Y92342I180J-2158D01*
G01*
X63976Y43406D02*
X71063D01*
X63976D02*
Y62697D01*
X71063D01*
Y43406D02*
Y62697D01*
X229457Y57445D02*
X236543D01*
X229457D02*
Y76736D01*
X236543D01*
Y57445D02*
Y76736D01*
X198957Y56945D02*
X206043D01*
X198957D02*
Y76236D01*
X206043D01*
Y56945D02*
Y76236D01*
X143543Y91445D02*
Y110736D01*
X136457D02*
X143543D01*
X136457Y91445D02*
Y110736D01*
Y91445D02*
X143543D01*
X144957Y90264D02*
Y109555D01*
Y90264D02*
X152043D01*
Y109555D01*
X144957D02*
X152043D01*
X130957Y64445D02*
X138043D01*
X130957D02*
Y83736D01*
X138043D01*
Y64445D02*
Y83736D01*
X223957Y122445D02*
X231043D01*
X223957D02*
Y141736D01*
X231043D01*
Y122445D02*
Y141736D01*
X196260Y258760D02*
X203346D01*
Y239469D02*
Y258760D01*
X196260Y239469D02*
X203346D01*
X196260D02*
Y258760D01*
X149213Y269390D02*
X156299D01*
Y250098D02*
Y269390D01*
X149213Y250098D02*
X156299D01*
X149213D02*
Y269390D01*
X214173Y245374D02*
Y273721D01*
Y245374D02*
X233071D01*
Y273721D01*
X214173D02*
X233071D01*
X90850Y56232D02*
Y71980D01*
Y56232D02*
X97150D01*
Y71980D01*
X90850D02*
X97150D01*
X98850Y56232D02*
Y71980D01*
Y56232D02*
X105150D01*
Y71980D01*
X98850D02*
X105150D01*
X168850Y263980D02*
X175150D01*
Y248232D02*
Y263980D01*
X168850Y248232D02*
X175150D01*
X168850D02*
Y263980D01*
X287850Y85980D02*
X294150D01*
Y70232D02*
Y85980D01*
X287850Y70232D02*
X294150D01*
X287850D02*
Y85980D01*
X91350Y138980D02*
X97650D01*
Y123232D02*
Y138980D01*
X91350Y123232D02*
X97650D01*
X91350D02*
Y138980D01*
X279350Y137480D02*
X285650D01*
Y121732D02*
Y137480D01*
X279350Y121732D02*
X285650D01*
X279350D02*
Y137480D01*
X328350Y195212D02*
X334650D01*
Y179464D02*
Y195212D01*
X328350Y179464D02*
X334650D01*
X328350D02*
Y195212D01*
X343350D02*
X349650D01*
Y179464D02*
Y195212D01*
X343350Y179464D02*
X349650D01*
X343350D02*
Y195212D01*
X335850D02*
X342150D01*
Y179464D02*
Y195212D01*
X335850Y179464D02*
X342150D01*
X335850D02*
Y195212D01*
X211244Y328405D02*
X216756D01*
Y316595D02*
Y328405D01*
X211244Y316595D02*
X216756D01*
X211244D02*
Y328405D01*
X200756Y318094D02*
Y329906D01*
X195244D02*
X200756D01*
X195244Y318094D02*
Y329906D01*
Y318094D02*
X200756D01*
X192744Y298905D02*
X198256D01*
Y287094D02*
Y298905D01*
X192744Y287094D02*
X198256D01*
X192744D02*
Y298905D01*
X177744Y288595D02*
X183256D01*
X177744D02*
Y300406D01*
X183256D01*
Y288595D02*
Y300406D01*
X72146Y49213D02*
Y62598D01*
Y49213D02*
X80020D01*
Y62598D01*
X72146D02*
X80020D01*
X55020Y62500D02*
X62894D01*
Y49114D02*
Y62500D01*
X55020Y49114D02*
X62894D01*
X55020D02*
Y62500D01*
X202063Y316307D02*
Y329693D01*
Y316307D02*
X209937D01*
Y329693D01*
X202063D02*
X209937D01*
X202063Y290307D02*
Y303693D01*
Y290307D02*
X209937D01*
Y303693D01*
X202063D02*
X209937D01*
X211063Y290307D02*
Y303693D01*
Y290307D02*
X218937D01*
Y303693D01*
X211063D02*
X218937D01*
X184063Y286807D02*
Y300193D01*
Y286807D02*
X191937D01*
Y300193D01*
X184063D02*
X191937D01*
X177563Y263307D02*
Y276693D01*
Y263307D02*
X185437D01*
Y276693D01*
X177563D02*
X185437D01*
X186563Y263307D02*
Y276693D01*
Y263307D02*
X194437D01*
Y276693D01*
X186563D02*
X194437D01*
X220563Y62307D02*
Y75693D01*
Y62307D02*
X228437D01*
Y75693D01*
X220563D02*
X228437D01*
X190063Y75193D02*
X197937D01*
Y61807D02*
Y75193D01*
X190063Y61807D02*
X197937D01*
X190063D02*
Y75193D01*
X202307Y113437D02*
X215693D01*
X202307Y105563D02*
Y113437D01*
Y105563D02*
X215693D01*
Y113437D01*
X202307Y87563D02*
Y95437D01*
X215693D01*
Y87563D02*
Y95437D01*
X202307Y87563D02*
X215693D01*
X106693Y81063D02*
Y88937D01*
X93307Y81063D02*
X106693D01*
X93307D02*
Y88937D01*
X106693D01*
X164937Y58307D02*
Y71693D01*
X157063D02*
X164937D01*
X157063Y58307D02*
Y71693D01*
Y58307D02*
X164937D01*
X156437D02*
Y71693D01*
X148563D02*
X156437D01*
X148563Y58307D02*
Y71693D01*
Y58307D02*
X156437D01*
X118807Y137563D02*
X132193D01*
Y145437D01*
X118807D02*
X132193D01*
X118807Y137563D02*
Y145437D01*
Y128563D02*
X132193D01*
Y136437D01*
X118807D02*
X132193D01*
X118807Y128563D02*
Y136437D01*
Y120063D02*
X132193D01*
Y127937D01*
X118807D02*
X132193D01*
X118807Y120063D02*
Y127937D01*
Y111563D02*
X132193D01*
Y119437D01*
X118807D02*
X132193D01*
X118807Y111563D02*
Y119437D01*
X140937Y132807D02*
Y146193D01*
X133063D02*
X140937D01*
X133063Y132807D02*
Y146193D01*
Y132807D02*
X140937D01*
X118807Y102563D02*
Y110437D01*
X132193D01*
Y102563D02*
Y110437D01*
X118807Y102563D02*
X132193D01*
X149937Y132807D02*
Y146193D01*
X142063D02*
X149937D01*
X142063Y132807D02*
Y146193D01*
Y132807D02*
X149937D01*
X147437Y64307D02*
Y77693D01*
X139563D02*
X147437D01*
X139563Y64307D02*
Y77693D01*
Y64307D02*
X147437D01*
X232063Y127807D02*
Y141193D01*
Y127807D02*
X239937D01*
Y141193D01*
X232063D02*
X239937D01*
X85807Y211437D02*
X99193D01*
X85807Y203563D02*
Y211437D01*
Y203563D02*
X99193D01*
Y211437D01*
X90847Y220472D02*
X104232D01*
X90847Y212598D02*
Y220472D01*
Y212598D02*
X104232D01*
Y220472D01*
X114063Y162807D02*
Y176193D01*
Y162807D02*
X121937D01*
Y176193D01*
X114063D02*
X121937D01*
X166307Y220563D02*
X179693D01*
Y228437D01*
X166307D02*
X179693D01*
X166307Y220563D02*
Y228437D01*
X138937Y248307D02*
Y261693D01*
X131063D02*
X138937D01*
X131063Y248307D02*
Y261693D01*
Y248307D02*
X138937D01*
X141807Y246937D02*
X155193D01*
X141807Y239063D02*
Y246937D01*
Y239063D02*
X155193D01*
Y246937D01*
X316307Y202563D02*
X329693D01*
Y210437D01*
X316307D02*
X329693D01*
X316307Y202563D02*
Y210437D01*
X262063Y138807D02*
Y152193D01*
Y138807D02*
X269937D01*
Y152193D01*
X262063D02*
X269937D01*
X203445Y260039D02*
Y273425D01*
X195571D02*
X203445D01*
X195571Y260039D02*
Y273425D01*
Y260039D02*
X203445D01*
X106307Y245937D02*
X119693D01*
X106307Y238063D02*
Y245937D01*
Y238063D02*
X119693D01*
Y245937D01*
X106307Y237437D02*
X119693D01*
X106307Y229563D02*
Y237437D01*
Y229563D02*
X119693D01*
Y237437D01*
X329563Y112807D02*
Y126193D01*
Y112807D02*
X337437D01*
Y126193D01*
X329563D02*
X337437D01*
X309563Y112807D02*
Y126193D01*
Y112807D02*
X317437D01*
Y126193D01*
X309563D02*
X317437D01*
X319063Y112807D02*
Y126193D01*
Y112807D02*
X326937D01*
Y126193D01*
X319063D02*
X326937D01*
X338563Y112807D02*
Y126193D01*
Y112807D02*
X346437D01*
Y126193D01*
X338563D02*
X346437D01*
X110563Y56307D02*
Y69693D01*
X118437D01*
X110563Y56307D02*
X118437D01*
Y69693D01*
X119563Y56307D02*
Y69693D01*
X127437D01*
X119563Y56307D02*
X127437D01*
Y69693D01*
X147937Y248307D02*
Y261693D01*
X140063Y248307D02*
X147937D01*
X140063Y261693D02*
X147937D01*
X140063Y248307D02*
Y261693D01*
X129724Y85433D02*
Y96457D01*
X124213D02*
X129724D01*
X124213Y85433D02*
Y96457D01*
Y85433D02*
X129724D01*
X344563Y151307D02*
Y164693D01*
Y151307D02*
X352437D01*
Y164693D01*
X344563D02*
X352437D01*
X81563Y58307D02*
Y71693D01*
Y58307D02*
X89437D01*
Y71693D01*
X81563D02*
X89437D01*
X266807Y64937D02*
X280193D01*
X266807Y57063D02*
Y64937D01*
Y57063D02*
X280193D01*
Y64937D01*
X281307D02*
X294693D01*
X281307Y57063D02*
Y64937D01*
Y57063D02*
X294693D01*
Y64937D01*
X237807D02*
X251193D01*
X237807Y57063D02*
Y64937D01*
Y57063D02*
X251193D01*
Y64937D01*
X252307D02*
X265693D01*
X252307Y57063D02*
Y64937D01*
Y57063D02*
X265693D01*
Y64937D01*
X221563Y79307D02*
Y92693D01*
Y79307D02*
X229437D01*
Y92693D01*
X221563D02*
X229437D01*
X98563Y124807D02*
X106437D01*
X98563D02*
Y138193D01*
X106437D01*
Y124807D02*
Y138193D01*
X181102Y222342D02*
Y235728D01*
Y222342D02*
X188976D01*
Y235728D01*
X181102D02*
X188976D01*
X212500Y260039D02*
Y273425D01*
X204626D02*
X212500D01*
X204626Y260039D02*
Y273425D01*
Y260039D02*
X212500D01*
Y245276D02*
Y258661D01*
X204626D02*
X212500D01*
X204626Y245276D02*
Y258661D01*
Y245276D02*
X212500D01*
X188878Y237205D02*
Y250590D01*
X181004D02*
X188878D01*
X181004Y237205D02*
Y250590D01*
Y237205D02*
X188878D01*
X277937Y123307D02*
Y136693D01*
X270063D02*
X277937D01*
X270063Y123307D02*
Y136693D01*
Y123307D02*
X277937D01*
X174937Y191807D02*
Y205193D01*
X167063D02*
X174937D01*
X167063Y191807D02*
Y205193D01*
Y191807D02*
X174937D01*
X167063Y206307D02*
Y219693D01*
Y206307D02*
X174937D01*
Y219693D01*
X167063D02*
X174937D01*
X322807Y164563D02*
Y172437D01*
X336193D01*
Y164563D02*
Y172437D01*
X322807Y164563D02*
X336193D01*
X354563Y151307D02*
X362437D01*
X354563D02*
Y164693D01*
X362437D01*
Y151307D02*
Y164693D01*
X210669Y75374D02*
X219331D01*
X210669Y59626D02*
Y75374D01*
Y59626D02*
X219331D01*
Y75374D01*
X188831Y59626D02*
Y75374D01*
X180169Y59626D02*
X188831D01*
X180169D02*
Y75374D01*
X188831D01*
X202307Y86437D02*
X215693D01*
Y78563D02*
Y86437D01*
X202307Y78563D02*
Y86437D01*
Y78563D02*
X215693D01*
X202307Y96563D02*
X215693D01*
X202307D02*
Y104437D01*
X215693Y96563D02*
Y104437D01*
X202307D02*
X215693D01*
X286579Y119921D02*
X306421D01*
X286579Y110079D02*
Y119921D01*
Y110079D02*
X306421Y110000D01*
Y110079D02*
Y119921D01*
X297000Y41500D02*
X304000D01*
X297000D02*
X299000Y39500D01*
X297000Y41500D02*
X299000Y43500D01*
X167500Y59000D02*
X174500D01*
X172500Y61000D02*
X174500Y59000D01*
X172500Y57000D02*
X174500Y59000D01*
X297921Y88579D02*
Y108421D01*
X288079D02*
X297921D01*
X288000Y88579D02*
X288079Y108421D01*
Y88579D02*
X297921D01*
X85000Y36000D02*
X87000Y38000D01*
X85000Y40000D02*
X87000Y38000D01*
X80000D02*
X87000D01*
X98579Y33079D02*
Y52921D01*
Y33079D02*
X108421D01*
X108500Y52921D01*
X98579D02*
X108421D01*
X89579Y140079D02*
Y149921D01*
Y150000D02*
X109421Y149921D01*
Y140079D02*
Y149921D01*
X89579Y140079D02*
X109421D01*
X123801Y253617D02*
X138723Y279462D01*
X130199Y284383D02*
X138723Y279462D01*
X115209Y258578D02*
X130199Y284383D01*
X115277Y258538D02*
X123801Y253617D01*
X192579Y212079D02*
X202421D01*
X192500D02*
X192579Y231921D01*
X202421D01*
Y212079D02*
Y231921D01*
X213921Y212079D02*
Y231921D01*
X204079D02*
X213921D01*
X204000Y212079D02*
X204079Y231921D01*
Y212079D02*
X213921D01*
X215579D02*
X225421D01*
X215500D02*
X215579Y231921D01*
X225421D01*
Y212079D02*
Y231921D01*
X157579Y248150D02*
Y267992D01*
Y248150D02*
X167421D01*
X167500Y267992D01*
X157579D02*
X167421D01*
X273777Y334631D02*
X283699Y317447D01*
X292223Y322369D01*
X282369Y339592D02*
X292223Y322369D01*
X273777Y334631D02*
X282301Y339553D01*
X263277Y328131D02*
X273199Y310947D01*
X281723Y315869D01*
X271869Y333092D02*
X281723Y315869D01*
X263277Y328131D02*
X271801Y333053D01*
X293301Y321053D02*
X303223Y303869D01*
X284777Y316131D02*
X293301Y321053D01*
X284777Y316131D02*
X294631Y298908D01*
X294699Y298947D02*
X303223Y303869D01*
X349199Y203947D02*
X357723Y208869D01*
X339277Y221131D02*
X349131Y203908D01*
X339277Y221131D02*
X347801Y226053D01*
X357723Y208869D01*
X339199Y198447D02*
X347723Y203369D01*
X329277Y215631D02*
X339130Y198408D01*
X329277Y215631D02*
X337801Y220553D01*
X347723Y203369D01*
X349777Y202631D02*
X359699Y185447D01*
X368223Y190369D01*
X358369Y207592D02*
X368223Y190369D01*
X349777Y202631D02*
X358301Y207553D01*
X110579Y33579D02*
Y53421D01*
Y33579D02*
X130421D01*
Y53421D01*
X110579D02*
X130421D01*
X87079Y52921D02*
X96921D01*
Y33079D02*
X97000Y52921D01*
X87079Y33079D02*
X96921D01*
X87079D02*
Y52921D01*
D152*
X119354Y224327D02*
G03*
X119354Y224327I-1181J0D01*
G01*
D153*
X170512Y119398D02*
G03*
X170512Y119398I-472J0D01*
G01*
D154*
X27830Y86273D02*
X32382Y87492D01*
X29496Y89158D02*
X30716Y84606D01*
X28663Y87715D02*
X31549Y86049D01*
X30939Y88325D02*
X29273Y85439D01*
X243635Y98475D02*
X246967Y95143D01*
Y98475D02*
X243635Y95143D01*
X245301Y98475D02*
Y95143D01*
X246967Y96809D02*
X243635D01*
X75590Y90618D02*
X78923Y93950D01*
X75590D02*
X78923Y90618D01*
X75590Y92284D02*
X78923D01*
X77257Y93950D02*
Y90618D01*
D155*
X67524Y62106D02*
D03*
X233000Y76146D02*
D03*
X202500Y75646D02*
D03*
X140000Y110146D02*
D03*
X148500Y90854D02*
D03*
X134500Y83146D02*
D03*
X227500Y141148D02*
D03*
X199802Y240059D02*
D03*
X152751Y250688D02*
D03*
D156*
X94000Y56823D02*
D03*
X102000D02*
D03*
X172000Y248825D02*
D03*
X291000Y70823D02*
D03*
X94492Y123823D02*
D03*
X282500Y122324D02*
D03*
X331500Y180055D02*
D03*
X346500Y180055D02*
D03*
X339000Y180055D02*
D03*
M02*
