G04*
G04 #@! TF.GenerationSoftware,Altium Limited,Altium Designer,22.1.2 (22)*
G04*
G04 Layer_Physical_Order=3*
G04 Layer_Color=16440176*
%FSLAX25Y25*%
%MOIN*%
G70*
G04*
G04 #@! TF.SameCoordinates,8C121C91-0C0E-4A63-ABDB-05F36A63E408*
G04*
G04*
G04 #@! TF.FilePolarity,Positive*
G04*
G01*
G75*
%ADD14C,0.01968*%
%ADD67C,0.06102*%
%ADD90C,0.04134*%
%ADD95C,0.06260*%
%ADD96P,0.08853X4X285.0*%
%ADD97P,0.08908X4X285.0*%
%ADD100C,0.09449*%
%ADD102P,0.08908X4X165.0*%
%ADD106C,0.01968*%
%ADD111C,0.03543*%
G36*
X189500Y379326D02*
Y377642D01*
X189548Y376662D01*
X189931Y374739D01*
X190681Y372928D01*
X191770Y371298D01*
X192429Y370571D01*
X205071Y357929D01*
X205798Y357270D01*
X207428Y356181D01*
X209239Y355431D01*
X211162Y355048D01*
X212142Y355000D01*
X219128D01*
X219178Y354507D01*
X217400Y354080D01*
X215711Y353380D01*
X214152Y352425D01*
X212762Y351238D01*
X211575Y349848D01*
X210620Y348289D01*
X209920Y346600D01*
X209493Y344823D01*
X209350Y343000D01*
X209493Y341178D01*
X209920Y339400D01*
X210620Y337711D01*
X211575Y336152D01*
X212762Y334762D01*
X214152Y333575D01*
X215711Y332620D01*
X217400Y331920D01*
X219178Y331493D01*
X221000Y331350D01*
X222822Y331493D01*
X224600Y331920D01*
X226289Y332620D01*
X227848Y333575D01*
X229238Y334762D01*
X230425Y336152D01*
X231380Y337711D01*
X232080Y339400D01*
X232507Y341178D01*
X232650Y343000D01*
X232507Y344823D01*
X232080Y346600D01*
X231380Y348289D01*
X230425Y349848D01*
X229238Y351238D01*
X227848Y352425D01*
X226289Y353380D01*
X224600Y354080D01*
X222822Y354507D01*
X222872Y355000D01*
X230500D01*
X231447Y355047D01*
X233303Y355416D01*
X235052Y356140D01*
X236626Y357192D01*
X237328Y357828D01*
X250071Y370571D01*
X250730Y371298D01*
X251819Y372928D01*
X252569Y374739D01*
X252952Y376662D01*
X253000Y377642D01*
Y378500D01*
X260000D01*
X293159Y320123D01*
X292941Y319708D01*
X292850Y319655D01*
X286122Y315771D01*
X290059Y308952D01*
X296739Y312809D01*
X297350Y312745D01*
X299499Y308961D01*
X299114Y308626D01*
X298485Y309109D01*
X297528Y309506D01*
X296500Y309641D01*
X295472Y309506D01*
X294514Y309109D01*
X293692Y308478D01*
X293061Y307655D01*
X292664Y306698D01*
X292529Y305670D01*
X292664Y304642D01*
X293061Y303684D01*
X293692Y302862D01*
X294514Y302231D01*
X295472Y301834D01*
X296500Y301699D01*
X297528Y301834D01*
X298485Y302231D01*
X299308Y302862D01*
X299939Y303684D01*
X300336Y304642D01*
X300471Y305670D01*
X300374Y306409D01*
X300857Y306571D01*
X347377Y224671D01*
X340622Y220771D01*
X344559Y213952D01*
X350959Y217647D01*
X351441Y217516D01*
X353095Y214605D01*
X352745Y214208D01*
X352028Y214506D01*
X351000Y214641D01*
X349972Y214506D01*
X349014Y214109D01*
X348192Y213478D01*
X347561Y212655D01*
X347164Y211698D01*
X347029Y210670D01*
X347164Y209642D01*
X347561Y208684D01*
X348192Y207862D01*
X349014Y207231D01*
X349972Y206834D01*
X351000Y206699D01*
X352028Y206834D01*
X352986Y207231D01*
X353808Y207862D01*
X354439Y208684D01*
X354836Y209642D01*
X354930Y210361D01*
X355448Y210462D01*
X358732Y204681D01*
X358708Y204641D01*
X358362Y204320D01*
X357528Y204666D01*
X356500Y204801D01*
X355472Y204666D01*
X354515Y204269D01*
X353692Y203638D01*
X353061Y202816D01*
X352664Y201858D01*
X352529Y200830D01*
X352664Y199802D01*
X353061Y198845D01*
X353692Y198022D01*
X354515Y197391D01*
X355472Y196994D01*
X356500Y196859D01*
X357528Y196994D01*
X358486Y197391D01*
X359308Y198022D01*
X359939Y198845D01*
X360336Y199802D01*
X360447Y200649D01*
X360965Y200750D01*
X362822Y197479D01*
X356122Y193611D01*
X360059Y186792D01*
X366404Y190455D01*
X366887Y190324D01*
X414500Y106500D01*
Y96142D01*
Y95157D01*
X414116Y93225D01*
X413362Y91405D01*
X412267Y89767D01*
X411571Y89071D01*
X411571D01*
X411571Y89071D01*
X390929Y68429D01*
X390270Y67702D01*
X389181Y66072D01*
X388431Y64261D01*
X388048Y62338D01*
X388000Y61358D01*
Y26500D01*
X378929Y17429D01*
X378233Y16733D01*
X376595Y15638D01*
X374775Y14884D01*
X372843Y14500D01*
X366157D01*
X364225Y14884D01*
X362405Y15638D01*
X360768Y16733D01*
X360071Y17429D01*
X356500Y21000D01*
X355906Y21594D01*
X354971Y22992D01*
X354328Y24546D01*
X354000Y26195D01*
Y31000D01*
X351500Y33500D01*
X91000D01*
X89000Y31500D01*
Y27015D01*
X88616Y25083D01*
X87862Y23263D01*
X86768Y21625D01*
X85375Y20233D01*
X83737Y19138D01*
X81917Y18384D01*
X79985Y18000D01*
X63515D01*
X61583Y18384D01*
X59763Y19138D01*
X58125Y20233D01*
X56732Y21625D01*
X55638Y23263D01*
X54884Y25083D01*
X54500Y27015D01*
Y28000D01*
Y60358D01*
X54452Y61338D01*
X54069Y63261D01*
X53319Y65072D01*
X52230Y66702D01*
X51571Y67429D01*
X51571Y67429D01*
X45575Y73425D01*
X45755Y73952D01*
X46168Y74007D01*
X46791Y74265D01*
X47325Y74675D01*
X47735Y75209D01*
X47993Y75832D01*
X48081Y76500D01*
X47993Y77168D01*
X47735Y77791D01*
X47325Y78325D01*
X46791Y78735D01*
X46168Y78993D01*
X45500Y79081D01*
X44832Y78993D01*
X44209Y78735D01*
X43675Y78325D01*
X43265Y77791D01*
X43007Y77168D01*
X42952Y76755D01*
X42424Y76575D01*
X28929Y90071D01*
X28232Y90768D01*
X27138Y92405D01*
X26384Y94225D01*
X26000Y96157D01*
Y97142D01*
Y106626D01*
X26217Y107378D01*
X75960Y194151D01*
X76478Y194049D01*
X76507Y193832D01*
X76765Y193209D01*
X77175Y192675D01*
X77709Y192265D01*
X78332Y192007D01*
X79000Y191919D01*
X79668Y192007D01*
X80291Y192265D01*
X80825Y192675D01*
X81235Y193209D01*
X81493Y193832D01*
X81581Y194500D01*
X81493Y195168D01*
X81235Y195791D01*
X80825Y196325D01*
X80291Y196735D01*
X79668Y196993D01*
X79000Y197081D01*
X78332Y196993D01*
X78114Y196903D01*
X77765Y197300D01*
X139519Y305024D01*
X181302Y377395D01*
X181560Y377794D01*
X181560Y377794D01*
X181770Y378300D01*
X182551Y379319D01*
X183439Y380000D01*
X188622D01*
X189500Y379326D01*
D02*
G37*
%LPC*%
G36*
X179842Y344714D02*
X178635Y344555D01*
X177510Y344089D01*
X176543Y343347D01*
X175802Y342381D01*
X175336Y341255D01*
X175177Y340048D01*
X175336Y338840D01*
X175802Y337715D01*
X176543Y336749D01*
X177510Y336007D01*
X178635Y335541D01*
X179842Y335382D01*
X181050Y335541D01*
X182176Y336007D01*
X183142Y336749D01*
X183883Y337715D01*
X184349Y338840D01*
X184508Y340048D01*
X184349Y341255D01*
X183883Y342381D01*
X183142Y343347D01*
X182176Y344089D01*
X181050Y344555D01*
X179842Y344714D01*
D02*
G37*
G36*
X183500Y334081D02*
X182832Y333993D01*
X182209Y333735D01*
X181675Y333325D01*
X181265Y332791D01*
X181007Y332168D01*
X180919Y331500D01*
X181007Y330832D01*
X181265Y330209D01*
X181675Y329675D01*
X182209Y329265D01*
X182832Y329007D01*
X183500Y328919D01*
X184168Y329007D01*
X184791Y329265D01*
X185325Y329675D01*
X185735Y330209D01*
X185993Y330832D01*
X186081Y331500D01*
X185993Y332168D01*
X185735Y332791D01*
X185325Y333325D01*
X184791Y333735D01*
X184168Y333993D01*
X183500Y334081D01*
D02*
G37*
G36*
X280500Y336801D02*
X279472Y336666D01*
X278515Y336269D01*
X277692Y335638D01*
X277061Y334816D01*
X276664Y333858D01*
X276529Y332830D01*
X276664Y331802D01*
X277061Y330845D01*
X277692Y330022D01*
X278515Y329391D01*
X279472Y328994D01*
X280500Y328859D01*
X281528Y328994D01*
X282486Y329391D01*
X283308Y330022D01*
X283939Y330845D01*
X284336Y331802D01*
X284471Y332830D01*
X284336Y333858D01*
X283939Y334816D01*
X283308Y335638D01*
X282486Y336269D01*
X281528Y336666D01*
X280500Y336801D01*
D02*
G37*
G36*
X270000Y330301D02*
X268972Y330166D01*
X268015Y329769D01*
X267192Y329138D01*
X266561Y328316D01*
X266164Y327358D01*
X266029Y326330D01*
X266164Y325302D01*
X266561Y324345D01*
X267192Y323522D01*
X268015Y322891D01*
X268972Y322495D01*
X270000Y322359D01*
X271028Y322495D01*
X271986Y322891D01*
X272808Y323522D01*
X273439Y324345D01*
X273836Y325302D01*
X273971Y326330D01*
X273836Y327358D01*
X273439Y328316D01*
X272808Y329138D01*
X271986Y329769D01*
X271028Y330166D01*
X270000Y330301D01*
D02*
G37*
G36*
X286941Y329548D02*
X280122Y325611D01*
X284059Y318792D01*
X290878Y322729D01*
X286941Y329548D01*
D02*
G37*
G36*
X170000Y327666D02*
X168792Y327507D01*
X167667Y327041D01*
X166701Y326299D01*
X165959Y325333D01*
X165493Y324208D01*
X165334Y323000D01*
X165493Y321792D01*
X165959Y320667D01*
X166701Y319701D01*
X167667Y318959D01*
X168792Y318493D01*
X170000Y318334D01*
X171208Y318493D01*
X172333Y318959D01*
X173299Y319701D01*
X174041Y320667D01*
X174507Y321792D01*
X174666Y323000D01*
X174507Y324208D01*
X174041Y325333D01*
X173299Y326299D01*
X172333Y327041D01*
X171208Y327507D01*
X170000Y327666D01*
D02*
G37*
G36*
X213500Y313081D02*
X212832Y312993D01*
X212209Y312735D01*
X211675Y312325D01*
X211265Y311791D01*
X211007Y311168D01*
X210919Y310500D01*
X211007Y309832D01*
X211265Y309209D01*
X211675Y308675D01*
X212209Y308265D01*
X212832Y308007D01*
X213500Y307919D01*
X214168Y308007D01*
X214791Y308265D01*
X215325Y308675D01*
X215735Y309209D01*
X215993Y309832D01*
X216081Y310500D01*
X215993Y311168D01*
X215735Y311791D01*
X215325Y312325D01*
X214791Y312735D01*
X214168Y312993D01*
X213500Y313081D01*
D02*
G37*
G36*
X206000Y309081D02*
X205332Y308993D01*
X204709Y308735D01*
X204175Y308325D01*
X203765Y307791D01*
X203507Y307168D01*
X203419Y306500D01*
X203507Y305832D01*
X203765Y305209D01*
X204175Y304675D01*
X204709Y304265D01*
X205332Y304007D01*
X206000Y303919D01*
X206668Y304007D01*
X207291Y304265D01*
X207825Y304675D01*
X208235Y305209D01*
X208493Y305832D01*
X208581Y306500D01*
X208493Y307168D01*
X208235Y307791D01*
X207825Y308325D01*
X207291Y308735D01*
X206668Y308993D01*
X206000Y309081D01*
D02*
G37*
G36*
X228500Y307081D02*
X227832Y306993D01*
X227209Y306735D01*
X226675Y306325D01*
X226265Y305791D01*
X226007Y305168D01*
X225919Y304500D01*
X226007Y303832D01*
X226265Y303209D01*
X226675Y302675D01*
X227209Y302265D01*
X227832Y302007D01*
X228500Y301919D01*
X229168Y302007D01*
X229791Y302265D01*
X230325Y302675D01*
X230735Y303209D01*
X230993Y303832D01*
X231081Y304500D01*
X230993Y305168D01*
X230735Y305791D01*
X230325Y306325D01*
X229791Y306735D01*
X229168Y306993D01*
X228500Y307081D01*
D02*
G37*
G36*
X160158Y310618D02*
X158950Y310459D01*
X157825Y309993D01*
X156858Y309251D01*
X156117Y308285D01*
X155651Y307160D01*
X155492Y305952D01*
X155651Y304745D01*
X156117Y303619D01*
X156858Y302653D01*
X157825Y301911D01*
X158950Y301445D01*
X160158Y301286D01*
X161365Y301445D01*
X162490Y301911D01*
X163457Y302653D01*
X164198Y303619D01*
X164664Y304745D01*
X164823Y305952D01*
X164664Y307160D01*
X164198Y308285D01*
X163457Y309251D01*
X162490Y309993D01*
X161365Y310459D01*
X160158Y310618D01*
D02*
G37*
G36*
X229441Y300581D02*
X228773Y300493D01*
X228150Y300235D01*
X227616Y299825D01*
X227206Y299291D01*
X226948Y298668D01*
X226860Y298000D01*
X226948Y297332D01*
X227206Y296709D01*
X227616Y296175D01*
X228150Y295765D01*
X228773Y295507D01*
X229441Y295419D01*
X230109Y295507D01*
X230732Y295765D01*
X231266Y296175D01*
X231676Y296709D01*
X231934Y297332D01*
X232022Y298000D01*
X231934Y298668D01*
X231676Y299291D01*
X231266Y299825D01*
X230732Y300235D01*
X230109Y300493D01*
X229441Y300581D01*
D02*
G37*
G36*
X165000Y300081D02*
X164332Y299993D01*
X163709Y299735D01*
X163175Y299325D01*
X162765Y298791D01*
X162507Y298168D01*
X162419Y297500D01*
X162507Y296832D01*
X162765Y296209D01*
X163175Y295675D01*
X163709Y295265D01*
X164332Y295007D01*
X165000Y294919D01*
X165668Y295007D01*
X166291Y295265D01*
X166825Y295675D01*
X167235Y296209D01*
X167493Y296832D01*
X167581Y297500D01*
X167493Y298168D01*
X167235Y298791D01*
X166825Y299325D01*
X166291Y299735D01*
X165668Y299993D01*
X165000Y300081D01*
D02*
G37*
G36*
X198651Y288292D02*
X197983Y288204D01*
X197360Y287946D01*
X196826Y287536D01*
X196415Y287001D01*
X196158Y286379D01*
X196070Y285711D01*
X196158Y285043D01*
X196415Y284420D01*
X196826Y283886D01*
X197360Y283475D01*
X197983Y283218D01*
X198651Y283130D01*
X199319Y283218D01*
X199941Y283475D01*
X200476Y283886D01*
X200886Y284420D01*
X201144Y285043D01*
X201232Y285711D01*
X201144Y286379D01*
X200886Y287001D01*
X200476Y287536D01*
X199941Y287946D01*
X199319Y288204D01*
X198651Y288292D01*
D02*
G37*
G36*
X148622Y295224D02*
X143996Y287211D01*
X152008Y282585D01*
X156634Y290598D01*
X148622Y295224D01*
D02*
G37*
G36*
X299513Y290875D02*
X292728Y286958D01*
X296645Y280173D01*
X303430Y284090D01*
X299513Y290875D01*
D02*
G37*
G36*
X215837Y284244D02*
X215169Y284156D01*
X214546Y283898D01*
X214012Y283488D01*
X213602Y282954D01*
X213344Y282331D01*
X213256Y281663D01*
X213344Y280995D01*
X213602Y280373D01*
X214012Y279838D01*
X214546Y279428D01*
X215169Y279170D01*
X215837Y279082D01*
X216505Y279170D01*
X217127Y279428D01*
X217662Y279838D01*
X218072Y280373D01*
X218330Y280995D01*
X218418Y281663D01*
X218330Y282331D01*
X218072Y282954D01*
X217662Y283488D01*
X217127Y283898D01*
X216505Y284156D01*
X215837Y284244D01*
D02*
G37*
G36*
X197973Y282608D02*
X197305Y282520D01*
X196683Y282262D01*
X196148Y281852D01*
X195738Y281317D01*
X195480Y280695D01*
X195392Y280027D01*
X195480Y279359D01*
X195738Y278736D01*
X196148Y278202D01*
X196683Y277791D01*
X197305Y277534D01*
X197973Y277446D01*
X198641Y277534D01*
X199264Y277791D01*
X199798Y278202D01*
X200209Y278736D01*
X200466Y279359D01*
X200554Y280027D01*
X200466Y280695D01*
X200209Y281317D01*
X199798Y281852D01*
X199264Y282262D01*
X198641Y282520D01*
X197973Y282608D01*
D02*
G37*
G36*
X189500Y282581D02*
X188832Y282493D01*
X188209Y282235D01*
X187675Y281825D01*
X187265Y281291D01*
X187007Y280668D01*
X186919Y280000D01*
X187007Y279332D01*
X187265Y278709D01*
X187675Y278175D01*
X188209Y277765D01*
X188832Y277507D01*
X189500Y277419D01*
X190168Y277507D01*
X190791Y277765D01*
X191325Y278175D01*
X191735Y278709D01*
X191993Y279332D01*
X192081Y280000D01*
X191993Y280668D01*
X191735Y281291D01*
X191325Y281825D01*
X190791Y282235D01*
X190168Y282493D01*
X189500Y282581D01*
D02*
G37*
G36*
X212696Y278740D02*
X212028Y278652D01*
X211405Y278394D01*
X210870Y277984D01*
X210460Y277450D01*
X210202Y276827D01*
X210114Y276159D01*
X210202Y275491D01*
X210460Y274868D01*
X210870Y274334D01*
X211405Y273924D01*
X212028Y273666D01*
X212696Y273578D01*
X213364Y273666D01*
X213986Y273924D01*
X214521Y274334D01*
X214931Y274868D01*
X215189Y275491D01*
X215277Y276159D01*
X215189Y276827D01*
X214931Y277450D01*
X214521Y277984D01*
X213986Y278394D01*
X213364Y278652D01*
X212696Y278740D01*
D02*
G37*
G36*
X254000Y351500D02*
X246500D01*
X243250Y348250D01*
Y336250D01*
X245000Y334500D01*
Y294500D01*
X237500Y287000D01*
Y271500D01*
X239000Y270000D01*
X243500Y270000D01*
X245000Y271500D01*
X245000Y282500D01*
X246000Y283500D01*
X248500Y283500D01*
X255000Y290000D01*
Y334500D01*
X256500Y336000D01*
Y349000D01*
X254000Y351500D01*
D02*
G37*
G36*
X173524Y272660D02*
X172856Y272572D01*
X172233Y272314D01*
X171698Y271904D01*
X171288Y271369D01*
X171030Y270747D01*
X170942Y270079D01*
X171030Y269411D01*
X171288Y268788D01*
X171698Y268254D01*
X172233Y267843D01*
X172856Y267586D01*
X173524Y267498D01*
X174192Y267586D01*
X174814Y267843D01*
X175349Y268254D01*
X175759Y268788D01*
X176017Y269411D01*
X176105Y270079D01*
X176017Y270747D01*
X175759Y271369D01*
X175349Y271904D01*
X174814Y272314D01*
X174192Y272572D01*
X173524Y272660D01*
D02*
G37*
G36*
X127000Y272971D02*
X125972Y272836D01*
X125014Y272439D01*
X124192Y271808D01*
X123561Y270986D01*
X123164Y270028D01*
X123029Y269000D01*
X123164Y267972D01*
X123561Y267015D01*
X124192Y266192D01*
X125014Y265561D01*
X125972Y265164D01*
X127000Y265029D01*
X128028Y265164D01*
X128986Y265561D01*
X129808Y266192D01*
X130439Y267015D01*
X130836Y267972D01*
X130971Y269000D01*
X130836Y270028D01*
X130439Y270986D01*
X129808Y271808D01*
X128986Y272439D01*
X128028Y272836D01*
X127000Y272971D01*
D02*
G37*
G36*
X307921Y272427D02*
X306899Y272293D01*
X305946Y271898D01*
X305127Y271270D01*
X304500Y270452D01*
X304105Y269499D01*
X303970Y268476D01*
X304105Y267454D01*
X304500Y266501D01*
X305127Y265682D01*
X305946Y265054D01*
X306899Y264660D01*
X307921Y264525D01*
X308944Y264660D01*
X309897Y265054D01*
X310715Y265682D01*
X311343Y266501D01*
X311738Y267454D01*
X311872Y268476D01*
X311738Y269499D01*
X311343Y270452D01*
X310715Y271270D01*
X309897Y271898D01*
X308944Y272293D01*
X307921Y272427D01*
D02*
G37*
G36*
X145500Y266581D02*
X144832Y266493D01*
X144209Y266235D01*
X143675Y265825D01*
X143265Y265291D01*
X143007Y264668D01*
X142919Y264000D01*
X143007Y263332D01*
X143265Y262709D01*
X143675Y262175D01*
X144209Y261765D01*
X144832Y261507D01*
X145500Y261419D01*
X146168Y261507D01*
X146791Y261765D01*
X147325Y262175D01*
X147735Y262709D01*
X147993Y263332D01*
X148081Y264000D01*
X147993Y264668D01*
X147735Y265291D01*
X147325Y265825D01*
X146791Y266235D01*
X146168Y266493D01*
X145500Y266581D01*
D02*
G37*
G36*
X264500Y265081D02*
X263832Y264993D01*
X263209Y264735D01*
X262675Y264325D01*
X262265Y263791D01*
X262007Y263168D01*
X261919Y262500D01*
X262007Y261832D01*
X262265Y261209D01*
X262675Y260675D01*
X263209Y260265D01*
X263832Y260007D01*
X264500Y259919D01*
X265168Y260007D01*
X265791Y260265D01*
X266325Y260675D01*
X266735Y261209D01*
X266993Y261832D01*
X267081Y262500D01*
X266993Y263168D01*
X266735Y263791D01*
X266325Y264325D01*
X265791Y264735D01*
X265168Y264993D01*
X264500Y265081D01*
D02*
G37*
G36*
X162500Y267042D02*
X161472Y266906D01*
X160514Y266510D01*
X159692Y265879D01*
X159061Y265056D01*
X158664Y264099D01*
X158529Y263071D01*
X158664Y262043D01*
X159061Y261085D01*
X159692Y260263D01*
X160514Y259632D01*
X161472Y259235D01*
X162500Y259100D01*
X163528Y259235D01*
X164486Y259632D01*
X165308Y260263D01*
X165939Y261085D01*
X166336Y262043D01*
X166471Y263071D01*
X166336Y264099D01*
X165939Y265056D01*
X165308Y265879D01*
X164486Y266510D01*
X163528Y266906D01*
X162500Y267042D01*
D02*
G37*
G36*
X271500Y261581D02*
X270832Y261493D01*
X270209Y261235D01*
X269675Y260825D01*
X269265Y260291D01*
X269007Y259668D01*
X268919Y259000D01*
X269007Y258332D01*
X269265Y257709D01*
X269675Y257175D01*
X270209Y256765D01*
X270832Y256507D01*
X271500Y256419D01*
X272168Y256507D01*
X272791Y256765D01*
X273325Y257175D01*
X273735Y257709D01*
X273993Y258332D01*
X274081Y259000D01*
X273993Y259668D01*
X273735Y260291D01*
X273325Y260825D01*
X272791Y261235D01*
X272168Y261493D01*
X271500Y261581D01*
D02*
G37*
G36*
X122000Y264311D02*
X120972Y264175D01*
X120015Y263779D01*
X119192Y263148D01*
X118561Y262325D01*
X118164Y261368D01*
X118029Y260340D01*
X118164Y259312D01*
X118561Y258354D01*
X119192Y257532D01*
X120015Y256901D01*
X120972Y256504D01*
X122000Y256369D01*
X123028Y256504D01*
X123986Y256901D01*
X124808Y257532D01*
X125439Y258354D01*
X125836Y259312D01*
X125971Y260340D01*
X125836Y261368D01*
X125439Y262325D01*
X124808Y263148D01*
X123986Y263779D01*
X123028Y264175D01*
X122000Y264311D01*
D02*
G37*
G36*
X190500Y260081D02*
X189832Y259993D01*
X189209Y259735D01*
X188675Y259325D01*
X188265Y258791D01*
X188007Y258168D01*
X187919Y257500D01*
X188007Y256832D01*
X188265Y256209D01*
X188675Y255675D01*
X189209Y255265D01*
X189832Y255007D01*
X190500Y254919D01*
X191168Y255007D01*
X191791Y255265D01*
X192325Y255675D01*
X192735Y256209D01*
X192993Y256832D01*
X193081Y257500D01*
X192993Y258168D01*
X192735Y258791D01*
X192325Y259325D01*
X191791Y259735D01*
X191168Y259993D01*
X190500Y260081D01*
D02*
G37*
G36*
X181500Y255581D02*
X180832Y255493D01*
X180209Y255235D01*
X179675Y254825D01*
X179265Y254291D01*
X179007Y253668D01*
X178919Y253000D01*
X179007Y252332D01*
X179265Y251709D01*
X179675Y251175D01*
X180209Y250765D01*
X180832Y250507D01*
X181500Y250419D01*
X182168Y250507D01*
X182791Y250765D01*
X183325Y251175D01*
X183735Y251709D01*
X183993Y252332D01*
X184081Y253000D01*
X183993Y253668D01*
X183735Y254291D01*
X183325Y254825D01*
X182791Y255235D01*
X182168Y255493D01*
X181500Y255581D01*
D02*
G37*
G36*
X166437Y257008D02*
X158563D01*
Y249134D01*
X166437D01*
Y257008D01*
D02*
G37*
G36*
X133500Y247081D02*
X132832Y246993D01*
X132209Y246735D01*
X131675Y246325D01*
X131265Y245791D01*
X131007Y245168D01*
X130919Y244500D01*
X131007Y243832D01*
X131265Y243209D01*
X131675Y242675D01*
X132209Y242265D01*
X132832Y242007D01*
X133500Y241919D01*
X134168Y242007D01*
X134791Y242265D01*
X135325Y242675D01*
X135735Y243209D01*
X135993Y243832D01*
X136081Y244500D01*
X135993Y245168D01*
X135735Y245791D01*
X135325Y246325D01*
X134791Y246735D01*
X134168Y246993D01*
X133500Y247081D01*
D02*
G37*
G36*
X158500Y246581D02*
X157832Y246493D01*
X157209Y246235D01*
X156675Y245825D01*
X156265Y245291D01*
X156007Y244668D01*
X155919Y244000D01*
X156007Y243332D01*
X156265Y242709D01*
X156675Y242175D01*
X157209Y241765D01*
X157832Y241507D01*
X158500Y241419D01*
X159168Y241507D01*
X159791Y241765D01*
X160325Y242175D01*
X160735Y242709D01*
X160993Y243332D01*
X161081Y244000D01*
X160993Y244668D01*
X160735Y245291D01*
X160325Y245825D01*
X159791Y246235D01*
X159168Y246493D01*
X158500Y246581D01*
D02*
G37*
G36*
X215059Y245002D02*
X214391Y244914D01*
X213769Y244657D01*
X213234Y244246D01*
X212824Y243712D01*
X212566Y243089D01*
X212478Y242421D01*
X212566Y241753D01*
X212824Y241131D01*
X213234Y240596D01*
X213769Y240186D01*
X214391Y239928D01*
X215059Y239840D01*
X215727Y239928D01*
X216350Y240186D01*
X216884Y240596D01*
X217294Y241131D01*
X217552Y241753D01*
X217640Y242421D01*
X217552Y243089D01*
X217294Y243712D01*
X216884Y244246D01*
X216350Y244657D01*
X215727Y244914D01*
X215059Y245002D01*
D02*
G37*
G36*
X138500Y244081D02*
X137832Y243993D01*
X137209Y243735D01*
X136675Y243325D01*
X136265Y242791D01*
X136007Y242168D01*
X135919Y241500D01*
X136007Y240832D01*
X136265Y240209D01*
X136675Y239675D01*
X137209Y239265D01*
X137832Y239007D01*
X138500Y238919D01*
X139168Y239007D01*
X139791Y239265D01*
X140325Y239675D01*
X140735Y240209D01*
X140993Y240832D01*
X141081Y241500D01*
X140993Y242168D01*
X140735Y242791D01*
X140325Y243325D01*
X139791Y243735D01*
X139168Y243993D01*
X138500Y244081D01*
D02*
G37*
G36*
X191929Y242148D02*
X191261Y242060D01*
X190639Y241802D01*
X190104Y241392D01*
X189694Y240858D01*
X189436Y240235D01*
X189348Y239567D01*
X189436Y238899D01*
X189694Y238276D01*
X190104Y237742D01*
X190639Y237332D01*
X191261Y237074D01*
X191929Y236986D01*
X192597Y237074D01*
X193220Y237332D01*
X193754Y237742D01*
X194165Y238276D01*
X194422Y238899D01*
X194510Y239567D01*
X194422Y240235D01*
X194165Y240858D01*
X193754Y241392D01*
X193220Y241802D01*
X192597Y242060D01*
X191929Y242148D01*
D02*
G37*
G36*
X148213Y238211D02*
X147545Y238123D01*
X146923Y237865D01*
X146388Y237455D01*
X145978Y236920D01*
X145720Y236298D01*
X145632Y235630D01*
X145720Y234962D01*
X145978Y234339D01*
X146388Y233805D01*
X146923Y233395D01*
X147545Y233137D01*
X148213Y233049D01*
X148881Y233137D01*
X149504Y233395D01*
X150038Y233805D01*
X150449Y234339D01*
X150706Y234962D01*
X150794Y235630D01*
X150706Y236298D01*
X150449Y236920D01*
X150038Y237455D01*
X149504Y237865D01*
X148881Y238123D01*
X148213Y238211D01*
D02*
G37*
G36*
X326154Y243472D02*
X319506Y239633D01*
X323344Y232985D01*
X329993Y236824D01*
X326154Y243472D01*
D02*
G37*
G36*
X315198Y232850D02*
X314530Y232762D01*
X313907Y232505D01*
X313372Y232094D01*
X312962Y231560D01*
X312704Y230937D01*
X312616Y230269D01*
X312704Y229601D01*
X312962Y228979D01*
X313372Y228444D01*
X313907Y228034D01*
X314530Y227776D01*
X315198Y227688D01*
X315866Y227776D01*
X316488Y228034D01*
X317023Y228444D01*
X317433Y228979D01*
X317691Y229601D01*
X317779Y230269D01*
X317691Y230937D01*
X317433Y231560D01*
X317023Y232094D01*
X316488Y232505D01*
X315866Y232762D01*
X315198Y232850D01*
D02*
G37*
G36*
X161500Y230081D02*
X160832Y229993D01*
X160209Y229735D01*
X159675Y229325D01*
X159265Y228791D01*
X159007Y228168D01*
X158919Y227500D01*
X159007Y226832D01*
X159265Y226209D01*
X159675Y225675D01*
X160209Y225265D01*
X160832Y225007D01*
X161500Y224919D01*
X162168Y225007D01*
X162791Y225265D01*
X163325Y225675D01*
X163735Y226209D01*
X163993Y226832D01*
X164081Y227500D01*
X163993Y228168D01*
X163735Y228791D01*
X163325Y229325D01*
X162791Y229735D01*
X162168Y229993D01*
X161500Y230081D01*
D02*
G37*
G36*
X99955Y231090D02*
X98970Y231025D01*
X98085Y230589D01*
X97435Y229847D01*
X97118Y228913D01*
X97182Y227928D01*
X97618Y227043D01*
X98360Y226393D01*
X99295Y226075D01*
X100279Y226140D01*
X100485Y226241D01*
X100917Y225991D01*
X100933Y225763D01*
X101369Y224878D01*
X102111Y224227D01*
X103045Y223910D01*
X104030Y223975D01*
X104915Y224411D01*
X105565Y225153D01*
X105883Y226087D01*
X105818Y227072D01*
X105382Y227957D01*
X104640Y228607D01*
X103705Y228925D01*
X102721Y228860D01*
X102515Y228759D01*
X102083Y229009D01*
X102067Y229237D01*
X101631Y230122D01*
X100889Y230773D01*
X99955Y231090D01*
D02*
G37*
G36*
X224437Y230937D02*
X216563D01*
Y223063D01*
X224437D01*
Y230937D01*
D02*
G37*
G36*
X212937D02*
X205063D01*
Y223063D01*
X212937D01*
Y230937D01*
D02*
G37*
G36*
X201437D02*
X193563D01*
Y223063D01*
X201437D01*
Y230937D01*
D02*
G37*
G36*
X96358Y225810D02*
X95690Y225722D01*
X95068Y225464D01*
X94533Y225054D01*
X94123Y224519D01*
X93865Y223896D01*
X93777Y223228D01*
X93865Y222560D01*
X94123Y221938D01*
X94533Y221403D01*
X95068Y220993D01*
X95690Y220735D01*
X96358Y220647D01*
X97026Y220735D01*
X97649Y220993D01*
X98183Y221403D01*
X98594Y221938D01*
X98851Y222560D01*
X98939Y223228D01*
X98851Y223896D01*
X98594Y224519D01*
X98183Y225054D01*
X97649Y225464D01*
X97026Y225722D01*
X96358Y225810D01*
D02*
G37*
G36*
X114000Y220081D02*
X113332Y219993D01*
X112709Y219735D01*
X112175Y219325D01*
X111765Y218791D01*
X111507Y218168D01*
X111419Y217500D01*
X111507Y216832D01*
X111765Y216209D01*
X112175Y215675D01*
X112709Y215265D01*
X113332Y215007D01*
X114000Y214919D01*
X114668Y215007D01*
X115291Y215265D01*
X115825Y215675D01*
X116235Y216209D01*
X116493Y216832D01*
X116581Y217500D01*
X116493Y218168D01*
X116235Y218791D01*
X115825Y219325D01*
X115291Y219735D01*
X114668Y219993D01*
X114000Y220081D01*
D02*
G37*
G36*
X132981Y215022D02*
X132313Y214934D01*
X131691Y214676D01*
X131156Y214266D01*
X130746Y213732D01*
X130516Y213176D01*
X130302Y213122D01*
X129988Y213143D01*
X129911Y213329D01*
X129501Y213863D01*
X128966Y214274D01*
X128344Y214531D01*
X127676Y214619D01*
X127008Y214531D01*
X126385Y214274D01*
X125851Y213863D01*
X125441Y213329D01*
X124867Y213251D01*
X124735Y213353D01*
X124112Y213611D01*
X123444Y213699D01*
X122776Y213611D01*
X122154Y213353D01*
X121619Y212943D01*
X121209Y212408D01*
X120951Y211786D01*
X120863Y211118D01*
X120951Y210450D01*
X121139Y209997D01*
X121140Y209910D01*
X121006Y209535D01*
X120910Y209396D01*
X120523Y209235D01*
X119988Y208825D01*
X119578Y208291D01*
X119320Y207668D01*
X119232Y207000D01*
X119320Y206332D01*
X119578Y205709D01*
X119988Y205175D01*
X120523Y204765D01*
X120883Y204615D01*
X120961Y204045D01*
X120675Y203825D01*
X120265Y203291D01*
X120007Y202668D01*
X119919Y202000D01*
X120007Y201332D01*
X120265Y200709D01*
X120675Y200175D01*
X121209Y199765D01*
X121832Y199507D01*
X122500Y199419D01*
X123102Y199498D01*
X123321Y199321D01*
X123498Y199102D01*
X123419Y198500D01*
X123507Y197832D01*
X123765Y197209D01*
X124175Y196675D01*
X124709Y196265D01*
X125332Y196007D01*
X126000Y195919D01*
X126668Y196007D01*
X127291Y196265D01*
X127825Y196675D01*
X128235Y197209D01*
X128493Y197832D01*
X128581Y198500D01*
X128493Y199168D01*
X128235Y199791D01*
X127825Y200325D01*
X127291Y200735D01*
X126668Y200993D01*
X126000Y201081D01*
X125398Y201002D01*
X125179Y201179D01*
X125002Y201398D01*
X125081Y202000D01*
X124993Y202668D01*
X124735Y203291D01*
X124325Y203825D01*
X123791Y204235D01*
X123430Y204385D01*
X123352Y204955D01*
X123638Y205175D01*
X124049Y205709D01*
X124307Y206332D01*
X124395Y207000D01*
X124307Y207668D01*
X124119Y208121D01*
X124115Y208387D01*
X124348Y208722D01*
X124735Y208883D01*
X125269Y209293D01*
X125625Y209756D01*
X125776Y209840D01*
X126253Y209905D01*
X126385Y209803D01*
X127008Y209545D01*
X127676Y209457D01*
X128344Y209545D01*
X128966Y209803D01*
X129501Y210213D01*
X129911Y210748D01*
X130141Y211303D01*
X130355Y211357D01*
X130669Y211336D01*
X130746Y211150D01*
X131156Y210616D01*
X131691Y210206D01*
X132313Y209948D01*
X132981Y209860D01*
X133649Y209948D01*
X134272Y210206D01*
X134806Y210616D01*
X135216Y211150D01*
X135474Y211773D01*
X135562Y212441D01*
X135474Y213109D01*
X135216Y213732D01*
X134806Y214266D01*
X134272Y214676D01*
X133649Y214934D01*
X132981Y215022D01*
D02*
G37*
G36*
X220500Y220971D02*
X219472Y220836D01*
X218514Y220439D01*
X217692Y219808D01*
X217061Y218986D01*
X216664Y218028D01*
X216529Y217000D01*
X216664Y215972D01*
X217061Y215015D01*
X217692Y214192D01*
X218514Y213561D01*
X219472Y213164D01*
X220500Y213029D01*
X221528Y213164D01*
X222485Y213561D01*
X223308Y214192D01*
X223939Y215015D01*
X224336Y215972D01*
X224471Y217000D01*
X224336Y218028D01*
X223939Y218986D01*
X223308Y219808D01*
X222485Y220439D01*
X221528Y220836D01*
X220500Y220971D01*
D02*
G37*
G36*
X209000D02*
X207972Y220836D01*
X207014Y220439D01*
X206192Y219808D01*
X205561Y218986D01*
X205164Y218028D01*
X205029Y217000D01*
X205164Y215972D01*
X205561Y215015D01*
X206192Y214192D01*
X207014Y213561D01*
X207972Y213164D01*
X209000Y213029D01*
X210028Y213164D01*
X210985Y213561D01*
X211808Y214192D01*
X212439Y215015D01*
X212836Y215972D01*
X212971Y217000D01*
X212836Y218028D01*
X212439Y218986D01*
X211808Y219808D01*
X210985Y220439D01*
X210028Y220836D01*
X209000Y220971D01*
D02*
G37*
G36*
X197500D02*
X196472Y220836D01*
X195515Y220439D01*
X194692Y219808D01*
X194061Y218986D01*
X193664Y218028D01*
X193529Y217000D01*
X193664Y215972D01*
X194061Y215015D01*
X194692Y214192D01*
X195515Y213561D01*
X196472Y213164D01*
X197500Y213029D01*
X198528Y213164D01*
X199486Y213561D01*
X200308Y214192D01*
X200939Y215015D01*
X201336Y215972D01*
X201471Y217000D01*
X201336Y218028D01*
X200939Y218986D01*
X200308Y219808D01*
X199486Y220439D01*
X198528Y220836D01*
X197500Y220971D01*
D02*
G37*
G36*
X154500Y217581D02*
X153832Y217493D01*
X153209Y217235D01*
X152675Y216825D01*
X152265Y216291D01*
X152007Y215668D01*
X151919Y215000D01*
X152007Y214332D01*
X152265Y213709D01*
X152675Y213175D01*
X153209Y212765D01*
X153832Y212507D01*
X154500Y212419D01*
X155168Y212507D01*
X155791Y212765D01*
X156325Y213175D01*
X156735Y213709D01*
X156993Y214332D01*
X157081Y215000D01*
X156993Y215668D01*
X156735Y216291D01*
X156325Y216825D01*
X155791Y217235D01*
X155168Y217493D01*
X154500Y217581D01*
D02*
G37*
G36*
X164236Y215581D02*
X163568Y215493D01*
X162946Y215235D01*
X162411Y214825D01*
X162001Y214291D01*
X161743Y213668D01*
X161655Y213000D01*
X161743Y212332D01*
X162001Y211709D01*
X162411Y211175D01*
X162946Y210765D01*
X163568Y210507D01*
X164236Y210419D01*
X164904Y210507D01*
X165527Y210765D01*
X166061Y211175D01*
X166471Y211709D01*
X166729Y212332D01*
X166817Y213000D01*
X166729Y213668D01*
X166471Y214291D01*
X166061Y214825D01*
X165527Y215235D01*
X164904Y215493D01*
X164236Y215581D01*
D02*
G37*
G36*
X107000Y215081D02*
X106332Y214993D01*
X105709Y214735D01*
X105175Y214325D01*
X104765Y213791D01*
X104507Y213168D01*
X104419Y212500D01*
X104507Y211832D01*
X104765Y211209D01*
X105175Y210675D01*
X105709Y210265D01*
X106332Y210007D01*
X107000Y209919D01*
X107668Y210007D01*
X108291Y210265D01*
X108825Y210675D01*
X109235Y211209D01*
X109493Y211832D01*
X109581Y212500D01*
X109493Y213168D01*
X109235Y213791D01*
X108825Y214325D01*
X108291Y214735D01*
X107668Y214993D01*
X107000Y215081D01*
D02*
G37*
G36*
X313000Y214081D02*
X312332Y213993D01*
X311709Y213735D01*
X311175Y213325D01*
X310765Y212791D01*
X310507Y212168D01*
X310419Y211500D01*
X310507Y210832D01*
X310765Y210209D01*
X311175Y209675D01*
X311709Y209265D01*
X312332Y209007D01*
X313000Y208919D01*
X313668Y209007D01*
X314291Y209265D01*
X314825Y209675D01*
X315235Y210209D01*
X315493Y210832D01*
X315581Y211500D01*
X315493Y212168D01*
X315235Y212791D01*
X314825Y213325D01*
X314291Y213735D01*
X313668Y213993D01*
X313000Y214081D01*
D02*
G37*
G36*
X337441Y219208D02*
X330622Y215271D01*
X334559Y208452D01*
X341378Y212389D01*
X337441Y219208D01*
D02*
G37*
G36*
X178500Y211581D02*
X177832Y211493D01*
X177209Y211235D01*
X176675Y210825D01*
X176265Y210291D01*
X176007Y209668D01*
X175919Y209000D01*
X176007Y208332D01*
X176265Y207709D01*
X176675Y207175D01*
X177209Y206765D01*
X177832Y206507D01*
X178500Y206419D01*
X179168Y206507D01*
X179791Y206765D01*
X180325Y207175D01*
X180735Y207709D01*
X180993Y208332D01*
X181081Y209000D01*
X180993Y209668D01*
X180735Y210291D01*
X180325Y210825D01*
X179791Y211235D01*
X179168Y211493D01*
X178500Y211581D01*
D02*
G37*
G36*
X284626Y211386D02*
X283958Y211298D01*
X283335Y211040D01*
X282801Y210630D01*
X282391Y210096D01*
X282133Y209473D01*
X282045Y208805D01*
X282133Y208137D01*
X282391Y207515D01*
X282801Y206980D01*
X283335Y206570D01*
X283958Y206312D01*
X284626Y206224D01*
X285294Y206312D01*
X285917Y206570D01*
X286451Y206980D01*
X286861Y207515D01*
X287119Y208137D01*
X287207Y208805D01*
X287119Y209473D01*
X286861Y210096D01*
X286451Y210630D01*
X285917Y211040D01*
X285294Y211298D01*
X284626Y211386D01*
D02*
G37*
G36*
X103500Y210581D02*
X102832Y210493D01*
X102209Y210235D01*
X101675Y209825D01*
X101265Y209291D01*
X101007Y208668D01*
X100919Y208000D01*
X101007Y207332D01*
X101265Y206709D01*
X101675Y206175D01*
X102209Y205765D01*
X102832Y205507D01*
X103500Y205419D01*
X104168Y205507D01*
X104791Y205765D01*
X105325Y206175D01*
X105735Y206709D01*
X105993Y207332D01*
X106081Y208000D01*
X105993Y208668D01*
X105735Y209291D01*
X105325Y209825D01*
X104791Y210235D01*
X104168Y210493D01*
X103500Y210581D01*
D02*
G37*
G36*
X341000Y209141D02*
X339972Y209005D01*
X339015Y208609D01*
X338192Y207978D01*
X337561Y207155D01*
X337164Y206198D01*
X337029Y205170D01*
X337164Y204142D01*
X337561Y203184D01*
X338192Y202362D01*
X339015Y201731D01*
X339972Y201334D01*
X341000Y201199D01*
X342028Y201334D01*
X342986Y201731D01*
X343808Y202362D01*
X344439Y203184D01*
X344836Y204142D01*
X344971Y205170D01*
X344836Y206198D01*
X344439Y207155D01*
X343808Y207978D01*
X342986Y208609D01*
X342028Y209005D01*
X341000Y209141D01*
D02*
G37*
G36*
X102000Y204081D02*
X101332Y203993D01*
X100709Y203735D01*
X100175Y203325D01*
X99765Y202791D01*
X99507Y202168D01*
X99419Y201500D01*
X99507Y200832D01*
X99765Y200209D01*
X100175Y199675D01*
X100709Y199265D01*
X101332Y199007D01*
X102000Y198919D01*
X102668Y199007D01*
X103291Y199265D01*
X103825Y199675D01*
X104235Y200209D01*
X104493Y200832D01*
X104581Y201500D01*
X104493Y202168D01*
X104235Y202791D01*
X103825Y203325D01*
X103291Y203735D01*
X102668Y203993D01*
X102000Y204081D01*
D02*
G37*
G36*
X163000Y202081D02*
X162332Y201993D01*
X161709Y201735D01*
X161175Y201325D01*
X160765Y200791D01*
X160507Y200168D01*
X160419Y199500D01*
X160507Y198832D01*
X160517Y198809D01*
X160106Y198493D01*
X159791Y198735D01*
X159168Y198993D01*
X158500Y199081D01*
X157832Y198993D01*
X157209Y198735D01*
X156675Y198325D01*
X156265Y197791D01*
X156007Y197168D01*
X155919Y196500D01*
X156007Y195832D01*
X156226Y195303D01*
X156058Y195055D01*
X155866Y194911D01*
X155668Y194993D01*
X155000Y195081D01*
X154332Y194993D01*
X153709Y194735D01*
X153175Y194325D01*
X152765Y193791D01*
X152507Y193168D01*
X152419Y192500D01*
X152507Y191832D01*
X152765Y191209D01*
X153175Y190675D01*
X153709Y190265D01*
X154332Y190007D01*
X155000Y189919D01*
X155668Y190007D01*
X156291Y190265D01*
X156825Y190675D01*
X157235Y191209D01*
X157493Y191832D01*
X157581Y192500D01*
X157493Y193168D01*
X157274Y193697D01*
X157442Y193945D01*
X157634Y194089D01*
X157832Y194007D01*
X158500Y193919D01*
X159168Y194007D01*
X159791Y194265D01*
X160325Y194675D01*
X160735Y195209D01*
X160993Y195832D01*
X161081Y196500D01*
X160993Y197168D01*
X160984Y197192D01*
X161394Y197507D01*
X161709Y197265D01*
X162332Y197007D01*
X163000Y196919D01*
X163668Y197007D01*
X164291Y197265D01*
X164825Y197675D01*
X165235Y198209D01*
X165493Y198832D01*
X165581Y199500D01*
X165493Y200168D01*
X165235Y200791D01*
X164825Y201325D01*
X164291Y201735D01*
X163668Y201993D01*
X163000Y202081D01*
D02*
G37*
G36*
X206500Y197879D02*
X205755Y197781D01*
X205061Y197493D01*
X204464Y197036D01*
X204315Y196841D01*
X203685D01*
X203536Y197036D01*
X202940Y197493D01*
X202245Y197781D01*
X201500Y197879D01*
X200755Y197781D01*
X200061Y197493D01*
X199464Y197036D01*
X199315Y196841D01*
X198685D01*
X198536Y197036D01*
X197940Y197493D01*
X197245Y197781D01*
X196500Y197879D01*
X195755Y197781D01*
X195061Y197493D01*
X194464Y197036D01*
X194315Y196841D01*
X193685D01*
X193536Y197036D01*
X192939Y197493D01*
X192245Y197781D01*
X191500Y197879D01*
X190755Y197781D01*
X190060Y197493D01*
X189464Y197036D01*
X189315Y196841D01*
X188685D01*
X188536Y197036D01*
X187940Y197493D01*
X187245Y197781D01*
X186500Y197879D01*
X185755Y197781D01*
X185061Y197493D01*
X184464Y197036D01*
X184007Y196440D01*
X183719Y195745D01*
X183621Y195000D01*
X183719Y194255D01*
X184007Y193561D01*
X184464Y192964D01*
X185061Y192507D01*
X185755Y192219D01*
X186500Y192121D01*
X187245Y192219D01*
X187940Y192507D01*
X188536Y192964D01*
X188685Y193159D01*
X189315D01*
X189464Y192964D01*
X189659Y192815D01*
Y192185D01*
X189464Y192036D01*
X189007Y191439D01*
X188719Y190745D01*
X188621Y190000D01*
X188719Y189255D01*
X189007Y188560D01*
X189464Y187964D01*
X190060Y187507D01*
X190755Y187219D01*
X191500Y187121D01*
X192245Y187219D01*
X192939Y187507D01*
X193536Y187964D01*
X193993Y188560D01*
X194281Y189255D01*
X194379Y190000D01*
X194281Y190745D01*
X193993Y191439D01*
X193536Y192036D01*
X193341Y192185D01*
Y192801D01*
X193402Y192862D01*
X193536Y192964D01*
X193638Y193098D01*
X193699Y193159D01*
X194315D01*
X194464Y192964D01*
X195061Y192507D01*
X195755Y192219D01*
X196500Y192121D01*
X197245Y192219D01*
X197940Y192507D01*
X198536Y192964D01*
X198685Y193159D01*
X199315D01*
X199464Y192964D01*
X200061Y192507D01*
X200755Y192219D01*
X201500Y192121D01*
X202245Y192219D01*
X202940Y192507D01*
X203536Y192964D01*
X203685Y193159D01*
X204315D01*
X204464Y192964D01*
X204659Y192815D01*
Y192185D01*
X204464Y192036D01*
X204007Y191439D01*
X203719Y190745D01*
X203621Y190000D01*
X203719Y189255D01*
X204007Y188560D01*
X204464Y187964D01*
X205061Y187507D01*
X205755Y187219D01*
X206500Y187121D01*
X207245Y187219D01*
X207940Y187507D01*
X208536Y187964D01*
X208993Y188560D01*
X209281Y189255D01*
X209379Y190000D01*
X209281Y190745D01*
X208993Y191439D01*
X208536Y192036D01*
X208341Y192185D01*
Y192815D01*
X208536Y192964D01*
X208993Y193561D01*
X209281Y194255D01*
X209379Y195000D01*
X209281Y195745D01*
X208993Y196440D01*
X208536Y197036D01*
X207940Y197493D01*
X207245Y197781D01*
X206500Y197879D01*
D02*
G37*
G36*
X87000Y200581D02*
X86332Y200493D01*
X85709Y200235D01*
X85175Y199825D01*
X84765Y199291D01*
X84507Y198668D01*
X84419Y198000D01*
X84507Y197332D01*
X84765Y196709D01*
X85175Y196175D01*
X85709Y195765D01*
X86332Y195507D01*
X87000Y195419D01*
X87668Y195507D01*
X88291Y195765D01*
X88825Y196175D01*
X89235Y196709D01*
X89493Y197332D01*
X89581Y198000D01*
X89493Y198668D01*
X89235Y199291D01*
X88825Y199825D01*
X88291Y200235D01*
X87668Y200493D01*
X87000Y200581D01*
D02*
G37*
G36*
X133905Y199813D02*
X133238Y199725D01*
X132615Y199467D01*
X132080Y199057D01*
X131670Y198522D01*
X131412Y197900D01*
X131324Y197232D01*
X131412Y196564D01*
X131670Y195941D01*
X132080Y195406D01*
X132615Y194996D01*
X133238Y194738D01*
X133905Y194650D01*
X134574Y194738D01*
X135196Y194996D01*
X135731Y195406D01*
X136141Y195941D01*
X136399Y196564D01*
X136487Y197232D01*
X136399Y197900D01*
X136141Y198522D01*
X135731Y199057D01*
X135196Y199467D01*
X134574Y199725D01*
X133905Y199813D01*
D02*
G37*
G36*
X178000Y199581D02*
X177332Y199493D01*
X176709Y199235D01*
X176175Y198825D01*
X175765Y198291D01*
X175507Y197668D01*
X175419Y197000D01*
X175507Y196332D01*
X175765Y195709D01*
X176175Y195175D01*
X176709Y194765D01*
X177332Y194507D01*
X178000Y194419D01*
X178668Y194507D01*
X179291Y194765D01*
X179825Y195175D01*
X180235Y195709D01*
X180493Y196332D01*
X180581Y197000D01*
X180493Y197668D01*
X180235Y198291D01*
X179825Y198825D01*
X179291Y199235D01*
X178668Y199493D01*
X178000Y199581D01*
D02*
G37*
G36*
X139500Y199081D02*
X138832Y198993D01*
X138209Y198735D01*
X137675Y198325D01*
X137265Y197791D01*
X137007Y197168D01*
X136919Y196500D01*
X137007Y195832D01*
X137265Y195209D01*
X137675Y194675D01*
X138209Y194265D01*
Y193735D01*
X137675Y193325D01*
X137265Y192791D01*
X137015Y192188D01*
X136934Y192152D01*
X136487Y192054D01*
X136325Y192266D01*
X135791Y192676D01*
X135168Y192934D01*
X134500Y193022D01*
X133832Y192934D01*
X133209Y192676D01*
X132675Y192266D01*
X132265Y191732D01*
X132007Y191109D01*
X131919Y190441D01*
X132007Y189773D01*
X132265Y189150D01*
X132675Y188616D01*
X133209Y188206D01*
X133832Y187948D01*
X134500Y187860D01*
X135168Y187948D01*
X135791Y188206D01*
X136325Y188616D01*
X136735Y189150D01*
X136985Y189753D01*
X137066Y189789D01*
X137513Y189886D01*
X137675Y189675D01*
X138209Y189265D01*
X138832Y189007D01*
X139500Y188919D01*
X140168Y189007D01*
X140791Y189265D01*
X141325Y189675D01*
X141735Y190209D01*
X141993Y190832D01*
X142081Y191500D01*
X141993Y192168D01*
X141735Y192791D01*
X141325Y193325D01*
X140791Y193735D01*
Y194265D01*
X141325Y194675D01*
X141735Y195209D01*
X141993Y195832D01*
X142081Y196500D01*
X141993Y197168D01*
X141735Y197791D01*
X141325Y198325D01*
X140791Y198735D01*
X140168Y198993D01*
X139500Y199081D01*
D02*
G37*
G36*
X92441Y197081D02*
X91773Y196993D01*
X91150Y196735D01*
X90616Y196325D01*
X90206Y195791D01*
X89948Y195168D01*
X89860Y194500D01*
X89948Y193832D01*
X90206Y193209D01*
X90616Y192675D01*
X91150Y192265D01*
X91773Y192007D01*
X92441Y191919D01*
X93109Y192007D01*
X93731Y192265D01*
X94266Y192675D01*
X94676Y193209D01*
X94934Y193832D01*
X95022Y194500D01*
X94934Y195168D01*
X94676Y195791D01*
X94266Y196325D01*
X93731Y196735D01*
X93109Y196993D01*
X92441Y197081D01*
D02*
G37*
G36*
X99000Y196081D02*
X98332Y195993D01*
X97709Y195735D01*
X97175Y195325D01*
X96765Y194791D01*
X96507Y194168D01*
X96419Y193500D01*
X96507Y192832D01*
X96765Y192209D01*
X97175Y191675D01*
X97709Y191265D01*
X98332Y191007D01*
X99000Y190919D01*
X99668Y191007D01*
X100291Y191265D01*
X100825Y191675D01*
X101235Y192209D01*
X101493Y192832D01*
X101581Y193500D01*
X101493Y194168D01*
X101235Y194791D01*
X100825Y195325D01*
X100291Y195735D01*
X99668Y195993D01*
X99000Y196081D01*
D02*
G37*
G36*
X171000Y191581D02*
X170332Y191493D01*
X169709Y191235D01*
X169175Y190825D01*
X168765Y190291D01*
X168507Y189668D01*
X168419Y189000D01*
X168507Y188332D01*
X168765Y187709D01*
X169175Y187175D01*
X169709Y186765D01*
X170332Y186507D01*
X171000Y186419D01*
X171668Y186507D01*
X172291Y186765D01*
X172825Y187175D01*
X173235Y187709D01*
X173493Y188332D01*
X173581Y189000D01*
X173493Y189668D01*
X173235Y190291D01*
X172825Y190825D01*
X172291Y191235D01*
X171668Y191493D01*
X171000Y191581D01*
D02*
G37*
G36*
X83330Y194923D02*
X79413Y188138D01*
X86198Y184221D01*
X90115Y191006D01*
X83330Y194923D01*
D02*
G37*
G36*
X154500Y187081D02*
X153832Y186993D01*
X153209Y186735D01*
X152675Y186325D01*
X152265Y185791D01*
X152007Y185168D01*
X151919Y184500D01*
X152007Y183832D01*
X152265Y183209D01*
X152675Y182675D01*
X153209Y182265D01*
X153832Y182007D01*
X154500Y181919D01*
X155168Y182007D01*
X155791Y182265D01*
X156325Y182675D01*
X156735Y183209D01*
X156993Y183832D01*
X157081Y184500D01*
X156993Y185168D01*
X156735Y185791D01*
X156325Y186325D01*
X155791Y186735D01*
X155168Y186993D01*
X154500Y187081D01*
D02*
G37*
G36*
X79843Y184999D02*
X78820Y184864D01*
X77867Y184469D01*
X77049Y183842D01*
X76421Y183023D01*
X76026Y182070D01*
X75891Y181048D01*
X76026Y180025D01*
X76421Y179072D01*
X77049Y178254D01*
X77867Y177626D01*
X78820Y177231D01*
X79843Y177097D01*
X80865Y177231D01*
X81818Y177626D01*
X82636Y178254D01*
X83264Y179072D01*
X83659Y180025D01*
X83794Y181048D01*
X83659Y182070D01*
X83264Y183023D01*
X82636Y183842D01*
X81818Y184469D01*
X80865Y184864D01*
X79843Y184999D01*
D02*
G37*
G36*
X88000Y182022D02*
X87332Y181934D01*
X86709Y181676D01*
X86175Y181266D01*
X85765Y180731D01*
X85507Y180109D01*
X85419Y179441D01*
X85507Y178773D01*
X85765Y178150D01*
X86175Y177616D01*
X86709Y177206D01*
X87332Y176948D01*
X88000Y176860D01*
X88668Y176948D01*
X89291Y177206D01*
X89825Y177616D01*
X90235Y178150D01*
X90493Y178773D01*
X90581Y179441D01*
X90493Y180109D01*
X90235Y180731D01*
X89825Y181266D01*
X89291Y181676D01*
X88668Y181934D01*
X88000Y182022D01*
D02*
G37*
G36*
X334500Y178081D02*
X333832Y177993D01*
X333209Y177735D01*
X332675Y177325D01*
X332265Y176791D01*
X332007Y176168D01*
X331919Y175500D01*
X332007Y174832D01*
X332265Y174209D01*
X332675Y173675D01*
X333209Y173265D01*
X333832Y173007D01*
X334500Y172919D01*
X335168Y173007D01*
X335791Y173265D01*
X336070Y173479D01*
X336396Y173291D01*
X336501Y173179D01*
X336419Y172559D01*
X336507Y171891D01*
X336765Y171268D01*
X337175Y170734D01*
X337709Y170324D01*
X338332Y170066D01*
X339000Y169978D01*
X339668Y170066D01*
X340291Y170324D01*
X340825Y170734D01*
X341235Y171268D01*
X341493Y171891D01*
X341581Y172559D01*
X341493Y173227D01*
X341235Y173850D01*
X340825Y174384D01*
X340291Y174794D01*
X339668Y175052D01*
X339000Y175140D01*
X338332Y175052D01*
X337709Y174794D01*
X337430Y174580D01*
X337104Y174768D01*
X337000Y174880D01*
X337081Y175500D01*
X336993Y176168D01*
X336735Y176791D01*
X336325Y177325D01*
X335791Y177735D01*
X335168Y177993D01*
X334500Y178081D01*
D02*
G37*
G36*
X74921Y176475D02*
X73899Y176340D01*
X72946Y175946D01*
X72127Y175318D01*
X71500Y174499D01*
X71105Y173547D01*
X70970Y172524D01*
X71105Y171501D01*
X71500Y170548D01*
X72127Y169730D01*
X72946Y169102D01*
X73899Y168707D01*
X74921Y168573D01*
X75944Y168707D01*
X76897Y169102D01*
X77715Y169730D01*
X78343Y170548D01*
X78738Y171501D01*
X78872Y172524D01*
X78738Y173547D01*
X78343Y174499D01*
X77715Y175318D01*
X76897Y175946D01*
X75944Y176340D01*
X74921Y176475D01*
D02*
G37*
G36*
X349000Y171581D02*
X348332Y171493D01*
X347709Y171235D01*
X347175Y170825D01*
X346765Y170291D01*
X346507Y169668D01*
X346419Y169000D01*
X346507Y168332D01*
X346765Y167709D01*
X347175Y167175D01*
X347709Y166765D01*
X348332Y166507D01*
X349000Y166419D01*
X349668Y166507D01*
X350291Y166765D01*
X350825Y167175D01*
X351235Y167709D01*
X351493Y168332D01*
X351581Y169000D01*
X351493Y169668D01*
X351235Y170291D01*
X350825Y170825D01*
X350291Y171235D01*
X349668Y171493D01*
X349000Y171581D01*
D02*
G37*
G36*
X174653D02*
X173986Y171493D01*
X173363Y171235D01*
X172828Y170825D01*
X172418Y170291D01*
X172160Y169668D01*
X172072Y169000D01*
X172160Y168332D01*
X172418Y167709D01*
X172828Y167175D01*
X173363Y166765D01*
X173986Y166507D01*
X174653Y166419D01*
X175322Y166507D01*
X175944Y166765D01*
X176479Y167175D01*
X176889Y167709D01*
X177147Y168332D01*
X177235Y169000D01*
X177147Y169668D01*
X176889Y170291D01*
X176479Y170825D01*
X175944Y171235D01*
X175322Y171493D01*
X174653Y171581D01*
D02*
G37*
G36*
X124000Y170581D02*
X123332Y170493D01*
X122709Y170235D01*
X122175Y169825D01*
X121765Y169291D01*
X121507Y168668D01*
X121419Y168000D01*
X121507Y167332D01*
X121765Y166709D01*
X122175Y166175D01*
X122709Y165765D01*
X123332Y165507D01*
X124000Y165419D01*
X124668Y165507D01*
X125291Y165765D01*
X125825Y166175D01*
X126235Y166709D01*
X126493Y167332D01*
X126581Y168000D01*
X126493Y168668D01*
X126235Y169291D01*
X125825Y169825D01*
X125291Y170235D01*
X124668Y170493D01*
X124000Y170581D01*
D02*
G37*
G36*
X110500Y170081D02*
X109832Y169993D01*
X109209Y169735D01*
X108675Y169325D01*
X108265Y168791D01*
X108007Y168168D01*
X107919Y167500D01*
X108007Y166832D01*
X108265Y166209D01*
X108675Y165675D01*
X109209Y165265D01*
X109832Y165007D01*
X110500Y164919D01*
X111168Y165007D01*
X111791Y165265D01*
X112325Y165675D01*
X112735Y166209D01*
X112993Y166832D01*
X113081Y167500D01*
X112993Y168168D01*
X112735Y168791D01*
X112325Y169325D01*
X111791Y169735D01*
X111168Y169993D01*
X110500Y170081D01*
D02*
G37*
G36*
X126000Y164879D02*
X125332Y164791D01*
X124709Y164533D01*
X124175Y164123D01*
X123765Y163588D01*
X123507Y162966D01*
X123419Y162298D01*
X123507Y161630D01*
X123765Y161007D01*
X124175Y160473D01*
X124709Y160062D01*
X125332Y159804D01*
X126000Y159716D01*
X126668Y159804D01*
X127291Y160062D01*
X127825Y160473D01*
X128235Y161007D01*
X128493Y161630D01*
X128581Y162298D01*
X128493Y162966D01*
X128235Y163588D01*
X127825Y164123D01*
X127291Y164533D01*
X126668Y164791D01*
X126000Y164879D01*
D02*
G37*
G36*
X246000Y164581D02*
X245332Y164493D01*
X244709Y164235D01*
X244175Y163825D01*
X243765Y163291D01*
X243507Y162668D01*
X243419Y162000D01*
X243507Y161332D01*
X243765Y160709D01*
X244175Y160175D01*
X244709Y159765D01*
X245332Y159507D01*
X246000Y159419D01*
X246668Y159507D01*
X247291Y159765D01*
X247825Y160175D01*
X248235Y160709D01*
X248493Y161332D01*
X248581Y162000D01*
X248493Y162668D01*
X248235Y163291D01*
X247825Y163825D01*
X247291Y164235D01*
X246668Y164493D01*
X246000Y164581D01*
D02*
G37*
G36*
X173500Y160081D02*
X172832Y159993D01*
X172209Y159735D01*
X171675Y159325D01*
X171265Y158791D01*
X171007Y158168D01*
X170919Y157500D01*
X171007Y156832D01*
X171265Y156209D01*
X171675Y155675D01*
X172209Y155265D01*
X172832Y155007D01*
X173500Y154919D01*
X174168Y155007D01*
X174791Y155265D01*
X175325Y155675D01*
X175735Y156209D01*
X175993Y156832D01*
X176081Y157500D01*
X175993Y158168D01*
X175735Y158791D01*
X175325Y159325D01*
X174791Y159735D01*
X174168Y159993D01*
X173500Y160081D01*
D02*
G37*
G36*
X240471Y153111D02*
X239802Y153023D01*
X239180Y152765D01*
X238645Y152355D01*
X238235Y151820D01*
X237977Y151198D01*
X237889Y150530D01*
X237977Y149862D01*
X238235Y149239D01*
X238645Y148704D01*
X239180Y148294D01*
X239802Y148036D01*
X240471Y147948D01*
X241139Y148036D01*
X241761Y148294D01*
X242296Y148704D01*
X242706Y149239D01*
X242964Y149862D01*
X243052Y150530D01*
X242964Y151198D01*
X242706Y151820D01*
X242296Y152355D01*
X241761Y152765D01*
X241139Y153023D01*
X240471Y153111D01*
D02*
G37*
G36*
X272500Y157081D02*
X271832Y156993D01*
X271209Y156735D01*
X270675Y156325D01*
X270265Y155791D01*
X270007Y155168D01*
X269919Y154500D01*
X270007Y153832D01*
X270265Y153209D01*
X270675Y152675D01*
X271209Y152265D01*
X271832Y152007D01*
X271867Y152002D01*
Y151498D01*
X271832Y151493D01*
X271209Y151235D01*
X270675Y150825D01*
X270265Y150291D01*
X270007Y149668D01*
X269919Y149000D01*
X270007Y148332D01*
X270265Y147709D01*
X270675Y147175D01*
X271209Y146765D01*
X271832Y146507D01*
X272500Y146419D01*
X273168Y146507D01*
X273791Y146765D01*
X274325Y147175D01*
X274735Y147709D01*
X274993Y148332D01*
X275081Y149000D01*
X274993Y149668D01*
X274735Y150291D01*
X274325Y150825D01*
X273791Y151235D01*
X273168Y151493D01*
X273133Y151498D01*
Y152002D01*
X273168Y152007D01*
X273791Y152265D01*
X274325Y152675D01*
X274735Y153209D01*
X274993Y153832D01*
X275081Y154500D01*
X274993Y155168D01*
X274735Y155791D01*
X274325Y156325D01*
X273791Y156735D01*
X273168Y156993D01*
X272500Y157081D01*
D02*
G37*
G36*
X343867Y150448D02*
X343199Y150360D01*
X342577Y150102D01*
X342042Y149692D01*
X341632Y149158D01*
X341374Y148535D01*
X341286Y147867D01*
X341374Y147199D01*
X341632Y146577D01*
X342042Y146042D01*
X342577Y145632D01*
X343199Y145374D01*
X343867Y145286D01*
X344535Y145374D01*
X345158Y145632D01*
X345692Y146042D01*
X346102Y146577D01*
X346360Y147199D01*
X346448Y147867D01*
X346360Y148535D01*
X346102Y149158D01*
X345692Y149692D01*
X345158Y150102D01*
X344535Y150360D01*
X343867Y150448D01*
D02*
G37*
G36*
X338000Y150081D02*
X337332Y149993D01*
X336709Y149735D01*
X336175Y149325D01*
X335765Y148791D01*
X335507Y148168D01*
X335419Y147500D01*
X335507Y146832D01*
X335765Y146209D01*
X336175Y145675D01*
X336709Y145265D01*
X337332Y145007D01*
X338000Y144919D01*
X338668Y145007D01*
X339291Y145265D01*
X339825Y145675D01*
X340235Y146209D01*
X340493Y146832D01*
X340581Y147500D01*
X340493Y148168D01*
X340235Y148791D01*
X339825Y149325D01*
X339291Y149735D01*
X338668Y149993D01*
X338000Y150081D01*
D02*
G37*
G36*
X378984Y152768D02*
X372335Y148929D01*
X376174Y142280D01*
X382822Y146119D01*
X378984Y152768D01*
D02*
G37*
G36*
X108437Y148937D02*
X100563D01*
Y141063D01*
X108437D01*
Y148937D01*
D02*
G37*
G36*
X94500Y148971D02*
X93472Y148836D01*
X92514Y148439D01*
X91692Y147808D01*
X91061Y146985D01*
X90664Y146028D01*
X90529Y145000D01*
X90664Y143972D01*
X91061Y143015D01*
X91692Y142192D01*
X92514Y141561D01*
X93472Y141164D01*
X94500Y141029D01*
X95528Y141164D01*
X96486Y141561D01*
X97308Y142192D01*
X97939Y143015D01*
X98336Y143972D01*
X98471Y145000D01*
X98336Y146028D01*
X97939Y146985D01*
X97308Y147808D01*
X96486Y148439D01*
X95528Y148836D01*
X94500Y148971D01*
D02*
G37*
G36*
X272500Y145581D02*
X271832Y145493D01*
X271209Y145235D01*
X270675Y144825D01*
X270265Y144291D01*
X270007Y143668D01*
X269919Y143000D01*
X270007Y142332D01*
X270265Y141709D01*
X270675Y141175D01*
X271209Y140765D01*
X271832Y140507D01*
X272500Y140419D01*
X273168Y140507D01*
X273791Y140765D01*
X274325Y141175D01*
X274735Y141709D01*
X274993Y142332D01*
X275081Y143000D01*
X274993Y143668D01*
X274735Y144291D01*
X274325Y144825D01*
X273791Y145235D01*
X273168Y145493D01*
X272500Y145581D01*
D02*
G37*
G36*
X115177Y143404D02*
X114509Y143316D01*
X113886Y143058D01*
X113352Y142648D01*
X112942Y142114D01*
X112684Y141491D01*
X112596Y140823D01*
X112684Y140155D01*
X112942Y139532D01*
X113352Y138998D01*
X113886Y138588D01*
X114509Y138330D01*
X115177Y138242D01*
X115845Y138330D01*
X116467Y138588D01*
X117002Y138998D01*
X117412Y139532D01*
X117670Y140155D01*
X117758Y140823D01*
X117670Y141491D01*
X117412Y142114D01*
X117002Y142648D01*
X116467Y143058D01*
X115845Y143316D01*
X115177Y143404D01*
D02*
G37*
G36*
X323783Y140389D02*
X323169Y140267D01*
X322648Y139919D01*
X322300Y139398D01*
X322178Y138784D01*
X322244Y138453D01*
X321831Y138040D01*
X321500Y138106D01*
X321169Y138040D01*
X320756Y138453D01*
X320822Y138784D01*
X320700Y139398D01*
X320352Y139919D01*
X319831Y140267D01*
X319216Y140389D01*
X318602Y140267D01*
X318081Y139919D01*
X317733Y139398D01*
X317611Y138784D01*
X317733Y138169D01*
X318081Y137648D01*
X318602Y137300D01*
X319216Y137178D01*
X319547Y137244D01*
X319960Y136831D01*
X319894Y136500D01*
X319960Y136169D01*
X319547Y135756D01*
X319216Y135822D01*
X318602Y135700D01*
X318081Y135352D01*
X317733Y134831D01*
X317611Y134216D01*
X317733Y133602D01*
X318081Y133081D01*
X318602Y132733D01*
X319216Y132611D01*
X319831Y132733D01*
X320352Y133081D01*
X320700Y133602D01*
X320822Y134216D01*
X320756Y134547D01*
X321169Y134960D01*
X321500Y134894D01*
X321831Y134960D01*
X322244Y134547D01*
X322178Y134216D01*
X322300Y133602D01*
X322648Y133081D01*
X323169Y132733D01*
X323783Y132611D01*
X324398Y132733D01*
X324919Y133081D01*
X325267Y133602D01*
X325389Y134216D01*
X325267Y134831D01*
X324919Y135352D01*
X324398Y135700D01*
X323783Y135822D01*
X323453Y135756D01*
X323040Y136169D01*
X323106Y136500D01*
X323040Y136831D01*
X323453Y137244D01*
X323783Y137178D01*
X324398Y137300D01*
X324919Y137648D01*
X325267Y138169D01*
X325389Y138784D01*
X325267Y139398D01*
X324919Y139919D01*
X324398Y140267D01*
X323783Y140389D01*
D02*
G37*
G36*
X367500Y148081D02*
X366832Y147993D01*
X366209Y147735D01*
X365675Y147325D01*
X365265Y146791D01*
X365007Y146168D01*
X364919Y145500D01*
X365007Y144832D01*
X365265Y144209D01*
X365675Y143675D01*
X366209Y143265D01*
Y142735D01*
X365675Y142325D01*
X365265Y141791D01*
X365007Y141168D01*
X364919Y140500D01*
X365007Y139832D01*
X365265Y139209D01*
X365675Y138675D01*
X366209Y138265D01*
X366832Y138007D01*
X367500Y137919D01*
X368168Y138007D01*
X368791Y138265D01*
X369325Y138675D01*
X369735Y139209D01*
X369993Y139832D01*
X370081Y140500D01*
X369993Y141168D01*
X369735Y141791D01*
X369325Y142325D01*
X368791Y142735D01*
Y143265D01*
X369325Y143675D01*
X369735Y144209D01*
X369993Y144832D01*
X370081Y145500D01*
X369993Y146168D01*
X369735Y146791D01*
X369325Y147325D01*
X368791Y147735D01*
X368168Y147993D01*
X367500Y148081D01*
D02*
G37*
G36*
X337000Y142238D02*
X336332Y142150D01*
X335709Y141892D01*
X335175Y141482D01*
X334765Y140947D01*
X334507Y140325D01*
X334419Y139657D01*
X334507Y138989D01*
X334765Y138366D01*
X335175Y137832D01*
X335709Y137422D01*
X336332Y137164D01*
X337000Y137076D01*
X337668Y137164D01*
X338291Y137422D01*
X338825Y137832D01*
X339235Y138366D01*
X339493Y138989D01*
X339581Y139657D01*
X339493Y140325D01*
X339235Y140947D01*
X338825Y141482D01*
X338291Y141892D01*
X337668Y142150D01*
X337000Y142238D01*
D02*
G37*
G36*
X177000Y142081D02*
X176332Y141993D01*
X175709Y141735D01*
X175175Y141325D01*
X174765Y140791D01*
X174507Y140168D01*
X174419Y139500D01*
X174507Y138832D01*
X174765Y138209D01*
X175175Y137675D01*
X175709Y137265D01*
X176332Y137007D01*
X177000Y136919D01*
X177668Y137007D01*
X178291Y137265D01*
X178825Y137675D01*
X179235Y138209D01*
X179493Y138832D01*
X179581Y139500D01*
X179493Y140168D01*
X179235Y140791D01*
X178825Y141325D01*
X178291Y141735D01*
X177668Y141993D01*
X177000Y142081D01*
D02*
G37*
G36*
X310892Y139817D02*
X310224Y139729D01*
X309601Y139471D01*
X309067Y139061D01*
X308657Y138527D01*
X308399Y137904D01*
X308311Y137236D01*
X308399Y136568D01*
X308657Y135946D01*
X309067Y135411D01*
X309601Y135001D01*
X310224Y134743D01*
X310892Y134655D01*
X311560Y134743D01*
X312183Y135001D01*
X312717Y135411D01*
X313127Y135946D01*
X313385Y136568D01*
X313473Y137236D01*
X313385Y137904D01*
X313127Y138527D01*
X312717Y139061D01*
X312183Y139471D01*
X311560Y139729D01*
X310892Y139817D01*
D02*
G37*
G36*
X53500Y139451D02*
X52477Y139316D01*
X51524Y138922D01*
X50706Y138294D01*
X50078Y137476D01*
X49683Y136523D01*
X49549Y135500D01*
X49683Y134477D01*
X50078Y133524D01*
X50706Y132706D01*
X51524Y132078D01*
X52477Y131684D01*
X53500Y131549D01*
X54523Y131684D01*
X55476Y132078D01*
X56294Y132706D01*
X56922Y133524D01*
X57316Y134477D01*
X57451Y135500D01*
X57316Y136523D01*
X56922Y137476D01*
X56294Y138294D01*
X55476Y138922D01*
X54523Y139316D01*
X53500Y139451D01*
D02*
G37*
G36*
X181000Y136581D02*
X180332Y136493D01*
X179709Y136235D01*
X179175Y135825D01*
X178765Y135291D01*
X178507Y134668D01*
X178419Y134000D01*
X178507Y133332D01*
X178765Y132709D01*
X179175Y132175D01*
X179709Y131765D01*
X180332Y131507D01*
X181000Y131419D01*
X181668Y131507D01*
X182291Y131765D01*
X182825Y132175D01*
X183235Y132709D01*
X183493Y133332D01*
X183581Y134000D01*
X183493Y134668D01*
X183235Y135291D01*
X182825Y135825D01*
X182291Y136235D01*
X181668Y136493D01*
X181000Y136581D01*
D02*
G37*
G36*
X198400Y135981D02*
X197732Y135893D01*
X197109Y135635D01*
X196575Y135225D01*
X196165Y134691D01*
X195907Y134068D01*
X195819Y133400D01*
X195907Y132732D01*
X196165Y132109D01*
X196575Y131575D01*
X197109Y131165D01*
X197732Y130907D01*
X198400Y130819D01*
X199068Y130907D01*
X199691Y131165D01*
X200225Y131575D01*
X200635Y132109D01*
X200893Y132732D01*
X200981Y133400D01*
X200893Y134068D01*
X200635Y134691D01*
X200225Y135225D01*
X199691Y135635D01*
X199068Y135893D01*
X198400Y135981D01*
D02*
G37*
G36*
X189500Y135581D02*
X188832Y135493D01*
X188209Y135235D01*
X187675Y134825D01*
X187265Y134291D01*
X187007Y133668D01*
X186919Y133000D01*
X187007Y132332D01*
X187265Y131709D01*
X187675Y131175D01*
X188209Y130765D01*
X188832Y130507D01*
X189500Y130419D01*
X190168Y130507D01*
X190791Y130765D01*
X191325Y131175D01*
X191735Y131709D01*
X191993Y132332D01*
X192081Y133000D01*
X191993Y133668D01*
X191735Y134291D01*
X191325Y134825D01*
X190791Y135235D01*
X190168Y135493D01*
X189500Y135581D01*
D02*
G37*
G36*
X115500Y135081D02*
X114832Y134993D01*
X114209Y134735D01*
X113675Y134325D01*
X113265Y133791D01*
X113007Y133168D01*
X112919Y132500D01*
X113007Y131832D01*
X113265Y131209D01*
X113675Y130675D01*
X114209Y130265D01*
X114832Y130007D01*
X115500Y129919D01*
X116168Y130007D01*
X116791Y130265D01*
X117325Y130675D01*
X117735Y131209D01*
X117993Y131832D01*
X118081Y132500D01*
X117993Y133168D01*
X117735Y133791D01*
X117325Y134325D01*
X116791Y134735D01*
X116168Y134993D01*
X115500Y135081D01*
D02*
G37*
G36*
X48579Y130927D02*
X47556Y130793D01*
X46603Y130398D01*
X45785Y129770D01*
X45157Y128952D01*
X44762Y127999D01*
X44628Y126976D01*
X44762Y125953D01*
X45157Y125001D01*
X45785Y124182D01*
X46603Y123554D01*
X47556Y123160D01*
X48579Y123025D01*
X49601Y123160D01*
X50554Y123554D01*
X51373Y124182D01*
X52000Y125001D01*
X52395Y125953D01*
X52530Y126976D01*
X52395Y127999D01*
X52000Y128952D01*
X51373Y129770D01*
X50554Y130398D01*
X49601Y130793D01*
X48579Y130927D01*
D02*
G37*
G36*
X145500Y128081D02*
X144832Y127993D01*
X144209Y127735D01*
X143675Y127325D01*
X143265Y126791D01*
X143007Y126168D01*
X142919Y125500D01*
X143007Y124832D01*
X143265Y124209D01*
X143675Y123675D01*
X144209Y123265D01*
X144832Y123007D01*
X145500Y122919D01*
X146168Y123007D01*
X146791Y123265D01*
X147325Y123675D01*
X147735Y124209D01*
X147993Y124832D01*
X148081Y125500D01*
X147993Y126168D01*
X147735Y126791D01*
X147325Y127325D01*
X146791Y127735D01*
X146168Y127993D01*
X145500Y128081D01*
D02*
G37*
G36*
X296000Y126081D02*
X295332Y125993D01*
X294709Y125735D01*
X294175Y125325D01*
X293765Y124791D01*
X293507Y124168D01*
X293419Y123500D01*
X293507Y122832D01*
X293765Y122209D01*
X294175Y121675D01*
X294709Y121265D01*
X295332Y121007D01*
X296000Y120919D01*
X296668Y121007D01*
X297291Y121265D01*
X297825Y121675D01*
X298235Y122209D01*
X298493Y122832D01*
X298581Y123500D01*
X298493Y124168D01*
X298235Y124791D01*
X297825Y125325D01*
X297291Y125735D01*
X296668Y125993D01*
X296000Y126081D01*
D02*
G37*
G36*
X137500Y124081D02*
X136832Y123993D01*
X136209Y123735D01*
X135675Y123325D01*
X135265Y122791D01*
X135007Y122168D01*
X134919Y121500D01*
X135007Y120832D01*
X135265Y120209D01*
X135675Y119675D01*
X136209Y119265D01*
X136832Y119007D01*
X137500Y118919D01*
X138168Y119007D01*
X138791Y119265D01*
X139325Y119675D01*
X139735Y120209D01*
X139993Y120832D01*
X140081Y121500D01*
X139993Y122168D01*
X139735Y122791D01*
X139325Y123325D01*
X138791Y123735D01*
X138168Y123993D01*
X137500Y124081D01*
D02*
G37*
G36*
X228000Y122581D02*
X227332Y122493D01*
X226709Y122235D01*
X226175Y121825D01*
X225765Y121291D01*
X225507Y120668D01*
X225419Y120000D01*
X225507Y119332D01*
X225765Y118709D01*
X226175Y118175D01*
X226709Y117765D01*
X227332Y117507D01*
X228000Y117419D01*
X228668Y117507D01*
X229291Y117765D01*
X229825Y118175D01*
X230235Y118709D01*
X230493Y119332D01*
X230581Y120000D01*
X230493Y120668D01*
X230235Y121291D01*
X229825Y121825D01*
X229291Y122235D01*
X228668Y122493D01*
X228000Y122581D01*
D02*
G37*
G36*
X115500Y126081D02*
X114832Y125993D01*
X114209Y125735D01*
X113675Y125325D01*
X113265Y124791D01*
X113007Y124168D01*
X112919Y123500D01*
X113007Y122832D01*
X113265Y122209D01*
X113675Y121675D01*
X114209Y121265D01*
X114660Y121078D01*
X114592Y120565D01*
X114495Y120552D01*
X113873Y120294D01*
X113338Y119884D01*
X112928Y119350D01*
X112670Y118727D01*
X112582Y118059D01*
X112670Y117391D01*
X112928Y116769D01*
X113338Y116234D01*
X113873Y115824D01*
X114495Y115566D01*
X115163Y115478D01*
X115831Y115566D01*
X116454Y115824D01*
X116988Y116234D01*
X117398Y116769D01*
X117656Y117391D01*
X117744Y118059D01*
X117656Y118727D01*
X117398Y119350D01*
X116988Y119884D01*
X116454Y120294D01*
X116004Y120481D01*
X116071Y120994D01*
X116168Y121007D01*
X116791Y121265D01*
X117325Y121675D01*
X117735Y122209D01*
X117993Y122832D01*
X118081Y123500D01*
X117993Y124168D01*
X117735Y124791D01*
X117325Y125325D01*
X116791Y125735D01*
X116168Y125993D01*
X115500Y126081D01*
D02*
G37*
G36*
X43657Y122403D02*
X42635Y122269D01*
X41682Y121874D01*
X40864Y121246D01*
X40236Y120428D01*
X39841Y119475D01*
X39706Y118452D01*
X39841Y117430D01*
X40236Y116477D01*
X40864Y115658D01*
X41682Y115031D01*
X42635Y114636D01*
X43657Y114501D01*
X44680Y114636D01*
X45633Y115031D01*
X46451Y115658D01*
X47079Y116477D01*
X47474Y117430D01*
X47609Y118452D01*
X47474Y119475D01*
X47079Y120428D01*
X46451Y121246D01*
X45633Y121874D01*
X44680Y122269D01*
X43657Y122403D01*
D02*
G37*
G36*
X198313Y119395D02*
X197645Y119307D01*
X197023Y119049D01*
X196488Y118639D01*
X196078Y118104D01*
X195820Y117482D01*
X195732Y116814D01*
X195820Y116145D01*
X196078Y115523D01*
X196488Y114988D01*
X197023Y114578D01*
X197645Y114320D01*
X198313Y114232D01*
X198981Y114320D01*
X199604Y114578D01*
X200139Y114988D01*
X200549Y115523D01*
X200807Y116145D01*
X200895Y116814D01*
X200807Y117482D01*
X200549Y118104D01*
X200139Y118639D01*
X199604Y119049D01*
X198981Y119307D01*
X198313Y119395D01*
D02*
G37*
G36*
X189931Y119150D02*
X189263Y119062D01*
X188640Y118804D01*
X188106Y118394D01*
X187696Y117859D01*
X187438Y117237D01*
X187350Y116569D01*
X187438Y115901D01*
X187696Y115278D01*
X188106Y114744D01*
X188640Y114334D01*
X189263Y114076D01*
X189931Y113988D01*
X190599Y114076D01*
X191222Y114334D01*
X191756Y114744D01*
X192166Y115278D01*
X192424Y115901D01*
X192512Y116569D01*
X192424Y117237D01*
X192166Y117859D01*
X191756Y118394D01*
X191222Y118804D01*
X190599Y119062D01*
X189931Y119150D01*
D02*
G37*
G36*
X181227Y118854D02*
X180559Y118766D01*
X179936Y118508D01*
X179402Y118098D01*
X178992Y117564D01*
X178734Y116941D01*
X178646Y116273D01*
X178734Y115605D01*
X178992Y114983D01*
X179402Y114448D01*
X179936Y114038D01*
X180559Y113780D01*
X181227Y113692D01*
X181895Y113780D01*
X182517Y114038D01*
X183052Y114448D01*
X183462Y114983D01*
X183720Y115605D01*
X183808Y116273D01*
X183720Y116941D01*
X183462Y117564D01*
X183052Y118098D01*
X182517Y118508D01*
X181895Y118766D01*
X181227Y118854D01*
D02*
G37*
G36*
X394984Y123767D02*
X388335Y119929D01*
X392174Y113280D01*
X398822Y117119D01*
X394984Y123767D01*
D02*
G37*
G36*
X78740Y117936D02*
X78072Y117848D01*
X77450Y117590D01*
X76915Y117180D01*
X76505Y116645D01*
X76247Y116022D01*
X76159Y115354D01*
X76247Y114686D01*
X76505Y114064D01*
X76915Y113529D01*
X77450Y113119D01*
X78072Y112861D01*
X78740Y112773D01*
X79408Y112861D01*
X80031Y113119D01*
X80565Y113529D01*
X80976Y114064D01*
X81233Y114686D01*
X81321Y115354D01*
X81233Y116022D01*
X80976Y116645D01*
X80565Y117180D01*
X80031Y117590D01*
X79408Y117848D01*
X78740Y117936D01*
D02*
G37*
G36*
X295437Y118937D02*
X287563D01*
Y111063D01*
X295437D01*
Y118937D01*
D02*
G37*
G36*
X301500Y118971D02*
X300472Y118836D01*
X299515Y118439D01*
X298692Y117808D01*
X298061Y116985D01*
X297664Y116028D01*
X297529Y115000D01*
X297664Y113972D01*
X298061Y113014D01*
X298692Y112192D01*
X299515Y111561D01*
X300472Y111164D01*
X301500Y111029D01*
X302528Y111164D01*
X303485Y111561D01*
X304308Y112192D01*
X304939Y113014D01*
X305336Y113972D01*
X305471Y115000D01*
X305336Y116028D01*
X304939Y116985D01*
X304308Y117808D01*
X303485Y118439D01*
X302528Y118836D01*
X301500Y118971D01*
D02*
G37*
G36*
X374000Y114581D02*
X373332Y114493D01*
X372709Y114235D01*
X372175Y113825D01*
X371765Y113291D01*
X371507Y112668D01*
X371419Y112000D01*
X371507Y111332D01*
X371765Y110709D01*
X372175Y110175D01*
X372709Y109765D01*
X373332Y109507D01*
X374000Y109419D01*
X374668Y109507D01*
X375291Y109765D01*
X375825Y110175D01*
X376235Y110709D01*
X376493Y111332D01*
X376581Y112000D01*
X376493Y112668D01*
X376235Y113291D01*
X375825Y113825D01*
X375291Y114235D01*
X374668Y114493D01*
X374000Y114581D01*
D02*
G37*
G36*
X50500D02*
X49832Y114493D01*
X49209Y114235D01*
X48675Y113825D01*
X48265Y113291D01*
X48007Y112668D01*
X47919Y112000D01*
X48007Y111332D01*
X48265Y110709D01*
X48675Y110175D01*
X49209Y109765D01*
X49832Y109507D01*
X50500Y109419D01*
X51168Y109507D01*
X51791Y109765D01*
X52325Y110175D01*
X52735Y110709D01*
X52993Y111332D01*
X53081Y112000D01*
X52993Y112668D01*
X52735Y113291D01*
X52325Y113825D01*
X51791Y114235D01*
X51168Y114493D01*
X50500Y114581D01*
D02*
G37*
G36*
X114370Y113900D02*
X113702Y113812D01*
X113080Y113554D01*
X112545Y113144D01*
X112135Y112610D01*
X111877Y111987D01*
X111789Y111319D01*
X111877Y110651D01*
X112135Y110028D01*
X112545Y109494D01*
X113080Y109084D01*
X113702Y108826D01*
X114370Y108738D01*
X115038Y108826D01*
X115661Y109084D01*
X116195Y109494D01*
X116605Y110028D01*
X116863Y110651D01*
X116951Y111319D01*
X116863Y111987D01*
X116605Y112610D01*
X116195Y113144D01*
X115661Y113554D01*
X115038Y113812D01*
X114370Y113900D01*
D02*
G37*
G36*
X238000Y113581D02*
X237332Y113493D01*
X236709Y113235D01*
X236175Y112825D01*
X235765Y112291D01*
X235507Y111668D01*
X235419Y111000D01*
X235507Y110332D01*
X235765Y109709D01*
X236175Y109175D01*
X236709Y108765D01*
X237332Y108507D01*
X238000Y108419D01*
X238668Y108507D01*
X239291Y108765D01*
X239825Y109175D01*
X240235Y109709D01*
X240493Y110332D01*
X240581Y111000D01*
X240493Y111668D01*
X240235Y112291D01*
X239825Y112825D01*
X239291Y113235D01*
X238668Y113493D01*
X238000Y113581D01*
D02*
G37*
G36*
X219000Y112081D02*
X218332Y111993D01*
X217709Y111735D01*
X217175Y111325D01*
X216765Y110791D01*
X216507Y110168D01*
X216419Y109500D01*
X216507Y108832D01*
X216765Y108209D01*
X217175Y107675D01*
X217709Y107265D01*
X218332Y107007D01*
X219000Y106919D01*
X219668Y107007D01*
X220291Y107265D01*
X220825Y107675D01*
X221235Y108209D01*
X221493Y108832D01*
X221581Y109500D01*
X221493Y110168D01*
X221235Y110791D01*
X220825Y111325D01*
X220291Y111735D01*
X219668Y111993D01*
X219000Y112081D01*
D02*
G37*
G36*
X31500Y110581D02*
X30832Y110493D01*
X30209Y110235D01*
X29675Y109825D01*
X29265Y109291D01*
X29007Y108668D01*
X28919Y108000D01*
X29007Y107332D01*
X29265Y106709D01*
X29675Y106175D01*
X30209Y105765D01*
X30832Y105507D01*
X31500Y105419D01*
X32168Y105507D01*
X32791Y105765D01*
X33325Y106175D01*
X33735Y106709D01*
X33993Y107332D01*
X34081Y108000D01*
X33993Y108668D01*
X33735Y109291D01*
X33325Y109825D01*
X32791Y110235D01*
X32168Y110493D01*
X31500Y110581D01*
D02*
G37*
G36*
X245500Y110432D02*
X244832Y110344D01*
X244209Y110086D01*
X243675Y109676D01*
X243265Y109141D01*
X243007Y108518D01*
X242919Y107850D01*
X243007Y107182D01*
X243265Y106560D01*
X243675Y106025D01*
X244209Y105615D01*
X244832Y105357D01*
X245500Y105269D01*
X246168Y105357D01*
X246791Y105615D01*
X247325Y106025D01*
X247735Y106560D01*
X247993Y107182D01*
X248081Y107850D01*
X247993Y108518D01*
X247735Y109141D01*
X247325Y109676D01*
X246791Y110086D01*
X246168Y110344D01*
X245500Y110432D01*
D02*
G37*
G36*
X378000Y108081D02*
X377332Y107993D01*
X376709Y107735D01*
X376175Y107325D01*
X375765Y106791D01*
X375507Y106168D01*
X375419Y105500D01*
X375507Y104832D01*
X375765Y104209D01*
X376175Y103675D01*
X376709Y103265D01*
X377332Y103007D01*
X378000Y102919D01*
X378668Y103007D01*
X379291Y103265D01*
X379825Y103675D01*
X380235Y104209D01*
X380493Y104832D01*
X380581Y105500D01*
X380493Y106168D01*
X380235Y106791D01*
X379825Y107325D01*
X379291Y107735D01*
X378668Y107993D01*
X378000Y108081D01*
D02*
G37*
G36*
X250738Y106814D02*
X250070Y106726D01*
X249448Y106468D01*
X248913Y106058D01*
X248503Y105523D01*
X248245Y104901D01*
X248157Y104233D01*
X248245Y103565D01*
X248503Y102942D01*
X248913Y102408D01*
X249448Y101997D01*
X250070Y101740D01*
X250738Y101652D01*
X251406Y101740D01*
X252029Y101997D01*
X252564Y102408D01*
X252974Y102942D01*
X253232Y103565D01*
X253320Y104233D01*
X253232Y104901D01*
X252974Y105523D01*
X252564Y106058D01*
X252029Y106468D01*
X251406Y106726D01*
X250738Y106814D01*
D02*
G37*
G36*
X264500Y106581D02*
X263832Y106493D01*
X263209Y106235D01*
X262675Y105825D01*
X262265Y105291D01*
X262007Y104668D01*
X261919Y104000D01*
X262007Y103332D01*
X262265Y102709D01*
X262675Y102175D01*
X263209Y101765D01*
X263832Y101507D01*
X264500Y101419D01*
X265168Y101507D01*
X265791Y101765D01*
X266325Y102175D01*
X266735Y102709D01*
X266993Y103332D01*
X267081Y104000D01*
X266993Y104668D01*
X266735Y105291D01*
X266325Y105825D01*
X265791Y106235D01*
X265168Y106493D01*
X264500Y106581D01*
D02*
G37*
G36*
X110500D02*
X109832Y106493D01*
X109209Y106235D01*
X108675Y105825D01*
X108265Y105291D01*
X108007Y104668D01*
X107919Y104000D01*
X108007Y103332D01*
X108265Y102709D01*
X108675Y102175D01*
X109209Y101765D01*
X109832Y101507D01*
X110500Y101419D01*
X111168Y101507D01*
X111791Y101765D01*
X112325Y102175D01*
X112735Y102709D01*
X112993Y103332D01*
X113081Y104000D01*
X112993Y104668D01*
X112735Y105291D01*
X112325Y105825D01*
X111791Y106235D01*
X111168Y106493D01*
X110500Y106581D01*
D02*
G37*
G36*
X97559Y111581D02*
X96891Y111493D01*
X96268Y111235D01*
X95734Y110825D01*
X95324Y110291D01*
X95066Y109668D01*
X94978Y109000D01*
X95066Y108332D01*
X95324Y107709D01*
X95734Y107175D01*
X96268Y106765D01*
Y106235D01*
X95734Y105825D01*
X95324Y105291D01*
X95066Y104668D01*
X94978Y104000D01*
X95066Y103332D01*
X95324Y102709D01*
X95734Y102175D01*
X96268Y101765D01*
X96891Y101507D01*
X97559Y101419D01*
X98227Y101507D01*
X98850Y101765D01*
X99384Y102175D01*
X99794Y102709D01*
X100052Y103332D01*
X100140Y104000D01*
X100052Y104668D01*
X99794Y105291D01*
X99384Y105825D01*
X98850Y106235D01*
Y106765D01*
X99384Y107175D01*
X99794Y107709D01*
X100052Y108332D01*
X100140Y109000D01*
X100052Y109668D01*
X99794Y110291D01*
X99384Y110825D01*
X98850Y111235D01*
X98227Y111493D01*
X97559Y111581D01*
D02*
G37*
G36*
X88500Y109581D02*
X87832Y109493D01*
X87209Y109235D01*
X86675Y108825D01*
X86265Y108291D01*
X86007Y107668D01*
X85919Y107000D01*
X86007Y106332D01*
X86265Y105709D01*
X86624Y105241D01*
X86654Y105066D01*
X86568Y104627D01*
X86175Y104325D01*
X85765Y103791D01*
X85507Y103168D01*
X85419Y102500D01*
X85507Y101832D01*
X85765Y101209D01*
X86175Y100675D01*
X86709Y100265D01*
X87332Y100007D01*
X88000Y99919D01*
X88668Y100007D01*
X89291Y100265D01*
X89825Y100675D01*
X90235Y101209D01*
X90493Y101832D01*
X90581Y102500D01*
X90493Y103168D01*
X90235Y103791D01*
X89876Y104259D01*
X89846Y104434D01*
X89932Y104873D01*
X90325Y105175D01*
X90735Y105709D01*
X90993Y106332D01*
X91081Y107000D01*
X90993Y107668D01*
X90735Y108291D01*
X90325Y108825D01*
X89791Y109235D01*
X89168Y109493D01*
X88500Y109581D01*
D02*
G37*
G36*
X296937Y107437D02*
X289063D01*
Y99563D01*
X296937D01*
Y107437D01*
D02*
G37*
G36*
X219000Y104581D02*
X218332Y104493D01*
X217709Y104235D01*
X217175Y103825D01*
X216765Y103291D01*
X216507Y102668D01*
X216419Y102000D01*
X216507Y101332D01*
X216765Y100709D01*
X217175Y100175D01*
X217709Y99765D01*
X218332Y99507D01*
X219000Y99419D01*
X219668Y99507D01*
X220291Y99765D01*
X220825Y100175D01*
X221235Y100709D01*
X221493Y101332D01*
X221581Y102000D01*
X221493Y102668D01*
X221235Y103291D01*
X220825Y103825D01*
X220291Y104235D01*
X219668Y104493D01*
X219000Y104581D01*
D02*
G37*
G36*
X243000Y99081D02*
X242332Y98993D01*
X241709Y98735D01*
X241175Y98325D01*
X241065Y98182D01*
X240435D01*
X240325Y98325D01*
X239791Y98735D01*
X239168Y98993D01*
X238500Y99081D01*
X237832Y98993D01*
X237209Y98735D01*
X236675Y98325D01*
X236265Y97791D01*
X236007Y97168D01*
X235919Y96500D01*
X236007Y95832D01*
X236265Y95209D01*
X236675Y94675D01*
X237209Y94265D01*
X237832Y94007D01*
X238500Y93919D01*
X239168Y94007D01*
X239791Y94265D01*
X240325Y94675D01*
X240435Y94818D01*
X241065D01*
X241175Y94675D01*
X241709Y94265D01*
X242332Y94007D01*
X243000Y93919D01*
X243668Y94007D01*
X244291Y94265D01*
X244825Y94675D01*
X245235Y95209D01*
X245493Y95832D01*
X245581Y96500D01*
X245493Y97168D01*
X245235Y97791D01*
X244825Y98325D01*
X244291Y98735D01*
X243668Y98993D01*
X243000Y99081D01*
D02*
G37*
G36*
X199500Y103081D02*
X198832Y102993D01*
X198209Y102735D01*
X197675Y102325D01*
X197265Y101791D01*
X197007Y101168D01*
X196919Y100500D01*
X197007Y99832D01*
X197265Y99209D01*
X197675Y98675D01*
X198209Y98265D01*
X198832Y98007D01*
X199500Y97919D01*
X200168Y98007D01*
X200791Y98265D01*
X201325Y98675D01*
X201735Y99209D01*
X201993Y99832D01*
X202081Y100500D01*
X201993Y101168D01*
X201735Y101791D01*
X201325Y102325D01*
X200791Y102735D01*
X200168Y102993D01*
X199500Y103081D01*
D02*
G37*
G36*
X76000D02*
X75332Y102993D01*
X74709Y102735D01*
X74175Y102325D01*
X73765Y101791D01*
X73507Y101168D01*
X73419Y100500D01*
X73507Y99832D01*
X73765Y99209D01*
X74175Y98675D01*
X74709Y98265D01*
X75332Y98007D01*
X76000Y97919D01*
X76668Y98007D01*
X77291Y98265D01*
X77825Y98675D01*
X78235Y99209D01*
X78493Y99832D01*
X78581Y100500D01*
X78493Y101168D01*
X78235Y101791D01*
X77825Y102325D01*
X77291Y102735D01*
X76668Y102993D01*
X76000Y103081D01*
D02*
G37*
G36*
X228500Y100081D02*
X227832Y99993D01*
X227209Y99735D01*
X226675Y99325D01*
X226265Y98791D01*
X226007Y98168D01*
X225919Y97500D01*
X226007Y96832D01*
X226265Y96209D01*
X226675Y95675D01*
X227209Y95265D01*
X227832Y95007D01*
X228500Y94919D01*
X229168Y95007D01*
X229791Y95265D01*
X230325Y95675D01*
X230735Y96209D01*
X230993Y96832D01*
X231081Y97500D01*
X230993Y98168D01*
X230735Y98791D01*
X230325Y99325D01*
X229791Y99735D01*
X229168Y99993D01*
X228500Y100081D01*
D02*
G37*
G36*
X49500Y103581D02*
X48832Y103493D01*
X48209Y103235D01*
X47675Y102825D01*
X47265Y102291D01*
X47007Y101668D01*
X46919Y101000D01*
X47007Y100332D01*
X47219Y99819D01*
X47070Y99495D01*
X46923Y99333D01*
X46332Y99256D01*
X45709Y98998D01*
X45175Y98588D01*
X44765Y98053D01*
X44507Y97430D01*
X44419Y96762D01*
X44507Y96094D01*
X44765Y95472D01*
X45175Y94937D01*
X45709Y94527D01*
X46332Y94269D01*
X47000Y94181D01*
X47668Y94269D01*
X48291Y94527D01*
X48825Y94937D01*
X49235Y95472D01*
X49493Y96094D01*
X49581Y96762D01*
X49493Y97430D01*
X49281Y97943D01*
X49430Y98267D01*
X49577Y98429D01*
X50168Y98507D01*
X50791Y98765D01*
X51325Y99175D01*
X51735Y99709D01*
X51993Y100332D01*
X52081Y101000D01*
X51993Y101668D01*
X51735Y102291D01*
X51325Y102825D01*
X50791Y103235D01*
X50168Y103493D01*
X49500Y103581D01*
D02*
G37*
G36*
X221500Y98581D02*
X220832Y98493D01*
X220209Y98235D01*
X219675Y97825D01*
X219265Y97291D01*
X219007Y96668D01*
X218919Y96000D01*
X219007Y95332D01*
X219265Y94709D01*
X219675Y94175D01*
X220209Y93765D01*
X220832Y93507D01*
X221500Y93419D01*
X222168Y93507D01*
X222791Y93765D01*
X223325Y94175D01*
X223735Y94709D01*
X223993Y95332D01*
X224081Y96000D01*
X223993Y96668D01*
X223735Y97291D01*
X223325Y97825D01*
X222791Y98235D01*
X222168Y98493D01*
X221500Y98581D01*
D02*
G37*
G36*
X293000Y97471D02*
X291972Y97336D01*
X291015Y96939D01*
X290192Y96308D01*
X289561Y95486D01*
X289164Y94528D01*
X289029Y93500D01*
X289164Y92472D01*
X289561Y91514D01*
X290192Y90692D01*
X291015Y90061D01*
X291972Y89664D01*
X293000Y89529D01*
X294028Y89664D01*
X294986Y90061D01*
X295808Y90692D01*
X296439Y91514D01*
X296836Y92472D01*
X296971Y93500D01*
X296836Y94528D01*
X296439Y95486D01*
X295808Y96308D01*
X294986Y96939D01*
X294028Y97336D01*
X293000Y97471D01*
D02*
G37*
G36*
X41000Y94022D02*
X40332Y93934D01*
X39709Y93676D01*
X39175Y93266D01*
X38765Y92731D01*
X38507Y92109D01*
X38419Y91441D01*
X38507Y90773D01*
X38765Y90150D01*
X38940Y89922D01*
X38715Y89568D01*
X38635Y89498D01*
X38000Y89581D01*
X37332Y89493D01*
X36709Y89235D01*
X36175Y88825D01*
X35765Y88291D01*
X35507Y87668D01*
X35419Y87000D01*
X35507Y86332D01*
X35765Y85709D01*
X36175Y85175D01*
X36709Y84765D01*
X37332Y84507D01*
X38000Y84419D01*
X38668Y84507D01*
X39291Y84765D01*
X39825Y85175D01*
X40235Y85709D01*
X40493Y86332D01*
X40581Y87000D01*
X40493Y87668D01*
X40235Y88291D01*
X40060Y88519D01*
X40285Y88873D01*
X40365Y88943D01*
X41000Y88860D01*
X41668Y88948D01*
X42291Y89206D01*
X42825Y89616D01*
X43235Y90150D01*
X43493Y90773D01*
X43581Y91441D01*
X43493Y92109D01*
X43235Y92731D01*
X42825Y93266D01*
X42291Y93676D01*
X41668Y93934D01*
X41000Y94022D01*
D02*
G37*
G36*
X64653Y94081D02*
X63986Y93993D01*
X63363Y93735D01*
X62828Y93325D01*
X62418Y92791D01*
X62160Y92168D01*
X62072Y91500D01*
X62160Y90832D01*
X62418Y90209D01*
X62828Y89675D01*
X63363Y89265D01*
X63986Y89007D01*
X64653Y88919D01*
X65322Y89007D01*
X65944Y89265D01*
X66479Y89675D01*
X66889Y90209D01*
X67147Y90832D01*
X67235Y91500D01*
X67147Y92168D01*
X66889Y92791D01*
X66479Y93325D01*
X65944Y93735D01*
X65322Y93993D01*
X64653Y94081D01*
D02*
G37*
G36*
X82500Y88581D02*
X81832Y88493D01*
X81209Y88235D01*
X80675Y87825D01*
X80565Y87682D01*
X79935D01*
X79825Y87825D01*
X79291Y88235D01*
X78668Y88493D01*
X78000Y88581D01*
X77332Y88493D01*
X76709Y88235D01*
X76175Y87825D01*
X75765Y87291D01*
X75507Y86668D01*
X75419Y86000D01*
X75507Y85332D01*
X75765Y84709D01*
X76175Y84175D01*
X76709Y83765D01*
X77332Y83507D01*
X78000Y83419D01*
X78668Y83507D01*
X79291Y83765D01*
X79825Y84175D01*
X79935Y84318D01*
X80565D01*
X80675Y84175D01*
X81209Y83765D01*
X81832Y83507D01*
X82500Y83419D01*
X83168Y83507D01*
X83791Y83765D01*
X84325Y84175D01*
X84735Y84709D01*
X84993Y85332D01*
X85081Y86000D01*
X84993Y86668D01*
X84735Y87291D01*
X84325Y87825D01*
X83791Y88235D01*
X83168Y88493D01*
X82500Y88581D01*
D02*
G37*
G36*
X383500Y86566D02*
X382113Y86383D01*
X380820Y85847D01*
X379709Y84995D01*
X378857Y83885D01*
X378322Y82592D01*
X378139Y81205D01*
X378322Y79817D01*
X378857Y78524D01*
X379709Y77414D01*
X380820Y76562D01*
X382113Y76027D01*
X383500Y75844D01*
X384888Y76027D01*
X386180Y76562D01*
X387291Y77414D01*
X388143Y78524D01*
X388678Y79817D01*
X388861Y81205D01*
X388678Y82592D01*
X388143Y83885D01*
X387291Y84995D01*
X386180Y85847D01*
X384888Y86383D01*
X383500Y86566D01*
D02*
G37*
G36*
X301610D02*
X300223Y86383D01*
X298930Y85847D01*
X297820Y84995D01*
X296968Y83885D01*
X296432Y82592D01*
X296249Y81205D01*
X296432Y79817D01*
X296968Y78524D01*
X297820Y77414D01*
X298930Y76562D01*
X300223Y76027D01*
X301610Y75844D01*
X302998Y76027D01*
X304291Y76562D01*
X305401Y77414D01*
X306253Y78524D01*
X306788Y79817D01*
X306971Y81205D01*
X306788Y82592D01*
X306253Y83885D01*
X305401Y84995D01*
X304291Y85847D01*
X302998Y86383D01*
X301610Y86566D01*
D02*
G37*
G36*
X90000Y77081D02*
X89332Y76993D01*
X88709Y76735D01*
X88175Y76325D01*
X87765Y75791D01*
X87235D01*
X86825Y76325D01*
X86291Y76735D01*
X85668Y76993D01*
X85000Y77081D01*
X84332Y76993D01*
X83709Y76735D01*
X83175Y76325D01*
X82765Y75791D01*
X82507Y75168D01*
X82419Y74500D01*
X82507Y73832D01*
X82765Y73209D01*
X83175Y72675D01*
X83709Y72265D01*
X84332Y72007D01*
X85000Y71919D01*
X85668Y72007D01*
X86291Y72265D01*
X86825Y72675D01*
X87235Y73209D01*
X87765D01*
X88175Y72675D01*
X88709Y72265D01*
X89332Y72007D01*
X90000Y71919D01*
X90668Y72007D01*
X91291Y72265D01*
X91825Y72675D01*
X92235Y73209D01*
X92493Y73832D01*
X92581Y74500D01*
X92493Y75168D01*
X92235Y75791D01*
X91825Y76325D01*
X91291Y76735D01*
X90668Y76993D01*
X90000Y77081D01*
D02*
G37*
G36*
X69338Y89093D02*
X68670Y89005D01*
X68048Y88748D01*
X67513Y88337D01*
X67103Y87803D01*
X66845Y87180D01*
X66757Y86512D01*
X66845Y85844D01*
X67103Y85222D01*
X67513Y84687D01*
X67739Y84514D01*
X67757Y84448D01*
X67778Y84347D01*
X67833Y83616D01*
Y81860D01*
X67971Y81169D01*
X68362Y80583D01*
X71223Y77723D01*
X71809Y77331D01*
X72500Y77194D01*
X72993D01*
Y76274D01*
X72983Y75992D01*
X72950Y75648D01*
X72934Y75549D01*
X72921Y75496D01*
X72921Y75494D01*
X72765Y75291D01*
X72507Y74668D01*
X72502Y74633D01*
X71998D01*
X71993Y74668D01*
X71735Y75291D01*
X71325Y75825D01*
X70791Y76235D01*
X70168Y76493D01*
X69500Y76581D01*
X68832Y76493D01*
X68209Y76235D01*
X67675Y75825D01*
X67265Y75291D01*
X67007Y74668D01*
X66919Y74000D01*
X67007Y73332D01*
X67265Y72709D01*
X67675Y72175D01*
X68209Y71765D01*
X68832Y71507D01*
X69500Y71419D01*
X70168Y71507D01*
X70791Y71765D01*
X71325Y72175D01*
X71735Y72709D01*
X71993Y73332D01*
X71998Y73367D01*
X72502D01*
X72507Y73332D01*
X72765Y72709D01*
X73175Y72175D01*
X73709Y71765D01*
X74332Y71507D01*
X75000Y71419D01*
X75668Y71507D01*
X76291Y71765D01*
X76825Y72175D01*
X77235Y72709D01*
X77493Y73332D01*
X77581Y74000D01*
X77493Y74668D01*
X77235Y75291D01*
X76825Y75825D01*
X76698Y75923D01*
X76678Y76001D01*
X76657Y76109D01*
X76606Y76833D01*
Y78048D01*
X76468Y78739D01*
X76077Y79325D01*
X75124Y80277D01*
X74538Y80669D01*
X73847Y80806D01*
X73248D01*
X71446Y82608D01*
Y84427D01*
X71450Y84632D01*
X71477Y84979D01*
X71491Y85084D01*
X71499Y85124D01*
X71574Y85222D01*
X71832Y85844D01*
X71920Y86512D01*
X71832Y87180D01*
X71574Y87803D01*
X71163Y88337D01*
X70629Y88748D01*
X70007Y89005D01*
X69338Y89093D01*
D02*
G37*
G36*
X110000Y87581D02*
X109332Y87493D01*
X108709Y87235D01*
X108175Y86825D01*
X107765Y86291D01*
X107507Y85668D01*
X107419Y85000D01*
X107507Y84332D01*
X107765Y83709D01*
X108175Y83175D01*
X108709Y82765D01*
X109332Y82507D01*
X110000Y82419D01*
X110668Y82507D01*
X111226Y82738D01*
X111410Y82630D01*
X111623Y82390D01*
X111507Y82109D01*
X111419Y81441D01*
X111507Y80773D01*
X111765Y80150D01*
X112175Y79616D01*
X112364Y79470D01*
Y78970D01*
X112175Y78825D01*
X111765Y78291D01*
X111507Y77668D01*
X111419Y77000D01*
X111507Y76332D01*
X111765Y75709D01*
X112175Y75175D01*
X112709Y74765D01*
X113332Y74507D01*
X114000Y74419D01*
X114668Y74507D01*
X115291Y74765D01*
X115825Y75175D01*
X116235Y75709D01*
X116493Y76332D01*
X116581Y77000D01*
X116493Y77668D01*
X116235Y78291D01*
X115825Y78825D01*
X115636Y78970D01*
Y79470D01*
X115825Y79616D01*
X116235Y80150D01*
X116493Y80773D01*
X116581Y81441D01*
X116493Y82109D01*
X116235Y82731D01*
X115825Y83266D01*
X115291Y83676D01*
X114668Y83934D01*
X114000Y84022D01*
X113332Y83934D01*
X112774Y83703D01*
X112590Y83811D01*
X112377Y84051D01*
X112493Y84332D01*
X112581Y85000D01*
X112493Y85668D01*
X112235Y86291D01*
X111825Y86825D01*
X111291Y87235D01*
X110668Y87493D01*
X110000Y87581D01*
D02*
G37*
G36*
X104000Y77081D02*
X103332Y76993D01*
X102709Y76735D01*
X102175Y76325D01*
X101765Y75791D01*
X101507Y75168D01*
X101419Y74500D01*
X101507Y73832D01*
X101765Y73209D01*
X102175Y72675D01*
X102709Y72265D01*
X103332Y72007D01*
X104000Y71919D01*
X104668Y72007D01*
X105291Y72265D01*
X105825Y72675D01*
X106235Y73209D01*
X106493Y73832D01*
X106581Y74500D01*
X106493Y75168D01*
X106235Y75791D01*
X105825Y76325D01*
X105291Y76735D01*
X104668Y76993D01*
X104000Y77081D01*
D02*
G37*
G36*
X52000D02*
X51332Y76993D01*
X50709Y76735D01*
X50175Y76325D01*
X49765Y75791D01*
X49507Y75168D01*
X49419Y74500D01*
X49507Y73832D01*
X49765Y73209D01*
X50175Y72675D01*
X50709Y72265D01*
X51332Y72007D01*
X52000Y71919D01*
X52668Y72007D01*
X53291Y72265D01*
X53825Y72675D01*
X54235Y73209D01*
X54493Y73832D01*
X54581Y74500D01*
X54493Y75168D01*
X54235Y75791D01*
X53825Y76325D01*
X53291Y76735D01*
X52668Y76993D01*
X52000Y77081D01*
D02*
G37*
G36*
X284500Y71581D02*
X283832Y71493D01*
X283209Y71235D01*
X282675Y70825D01*
X282265Y70291D01*
X282007Y69668D01*
X281919Y69000D01*
X282007Y68332D01*
X282265Y67709D01*
X282675Y67175D01*
X283209Y66765D01*
X283832Y66507D01*
X284500Y66419D01*
X285168Y66507D01*
X285791Y66765D01*
X286325Y67175D01*
X286735Y67709D01*
X286993Y68332D01*
X287081Y69000D01*
X286993Y69668D01*
X286735Y70291D01*
X286325Y70825D01*
X285791Y71235D01*
X285168Y71493D01*
X284500Y71581D01*
D02*
G37*
G36*
X264500Y70581D02*
X263832Y70493D01*
X263209Y70235D01*
X262675Y69825D01*
X262265Y69291D01*
X262007Y68668D01*
X261919Y68000D01*
X262007Y67332D01*
X262265Y66709D01*
X262675Y66175D01*
X263209Y65765D01*
X263832Y65507D01*
X264500Y65419D01*
X265168Y65507D01*
X265791Y65765D01*
X266325Y66175D01*
X266735Y66709D01*
X266993Y67332D01*
X267081Y68000D01*
X266993Y68668D01*
X266735Y69291D01*
X266325Y69825D01*
X265791Y70235D01*
X265168Y70493D01*
X264500Y70581D01*
D02*
G37*
G36*
X383500Y74361D02*
X382113Y74178D01*
X380820Y73643D01*
X379709Y72791D01*
X378857Y71680D01*
X378322Y70388D01*
X378139Y69000D01*
X378322Y67612D01*
X378857Y66320D01*
X379709Y65209D01*
X380820Y64357D01*
X382113Y63822D01*
X383500Y63639D01*
X384888Y63822D01*
X386180Y64357D01*
X387291Y65209D01*
X388143Y66320D01*
X388678Y67612D01*
X388861Y69000D01*
X388678Y70388D01*
X388143Y71680D01*
X387291Y72791D01*
X386180Y73643D01*
X384888Y74178D01*
X383500Y74361D01*
D02*
G37*
G36*
X301610D02*
X300223Y74178D01*
X298930Y73643D01*
X297820Y72791D01*
X296968Y71680D01*
X296432Y70388D01*
X296249Y69000D01*
X296432Y67612D01*
X296968Y66320D01*
X297820Y65209D01*
X298930Y64357D01*
X300223Y63822D01*
X301610Y63639D01*
X302998Y63822D01*
X304291Y64357D01*
X305401Y65209D01*
X306253Y66320D01*
X306788Y67612D01*
X306971Y69000D01*
X306788Y70388D01*
X306253Y71680D01*
X305401Y72791D01*
X304291Y73643D01*
X302998Y74178D01*
X301610Y74361D01*
D02*
G37*
G36*
X306500Y101581D02*
X305832Y101493D01*
X305209Y101235D01*
X304675Y100825D01*
X304265Y100291D01*
X304007Y99668D01*
X303919Y99000D01*
X304007Y98332D01*
X304265Y97709D01*
X304675Y97175D01*
X305209Y96765D01*
X305832Y96507D01*
X306500Y96419D01*
X307168Y96507D01*
X307791Y96765D01*
X308239Y97109D01*
X308253Y97113D01*
X308317Y97127D01*
X309217Y97194D01*
X326252D01*
X334694Y88752D01*
Y83248D01*
X312752Y61306D01*
X259248D01*
X254777Y65777D01*
X254191Y66169D01*
X253500Y66306D01*
X93248D01*
X89777Y69777D01*
X89191Y70169D01*
X88500Y70306D01*
X65960D01*
X65891Y70309D01*
X65483Y70346D01*
X65349Y70366D01*
X65253Y70387D01*
X65239Y70391D01*
X64791Y70735D01*
X64168Y70993D01*
X63500Y71081D01*
X63422Y71071D01*
X63292Y71558D01*
X63791Y71765D01*
X64325Y72175D01*
X64735Y72709D01*
X64993Y73332D01*
X65081Y74000D01*
X64993Y74668D01*
X64735Y75291D01*
X64325Y75825D01*
X63791Y76235D01*
X63168Y76493D01*
X62500Y76581D01*
X61832Y76493D01*
X61570Y76385D01*
X61462Y76410D01*
X61053Y76712D01*
X60993Y77168D01*
X60735Y77791D01*
X60325Y78325D01*
X59791Y78735D01*
X59168Y78993D01*
X58500Y79081D01*
X57832Y78993D01*
X57209Y78735D01*
X56675Y78325D01*
X56265Y77791D01*
X56007Y77168D01*
X55919Y76500D01*
X56007Y75832D01*
X56265Y75209D01*
X56675Y74675D01*
X57209Y74265D01*
X57832Y74007D01*
X58500Y73919D01*
X59168Y74007D01*
X59430Y74115D01*
X59538Y74090D01*
X59947Y73788D01*
X60007Y73332D01*
X60265Y72709D01*
X60675Y72175D01*
X61209Y71765D01*
X61832Y71507D01*
X62500Y71419D01*
X62578Y71429D01*
X62708Y70942D01*
X62209Y70735D01*
X61761Y70391D01*
X61747Y70387D01*
X61682Y70373D01*
X60783Y70306D01*
X58460D01*
X58391Y70309D01*
X57983Y70346D01*
X57849Y70366D01*
X57753Y70387D01*
X57739Y70391D01*
X57291Y70735D01*
X56668Y70993D01*
X56000Y71081D01*
X55332Y70993D01*
X54709Y70735D01*
X54175Y70325D01*
X53765Y69791D01*
X53507Y69168D01*
X53419Y68500D01*
X53507Y67832D01*
X53765Y67209D01*
X54175Y66675D01*
X54709Y66265D01*
X55332Y66007D01*
X56000Y65919D01*
X56668Y66007D01*
X57291Y66265D01*
X57739Y66609D01*
X57753Y66613D01*
X57818Y66627D01*
X58717Y66694D01*
X61040D01*
X61109Y66691D01*
X61517Y66654D01*
X61651Y66634D01*
X61747Y66613D01*
X61761Y66609D01*
X62209Y66265D01*
X62832Y66007D01*
X63500Y65919D01*
X64168Y66007D01*
X64791Y66265D01*
X65239Y66609D01*
X65253Y66613D01*
X65317Y66627D01*
X66217Y66694D01*
X87752D01*
X91223Y63223D01*
X91809Y62831D01*
X92500Y62694D01*
X252752D01*
X257223Y58223D01*
X257809Y57831D01*
X258500Y57694D01*
X313500D01*
X314191Y57831D01*
X314777Y58223D01*
X337777Y81223D01*
X338169Y81809D01*
X338306Y82500D01*
Y89500D01*
X338169Y90191D01*
X337777Y90777D01*
X328277Y100277D01*
X327691Y100669D01*
X327000Y100806D01*
X308960D01*
X308891Y100809D01*
X308483Y100846D01*
X308348Y100866D01*
X308253Y100887D01*
X308239Y100891D01*
X307791Y101235D01*
X307168Y101493D01*
X306500Y101581D01*
D02*
G37*
G36*
X161000Y58581D02*
X160332Y58493D01*
X159709Y58235D01*
X159175Y57825D01*
X158765Y57291D01*
X158507Y56668D01*
X158419Y56000D01*
X158507Y55332D01*
X158765Y54709D01*
X159175Y54175D01*
X159709Y53765D01*
X160332Y53507D01*
X161000Y53419D01*
X161668Y53507D01*
X162291Y53765D01*
X162825Y54175D01*
X163235Y54709D01*
X163493Y55332D01*
X163581Y56000D01*
X163493Y56668D01*
X163235Y57291D01*
X162825Y57825D01*
X162291Y58235D01*
X161668Y58493D01*
X161000Y58581D01*
D02*
G37*
G36*
X152500D02*
X151832Y58493D01*
X151209Y58235D01*
X150675Y57825D01*
X150265Y57291D01*
X150007Y56668D01*
X149919Y56000D01*
X150007Y55332D01*
X150265Y54709D01*
X150675Y54175D01*
X151209Y53765D01*
X151832Y53507D01*
X152500Y53419D01*
X153168Y53507D01*
X153791Y53765D01*
X154325Y54175D01*
X154735Y54709D01*
X154993Y55332D01*
X155081Y56000D01*
X154993Y56668D01*
X154735Y57291D01*
X154325Y57825D01*
X153791Y58235D01*
X153168Y58493D01*
X152500Y58581D01*
D02*
G37*
G36*
X100223Y57846D02*
X99555Y57758D01*
X98932Y57500D01*
X98398Y57090D01*
X97988Y56556D01*
X97730Y55933D01*
X97642Y55265D01*
X97730Y54597D01*
X97988Y53975D01*
X98398Y53440D01*
X98932Y53030D01*
X99555Y52772D01*
X100223Y52684D01*
X100891Y52772D01*
X101514Y53030D01*
X102048Y53440D01*
X102458Y53975D01*
X102716Y54597D01*
X102804Y55265D01*
X102716Y55933D01*
X102458Y56556D01*
X102048Y57090D01*
X101514Y57500D01*
X100891Y57758D01*
X100223Y57846D01*
D02*
G37*
G36*
X125500Y52570D02*
X124446Y52432D01*
X123465Y52025D01*
X122622Y51378D01*
X121975Y50535D01*
X121568Y49553D01*
X121430Y48500D01*
X121568Y47447D01*
X121975Y46465D01*
X122622Y45622D01*
X123465Y44975D01*
X124446Y44568D01*
X125500Y44430D01*
X126553Y44568D01*
X127535Y44975D01*
X128378Y45622D01*
X129025Y46465D01*
X129432Y47447D01*
X129570Y48500D01*
X129432Y49553D01*
X129025Y50535D01*
X128378Y51378D01*
X127535Y52025D01*
X126553Y52432D01*
X125500Y52570D01*
D02*
G37*
G36*
X115500D02*
X114446Y52432D01*
X113465Y52025D01*
X112622Y51378D01*
X111975Y50535D01*
X111568Y49553D01*
X111430Y48500D01*
X111568Y47447D01*
X111975Y46465D01*
X112622Y45622D01*
X113465Y44975D01*
X114446Y44568D01*
X115500Y44430D01*
X116553Y44568D01*
X117535Y44975D01*
X118378Y45622D01*
X119025Y46465D01*
X119432Y47447D01*
X119570Y48500D01*
X119432Y49553D01*
X119025Y50535D01*
X118378Y51378D01*
X117535Y52025D01*
X116553Y52432D01*
X115500Y52570D01*
D02*
G37*
G36*
X103500Y51971D02*
X102472Y51836D01*
X101514Y51439D01*
X100692Y50808D01*
X100061Y49986D01*
X99664Y49028D01*
X99529Y48000D01*
X99664Y46972D01*
X100061Y46014D01*
X100692Y45192D01*
X101514Y44561D01*
X102472Y44164D01*
X103500Y44029D01*
X104528Y44164D01*
X105485Y44561D01*
X106308Y45192D01*
X106939Y46014D01*
X107336Y46972D01*
X107471Y48000D01*
X107336Y49028D01*
X106939Y49986D01*
X106308Y50808D01*
X105485Y51439D01*
X104528Y51836D01*
X103500Y51971D01*
D02*
G37*
G36*
X92000D02*
X90972Y51836D01*
X90014Y51439D01*
X89192Y50808D01*
X88561Y49986D01*
X88164Y49028D01*
X88029Y48000D01*
X88164Y46972D01*
X88561Y46014D01*
X89192Y45192D01*
X90014Y44561D01*
X90972Y44164D01*
X92000Y44029D01*
X93028Y44164D01*
X93985Y44561D01*
X94808Y45192D01*
X95439Y46014D01*
X95836Y46972D01*
X95971Y48000D01*
X95836Y49028D01*
X95439Y49986D01*
X94808Y50808D01*
X93985Y51439D01*
X93028Y51836D01*
X92000Y51971D01*
D02*
G37*
G36*
X257260Y50406D02*
X249583D01*
Y42728D01*
X257260D01*
Y50406D01*
D02*
G37*
G36*
X243579Y50439D02*
X242577Y50307D01*
X241643Y49920D01*
X240841Y49305D01*
X240226Y48503D01*
X239839Y47569D01*
X239707Y46567D01*
X239839Y45565D01*
X240226Y44631D01*
X240841Y43829D01*
X241643Y43214D01*
X242577Y42827D01*
X243579Y42695D01*
X244581Y42827D01*
X245515Y43214D01*
X246316Y43829D01*
X246932Y44631D01*
X247319Y45565D01*
X247450Y46567D01*
X247319Y47569D01*
X246932Y48503D01*
X246316Y49305D01*
X245515Y49920D01*
X244581Y50307D01*
X243579Y50439D01*
D02*
G37*
G36*
X288339Y50339D02*
X280661D01*
Y42661D01*
X288339D01*
Y50339D01*
D02*
G37*
G36*
X274658Y50372D02*
X273655Y50240D01*
X272722Y49853D01*
X271920Y49238D01*
X271304Y48436D01*
X270918Y47502D01*
X270786Y46500D01*
X270918Y45498D01*
X271304Y44564D01*
X271920Y43762D01*
X272722Y43147D01*
X273655Y42760D01*
X274658Y42628D01*
X275659Y42760D01*
X276593Y43147D01*
X277395Y43762D01*
X278011Y44564D01*
X278397Y45498D01*
X278529Y46500D01*
X278397Y47502D01*
X278011Y48436D01*
X277395Y49238D01*
X276593Y49853D01*
X275659Y50240D01*
X274658Y50372D01*
D02*
G37*
G36*
X80512Y45593D02*
X79844Y45505D01*
X79221Y45247D01*
X78687Y44837D01*
X78276Y44302D01*
X78019Y43680D01*
X77931Y43012D01*
X78019Y42344D01*
X78276Y41721D01*
X78687Y41187D01*
X79221Y40777D01*
X79844Y40519D01*
X80512Y40431D01*
X81180Y40519D01*
X81802Y40777D01*
X82337Y41187D01*
X82747Y41721D01*
X83005Y42344D01*
X83093Y43012D01*
X83005Y43680D01*
X82747Y44302D01*
X82337Y44837D01*
X81802Y45247D01*
X81180Y45505D01*
X80512Y45593D01*
D02*
G37*
G36*
X196890Y46417D02*
X189055D01*
Y38583D01*
X196890D01*
Y46417D01*
D02*
G37*
G36*
X145390D02*
X137555D01*
Y38583D01*
X145390D01*
Y46417D01*
D02*
G37*
G36*
X222500Y46451D02*
X221477Y46316D01*
X220524Y45922D01*
X219706Y45294D01*
X219078Y44476D01*
X218684Y43523D01*
X218549Y42500D01*
X218684Y41477D01*
X219078Y40524D01*
X219706Y39706D01*
X220524Y39078D01*
X221477Y38684D01*
X222500Y38549D01*
X223523Y38684D01*
X224476Y39078D01*
X225294Y39706D01*
X225922Y40524D01*
X226316Y41477D01*
X226451Y42500D01*
X226316Y43523D01*
X225922Y44476D01*
X225294Y45294D01*
X224476Y45922D01*
X223523Y46316D01*
X222500Y46451D01*
D02*
G37*
G36*
X212657D02*
X211635Y46316D01*
X210682Y45922D01*
X209864Y45294D01*
X209236Y44476D01*
X208841Y43523D01*
X208706Y42500D01*
X208841Y41477D01*
X209236Y40524D01*
X209864Y39706D01*
X210682Y39078D01*
X211635Y38684D01*
X212657Y38549D01*
X213680Y38684D01*
X214633Y39078D01*
X215451Y39706D01*
X216079Y40524D01*
X216474Y41477D01*
X216609Y42500D01*
X216474Y43523D01*
X216079Y44476D01*
X215451Y45294D01*
X214633Y45922D01*
X213680Y46316D01*
X212657Y46451D01*
D02*
G37*
G36*
X202815D02*
X201792Y46316D01*
X200839Y45922D01*
X200021Y45294D01*
X199393Y44476D01*
X198998Y43523D01*
X198864Y42500D01*
X198998Y41477D01*
X199393Y40524D01*
X200021Y39706D01*
X200839Y39078D01*
X201792Y38684D01*
X202815Y38549D01*
X203838Y38684D01*
X204790Y39078D01*
X205609Y39706D01*
X206237Y40524D01*
X206631Y41477D01*
X206766Y42500D01*
X206631Y43523D01*
X206237Y44476D01*
X205609Y45294D01*
X204790Y45922D01*
X203838Y46316D01*
X202815Y46451D01*
D02*
G37*
G36*
X171000D02*
X169977Y46316D01*
X169024Y45922D01*
X168206Y45294D01*
X167578Y44476D01*
X167183Y43523D01*
X167049Y42500D01*
X167183Y41477D01*
X167578Y40524D01*
X168206Y39706D01*
X169024Y39078D01*
X169977Y38684D01*
X171000Y38549D01*
X172023Y38684D01*
X172976Y39078D01*
X173794Y39706D01*
X174422Y40524D01*
X174817Y41477D01*
X174951Y42500D01*
X174817Y43523D01*
X174422Y44476D01*
X173794Y45294D01*
X172976Y45922D01*
X172023Y46316D01*
X171000Y46451D01*
D02*
G37*
G36*
X161158D02*
X160135Y46316D01*
X159182Y45922D01*
X158364Y45294D01*
X157736Y44476D01*
X157341Y43523D01*
X157206Y42500D01*
X157341Y41477D01*
X157736Y40524D01*
X158364Y39706D01*
X159182Y39078D01*
X160135Y38684D01*
X161158Y38549D01*
X162180Y38684D01*
X163133Y39078D01*
X163951Y39706D01*
X164579Y40524D01*
X164974Y41477D01*
X165109Y42500D01*
X164974Y43523D01*
X164579Y44476D01*
X163951Y45294D01*
X163133Y45922D01*
X162180Y46316D01*
X161158Y46451D01*
D02*
G37*
G36*
X151315D02*
X150292Y46316D01*
X149339Y45922D01*
X148521Y45294D01*
X147893Y44476D01*
X147499Y43523D01*
X147364Y42500D01*
X147499Y41477D01*
X147893Y40524D01*
X148521Y39706D01*
X149339Y39078D01*
X150292Y38684D01*
X151315Y38549D01*
X152338Y38684D01*
X153290Y39078D01*
X154109Y39706D01*
X154737Y40524D01*
X155131Y41477D01*
X155266Y42500D01*
X155131Y43523D01*
X154737Y44476D01*
X154109Y45294D01*
X153290Y45922D01*
X152338Y46316D01*
X151315Y46451D01*
D02*
G37*
G36*
X329000Y41581D02*
X328332Y41493D01*
X327709Y41235D01*
X327175Y40825D01*
X326765Y40291D01*
X326507Y39668D01*
X326419Y39000D01*
X326507Y38332D01*
X326765Y37709D01*
X327175Y37175D01*
X327709Y36765D01*
X328332Y36507D01*
X329000Y36419D01*
X329668Y36507D01*
X330291Y36765D01*
X330825Y37175D01*
X331235Y37709D01*
X331493Y38332D01*
X331581Y39000D01*
X331493Y39668D01*
X331235Y40291D01*
X330825Y40825D01*
X330291Y41235D01*
X329668Y41493D01*
X329000Y41581D01*
D02*
G37*
G36*
X119535Y42535D02*
X111465D01*
Y34465D01*
X119535D01*
Y42535D01*
D02*
G37*
G36*
X125500Y42570D02*
X124446Y42432D01*
X123465Y42025D01*
X122622Y41378D01*
X121975Y40535D01*
X121568Y39553D01*
X121430Y38500D01*
X121568Y37446D01*
X121975Y36465D01*
X122622Y35622D01*
X123465Y34975D01*
X124446Y34568D01*
X125500Y34430D01*
X126553Y34568D01*
X127535Y34975D01*
X128378Y35622D01*
X129025Y36465D01*
X129432Y37446D01*
X129570Y38500D01*
X129432Y39553D01*
X129025Y40535D01*
X128378Y41378D01*
X127535Y42025D01*
X126553Y42432D01*
X125500Y42570D01*
D02*
G37*
G36*
X107437Y41937D02*
X99563D01*
Y34063D01*
X107437D01*
Y41937D01*
D02*
G37*
G36*
X95937D02*
X88063D01*
Y34063D01*
X95937D01*
Y41937D01*
D02*
G37*
G36*
X370500Y42650D02*
X368677Y42507D01*
X366900Y42080D01*
X365211Y41380D01*
X363652Y40425D01*
X362262Y39238D01*
X361075Y37848D01*
X360120Y36289D01*
X359420Y34600D01*
X358993Y32822D01*
X358850Y31000D01*
X358993Y29177D01*
X359420Y27400D01*
X360120Y25711D01*
X361075Y24152D01*
X362262Y22762D01*
X363652Y21575D01*
X365211Y20620D01*
X366900Y19920D01*
X368677Y19493D01*
X370500Y19350D01*
X372323Y19493D01*
X374100Y19920D01*
X375789Y20620D01*
X377348Y21575D01*
X378738Y22762D01*
X379925Y24152D01*
X380880Y25711D01*
X381580Y27400D01*
X382007Y29177D01*
X382150Y31000D01*
X382007Y32822D01*
X381580Y34600D01*
X380880Y36289D01*
X379925Y37848D01*
X378738Y39238D01*
X377348Y40425D01*
X375789Y41380D01*
X374100Y42080D01*
X372323Y42507D01*
X370500Y42650D01*
D02*
G37*
G36*
X70500D02*
X68678Y42507D01*
X66900Y42080D01*
X65211Y41380D01*
X63652Y40425D01*
X62262Y39238D01*
X61075Y37848D01*
X60120Y36289D01*
X59420Y34600D01*
X58993Y32822D01*
X58850Y31000D01*
X58993Y29177D01*
X59420Y27400D01*
X60120Y25711D01*
X61075Y24152D01*
X62262Y22762D01*
X63652Y21575D01*
X65211Y20620D01*
X66900Y19920D01*
X68678Y19493D01*
X70500Y19350D01*
X72322Y19493D01*
X74100Y19920D01*
X75789Y20620D01*
X77348Y21575D01*
X78738Y22762D01*
X79925Y24152D01*
X80880Y25711D01*
X81580Y27400D01*
X82007Y29177D01*
X82150Y31000D01*
X82007Y32822D01*
X81580Y34600D01*
X80880Y36289D01*
X79925Y37848D01*
X78738Y39238D01*
X77348Y40425D01*
X75789Y41380D01*
X74100Y42080D01*
X72322Y42507D01*
X70500Y42650D01*
D02*
G37*
%LPD*%
G36*
X70747Y85419D02*
X70721Y85331D01*
X70698Y85212D01*
X70679Y85063D01*
X70648Y84672D01*
X70624Y83522D01*
X68656Y83106D01*
X68652Y83436D01*
X68575Y84456D01*
X68539Y84635D01*
X68497Y84785D01*
X68448Y84905D01*
X68393Y84995D01*
X68331Y85054D01*
X70776Y85476D01*
X70747Y85419D01*
D02*
G37*
G36*
X75787Y77030D02*
X75860Y76007D01*
X75893Y75826D01*
X75933Y75674D01*
X75979Y75552D01*
X76031Y75460D01*
X76089Y75398D01*
X73624Y75116D01*
X73661Y75178D01*
X73693Y75270D01*
X73722Y75393D01*
X73746Y75545D01*
X73785Y75939D01*
X73813Y76756D01*
X73815Y77089D01*
X75783Y77361D01*
X75787Y77030D01*
D02*
G37*
G36*
X307830Y100191D02*
X307925Y100148D01*
X308049Y100110D01*
X308202Y100076D01*
X308385Y100048D01*
X308840Y100007D01*
X309414Y99987D01*
X309745Y99984D01*
Y98016D01*
X309414Y98013D01*
X308202Y97924D01*
X308049Y97890D01*
X307925Y97852D01*
X307830Y97808D01*
X307765Y97760D01*
Y100240D01*
X307830Y100191D01*
D02*
G37*
G36*
X64830Y69691D02*
X64925Y69648D01*
X65049Y69610D01*
X65202Y69576D01*
X65386Y69548D01*
X65841Y69507D01*
X66414Y69487D01*
X66745Y69484D01*
Y67516D01*
X66414Y67513D01*
X65202Y67424D01*
X65049Y67390D01*
X64925Y67352D01*
X64830Y67308D01*
X64765Y67260D01*
Y69740D01*
X64830Y69691D01*
D02*
G37*
G36*
X62235Y67260D02*
X62170Y67308D01*
X62075Y67352D01*
X61951Y67390D01*
X61798Y67424D01*
X61615Y67452D01*
X61159Y67493D01*
X60586Y67513D01*
X60255Y67516D01*
Y69484D01*
X60586Y69487D01*
X61798Y69576D01*
X61951Y69610D01*
X62075Y69648D01*
X62170Y69691D01*
X62235Y69740D01*
Y67260D01*
D02*
G37*
G36*
X57330Y69691D02*
X57425Y69648D01*
X57549Y69610D01*
X57702Y69576D01*
X57885Y69548D01*
X58341Y69507D01*
X58914Y69487D01*
X59245Y69484D01*
Y67516D01*
X58914Y67513D01*
X57702Y67424D01*
X57549Y67390D01*
X57425Y67352D01*
X57330Y67308D01*
X57265Y67260D01*
Y69740D01*
X57330Y69691D01*
D02*
G37*
D14*
X56000Y68500D02*
X63500D01*
X69640Y81860D02*
X72500Y79000D01*
X69640Y81860D02*
Y86211D01*
X69338Y86512D02*
X69640Y86211D01*
X74799Y74201D02*
X75000Y74000D01*
X72500Y79000D02*
X73847D01*
X74799Y74201D02*
Y78048D01*
X73847Y79000D02*
X74799Y78048D01*
X306500Y99000D02*
X327000D01*
X336500Y89500D01*
Y82500D02*
Y89500D01*
X313500Y59500D02*
X336500Y82500D01*
X258500Y59500D02*
X313500D01*
X253500Y64500D02*
X258500Y59500D01*
X92500Y64500D02*
X253500D01*
X63500Y68500D02*
X88500D01*
X92500Y64500D01*
D67*
X329671Y229705D02*
D03*
X382500Y139000D02*
D03*
X398500Y110000D02*
D03*
D90*
X201500Y190000D02*
D03*
X196500D02*
D03*
X186500D02*
D03*
D95*
X70000Y164000D02*
D03*
X312842Y259952D02*
D03*
X303000Y277000D02*
D03*
D96*
X58421Y144024D02*
D03*
D97*
X132000Y277660D02*
D03*
D100*
X240000Y354500D02*
D03*
Y334500D02*
D03*
X260000D02*
D03*
Y354500D02*
D03*
D102*
X275000Y317670D02*
D03*
D106*
X347957Y141469D02*
D03*
Y137531D02*
D03*
X351500Y141469D02*
D03*
Y137531D02*
D03*
X355043Y141469D02*
D03*
Y137531D02*
D03*
D111*
X63500Y68500D02*
D03*
X73500Y95500D02*
D03*
X163500Y127500D02*
D03*
X69338Y86512D02*
D03*
X242839Y345456D02*
D03*
X243668Y340989D02*
D03*
X245799Y327890D02*
D03*
Y323346D02*
D03*
Y318803D02*
D03*
Y314260D02*
D03*
Y309717D02*
D03*
Y305173D02*
D03*
Y300630D02*
D03*
Y296087D02*
D03*
X243069Y292455D02*
D03*
X239207Y290062D02*
D03*
X244488Y267717D02*
D03*
X245519Y282922D02*
D03*
X249487Y285136D02*
D03*
X252921Y288110D02*
D03*
X254215Y292465D02*
D03*
X254201Y297009D02*
D03*
Y301552D02*
D03*
Y306095D02*
D03*
Y310639D02*
D03*
Y315182D02*
D03*
Y319725D02*
D03*
Y324269D02*
D03*
Y328812D02*
D03*
X256666Y341715D02*
D03*
X257027Y346243D02*
D03*
X250365Y351739D02*
D03*
X208500Y288000D02*
D03*
X120500Y246500D02*
D03*
X179000Y258000D02*
D03*
X208000Y314000D02*
D03*
X306500Y99000D02*
D03*
X315748Y144441D02*
D03*
X75000Y74000D02*
D03*
X56000Y68500D02*
D03*
X28000Y103000D02*
D03*
X218000Y91000D02*
D03*
Y82000D02*
D03*
M02*
