G04*
G04 #@! TF.GenerationSoftware,Altium Limited,Altium Designer,22.1.2 (22)*
G04*
G04 Layer_Color=128*
%FSLAX25Y25*%
%MOIN*%
G70*
G04*
G04 #@! TF.SameCoordinates,8C121C91-0C0E-4A63-ABDB-05F36A63E408*
G04*
G04*
G04 #@! TF.FilePolarity,Positive*
G04*
G01*
G75*
%ADD20R,0.01575X0.03937*%
%ADD21R,0.03937X0.01575*%
%ADD22R,0.05709X0.04528*%
%ADD23R,0.04528X0.05709*%
%ADD24R,0.03937X0.02953*%
%ADD25R,0.05709X0.03740*%
%ADD27R,0.03740X0.05709*%
%ADD90C,0.04134*%
G04:AMPARAMS|DCode=113|XSize=54.78mil|YSize=21.97mil|CornerRadius=0mil|HoleSize=0mil|Usage=FLASHONLY|Rotation=330.000|XOffset=0mil|YOffset=0mil|HoleType=Round|Shape=Rectangle|*
%AMROTATEDRECTD113*
4,1,4,-0.02921,0.00418,-0.01823,0.02321,0.02921,-0.00418,0.01823,-0.02321,-0.02921,0.00418,0.0*
%
%ADD113ROTATEDRECTD113*%

%ADD114R,0.04803X0.03583*%
%ADD115R,0.03937X0.06102*%
%ADD116R,0.04331X0.04724*%
%ADD117R,0.03937X0.03740*%
%ADD118R,0.07087X0.04134*%
%ADD119R,0.02200X0.05750*%
%ADD120O,0.01181X0.06693*%
%ADD121R,0.03150X0.03543*%
%ADD122R,0.05700X0.02200*%
%ADD123O,0.00984X0.04724*%
%ADD124O,0.04724X0.00984*%
%ADD125R,0.07301X0.02410*%
G04:AMPARAMS|DCode=126|XSize=73.01mil|YSize=24.1mil|CornerRadius=12.05mil|HoleSize=0mil|Usage=FLASHONLY|Rotation=180.000|XOffset=0mil|YOffset=0mil|HoleType=Round|Shape=RoundedRectangle|*
%AMROUNDEDRECTD126*
21,1,0.07301,0.00000,0,0,180.0*
21,1,0.04891,0.02410,0,0,180.0*
1,1,0.02410,-0.02445,0.00000*
1,1,0.02410,0.02445,0.00000*
1,1,0.02410,0.02445,0.00000*
1,1,0.02410,-0.02445,0.00000*
%
%ADD126ROUNDEDRECTD126*%
%ADD127R,0.06693X0.09843*%
%ADD128R,0.06299X0.12598*%
%ADD129R,0.40551X0.31496*%
%ADD130R,0.03937X0.14567*%
%ADD132R,0.04724X0.04724*%
%ADD133R,0.10630X0.05512*%
%ADD134R,0.05906X0.10236*%
%ADD135R,0.03937X0.10236*%
%ADD136R,0.02756X0.07874*%
D20*
X228059Y102413D02*
D03*
X225500D02*
D03*
X222941D02*
D03*
X228059Y109500D02*
D03*
X225500D02*
D03*
X222941D02*
D03*
D21*
X62413Y77941D02*
D03*
Y80500D02*
D03*
Y83059D02*
D03*
X69500Y77941D02*
D03*
Y80500D02*
D03*
Y83059D02*
D03*
X82087Y80559D02*
D03*
Y83118D02*
D03*
Y78000D02*
D03*
X75000Y83118D02*
D03*
Y80559D02*
D03*
Y78000D02*
D03*
X235000Y150559D02*
D03*
Y148000D02*
D03*
Y145441D02*
D03*
X227913Y150559D02*
D03*
Y148000D02*
D03*
Y145441D02*
D03*
D22*
X76083Y52362D02*
D03*
Y59449D02*
D03*
X58957Y59350D02*
D03*
Y52264D02*
D03*
X206000Y319457D02*
D03*
Y326543D02*
D03*
Y293457D02*
D03*
Y300543D02*
D03*
X215000Y293457D02*
D03*
Y300543D02*
D03*
X188000Y289957D02*
D03*
Y297043D02*
D03*
X181500Y266457D02*
D03*
Y273543D02*
D03*
X190500Y266457D02*
D03*
Y273543D02*
D03*
X224500Y65457D02*
D03*
Y72543D02*
D03*
X194000Y72043D02*
D03*
Y64957D02*
D03*
X161000Y68543D02*
D03*
Y61457D02*
D03*
X152500Y68543D02*
D03*
Y61457D02*
D03*
X137000Y143043D02*
D03*
Y135957D02*
D03*
X146000Y143043D02*
D03*
Y135957D02*
D03*
X143500Y74543D02*
D03*
Y67457D02*
D03*
X236000Y130957D02*
D03*
Y138043D02*
D03*
X118000Y165957D02*
D03*
Y173043D02*
D03*
X135000Y258543D02*
D03*
Y251457D02*
D03*
X266000Y141957D02*
D03*
Y149043D02*
D03*
X199508Y270276D02*
D03*
Y263189D02*
D03*
X333500Y115957D02*
D03*
Y123043D02*
D03*
X313500Y115957D02*
D03*
Y123043D02*
D03*
X323000Y115957D02*
D03*
Y123043D02*
D03*
X342500Y115957D02*
D03*
Y123043D02*
D03*
D23*
X205457Y109500D02*
D03*
X212543D02*
D03*
X205457Y91500D02*
D03*
X212543D02*
D03*
X103543Y85000D02*
D03*
X96457D02*
D03*
X129043Y141500D02*
D03*
X121957D02*
D03*
X129043Y132500D02*
D03*
X121957D02*
D03*
X129043Y124000D02*
D03*
X121957D02*
D03*
X129043Y115500D02*
D03*
X121957D02*
D03*
Y106500D02*
D03*
X129043D02*
D03*
X88957Y207500D02*
D03*
X96043D02*
D03*
X93996Y216535D02*
D03*
X101083D02*
D03*
X176543Y224500D02*
D03*
X169457D02*
D03*
X144957Y243000D02*
D03*
X152043D02*
D03*
X326543Y206500D02*
D03*
X319457D02*
D03*
X109457Y242000D02*
D03*
X116543D02*
D03*
X109457Y233500D02*
D03*
X116543D02*
D03*
D24*
X126969Y93898D02*
D03*
Y87992D02*
D03*
D25*
X184941Y240059D02*
D03*
X114500Y59161D02*
D03*
Y66839D02*
D03*
X123500Y59161D02*
D03*
Y66839D02*
D03*
X144000Y258839D02*
D03*
Y251161D02*
D03*
X348500Y154161D02*
D03*
Y161839D02*
D03*
X85500Y61161D02*
D03*
Y68839D02*
D03*
X225500Y82161D02*
D03*
Y89839D02*
D03*
X102500Y127661D02*
D03*
Y135339D02*
D03*
X185039Y225197D02*
D03*
Y232874D02*
D03*
X208563Y270571D02*
D03*
Y262894D02*
D03*
Y255807D02*
D03*
Y248130D02*
D03*
X184941Y247736D02*
D03*
X274000Y133839D02*
D03*
Y126161D02*
D03*
X171000Y202339D02*
D03*
Y194661D02*
D03*
Y209161D02*
D03*
Y216839D02*
D03*
X358500Y154161D02*
D03*
Y161839D02*
D03*
D27*
X269661Y61000D02*
D03*
X277339D02*
D03*
X284161D02*
D03*
X291839D02*
D03*
X240661D02*
D03*
X248339D02*
D03*
X255161D02*
D03*
X262839D02*
D03*
X325661Y168500D02*
D03*
X333339D02*
D03*
X205161Y82500D02*
D03*
X212839D02*
D03*
Y100500D02*
D03*
X205161D02*
D03*
D90*
X186500Y195000D02*
D03*
Y190000D02*
D03*
X191500Y195000D02*
D03*
Y190000D02*
D03*
X196500Y195000D02*
D03*
Y190000D02*
D03*
X201500Y195000D02*
D03*
Y190000D02*
D03*
X206500Y195000D02*
D03*
Y190000D02*
D03*
D113*
X32710Y90224D02*
D03*
X35210Y94554D02*
D03*
X37710Y98885D02*
D03*
X40210Y103215D02*
D03*
X58290Y92776D02*
D03*
X55790Y88446D02*
D03*
X53290Y84115D02*
D03*
X50790Y79785D02*
D03*
D114*
X67520Y58898D02*
D03*
Y46024D02*
D03*
X233000Y72937D02*
D03*
Y60063D02*
D03*
X202500Y72437D02*
D03*
Y59563D02*
D03*
X140000Y94063D02*
D03*
Y106937D02*
D03*
X148500D02*
D03*
Y94063D02*
D03*
X134500Y79937D02*
D03*
Y67063D02*
D03*
X227500Y137937D02*
D03*
Y125063D02*
D03*
X199803Y243268D02*
D03*
Y256142D02*
D03*
X152756Y253898D02*
D03*
Y266772D02*
D03*
D115*
X229921Y249213D02*
D03*
Y269882D02*
D03*
X217323Y249213D02*
D03*
Y269882D02*
D03*
D116*
X94000Y60366D02*
D03*
Y68634D02*
D03*
X102000Y60366D02*
D03*
Y68634D02*
D03*
X172000Y260634D02*
D03*
Y252366D02*
D03*
X291000Y82634D02*
D03*
Y74366D02*
D03*
X94500Y135634D02*
D03*
Y127366D02*
D03*
X282500Y134134D02*
D03*
Y125866D02*
D03*
X331500Y191866D02*
D03*
Y183598D02*
D03*
X346500Y191866D02*
D03*
Y183598D02*
D03*
X339000Y191866D02*
D03*
Y183598D02*
D03*
D117*
X214000Y325650D02*
D03*
Y319350D02*
D03*
X198000Y327150D02*
D03*
Y320850D02*
D03*
X195500Y296150D02*
D03*
Y289850D02*
D03*
X180500Y291350D02*
D03*
Y297650D02*
D03*
D118*
X215000Y62480D02*
D03*
Y72520D02*
D03*
X184500D02*
D03*
Y62480D02*
D03*
D119*
X249500Y96225D02*
D03*
X254500D02*
D03*
X259500D02*
D03*
X264500D02*
D03*
X269500D02*
D03*
X274500D02*
D03*
X279500D02*
D03*
Y74775D02*
D03*
X274500D02*
D03*
X269500D02*
D03*
X264500D02*
D03*
X259500D02*
D03*
X254500D02*
D03*
X249500D02*
D03*
D120*
X232563Y102571D02*
D03*
X234531D02*
D03*
X236500D02*
D03*
X238469D02*
D03*
X240437D02*
D03*
X232563Y86429D02*
D03*
X234531D02*
D03*
X236500D02*
D03*
X238469D02*
D03*
X240437D02*
D03*
D121*
X123500Y73563D02*
D03*
X127240Y81437D02*
D03*
X119760D02*
D03*
D122*
X103750Y94000D02*
D03*
Y99000D02*
D03*
Y104000D02*
D03*
Y109000D02*
D03*
X82250D02*
D03*
Y104000D02*
D03*
Y99000D02*
D03*
Y94000D02*
D03*
D123*
X118173Y217642D02*
D03*
X120142D02*
D03*
X122110D02*
D03*
X124079D02*
D03*
X126047D02*
D03*
X128016D02*
D03*
X129984D02*
D03*
X131953D02*
D03*
X133921D02*
D03*
X135890D02*
D03*
X137858D02*
D03*
X139827D02*
D03*
Y185358D02*
D03*
X137858D02*
D03*
X135890D02*
D03*
X133921D02*
D03*
X131953D02*
D03*
X129984D02*
D03*
X128016D02*
D03*
X126047D02*
D03*
X124079D02*
D03*
X122110D02*
D03*
X120142D02*
D03*
X118173D02*
D03*
D124*
X145142Y212327D02*
D03*
Y210358D02*
D03*
Y208390D02*
D03*
Y206421D02*
D03*
Y204453D02*
D03*
Y202484D02*
D03*
Y200516D02*
D03*
Y198547D02*
D03*
Y196579D02*
D03*
Y194610D02*
D03*
Y192642D02*
D03*
Y190673D02*
D03*
X112858D02*
D03*
Y192642D02*
D03*
Y194610D02*
D03*
Y196579D02*
D03*
Y198547D02*
D03*
Y200516D02*
D03*
Y202484D02*
D03*
Y204453D02*
D03*
Y206421D02*
D03*
Y208390D02*
D03*
Y210358D02*
D03*
Y212327D02*
D03*
D125*
X173029Y240240D02*
D03*
D126*
Y236500D02*
D03*
Y232760D02*
D03*
X163971D02*
D03*
Y236500D02*
D03*
Y240240D02*
D03*
D127*
X305500Y215626D02*
D03*
Y231374D02*
D03*
D128*
X284500Y239843D02*
D03*
Y220158D02*
D03*
D129*
X292500Y187685D02*
D03*
D130*
X279114Y148315D02*
D03*
X285807D02*
D03*
X292500D02*
D03*
X299193D02*
D03*
X305886D02*
D03*
D132*
X165905Y175894D02*
D03*
D133*
X197205Y175500D02*
D03*
X177913D02*
D03*
D134*
X158425Y127469D02*
D03*
D135*
X210984D02*
D03*
D136*
X172402Y125500D02*
D03*
X176732D02*
D03*
X181063D02*
D03*
X185394D02*
D03*
X189724D02*
D03*
X194055D02*
D03*
X198386D02*
D03*
X202716D02*
D03*
M02*
