G04*
G04 #@! TF.GenerationSoftware,Altium Limited,Altium Designer,22.1.2 (22)*
G04*
G04 Layer_Color=8388736*
%FSLAX25Y25*%
%MOIN*%
G70*
G04*
G04 #@! TF.SameCoordinates,8C121C91-0C0E-4A63-ABDB-05F36A63E408*
G04*
G04*
G04 #@! TF.FilePolarity,Negative*
G04*
G01*
G75*
%ADD28R,0.04800X0.12400*%
%ADD29R,0.04800X0.03400*%
%ADD30R,0.03150X0.01575*%
G04:AMPARAMS|DCode=32|XSize=73.12mil|YSize=16.57mil|CornerRadius=8.28mil|HoleSize=0mil|Usage=FLASHONLY|Rotation=330.000|XOffset=0mil|YOffset=0mil|HoleType=Round|Shape=RoundedRectangle|*
%AMROUNDEDRECTD32*
21,1,0.07312,0.00000,0,0,330.0*
21,1,0.05655,0.01657,0,0,330.0*
1,1,0.01657,0.02449,-0.01414*
1,1,0.01657,-0.02449,0.01414*
1,1,0.01657,-0.02449,0.01414*
1,1,0.01657,0.02449,-0.01414*
%
%ADD32ROUNDEDRECTD32*%
G04:AMPARAMS|DCode=33|XSize=73.12mil|YSize=16.57mil|CornerRadius=0mil|HoleSize=0mil|Usage=FLASHONLY|Rotation=330.000|XOffset=0mil|YOffset=0mil|HoleType=Round|Shape=Rectangle|*
%AMROTATEDRECTD33*
4,1,4,-0.03580,0.01111,-0.02752,0.02545,0.03580,-0.01111,0.02752,-0.02545,-0.03580,0.01111,0.0*
%
%ADD33ROTATEDRECTD33*%

%ADD37R,0.10846X0.13804*%
%ADD43R,0.08679X0.02394*%
G04:AMPARAMS|DCode=44|XSize=86.79mil|YSize=23.94mil|CornerRadius=11.97mil|HoleSize=0mil|Usage=FLASHONLY|Rotation=180.000|XOffset=0mil|YOffset=0mil|HoleType=Round|Shape=RoundedRectangle|*
%AMROUNDEDRECTD44*
21,1,0.08679,0.00000,0,0,180.0*
21,1,0.06285,0.02394,0,0,180.0*
1,1,0.02394,-0.03143,0.00000*
1,1,0.02394,0.03143,0.00000*
1,1,0.02394,0.03143,0.00000*
1,1,0.02394,-0.03143,0.00000*
%
%ADD44ROUNDEDRECTD44*%
%ADD45R,0.02205X0.04567*%
%ADD46R,0.04567X0.02205*%
%ADD47R,0.06509X0.05328*%
%ADD48R,0.05328X0.06509*%
%ADD49R,0.04737X0.03753*%
%ADD50R,0.06509X0.04540*%
G04:AMPARAMS|DCode=51|XSize=45.4mil|YSize=65.09mil|CornerRadius=0mil|HoleSize=0mil|Usage=FLASHONLY|Rotation=60.000|XOffset=0mil|YOffset=0mil|HoleType=Round|Shape=Rectangle|*
%AMROTATEDRECTD51*
4,1,4,0.01683,-0.03593,-0.03953,-0.00339,-0.01683,0.03593,0.03953,0.00339,0.01683,-0.03593,0.0*
%
%ADD51ROTATEDRECTD51*%

%ADD52R,0.04540X0.06509*%
%ADD53R,0.03150X0.01181*%
G04:AMPARAMS|DCode=54|XSize=90.68mil|YSize=252.1mil|CornerRadius=0mil|HoleSize=0mil|Usage=FLASHONLY|Rotation=330.000|XOffset=0mil|YOffset=0mil|HoleType=Round|Shape=Rectangle|*
%AMROTATEDRECTD54*
4,1,4,-0.10229,-0.08649,0.02376,0.13183,0.10229,0.08649,-0.02376,-0.13183,-0.10229,-0.08649,0.0*
%
%ADD54ROTATEDRECTD54*%

%ADD55R,0.06706X0.04343*%
%ADD56R,0.08674X0.03556*%
%ADD57R,0.03556X0.08674*%
G04:AMPARAMS|DCode=58|XSize=41.86mil|YSize=18.24mil|CornerRadius=5.28mil|HoleSize=0mil|Usage=FLASHONLY|Rotation=270.000|XOffset=0mil|YOffset=0mil|HoleType=Round|Shape=RoundedRectangle|*
%AMROUNDEDRECTD58*
21,1,0.04186,0.00768,0,0,270.0*
21,1,0.03130,0.01824,0,0,270.0*
1,1,0.01056,-0.00384,-0.01565*
1,1,0.01056,-0.00384,0.01565*
1,1,0.01056,0.00384,0.01565*
1,1,0.01056,0.00384,-0.01565*
%
%ADD58ROUNDEDRECTD58*%
G04:AMPARAMS|DCode=59|XSize=41.86mil|YSize=18.24mil|CornerRadius=5.28mil|HoleSize=0mil|Usage=FLASHONLY|Rotation=180.000|XOffset=0mil|YOffset=0mil|HoleType=Round|Shape=RoundedRectangle|*
%AMROUNDEDRECTD59*
21,1,0.04186,0.00768,0,0,180.0*
21,1,0.03130,0.01824,0,0,180.0*
1,1,0.01056,-0.01565,0.00384*
1,1,0.01056,0.01565,0.00384*
1,1,0.01056,0.01565,-0.00384*
1,1,0.01056,-0.01565,-0.00384*
%
%ADD59ROUNDEDRECTD59*%
%ADD60R,0.07414X0.07414*%
%ADD61R,0.06391X0.03084*%
%ADD62R,0.08280X0.05918*%
%ADD63C,0.04934*%
%ADD64R,0.07099X0.07099*%
%ADD65C,0.07099*%
%ADD66R,0.06102X0.06102*%
%ADD67C,0.06102*%
%ADD68R,0.07099X0.07099*%
%ADD69R,0.07060X0.07060*%
%ADD70C,0.07060*%
%ADD71P,0.09984X4X285.0*%
%ADD72P,0.10040X4X285.0*%
%ADD73C,0.08477*%
%ADD74P,0.11989X4X105.0*%
%ADD75C,0.10249*%
%ADD76C,0.09658*%
%ADD77P,0.10040X4X165.0*%
%ADD78P,0.09984X4X345.0*%
%ADD79P,0.08630X4X345.0*%
%ADD80C,0.09855*%
%ADD81C,0.04186*%
%ADD82C,0.02769*%
%ADD83R,0.07296X0.07296*%
%ADD84C,0.07296*%
%ADD85C,0.22453*%
G36*
X345035Y136153D02*
X345066Y136150D01*
X345096Y136146D01*
X345127Y136141D01*
X345157Y136133D01*
X345186Y136125D01*
X345216Y136114D01*
X345244Y136102D01*
X345272Y136089D01*
X345299Y136074D01*
X345326Y136058D01*
X345351Y136041D01*
X345376Y136022D01*
X345399Y136002D01*
X345422Y135981D01*
X345443Y135958D01*
X345463Y135935D01*
X345482Y135910D01*
X345499Y135885D01*
X345515Y135858D01*
X345530Y135831D01*
X345543Y135803D01*
X345555Y135775D01*
X345566Y135746D01*
X345574Y135716D01*
X345582Y135686D01*
X345587Y135655D01*
X345591Y135625D01*
X345594Y135594D01*
X345595Y135563D01*
X345594Y135532D01*
X345591Y135501D01*
X345587Y135471D01*
X345582Y135440D01*
X345574Y135410D01*
X345566Y135380D01*
X345555Y135351D01*
X345543Y135323D01*
X345530Y135295D01*
X345515Y135268D01*
X345499Y135241D01*
X345482Y135216D01*
X345463Y135191D01*
X345443Y135168D01*
X345422Y135145D01*
X345399Y135124D01*
X345376Y135104D01*
X345351Y135085D01*
X345326Y135068D01*
X345299Y135052D01*
X345272Y135037D01*
X345244Y135023D01*
X345216Y135012D01*
X345186Y135001D01*
X345157Y134993D01*
X345127Y134985D01*
X345096Y134980D01*
X345066Y134976D01*
X345035Y134973D01*
X345004Y134972D01*
X341854D01*
Y135563D01*
Y136153D01*
X345004D01*
X345035Y136153D01*
D02*
G37*
G36*
Y137727D02*
X345066Y137725D01*
X345096Y137721D01*
X345127Y137715D01*
X345157Y137708D01*
X345186Y137699D01*
X345216Y137689D01*
X345244Y137677D01*
X345272Y137664D01*
X345299Y137649D01*
X345326Y137633D01*
X345351Y137616D01*
X345376Y137597D01*
X345399Y137577D01*
X345422Y137555D01*
X345443Y137533D01*
X345463Y137509D01*
X345482Y137485D01*
X345499Y137459D01*
X345515Y137433D01*
X345530Y137406D01*
X345543Y137378D01*
X345555Y137349D01*
X345566Y137320D01*
X345574Y137291D01*
X345582Y137261D01*
X345587Y137230D01*
X345591Y137199D01*
X345594Y137169D01*
X345595Y137138D01*
X345594Y137107D01*
X345591Y137076D01*
X345587Y137045D01*
X345582Y137015D01*
X345574Y136985D01*
X345566Y136955D01*
X345555Y136926D01*
X345543Y136898D01*
X345530Y136870D01*
X345515Y136843D01*
X345499Y136816D01*
X345482Y136791D01*
X345463Y136766D01*
X345443Y136743D01*
X345422Y136720D01*
X345399Y136699D01*
X345376Y136679D01*
X345351Y136660D01*
X345326Y136643D01*
X345299Y136626D01*
X345272Y136612D01*
X345244Y136598D01*
X345216Y136586D01*
X345186Y136576D01*
X345157Y136567D01*
X345127Y136560D01*
X345096Y136555D01*
X345066Y136550D01*
X345035Y136548D01*
X345004Y136547D01*
X341854D01*
Y137138D01*
Y137728D01*
X345004D01*
X345035Y137727D01*
D02*
G37*
G36*
Y139302D02*
X345066Y139300D01*
X345096Y139296D01*
X345127Y139290D01*
X345157Y139283D01*
X345186Y139274D01*
X345216Y139264D01*
X345244Y139252D01*
X345272Y139239D01*
X345299Y139224D01*
X345326Y139208D01*
X345351Y139190D01*
X345376Y139172D01*
X345399Y139152D01*
X345422Y139130D01*
X345443Y139108D01*
X345463Y139084D01*
X345482Y139060D01*
X345499Y139034D01*
X345515Y139008D01*
X345530Y138981D01*
X345543Y138953D01*
X345555Y138924D01*
X345566Y138895D01*
X345574Y138865D01*
X345582Y138835D01*
X345587Y138805D01*
X345591Y138774D01*
X345594Y138743D01*
X345595Y138713D01*
X345594Y138682D01*
X345591Y138651D01*
X345587Y138620D01*
X345582Y138590D01*
X345574Y138560D01*
X345566Y138530D01*
X345555Y138501D01*
X345543Y138472D01*
X345530Y138444D01*
X345515Y138417D01*
X345499Y138391D01*
X345482Y138365D01*
X345463Y138341D01*
X345443Y138317D01*
X345422Y138295D01*
X345399Y138274D01*
X345376Y138254D01*
X345351Y138235D01*
X345326Y138217D01*
X345299Y138201D01*
X345272Y138186D01*
X345244Y138173D01*
X345216Y138161D01*
X345186Y138151D01*
X345157Y138142D01*
X345127Y138135D01*
X345096Y138129D01*
X345066Y138125D01*
X345035Y138123D01*
X345004Y138122D01*
X341854D01*
Y138713D01*
Y139303D01*
X345004D01*
X345035Y139302D01*
D02*
G37*
G36*
Y140877D02*
X345066Y140875D01*
X345096Y140871D01*
X345127Y140865D01*
X345157Y140858D01*
X345186Y140849D01*
X345216Y140839D01*
X345244Y140827D01*
X345272Y140814D01*
X345299Y140799D01*
X345326Y140783D01*
X345351Y140765D01*
X345376Y140746D01*
X345399Y140726D01*
X345422Y140705D01*
X345443Y140683D01*
X345463Y140659D01*
X345482Y140635D01*
X345499Y140609D01*
X345515Y140583D01*
X345530Y140556D01*
X345543Y140528D01*
X345555Y140499D01*
X345566Y140470D01*
X345574Y140440D01*
X345582Y140410D01*
X345587Y140380D01*
X345591Y140349D01*
X345594Y140318D01*
X345595Y140287D01*
X345594Y140257D01*
X345591Y140226D01*
X345587Y140195D01*
X345582Y140165D01*
X345574Y140135D01*
X345566Y140105D01*
X345555Y140076D01*
X345543Y140047D01*
X345530Y140019D01*
X345515Y139992D01*
X345499Y139966D01*
X345482Y139940D01*
X345463Y139916D01*
X345443Y139892D01*
X345422Y139870D01*
X345399Y139848D01*
X345376Y139829D01*
X345351Y139810D01*
X345326Y139792D01*
X345299Y139776D01*
X345272Y139761D01*
X345244Y139748D01*
X345216Y139736D01*
X345186Y139726D01*
X345157Y139717D01*
X345127Y139710D01*
X345096Y139704D01*
X345066Y139700D01*
X345035Y139698D01*
X345004Y139697D01*
X341854D01*
Y140287D01*
Y140878D01*
X345004D01*
X345035Y140877D01*
D02*
G37*
G36*
Y142452D02*
X345066Y142449D01*
X345096Y142446D01*
X345127Y142440D01*
X345157Y142433D01*
X345186Y142424D01*
X345216Y142413D01*
X345244Y142402D01*
X345272Y142388D01*
X345299Y142374D01*
X345326Y142358D01*
X345351Y142340D01*
X345376Y142321D01*
X345399Y142301D01*
X345422Y142280D01*
X345443Y142257D01*
X345463Y142234D01*
X345482Y142209D01*
X345499Y142184D01*
X345515Y142157D01*
X345530Y142130D01*
X345543Y142102D01*
X345555Y142074D01*
X345566Y142045D01*
X345574Y142015D01*
X345582Y141985D01*
X345587Y141955D01*
X345591Y141924D01*
X345594Y141893D01*
X345595Y141862D01*
X345594Y141831D01*
X345591Y141800D01*
X345587Y141770D01*
X345582Y141739D01*
X345574Y141709D01*
X345566Y141680D01*
X345555Y141651D01*
X345543Y141622D01*
X345530Y141594D01*
X345515Y141567D01*
X345499Y141541D01*
X345482Y141515D01*
X345463Y141491D01*
X345443Y141467D01*
X345422Y141445D01*
X345399Y141423D01*
X345376Y141403D01*
X345351Y141384D01*
X345326Y141367D01*
X345299Y141351D01*
X345272Y141336D01*
X345244Y141323D01*
X345216Y141311D01*
X345186Y141301D01*
X345157Y141292D01*
X345127Y141285D01*
X345096Y141279D01*
X345066Y141275D01*
X345035Y141272D01*
X345004Y141272D01*
X341854D01*
Y141862D01*
Y142453D01*
X345004D01*
X345035Y142452D01*
D02*
G37*
G36*
Y144027D02*
X345066Y144024D01*
X345096Y144020D01*
X345127Y144015D01*
X345157Y144007D01*
X345186Y143999D01*
X345216Y143988D01*
X345244Y143976D01*
X345272Y143963D01*
X345299Y143948D01*
X345326Y143932D01*
X345351Y143915D01*
X345376Y143896D01*
X345399Y143876D01*
X345422Y143855D01*
X345443Y143832D01*
X345463Y143809D01*
X345482Y143784D01*
X345499Y143759D01*
X345515Y143732D01*
X345530Y143705D01*
X345543Y143677D01*
X345555Y143649D01*
X345566Y143620D01*
X345574Y143590D01*
X345582Y143560D01*
X345587Y143529D01*
X345591Y143499D01*
X345594Y143468D01*
X345595Y143437D01*
X345594Y143406D01*
X345591Y143375D01*
X345587Y143345D01*
X345582Y143314D01*
X345574Y143284D01*
X345566Y143254D01*
X345555Y143225D01*
X345543Y143197D01*
X345530Y143169D01*
X345515Y143142D01*
X345499Y143115D01*
X345482Y143090D01*
X345463Y143065D01*
X345443Y143042D01*
X345422Y143019D01*
X345399Y142998D01*
X345376Y142978D01*
X345351Y142959D01*
X345326Y142942D01*
X345299Y142926D01*
X345272Y142911D01*
X345244Y142897D01*
X345216Y142886D01*
X345186Y142875D01*
X345157Y142867D01*
X345127Y142859D01*
X345096Y142854D01*
X345066Y142850D01*
X345035Y142847D01*
X345004Y142847D01*
X341854D01*
Y143437D01*
Y144028D01*
X345004D01*
X345035Y144027D01*
D02*
G37*
G36*
X356520Y132807D02*
X355142D01*
Y135465D01*
X347858D01*
Y132807D01*
X346480D01*
Y146193D01*
X347858D01*
Y143535D01*
X355142D01*
Y146193D01*
X356520D01*
Y132807D01*
D02*
G37*
G36*
X361146Y143437D02*
Y142847D01*
X357996D01*
X357965Y142847D01*
X357934Y142850D01*
X357904Y142854D01*
X357873Y142859D01*
X357843Y142867D01*
X357814Y142875D01*
X357784Y142886D01*
X357756Y142897D01*
X357728Y142911D01*
X357701Y142926D01*
X357674Y142942D01*
X357649Y142959D01*
X357624Y142978D01*
X357601Y142998D01*
X357578Y143019D01*
X357557Y143042D01*
X357537Y143065D01*
X357518Y143090D01*
X357501Y143115D01*
X357485Y143142D01*
X357470Y143169D01*
X357457Y143197D01*
X357445Y143225D01*
X357434Y143254D01*
X357426Y143284D01*
X357418Y143314D01*
X357413Y143345D01*
X357409Y143375D01*
X357406Y143406D01*
X357405Y143437D01*
X357406Y143468D01*
X357409Y143499D01*
X357413Y143529D01*
X357418Y143560D01*
X357426Y143590D01*
X357434Y143620D01*
X357445Y143649D01*
X357457Y143677D01*
X357470Y143705D01*
X357485Y143732D01*
X357501Y143759D01*
X357518Y143784D01*
X357537Y143809D01*
X357557Y143832D01*
X357578Y143855D01*
X357601Y143876D01*
X357624Y143896D01*
X357649Y143915D01*
X357674Y143932D01*
X357701Y143948D01*
X357728Y143963D01*
X357756Y143976D01*
X357784Y143988D01*
X357814Y143999D01*
X357843Y144007D01*
X357873Y144015D01*
X357904Y144020D01*
X357934Y144024D01*
X357965Y144027D01*
X357996Y144028D01*
X361146D01*
Y143437D01*
D02*
G37*
G36*
Y141862D02*
Y141272D01*
X357996D01*
X357965Y141272D01*
X357934Y141275D01*
X357904Y141279D01*
X357873Y141285D01*
X357843Y141292D01*
X357814Y141301D01*
X357784Y141311D01*
X357756Y141323D01*
X357728Y141336D01*
X357701Y141351D01*
X357674Y141367D01*
X357649Y141384D01*
X357624Y141403D01*
X357601Y141423D01*
X357578Y141445D01*
X357557Y141467D01*
X357537Y141491D01*
X357518Y141515D01*
X357501Y141541D01*
X357485Y141567D01*
X357470Y141594D01*
X357457Y141622D01*
X357445Y141651D01*
X357434Y141680D01*
X357426Y141709D01*
X357418Y141739D01*
X357413Y141770D01*
X357409Y141800D01*
X357406Y141831D01*
X357405Y141862D01*
X357406Y141893D01*
X357409Y141924D01*
X357413Y141955D01*
X357418Y141985D01*
X357426Y142015D01*
X357434Y142045D01*
X357445Y142074D01*
X357457Y142102D01*
X357470Y142130D01*
X357485Y142157D01*
X357501Y142184D01*
X357518Y142209D01*
X357537Y142234D01*
X357557Y142257D01*
X357578Y142280D01*
X357601Y142301D01*
X357624Y142321D01*
X357649Y142340D01*
X357674Y142358D01*
X357701Y142374D01*
X357728Y142388D01*
X357756Y142402D01*
X357784Y142413D01*
X357814Y142424D01*
X357843Y142433D01*
X357873Y142440D01*
X357904Y142446D01*
X357934Y142449D01*
X357965Y142452D01*
X357996Y142453D01*
X361146D01*
Y141862D01*
D02*
G37*
G36*
Y140287D02*
Y139697D01*
X357996D01*
X357965Y139698D01*
X357934Y139700D01*
X357904Y139704D01*
X357873Y139710D01*
X357843Y139717D01*
X357814Y139726D01*
X357784Y139736D01*
X357756Y139748D01*
X357728Y139761D01*
X357701Y139776D01*
X357674Y139792D01*
X357649Y139810D01*
X357624Y139829D01*
X357601Y139848D01*
X357578Y139870D01*
X357557Y139892D01*
X357537Y139916D01*
X357518Y139940D01*
X357501Y139966D01*
X357485Y139992D01*
X357470Y140019D01*
X357457Y140047D01*
X357445Y140076D01*
X357434Y140105D01*
X357426Y140135D01*
X357418Y140165D01*
X357413Y140195D01*
X357409Y140226D01*
X357406Y140257D01*
X357405Y140287D01*
X357406Y140318D01*
X357409Y140349D01*
X357413Y140380D01*
X357418Y140410D01*
X357426Y140440D01*
X357434Y140470D01*
X357445Y140499D01*
X357457Y140528D01*
X357470Y140556D01*
X357485Y140583D01*
X357501Y140609D01*
X357518Y140635D01*
X357537Y140659D01*
X357557Y140683D01*
X357578Y140705D01*
X357601Y140726D01*
X357624Y140746D01*
X357649Y140765D01*
X357674Y140783D01*
X357701Y140799D01*
X357728Y140814D01*
X357756Y140827D01*
X357784Y140839D01*
X357814Y140849D01*
X357843Y140858D01*
X357873Y140865D01*
X357904Y140871D01*
X357934Y140875D01*
X357965Y140877D01*
X357996Y140878D01*
X361146D01*
Y140287D01*
D02*
G37*
G36*
Y138713D02*
Y138122D01*
X357996D01*
X357965Y138123D01*
X357934Y138125D01*
X357904Y138129D01*
X357873Y138135D01*
X357843Y138142D01*
X357814Y138151D01*
X357784Y138161D01*
X357756Y138173D01*
X357728Y138186D01*
X357701Y138201D01*
X357674Y138217D01*
X357649Y138235D01*
X357624Y138254D01*
X357601Y138274D01*
X357578Y138295D01*
X357557Y138317D01*
X357537Y138341D01*
X357518Y138365D01*
X357501Y138391D01*
X357485Y138417D01*
X357470Y138444D01*
X357457Y138472D01*
X357445Y138501D01*
X357434Y138530D01*
X357426Y138560D01*
X357418Y138590D01*
X357413Y138620D01*
X357409Y138651D01*
X357406Y138682D01*
X357405Y138713D01*
X357406Y138743D01*
X357409Y138774D01*
X357413Y138805D01*
X357418Y138835D01*
X357426Y138865D01*
X357434Y138895D01*
X357445Y138924D01*
X357457Y138953D01*
X357470Y138981D01*
X357485Y139008D01*
X357501Y139034D01*
X357518Y139060D01*
X357537Y139084D01*
X357557Y139108D01*
X357578Y139130D01*
X357601Y139152D01*
X357624Y139172D01*
X357649Y139190D01*
X357674Y139208D01*
X357701Y139224D01*
X357728Y139239D01*
X357756Y139252D01*
X357784Y139264D01*
X357814Y139274D01*
X357843Y139283D01*
X357873Y139290D01*
X357904Y139296D01*
X357934Y139300D01*
X357965Y139302D01*
X357996Y139303D01*
X361146D01*
Y138713D01*
D02*
G37*
G36*
Y137138D02*
Y136547D01*
X357996D01*
X357965Y136548D01*
X357934Y136550D01*
X357904Y136555D01*
X357873Y136560D01*
X357843Y136567D01*
X357814Y136576D01*
X357784Y136586D01*
X357756Y136598D01*
X357728Y136612D01*
X357701Y136626D01*
X357674Y136643D01*
X357649Y136660D01*
X357624Y136679D01*
X357601Y136699D01*
X357578Y136720D01*
X357557Y136743D01*
X357537Y136766D01*
X357518Y136791D01*
X357501Y136816D01*
X357485Y136843D01*
X357470Y136870D01*
X357457Y136898D01*
X357445Y136926D01*
X357434Y136955D01*
X357426Y136985D01*
X357418Y137015D01*
X357413Y137045D01*
X357409Y137076D01*
X357406Y137107D01*
X357405Y137138D01*
X357406Y137169D01*
X357409Y137199D01*
X357413Y137230D01*
X357418Y137261D01*
X357426Y137291D01*
X357434Y137320D01*
X357445Y137349D01*
X357457Y137378D01*
X357470Y137406D01*
X357485Y137433D01*
X357501Y137459D01*
X357518Y137485D01*
X357537Y137509D01*
X357557Y137533D01*
X357578Y137555D01*
X357601Y137577D01*
X357624Y137597D01*
X357649Y137616D01*
X357674Y137633D01*
X357701Y137649D01*
X357728Y137664D01*
X357756Y137677D01*
X357784Y137689D01*
X357814Y137699D01*
X357843Y137708D01*
X357873Y137715D01*
X357904Y137721D01*
X357934Y137725D01*
X357965Y137727D01*
X357996Y137728D01*
X361146D01*
Y137138D01*
D02*
G37*
G36*
Y135563D02*
Y134972D01*
X357996D01*
X357965Y134973D01*
X357934Y134976D01*
X357904Y134980D01*
X357873Y134985D01*
X357843Y134993D01*
X357814Y135001D01*
X357784Y135012D01*
X357756Y135023D01*
X357728Y135037D01*
X357701Y135052D01*
X357674Y135068D01*
X357649Y135085D01*
X357624Y135104D01*
X357601Y135124D01*
X357578Y135145D01*
X357557Y135168D01*
X357537Y135191D01*
X357518Y135216D01*
X357501Y135241D01*
X357485Y135268D01*
X357470Y135295D01*
X357457Y135323D01*
X357445Y135351D01*
X357434Y135380D01*
X357426Y135410D01*
X357418Y135440D01*
X357413Y135471D01*
X357409Y135501D01*
X357406Y135532D01*
X357405Y135563D01*
X357406Y135594D01*
X357409Y135625D01*
X357413Y135655D01*
X357418Y135686D01*
X357426Y135716D01*
X357434Y135746D01*
X357445Y135775D01*
X357457Y135803D01*
X357470Y135831D01*
X357485Y135858D01*
X357501Y135885D01*
X357518Y135910D01*
X357537Y135935D01*
X357557Y135958D01*
X357578Y135981D01*
X357601Y136002D01*
X357624Y136022D01*
X357649Y136041D01*
X357674Y136058D01*
X357701Y136074D01*
X357728Y136089D01*
X357756Y136102D01*
X357784Y136114D01*
X357814Y136125D01*
X357843Y136133D01*
X357873Y136141D01*
X357904Y136146D01*
X357934Y136150D01*
X357965Y136153D01*
X357996Y136153D01*
X361146D01*
Y135563D01*
D02*
G37*
D28*
X58303Y60000D02*
D03*
D29*
X85004Y69055D02*
D03*
Y60000D02*
D03*
Y50945D02*
D03*
D30*
X73425Y85236D02*
D03*
Y138386D02*
D03*
D32*
X224228Y312939D02*
D03*
X222949Y310723D02*
D03*
X221669Y308506D02*
D03*
X220390Y306290D02*
D03*
X219110Y304074D02*
D03*
X217830Y301858D02*
D03*
X216551Y299642D02*
D03*
X196772Y311061D02*
D03*
X198051Y313277D02*
D03*
X199331Y315493D02*
D03*
X200610Y317710D02*
D03*
X201890Y319926D02*
D03*
X203169Y322142D02*
D03*
X187170Y295142D02*
D03*
X185890Y292926D02*
D03*
X184610Y290710D02*
D03*
X183331Y288493D02*
D03*
X182051Y286277D02*
D03*
X180772Y284061D02*
D03*
X200551Y272642D02*
D03*
X201831Y274858D02*
D03*
X203110Y277074D02*
D03*
X204390Y279290D02*
D03*
X205669Y281506D02*
D03*
X206949Y283723D02*
D03*
X208228Y285939D02*
D03*
D33*
X204449Y324358D02*
D03*
X188449Y297358D02*
D03*
D37*
X354050Y158500D02*
D03*
X334950D02*
D03*
D43*
X339543Y65000D02*
D03*
D44*
Y70000D02*
D03*
Y75000D02*
D03*
Y80000D02*
D03*
X319457D02*
D03*
Y75000D02*
D03*
Y70000D02*
D03*
Y65000D02*
D03*
D45*
X314559Y225500D02*
D03*
X312000D02*
D03*
X309441D02*
D03*
X314559Y218413D02*
D03*
X312000D02*
D03*
X309441D02*
D03*
D46*
X301913Y239059D02*
D03*
Y236500D02*
D03*
Y233941D02*
D03*
X309000Y239059D02*
D03*
Y236500D02*
D03*
Y233941D02*
D03*
X183000Y266559D02*
D03*
Y264000D02*
D03*
Y261441D02*
D03*
X190087Y266559D02*
D03*
Y264000D02*
D03*
Y261441D02*
D03*
D47*
X275500Y201043D02*
D03*
Y193957D02*
D03*
X284500Y201043D02*
D03*
Y193957D02*
D03*
X293500Y201043D02*
D03*
Y193957D02*
D03*
X125098Y67520D02*
D03*
Y60433D02*
D03*
X319500Y53043D02*
D03*
Y45957D02*
D03*
X338299Y45902D02*
D03*
Y52988D02*
D03*
X320000Y121043D02*
D03*
Y113957D02*
D03*
X346500D02*
D03*
Y121043D02*
D03*
D48*
X355457Y127000D02*
D03*
X362543D02*
D03*
D49*
X97000Y61047D02*
D03*
Y66953D02*
D03*
X44500Y107953D02*
D03*
Y102047D02*
D03*
X52000Y80547D02*
D03*
Y86453D02*
D03*
X58500Y80547D02*
D03*
Y86453D02*
D03*
X45500Y80547D02*
D03*
Y86453D02*
D03*
D50*
X106595Y67716D02*
D03*
Y60039D02*
D03*
X115847Y67815D02*
D03*
Y60138D02*
D03*
X37000Y108339D02*
D03*
Y100661D02*
D03*
X56000Y101161D02*
D03*
Y108839D02*
D03*
X191000Y339339D02*
D03*
Y331661D02*
D03*
X175500Y253161D02*
D03*
Y260839D02*
D03*
X172500Y305839D02*
D03*
Y298161D02*
D03*
X310500Y53339D02*
D03*
Y45661D02*
D03*
X328799Y45606D02*
D03*
Y53284D02*
D03*
X197500Y245839D02*
D03*
Y238161D02*
D03*
X209500Y245839D02*
D03*
Y238161D02*
D03*
X221000Y245839D02*
D03*
Y238161D02*
D03*
X310000Y121339D02*
D03*
Y113661D02*
D03*
X321500Y155661D02*
D03*
Y163339D02*
D03*
X329000Y121339D02*
D03*
Y113661D02*
D03*
X338000Y121339D02*
D03*
Y113661D02*
D03*
D51*
X53581Y117176D02*
D03*
X57419Y123824D02*
D03*
D52*
X180161Y318500D02*
D03*
X187839D02*
D03*
X162661Y288000D02*
D03*
X170339D02*
D03*
X300661Y159000D02*
D03*
X308339D02*
D03*
X300661Y151000D02*
D03*
X308339D02*
D03*
X300661Y143000D02*
D03*
X308339D02*
D03*
D53*
X83268Y134449D02*
D03*
Y132480D02*
D03*
Y130512D02*
D03*
Y128543D02*
D03*
Y126575D02*
D03*
Y124606D02*
D03*
Y122638D02*
D03*
Y120669D02*
D03*
Y118701D02*
D03*
Y116732D02*
D03*
Y114764D02*
D03*
Y112795D02*
D03*
Y110827D02*
D03*
Y108858D02*
D03*
Y106890D02*
D03*
Y104921D02*
D03*
Y102953D02*
D03*
Y100984D02*
D03*
Y99016D02*
D03*
Y97047D02*
D03*
Y95079D02*
D03*
Y93110D02*
D03*
Y91142D02*
D03*
Y89173D02*
D03*
D54*
X110555Y243184D02*
D03*
D55*
X227756Y286614D02*
D03*
Y292126D02*
D03*
X215551D02*
D03*
Y286614D02*
D03*
D56*
X233445Y244000D02*
D03*
Y240063D02*
D03*
X292500Y259748D02*
D03*
Y255811D02*
D03*
Y251874D02*
D03*
Y247937D02*
D03*
Y244000D02*
D03*
Y240063D02*
D03*
Y236126D02*
D03*
Y232189D02*
D03*
X233445D02*
D03*
Y236126D02*
D03*
D57*
X268878Y216441D02*
D03*
X272815D02*
D03*
X276752D02*
D03*
X280689D02*
D03*
X284626D02*
D03*
X249193D02*
D03*
X245256D02*
D03*
X241319D02*
D03*
Y275496D02*
D03*
X245256D02*
D03*
X249193D02*
D03*
X253130D02*
D03*
X257067D02*
D03*
X261004D02*
D03*
X264941D02*
D03*
X268878D02*
D03*
X272815D02*
D03*
X276752D02*
D03*
X280689D02*
D03*
X284626D02*
D03*
D58*
X324453Y142150D02*
D03*
X322484D02*
D03*
X320516D02*
D03*
X318547D02*
D03*
Y130850D02*
D03*
X320516D02*
D03*
X322484D02*
D03*
X324453D02*
D03*
D59*
X327150Y133547D02*
D03*
Y135516D02*
D03*
Y137484D02*
D03*
Y139453D02*
D03*
X315850D02*
D03*
Y137484D02*
D03*
Y135516D02*
D03*
Y133547D02*
D03*
D60*
X321500Y136500D02*
D03*
D61*
X301008Y128760D02*
D03*
Y132500D02*
D03*
Y136240D02*
D03*
X291992D02*
D03*
Y128760D02*
D03*
D62*
X368299Y56173D02*
D03*
Y77827D02*
D03*
X355701D02*
D03*
Y56173D02*
D03*
D63*
X206500Y190000D02*
D03*
X201500D02*
D03*
X196500D02*
D03*
X191500D02*
D03*
Y195000D02*
D03*
X196500D02*
D03*
X201500D02*
D03*
X206500D02*
D03*
X186500D02*
D03*
Y190000D02*
D03*
D64*
X291500Y115000D02*
D03*
X104500Y145000D02*
D03*
D65*
X301500Y115000D02*
D03*
X293000Y93500D02*
D03*
X103500Y48000D02*
D03*
X94500Y145000D02*
D03*
X127000Y269000D02*
D03*
X122000Y260340D02*
D03*
X197500Y217000D02*
D03*
X209000D02*
D03*
X220500D02*
D03*
X162500Y263071D02*
D03*
X280500Y332830D02*
D03*
X270000Y326330D02*
D03*
X296500Y305670D02*
D03*
X351000Y210670D02*
D03*
X341000Y205170D02*
D03*
X356500Y200830D02*
D03*
X92000Y48000D02*
D03*
D66*
X253421Y46567D02*
D03*
X284500Y46500D02*
D03*
D67*
X243579Y46567D02*
D03*
X274658Y46500D02*
D03*
X329671Y229705D02*
D03*
X382500Y139000D02*
D03*
X398500Y110000D02*
D03*
D68*
X293000Y103500D02*
D03*
X103500Y38000D02*
D03*
X197500Y227000D02*
D03*
X209000D02*
D03*
X220500D02*
D03*
X162500Y253071D02*
D03*
X92000Y38000D02*
D03*
D69*
X192972Y42500D02*
D03*
X141472D02*
D03*
D70*
X202815D02*
D03*
X212657D02*
D03*
X222500D02*
D03*
X151315D02*
D03*
X161158D02*
D03*
X171000D02*
D03*
X53500Y135500D02*
D03*
X48579Y126976D02*
D03*
X43657Y118452D02*
D03*
X79843Y181048D02*
D03*
X74921Y172524D02*
D03*
X70000Y164000D02*
D03*
X312842Y259952D02*
D03*
X307921Y268476D02*
D03*
X303000Y277000D02*
D03*
D71*
X58421Y144024D02*
D03*
X84764Y189572D02*
D03*
D72*
X132000Y277660D02*
D03*
D73*
X179842Y340048D02*
D03*
X170000Y323000D02*
D03*
X160158Y305952D02*
D03*
D74*
X150315Y288905D02*
D03*
D75*
X240000Y354500D02*
D03*
Y334500D02*
D03*
X260000D02*
D03*
Y354500D02*
D03*
D76*
X250000Y344500D02*
D03*
D77*
X285500Y324170D02*
D03*
X275000Y317670D02*
D03*
X291500Y314330D02*
D03*
X346000Y219330D02*
D03*
X336000Y213830D02*
D03*
X361500Y192170D02*
D03*
D78*
X298079Y285524D02*
D03*
D79*
X324749Y238229D02*
D03*
X377579Y147524D02*
D03*
X393579Y118524D02*
D03*
D80*
X301610Y69000D02*
D03*
Y81205D02*
D03*
X383500D02*
D03*
Y69000D02*
D03*
D81*
X103375Y226417D02*
D03*
X99625Y228583D02*
D03*
D82*
X347957Y141469D02*
D03*
Y137531D02*
D03*
X351500Y141469D02*
D03*
Y137531D02*
D03*
X355043Y141469D02*
D03*
Y137531D02*
D03*
D83*
X115500Y38500D02*
D03*
D84*
X125500D02*
D03*
X115500Y48500D02*
D03*
X125500D02*
D03*
D85*
X221000Y343000D02*
D03*
X70500Y31000D02*
D03*
X370500D02*
D03*
M02*
