G04*
G04 #@! TF.GenerationSoftware,Altium Limited,Altium Designer,22.1.2 (22)*
G04*
G04 Layer_Color=8421504*
%FSLAX25Y25*%
%MOIN*%
G70*
G04*
G04 #@! TF.SameCoordinates,8C121C91-0C0E-4A63-ABDB-05F36A63E408*
G04*
G04*
G04 #@! TF.FilePolarity,Positive*
G04*
G01*
G75*
%ADD18R,0.02559X0.00984*%
%ADD19R,0.02559X0.00984*%
%ADD20R,0.01575X0.03937*%
%ADD21R,0.03937X0.01575*%
%ADD22R,0.05709X0.04528*%
%ADD23R,0.04528X0.05709*%
%ADD24R,0.03937X0.02953*%
%ADD25R,0.05709X0.03740*%
G04:AMPARAMS|DCode=26|XSize=37.4mil|YSize=57.09mil|CornerRadius=0mil|HoleSize=0mil|Usage=FLASHONLY|Rotation=60.000|XOffset=0mil|YOffset=0mil|HoleType=Round|Shape=Rectangle|*
%AMROTATEDRECTD26*
4,1,4,0.01537,-0.03047,-0.03407,-0.00192,-0.01537,0.03047,0.03407,0.00192,0.01537,-0.03047,0.0*
%
%ADD26ROTATEDRECTD26*%

%ADD27R,0.03740X0.05709*%
%ADD28R,0.04800X0.12400*%
%ADD29R,0.04800X0.03400*%
%ADD30R,0.03150X0.01575*%
G04:AMPARAMS|DCode=31|XSize=82.68mil|YSize=244.1mil|CornerRadius=0mil|HoleSize=0mil|Usage=FLASHONLY|Rotation=330.000|XOffset=0mil|YOffset=0mil|HoleType=Round|Shape=Rectangle|*
%AMROTATEDRECTD31*
4,1,4,-0.09682,-0.08503,0.02522,0.12637,0.09682,0.08503,-0.02522,-0.12637,-0.09682,-0.08503,0.0*
%
%ADD31ROTATEDRECTD31*%

G04:AMPARAMS|DCode=32|XSize=73.12mil|YSize=16.57mil|CornerRadius=8.28mil|HoleSize=0mil|Usage=FLASHONLY|Rotation=330.000|XOffset=0mil|YOffset=0mil|HoleType=Round|Shape=RoundedRectangle|*
%AMROUNDEDRECTD32*
21,1,0.07312,0.00000,0,0,330.0*
21,1,0.05655,0.01657,0,0,330.0*
1,1,0.01657,0.02449,-0.01414*
1,1,0.01657,-0.02449,0.01414*
1,1,0.01657,-0.02449,0.01414*
1,1,0.01657,0.02449,-0.01414*
%
%ADD32ROUNDEDRECTD32*%
G04:AMPARAMS|DCode=33|XSize=73.12mil|YSize=16.57mil|CornerRadius=0mil|HoleSize=0mil|Usage=FLASHONLY|Rotation=330.000|XOffset=0mil|YOffset=0mil|HoleType=Round|Shape=Rectangle|*
%AMROTATEDRECTD33*
4,1,4,-0.03580,0.01111,-0.02752,0.02545,0.03580,-0.01111,0.02752,-0.02545,-0.03580,0.01111,0.0*
%
%ADD33ROTATEDRECTD33*%

%ADD34R,0.05906X0.03543*%
%ADD35R,0.07874X0.02756*%
%ADD36R,0.02756X0.07874*%
%ADD37R,0.10846X0.13804*%
%ADD38R,0.01575X0.00787*%
G04:AMPARAMS|DCode=39|XSize=33.86mil|YSize=10.24mil|CornerRadius=1.28mil|HoleSize=0mil|Usage=FLASHONLY|Rotation=270.000|XOffset=0mil|YOffset=0mil|HoleType=Round|Shape=RoundedRectangle|*
%AMROUNDEDRECTD39*
21,1,0.03386,0.00768,0,0,270.0*
21,1,0.03130,0.01024,0,0,270.0*
1,1,0.00256,-0.00384,-0.01565*
1,1,0.00256,-0.00384,0.01565*
1,1,0.00256,0.00384,0.01565*
1,1,0.00256,0.00384,-0.01565*
%
%ADD39ROUNDEDRECTD39*%
G04:AMPARAMS|DCode=40|XSize=33.86mil|YSize=10.24mil|CornerRadius=1.28mil|HoleSize=0mil|Usage=FLASHONLY|Rotation=180.000|XOffset=0mil|YOffset=0mil|HoleType=Round|Shape=RoundedRectangle|*
%AMROUNDEDRECTD40*
21,1,0.03386,0.00768,0,0,180.0*
21,1,0.03130,0.01024,0,0,180.0*
1,1,0.00256,-0.01565,0.00384*
1,1,0.00256,0.01565,0.00384*
1,1,0.00256,0.01565,-0.00384*
1,1,0.00256,-0.01565,-0.00384*
%
%ADD40ROUNDEDRECTD40*%
%ADD41R,0.05591X0.02284*%
%ADD42R,0.07480X0.05118*%
%ADD43R,0.08679X0.02394*%
G04:AMPARAMS|DCode=44|XSize=86.79mil|YSize=23.94mil|CornerRadius=11.97mil|HoleSize=0mil|Usage=FLASHONLY|Rotation=180.000|XOffset=0mil|YOffset=0mil|HoleType=Round|Shape=RoundedRectangle|*
%AMROUNDEDRECTD44*
21,1,0.08679,0.00000,0,0,180.0*
21,1,0.06285,0.02394,0,0,180.0*
1,1,0.02394,-0.03143,0.00000*
1,1,0.02394,0.03143,0.00000*
1,1,0.02394,0.03143,0.00000*
1,1,0.02394,-0.03143,0.00000*
%
%ADD44ROUNDEDRECTD44*%
G36*
X356323Y143831D02*
X355339D01*
Y145898D01*
X356323D01*
Y143831D01*
D02*
G37*
G36*
X347661D02*
X346677D01*
Y145898D01*
X347661D01*
Y143831D01*
D02*
G37*
G36*
X360850Y143437D02*
Y143043D01*
X358095D01*
X358074Y143044D01*
X358053Y143045D01*
X358033Y143048D01*
X358013Y143052D01*
X357993Y143057D01*
X357973Y143063D01*
X357953Y143070D01*
X357934Y143077D01*
X357916Y143086D01*
X357898Y143096D01*
X357880Y143107D01*
X357863Y143119D01*
X357847Y143131D01*
X357831Y143144D01*
X357816Y143159D01*
X357802Y143174D01*
X357788Y143189D01*
X357776Y143206D01*
X357764Y143223D01*
X357753Y143240D01*
X357744Y143258D01*
X357735Y143277D01*
X357727Y143296D01*
X357720Y143315D01*
X357714Y143335D01*
X357709Y143355D01*
X357706Y143375D01*
X357703Y143396D01*
X357701Y143416D01*
X357701Y143437D01*
X357701Y143458D01*
X357703Y143478D01*
X357706Y143499D01*
X357709Y143519D01*
X357714Y143539D01*
X357720Y143559D01*
X357727Y143578D01*
X357735Y143597D01*
X357744Y143616D01*
X357753Y143634D01*
X357764Y143651D01*
X357776Y143668D01*
X357788Y143685D01*
X357802Y143701D01*
X357816Y143715D01*
X357831Y143730D01*
X357847Y143743D01*
X357863Y143755D01*
X357880Y143767D01*
X357898Y143778D01*
X357916Y143788D01*
X357934Y143797D01*
X357953Y143805D01*
X357973Y143811D01*
X357993Y143817D01*
X358013Y143822D01*
X358033Y143826D01*
X358053Y143828D01*
X358074Y143830D01*
X358095Y143831D01*
X360850D01*
Y143437D01*
D02*
G37*
G36*
X344926Y143830D02*
X344947Y143828D01*
X344967Y143826D01*
X344987Y143822D01*
X345007Y143817D01*
X345027Y143811D01*
X345047Y143805D01*
X345066Y143797D01*
X345084Y143788D01*
X345102Y143778D01*
X345120Y143767D01*
X345137Y143755D01*
X345153Y143743D01*
X345169Y143730D01*
X345184Y143715D01*
X345198Y143701D01*
X345212Y143685D01*
X345224Y143668D01*
X345236Y143651D01*
X345247Y143634D01*
X345256Y143616D01*
X345265Y143597D01*
X345273Y143578D01*
X345280Y143559D01*
X345286Y143539D01*
X345291Y143519D01*
X345294Y143499D01*
X345297Y143478D01*
X345299Y143458D01*
X345299Y143437D01*
X345299Y143416D01*
X345297Y143396D01*
X345294Y143375D01*
X345291Y143355D01*
X345286Y143335D01*
X345280Y143315D01*
X345273Y143296D01*
X345265Y143277D01*
X345256Y143258D01*
X345247Y143240D01*
X345236Y143223D01*
X345224Y143206D01*
X345212Y143189D01*
X345198Y143174D01*
X345184Y143159D01*
X345169Y143144D01*
X345153Y143131D01*
X345137Y143119D01*
X345120Y143107D01*
X345102Y143096D01*
X345084Y143086D01*
X345066Y143077D01*
X345047Y143070D01*
X345027Y143063D01*
X345007Y143057D01*
X344987Y143052D01*
X344967Y143048D01*
X344947Y143045D01*
X344926Y143044D01*
X344905Y143043D01*
X342150D01*
Y143437D01*
Y143831D01*
X344905D01*
X344926Y143830D01*
D02*
G37*
G36*
X360850Y141862D02*
Y141469D01*
X358095D01*
X358074Y141469D01*
X358053Y141471D01*
X358033Y141473D01*
X358013Y141477D01*
X357993Y141482D01*
X357973Y141488D01*
X357953Y141495D01*
X357934Y141502D01*
X357916Y141511D01*
X357898Y141521D01*
X357880Y141532D01*
X357863Y141544D01*
X357847Y141556D01*
X357831Y141570D01*
X357816Y141584D01*
X357802Y141599D01*
X357788Y141614D01*
X357776Y141631D01*
X357764Y141648D01*
X357753Y141665D01*
X357744Y141683D01*
X357735Y141702D01*
X357727Y141721D01*
X357720Y141741D01*
X357714Y141760D01*
X357709Y141780D01*
X357706Y141801D01*
X357703Y141821D01*
X357701Y141842D01*
X357701Y141862D01*
X357701Y141883D01*
X357703Y141903D01*
X357706Y141924D01*
X357709Y141944D01*
X357714Y141964D01*
X357720Y141984D01*
X357727Y142003D01*
X357735Y142022D01*
X357744Y142041D01*
X357753Y142059D01*
X357764Y142077D01*
X357776Y142094D01*
X357788Y142110D01*
X357802Y142126D01*
X357816Y142141D01*
X357831Y142155D01*
X357847Y142168D01*
X357863Y142181D01*
X357880Y142192D01*
X357898Y142203D01*
X357916Y142213D01*
X357934Y142222D01*
X357953Y142230D01*
X357973Y142237D01*
X357993Y142243D01*
X358013Y142247D01*
X358033Y142251D01*
X358053Y142254D01*
X358074Y142255D01*
X358095Y142256D01*
X360850D01*
Y141862D01*
D02*
G37*
G36*
X344926Y142255D02*
X344947Y142254D01*
X344967Y142251D01*
X344987Y142247D01*
X345007Y142243D01*
X345027Y142237D01*
X345047Y142230D01*
X345066Y142222D01*
X345084Y142213D01*
X345102Y142203D01*
X345120Y142192D01*
X345137Y142181D01*
X345153Y142168D01*
X345169Y142155D01*
X345184Y142141D01*
X345198Y142126D01*
X345212Y142110D01*
X345224Y142094D01*
X345236Y142077D01*
X345247Y142059D01*
X345256Y142041D01*
X345265Y142022D01*
X345273Y142003D01*
X345280Y141984D01*
X345286Y141964D01*
X345291Y141944D01*
X345294Y141924D01*
X345297Y141903D01*
X345299Y141883D01*
X345299Y141862D01*
X345299Y141842D01*
X345297Y141821D01*
X345294Y141801D01*
X345291Y141780D01*
X345286Y141760D01*
X345280Y141741D01*
X345273Y141721D01*
X345265Y141702D01*
X345256Y141683D01*
X345247Y141665D01*
X345236Y141648D01*
X345224Y141631D01*
X345212Y141614D01*
X345198Y141599D01*
X345184Y141584D01*
X345169Y141570D01*
X345153Y141556D01*
X345137Y141544D01*
X345120Y141532D01*
X345102Y141521D01*
X345084Y141511D01*
X345066Y141502D01*
X345047Y141495D01*
X345027Y141488D01*
X345007Y141482D01*
X344987Y141477D01*
X344967Y141473D01*
X344947Y141471D01*
X344926Y141469D01*
X344905Y141469D01*
X342150D01*
Y141862D01*
Y142256D01*
X344905D01*
X344926Y142255D01*
D02*
G37*
G36*
X360850Y140287D02*
Y139894D01*
X358095D01*
X358074Y139894D01*
X358053Y139896D01*
X358033Y139899D01*
X358013Y139902D01*
X357993Y139907D01*
X357973Y139913D01*
X357953Y139920D01*
X357934Y139928D01*
X357916Y139937D01*
X357898Y139946D01*
X357880Y139957D01*
X357863Y139969D01*
X357847Y139981D01*
X357831Y139995D01*
X357816Y140009D01*
X357802Y140024D01*
X357788Y140040D01*
X357776Y140056D01*
X357764Y140073D01*
X357753Y140091D01*
X357744Y140109D01*
X357735Y140127D01*
X357727Y140146D01*
X357720Y140166D01*
X357714Y140185D01*
X357709Y140206D01*
X357706Y140226D01*
X357703Y140246D01*
X357701Y140267D01*
X357701Y140287D01*
X357701Y140308D01*
X357703Y140329D01*
X357706Y140349D01*
X357709Y140369D01*
X357714Y140389D01*
X357720Y140409D01*
X357727Y140428D01*
X357735Y140447D01*
X357744Y140466D01*
X357753Y140484D01*
X357764Y140502D01*
X357776Y140519D01*
X357788Y140535D01*
X357802Y140551D01*
X357816Y140566D01*
X357831Y140580D01*
X357847Y140593D01*
X357863Y140606D01*
X357880Y140618D01*
X357898Y140628D01*
X357916Y140638D01*
X357934Y140647D01*
X357953Y140655D01*
X357973Y140662D01*
X357993Y140668D01*
X358013Y140673D01*
X358033Y140676D01*
X358053Y140679D01*
X358074Y140681D01*
X358095Y140681D01*
X360850D01*
Y140287D01*
D02*
G37*
G36*
X355831Y139894D02*
X351894D01*
Y143043D01*
X355831D01*
Y139894D01*
D02*
G37*
G36*
X351106D02*
X347169D01*
Y143043D01*
X351106D01*
Y139894D01*
D02*
G37*
G36*
X344926Y140681D02*
X344947Y140679D01*
X344967Y140676D01*
X344987Y140673D01*
X345007Y140668D01*
X345027Y140662D01*
X345047Y140655D01*
X345066Y140647D01*
X345084Y140638D01*
X345102Y140628D01*
X345120Y140618D01*
X345137Y140606D01*
X345153Y140593D01*
X345169Y140580D01*
X345184Y140566D01*
X345198Y140551D01*
X345212Y140535D01*
X345224Y140519D01*
X345236Y140502D01*
X345247Y140484D01*
X345256Y140466D01*
X345265Y140447D01*
X345273Y140428D01*
X345280Y140409D01*
X345286Y140389D01*
X345291Y140369D01*
X345294Y140349D01*
X345297Y140329D01*
X345299Y140308D01*
X345299Y140287D01*
X345299Y140267D01*
X345297Y140246D01*
X345294Y140226D01*
X345291Y140206D01*
X345286Y140185D01*
X345280Y140166D01*
X345273Y140146D01*
X345265Y140127D01*
X345256Y140109D01*
X345247Y140091D01*
X345236Y140073D01*
X345224Y140056D01*
X345212Y140040D01*
X345198Y140024D01*
X345184Y140009D01*
X345169Y139995D01*
X345153Y139981D01*
X345137Y139969D01*
X345120Y139957D01*
X345102Y139946D01*
X345084Y139937D01*
X345066Y139928D01*
X345047Y139920D01*
X345027Y139913D01*
X345007Y139907D01*
X344987Y139902D01*
X344967Y139899D01*
X344947Y139896D01*
X344926Y139894D01*
X344905Y139894D01*
X342150D01*
Y140287D01*
Y140681D01*
X344905D01*
X344926Y140681D01*
D02*
G37*
G36*
X360850Y138713D02*
Y138319D01*
X358095D01*
X358074Y138319D01*
X358053Y138321D01*
X358033Y138324D01*
X358013Y138328D01*
X357993Y138332D01*
X357973Y138338D01*
X357953Y138345D01*
X357934Y138353D01*
X357916Y138362D01*
X357898Y138372D01*
X357880Y138382D01*
X357863Y138394D01*
X357847Y138407D01*
X357831Y138420D01*
X357816Y138434D01*
X357802Y138449D01*
X357788Y138465D01*
X357776Y138481D01*
X357764Y138498D01*
X357753Y138516D01*
X357744Y138534D01*
X357735Y138552D01*
X357727Y138572D01*
X357720Y138591D01*
X357714Y138611D01*
X357709Y138631D01*
X357706Y138651D01*
X357703Y138672D01*
X357701Y138692D01*
X357701Y138713D01*
X357701Y138733D01*
X357703Y138754D01*
X357706Y138774D01*
X357709Y138795D01*
X357714Y138814D01*
X357720Y138834D01*
X357727Y138854D01*
X357735Y138873D01*
X357744Y138891D01*
X357753Y138909D01*
X357764Y138927D01*
X357776Y138944D01*
X357788Y138960D01*
X357802Y138976D01*
X357816Y138991D01*
X357831Y139005D01*
X357847Y139019D01*
X357863Y139031D01*
X357880Y139043D01*
X357898Y139053D01*
X357916Y139063D01*
X357934Y139072D01*
X357953Y139080D01*
X357973Y139087D01*
X357993Y139093D01*
X358013Y139098D01*
X358033Y139101D01*
X358053Y139104D01*
X358074Y139106D01*
X358095Y139106D01*
X360850D01*
Y138713D01*
D02*
G37*
G36*
X344926Y139106D02*
X344947Y139104D01*
X344967Y139101D01*
X344987Y139098D01*
X345007Y139093D01*
X345027Y139087D01*
X345047Y139080D01*
X345066Y139072D01*
X345084Y139063D01*
X345102Y139053D01*
X345120Y139043D01*
X345137Y139031D01*
X345153Y139019D01*
X345169Y139005D01*
X345184Y138991D01*
X345198Y138976D01*
X345212Y138960D01*
X345224Y138944D01*
X345236Y138927D01*
X345247Y138909D01*
X345256Y138891D01*
X345265Y138873D01*
X345273Y138854D01*
X345280Y138834D01*
X345286Y138814D01*
X345291Y138795D01*
X345294Y138774D01*
X345297Y138754D01*
X345299Y138733D01*
X345299Y138713D01*
X345299Y138692D01*
X345297Y138672D01*
X345294Y138651D01*
X345291Y138631D01*
X345286Y138611D01*
X345280Y138591D01*
X345273Y138572D01*
X345265Y138552D01*
X345256Y138534D01*
X345247Y138516D01*
X345236Y138498D01*
X345224Y138481D01*
X345212Y138465D01*
X345198Y138449D01*
X345184Y138434D01*
X345169Y138420D01*
X345153Y138407D01*
X345137Y138394D01*
X345120Y138382D01*
X345102Y138372D01*
X345084Y138362D01*
X345066Y138353D01*
X345047Y138345D01*
X345027Y138338D01*
X345007Y138332D01*
X344987Y138328D01*
X344967Y138324D01*
X344947Y138321D01*
X344926Y138319D01*
X344905Y138319D01*
X342150D01*
Y138713D01*
Y139106D01*
X344905D01*
X344926Y139106D01*
D02*
G37*
G36*
X360850Y137138D02*
Y136744D01*
X358095D01*
X358074Y136745D01*
X358053Y136746D01*
X358033Y136749D01*
X358013Y136753D01*
X357993Y136758D01*
X357973Y136763D01*
X357953Y136770D01*
X357934Y136778D01*
X357916Y136787D01*
X357898Y136797D01*
X357880Y136808D01*
X357863Y136819D01*
X357847Y136832D01*
X357831Y136845D01*
X357816Y136859D01*
X357802Y136874D01*
X357788Y136890D01*
X357776Y136906D01*
X357764Y136923D01*
X357753Y136941D01*
X357744Y136959D01*
X357735Y136978D01*
X357727Y136997D01*
X357720Y137016D01*
X357714Y137036D01*
X357709Y137056D01*
X357706Y137076D01*
X357703Y137097D01*
X357701Y137117D01*
X357701Y137138D01*
X357701Y137158D01*
X357703Y137179D01*
X357706Y137199D01*
X357709Y137220D01*
X357714Y137240D01*
X357720Y137259D01*
X357727Y137279D01*
X357735Y137298D01*
X357744Y137317D01*
X357753Y137335D01*
X357764Y137352D01*
X357776Y137369D01*
X357788Y137386D01*
X357802Y137401D01*
X357816Y137416D01*
X357831Y137430D01*
X357847Y137444D01*
X357863Y137456D01*
X357880Y137468D01*
X357898Y137479D01*
X357916Y137489D01*
X357934Y137497D01*
X357953Y137505D01*
X357973Y137512D01*
X357993Y137518D01*
X358013Y137523D01*
X358033Y137527D01*
X358053Y137529D01*
X358074Y137531D01*
X358095Y137531D01*
X360850D01*
Y137138D01*
D02*
G37*
G36*
X344926Y137531D02*
X344947Y137529D01*
X344967Y137527D01*
X344987Y137523D01*
X345007Y137518D01*
X345027Y137512D01*
X345047Y137505D01*
X345066Y137497D01*
X345084Y137489D01*
X345102Y137479D01*
X345120Y137468D01*
X345137Y137456D01*
X345153Y137444D01*
X345169Y137430D01*
X345184Y137416D01*
X345198Y137401D01*
X345212Y137386D01*
X345224Y137369D01*
X345236Y137352D01*
X345247Y137335D01*
X345256Y137317D01*
X345265Y137298D01*
X345273Y137279D01*
X345280Y137259D01*
X345286Y137240D01*
X345291Y137220D01*
X345294Y137199D01*
X345297Y137179D01*
X345299Y137158D01*
X345299Y137138D01*
X345299Y137117D01*
X345297Y137097D01*
X345294Y137076D01*
X345291Y137056D01*
X345286Y137036D01*
X345280Y137016D01*
X345273Y136997D01*
X345265Y136978D01*
X345256Y136959D01*
X345247Y136941D01*
X345236Y136923D01*
X345224Y136906D01*
X345212Y136890D01*
X345198Y136874D01*
X345184Y136859D01*
X345169Y136845D01*
X345153Y136832D01*
X345137Y136819D01*
X345120Y136808D01*
X345102Y136797D01*
X345084Y136787D01*
X345066Y136778D01*
X345047Y136770D01*
X345027Y136763D01*
X345007Y136758D01*
X344987Y136753D01*
X344967Y136749D01*
X344947Y136746D01*
X344926Y136745D01*
X344905Y136744D01*
X342150D01*
Y137138D01*
Y137531D01*
X344905D01*
X344926Y137531D01*
D02*
G37*
G36*
X355831Y135957D02*
X351894D01*
Y139106D01*
X355831D01*
Y135957D01*
D02*
G37*
G36*
X351106D02*
X347169D01*
Y139106D01*
X351106D01*
Y135957D01*
D02*
G37*
G36*
X360850Y135563D02*
Y135169D01*
X358095D01*
X358074Y135170D01*
X358053Y135171D01*
X358033Y135174D01*
X358013Y135178D01*
X357993Y135183D01*
X357973Y135189D01*
X357953Y135195D01*
X357934Y135203D01*
X357916Y135212D01*
X357898Y135222D01*
X357880Y135233D01*
X357863Y135245D01*
X357847Y135257D01*
X357831Y135270D01*
X357816Y135285D01*
X357802Y135300D01*
X357788Y135315D01*
X357776Y135332D01*
X357764Y135349D01*
X357753Y135366D01*
X357744Y135384D01*
X357735Y135403D01*
X357727Y135422D01*
X357720Y135441D01*
X357714Y135461D01*
X357709Y135481D01*
X357706Y135501D01*
X357703Y135522D01*
X357701Y135542D01*
X357701Y135563D01*
X357701Y135584D01*
X357703Y135604D01*
X357706Y135625D01*
X357709Y135645D01*
X357714Y135665D01*
X357720Y135685D01*
X357727Y135704D01*
X357735Y135723D01*
X357744Y135742D01*
X357753Y135760D01*
X357764Y135777D01*
X357776Y135794D01*
X357788Y135811D01*
X357802Y135826D01*
X357816Y135841D01*
X357831Y135856D01*
X357847Y135869D01*
X357863Y135881D01*
X357880Y135893D01*
X357898Y135904D01*
X357916Y135914D01*
X357934Y135923D01*
X357953Y135931D01*
X357973Y135937D01*
X357993Y135943D01*
X358013Y135948D01*
X358033Y135952D01*
X358053Y135954D01*
X358074Y135956D01*
X358095Y135957D01*
X360850D01*
Y135563D01*
D02*
G37*
G36*
X344926Y135956D02*
X344947Y135954D01*
X344967Y135952D01*
X344987Y135948D01*
X345007Y135943D01*
X345027Y135937D01*
X345047Y135931D01*
X345066Y135923D01*
X345084Y135914D01*
X345102Y135904D01*
X345120Y135893D01*
X345137Y135881D01*
X345153Y135869D01*
X345169Y135856D01*
X345184Y135841D01*
X345198Y135826D01*
X345212Y135811D01*
X345224Y135794D01*
X345236Y135777D01*
X345247Y135760D01*
X345256Y135742D01*
X345265Y135723D01*
X345273Y135704D01*
X345280Y135685D01*
X345286Y135665D01*
X345291Y135645D01*
X345294Y135625D01*
X345297Y135604D01*
X345299Y135584D01*
X345299Y135563D01*
X345299Y135542D01*
X345297Y135522D01*
X345294Y135501D01*
X345291Y135481D01*
X345286Y135461D01*
X345280Y135441D01*
X345273Y135422D01*
X345265Y135403D01*
X345256Y135384D01*
X345247Y135366D01*
X345236Y135349D01*
X345224Y135332D01*
X345212Y135315D01*
X345198Y135300D01*
X345184Y135285D01*
X345169Y135270D01*
X345153Y135257D01*
X345137Y135245D01*
X345120Y135233D01*
X345102Y135222D01*
X345084Y135212D01*
X345066Y135203D01*
X345047Y135195D01*
X345027Y135189D01*
X345007Y135183D01*
X344987Y135178D01*
X344967Y135174D01*
X344947Y135171D01*
X344926Y135170D01*
X344905Y135169D01*
X342150D01*
Y135563D01*
Y135957D01*
X344905D01*
X344926Y135956D01*
D02*
G37*
G36*
X323587Y134413D02*
X319413D01*
Y138587D01*
X323587D01*
Y134413D01*
D02*
G37*
G36*
X356323Y133102D02*
X355339D01*
Y135169D01*
X356323D01*
Y133102D01*
D02*
G37*
G36*
X347661D02*
X346677D01*
Y135169D01*
X347661D01*
Y133102D01*
D02*
G37*
D18*
X83563Y89173D02*
D03*
Y91142D02*
D03*
X83563Y97047D02*
D03*
X83563Y99016D02*
D03*
Y100984D02*
D03*
X83563Y106890D02*
D03*
X83563Y108858D02*
D03*
Y110827D02*
D03*
X83563Y116732D02*
D03*
X83563Y118701D02*
D03*
Y120669D02*
D03*
X83563Y126575D02*
D03*
X83563Y128543D02*
D03*
Y130512D02*
D03*
D19*
Y93110D02*
D03*
Y95079D02*
D03*
Y102953D02*
D03*
Y104921D02*
D03*
Y112795D02*
D03*
Y114764D02*
D03*
Y122638D02*
D03*
Y124606D02*
D03*
Y132480D02*
D03*
Y134449D02*
D03*
D20*
X314559Y225500D02*
D03*
X312000D02*
D03*
X309441D02*
D03*
X314559Y218413D02*
D03*
X312000D02*
D03*
X309441D02*
D03*
D21*
X301913Y239059D02*
D03*
Y236500D02*
D03*
Y233941D02*
D03*
X309000Y239059D02*
D03*
Y236500D02*
D03*
Y233941D02*
D03*
X183000Y266559D02*
D03*
Y264000D02*
D03*
Y261441D02*
D03*
X190087Y266559D02*
D03*
Y264000D02*
D03*
Y261441D02*
D03*
D22*
X275500Y201043D02*
D03*
Y193957D02*
D03*
X284500Y201043D02*
D03*
Y193957D02*
D03*
X293500Y201043D02*
D03*
Y193957D02*
D03*
X125098Y67520D02*
D03*
Y60433D02*
D03*
X319500Y53043D02*
D03*
Y45957D02*
D03*
X338299Y45902D02*
D03*
Y52988D02*
D03*
X320000Y121043D02*
D03*
Y113957D02*
D03*
X346500D02*
D03*
Y121043D02*
D03*
D23*
X355457Y127000D02*
D03*
X362543D02*
D03*
D24*
X97000Y61047D02*
D03*
Y66953D02*
D03*
X44500Y107953D02*
D03*
Y102047D02*
D03*
X52000Y80547D02*
D03*
Y86453D02*
D03*
X58500Y80547D02*
D03*
Y86453D02*
D03*
X45500Y80547D02*
D03*
Y86453D02*
D03*
D25*
X106595Y67716D02*
D03*
Y60039D02*
D03*
X115847Y67815D02*
D03*
Y60138D02*
D03*
X37000Y108339D02*
D03*
Y100661D02*
D03*
X56000Y101161D02*
D03*
Y108839D02*
D03*
X191000Y339339D02*
D03*
Y331661D02*
D03*
X175500Y253161D02*
D03*
Y260839D02*
D03*
X172500Y305839D02*
D03*
Y298161D02*
D03*
X310500Y53339D02*
D03*
Y45661D02*
D03*
X328799Y45606D02*
D03*
Y53284D02*
D03*
X197500Y245839D02*
D03*
Y238161D02*
D03*
X209500Y245839D02*
D03*
Y238161D02*
D03*
X221000Y245839D02*
D03*
Y238161D02*
D03*
X310000Y121339D02*
D03*
Y113661D02*
D03*
X321500Y155661D02*
D03*
Y163339D02*
D03*
X329000Y121339D02*
D03*
Y113661D02*
D03*
X338000Y121339D02*
D03*
Y113661D02*
D03*
D26*
X53581Y117176D02*
D03*
X57419Y123824D02*
D03*
D27*
X180161Y318500D02*
D03*
X187839D02*
D03*
X162661Y288000D02*
D03*
X170339D02*
D03*
X300661Y159000D02*
D03*
X308339D02*
D03*
X300661Y151000D02*
D03*
X308339D02*
D03*
X300661Y143000D02*
D03*
X308339D02*
D03*
D28*
X58303Y60000D02*
D03*
D29*
X85004Y69055D02*
D03*
Y60000D02*
D03*
Y50945D02*
D03*
D30*
X73425Y85236D02*
D03*
Y138386D02*
D03*
D31*
X110555Y243184D02*
D03*
D32*
X224228Y312939D02*
D03*
X222949Y310723D02*
D03*
X221669Y308506D02*
D03*
X220390Y306290D02*
D03*
X219110Y304074D02*
D03*
X217830Y301858D02*
D03*
X216551Y299642D02*
D03*
X196772Y311061D02*
D03*
X198051Y313277D02*
D03*
X199331Y315493D02*
D03*
X200610Y317710D02*
D03*
X201890Y319926D02*
D03*
X203169Y322142D02*
D03*
X187170Y295142D02*
D03*
X185890Y292926D02*
D03*
X184610Y290710D02*
D03*
X183331Y288493D02*
D03*
X182051Y286277D02*
D03*
X180772Y284061D02*
D03*
X200551Y272642D02*
D03*
X201831Y274858D02*
D03*
X203110Y277074D02*
D03*
X204390Y279290D02*
D03*
X205669Y281506D02*
D03*
X206949Y283723D02*
D03*
X208228Y285939D02*
D03*
D33*
X204449Y324358D02*
D03*
X188449Y297358D02*
D03*
D34*
X227756Y286614D02*
D03*
Y292126D02*
D03*
X215551D02*
D03*
Y286614D02*
D03*
D35*
X233445Y244000D02*
D03*
Y240063D02*
D03*
X292500Y259748D02*
D03*
Y255811D02*
D03*
Y251874D02*
D03*
Y247937D02*
D03*
Y244000D02*
D03*
Y240063D02*
D03*
Y236126D02*
D03*
Y232189D02*
D03*
X233445D02*
D03*
Y236126D02*
D03*
D36*
X268878Y216441D02*
D03*
X272815D02*
D03*
X276752D02*
D03*
X280689D02*
D03*
X284626D02*
D03*
X249193D02*
D03*
X245256D02*
D03*
X241319D02*
D03*
Y275496D02*
D03*
X245256D02*
D03*
X249193D02*
D03*
X253130D02*
D03*
X257067D02*
D03*
X261004D02*
D03*
X264941D02*
D03*
X268878D02*
D03*
X272815D02*
D03*
X276752D02*
D03*
X280689D02*
D03*
X284626D02*
D03*
D37*
X354050Y158500D02*
D03*
X334950D02*
D03*
D38*
X359276Y137138D02*
D03*
D39*
X324453Y142150D02*
D03*
X322484D02*
D03*
X320516D02*
D03*
X318547D02*
D03*
Y130850D02*
D03*
X320516D02*
D03*
X322484D02*
D03*
X324453D02*
D03*
D40*
X327150Y133547D02*
D03*
Y135516D02*
D03*
Y137484D02*
D03*
Y139453D02*
D03*
X315850D02*
D03*
Y137484D02*
D03*
Y135516D02*
D03*
Y133547D02*
D03*
D41*
X301008Y128760D02*
D03*
Y132500D02*
D03*
Y136240D02*
D03*
X291992D02*
D03*
Y128760D02*
D03*
D42*
X368299Y56173D02*
D03*
Y77827D02*
D03*
X355701D02*
D03*
Y56173D02*
D03*
D43*
X339543Y65000D02*
D03*
D44*
Y70000D02*
D03*
Y75000D02*
D03*
Y80000D02*
D03*
X319457D02*
D03*
Y75000D02*
D03*
Y70000D02*
D03*
Y65000D02*
D03*
M02*
